<svg xmlns="http://www.w3.org/2000/svg" version="1.1" width="242.7mm" height="186.45mm" viewBox = " 0 0 859.961337 660.6501495" >
<!-- Front--> 
<g transform="translate(22.5000185, 22.5000185) " > 
<polygon style="stroke:#000000; fill:none; stroke-width:0.90000074" points="0, 0 37.204755, 0 37.204755, 10.62993 74.40951, 10.62993 74.40951, 0 102.75599, 0 102.75599, 10.62993 139.96074499999997, 10.62993 139.96074499999997, 0 177.1655, 0 177.1655, 31.0039625 166.53557, 31.0039625 166.53557, 62.007925 177.1655, 62.007925 177.1655, 93.0118875 166.53557, 93.0118875 166.53557, 124.01585 177.1655, 124.01585 177.1655, 155.0198125 139.96074499999997, 155.0198125 139.96074499999997, 144.3898825 102.75599, 144.3898825 102.75599, 155.0198125 74.40951, 155.0198125 74.40951, 144.3898825 37.204755, 144.3898825 37.204755, 155.0198125 0, 155.0198125 0, 124.01585 10.62993, 124.01585 10.62993, 93.0118875 0, 93.0118875 0, 62.007925 10.62993, 62.007925 10.62993, 31.0039625 0, 31.0039625 "/> 
 
 <g transform="scale(0.02197267431640625)" ><g transform="translate(-1233.5,819)" ><path transform="translate(4031.4960629921266, 3527.5590551181103)rotate(180) scale(-1, 1)" stroke-width="0" fill="#0000FF" d="M1120 0l-182 465h-586l-180 -465h-172l578 1468h143l575 -1468h-176zM885 618l-170 453.001c-22 57.333 -44.667 127.666 -68 210.999c-14.667 -64 -35.667 -134.333 -63 -211l-172 -453h473z"/>
<path transform="translate(5327.496062992126, 3527.5590551181103)rotate(180) scale(-1, 1)" stroke-width="0" fill="#0000FF" d="M715 0h-162.001v1042c0 86.667 2.66699 168.667 8 246c-14 -14 -29.667 -28.667 -47 -44s-96.666 -80.333 -237.999 -195l-88 114l387 299h140v-1462z"/>
</g></g> 
</g>
<!-- Back--> 
<g transform="translate(199.6655185, 22.5000185) " > 
<polygon style="stroke:#000000; fill:none; stroke-width:0.90000074" points="0, 0 37.204755, 0 37.204755, 10.62993 74.40951, 10.62993 74.40951, 0 102.75599, 0 102.75599, 10.62993 139.96074499999997, 10.62993 139.96074499999997, 0 177.1655, 0 177.1655, 31.0039625 166.53557, 31.0039625 166.53557, 62.007925 177.1655, 62.007925 177.1655, 93.0118875 166.53557, 93.0118875 166.53557, 124.01585 177.1655, 124.01585 177.1655, 155.0198125 139.96074499999997, 155.0198125 139.96074499999997, 144.3898825 102.75599, 144.3898825 102.75599, 155.0198125 74.40951, 155.0198125 74.40951, 144.3898825 37.204755, 144.3898825 37.204755, 155.0198125 0, 155.0198125 0, 124.01585 10.62993, 124.01585 10.62993, 93.0118875 0, 93.0118875 0, 62.007925 10.62993, 62.007925 10.62993, 31.0039625 0, 31.0039625 "/> 
</g>
<!-- Left--> 
<g transform="translate(376.83101849999997, 22.5000185) " > 
<polygon style="stroke:#000000; fill:none; stroke-width:0.90000074" points="10.62993, 0 37.204755, 0 37.204755, 10.62993 74.40951, 10.62993 74.40951, 0 102.75599, 0 102.75599, 10.62993 131.10246999999998, 10.62993 131.10246999999998, 0 159.44895, 0 159.44895, 10.62993 187.79543, 10.62993 187.79543, 0 216.14191, 0 216.14191, 10.62993 244.48838999999998, 10.62993 244.48838999999998, 0 272.83487, 0 272.83487, 10.62993 301.18135, 10.62993 301.18135, 0 329.52783, 0 329.52783, 10.62993 357.87431, 10.62993 357.87431, 0 386.22079, 0 386.22079, 10.62993 423.425545, 10.62993 423.425545, 0 450.00037, 0 450.00037, 31.0039625 460.6303, 31.0039625 460.6303, 62.007925 450.00037, 62.007925 450.00037, 93.0118875 460.6303, 93.0118875 460.6303, 124.01585 450.00037, 124.01585 450.00037000000003, 155.0198125 423.425545, 155.0198125 423.425545, 144.3898825 386.22079, 144.3898825 386.22079, 155.0198125 357.87431, 155.0198125 357.87431, 144.3898825 329.52783, 144.3898825 329.52783, 155.0198125 301.18135, 155.0198125 301.18135, 144.3898825 272.83487, 144.3898825 272.83487, 155.0198125 244.48838999999998, 155.0198125 244.48838999999998, 144.3898825 216.14191, 144.3898825 216.14191, 155.0198125 187.79543, 155.0198125 187.79543, 144.3898825 159.44895, 144.3898825 159.44895, 155.0198125 131.10246999999998, 155.0198125 131.10246999999998, 144.3898825 102.75599, 144.3898825 102.75599, 155.0198125 74.40951, 155.0198125 74.40951, 144.3898825 37.204755, 144.3898825 37.204755, 155.0198125 10.62993, 155.0198125 10.62993, 124.01585 0, 124.01585 0, 93.0118875 10.62993, 93.0118875 10.62993, 62.007925 0, 62.007925 0, 31.0039625 10.62993, 31.0039625 "/> 
</g>
<!-- Right--> 
<g transform="translate(376.83101849999997, 177.519831) " > 
<polygon style="stroke:#000000; fill:none; stroke-width:0.90000074" points="10.62993, 0 37.204755, 0 37.204755, 10.62993 74.40951, 10.62993 74.40951, 0 102.75599, 0 102.75599, 10.62993 131.10246999999998, 10.62993 131.10246999999998, 0 159.44895, 0 159.44895, 10.62993 187.79543, 10.62993 187.79543, 0 216.14191, 0 216.14191, 10.62993 244.48838999999998, 10.62993 244.48838999999998, 0 272.83487, 0 272.83487, 10.62993 301.18135, 10.62993 301.18135, 0 329.52783, 0 329.52783, 10.62993 357.87431, 10.62993 357.87431, 0 386.22079, 0 386.22079, 10.62993 423.425545, 10.62993 423.425545, 0 450.00037, 0 450.00037, 31.0039625 460.6303, 31.0039625 460.6303, 62.007925 450.00037, 62.007925 450.00037, 93.0118875 460.6303, 93.0118875 460.6303, 124.01585 450.00037, 124.01585 450.00037000000003, 155.0198125 423.425545, 155.0198125 423.425545, 144.3898825 386.22079, 144.3898825 386.22079, 155.0198125 357.87431, 155.0198125 357.87431, 144.3898825 329.52783, 144.3898825 329.52783, 155.0198125 301.18135, 155.0198125 301.18135, 144.3898825 272.83487, 144.3898825 272.83487, 155.0198125 244.48838999999998, 155.0198125 244.48838999999998, 144.3898825 216.14191, 144.3898825 216.14191, 155.0198125 187.79543, 155.0198125 187.79543, 144.3898825 159.44895, 144.3898825 159.44895, 155.0198125 131.10246999999998, 155.0198125 131.10246999999998, 144.3898825 102.75599, 144.3898825 102.75599, 155.0198125 74.40951, 155.0198125 74.40951, 144.3898825 37.204755, 144.3898825 37.204755, 155.0198125 10.62993, 155.0198125 10.62993, 124.01585 0, 124.01585 0, 93.0118875 10.62993, 93.0118875 10.62993, 62.007925 0, 62.007925 0, 31.0039625 10.62993, 31.0039625 "/> 
</g>
<!-- Top--> 
<g transform="translate(22.5000185, 177.519831) " > 
<polygon style="stroke:#000000; fill:none; stroke-width:0.90000074" points="10.62993, 10.62993 37.204755, 10.62993 37.204755, 0 74.40951, 0 74.40951, 10.62993 102.75599, 10.62993 102.75599, 0 139.96074499999997, 0 139.96074499999997, 10.62993 166.53557, 10.62993 166.53557, 37.204755 177.1655, 37.204755 177.1655, 74.40951 166.53557, 74.40951 166.53557, 102.75599 177.1655, 102.75599 177.1655, 131.10246999999998 166.53557, 131.10246999999998 166.53557, 159.44895 177.1655, 159.44895 177.1655, 187.79543 166.53557, 187.79543 166.53557, 216.14191 177.1655, 216.14191 177.1655, 244.48838999999998 166.53557, 244.48838999999998 166.53557, 272.83487 177.1655, 272.83487 177.1655, 301.18135 166.53557, 301.18135 166.53557, 329.52783 177.1655, 329.52783 177.1655, 357.87431 166.53557, 357.87431 166.53557, 386.22079 177.1655, 386.22079 177.1655, 423.425545 166.53557, 423.425545 166.53557, 450.00037 139.96074499999997, 450.00037 139.96074499999997, 460.6303 102.75599, 460.6303 102.75599, 450.00037 74.40951, 450.00037 74.40951, 460.6303 37.204755, 460.6303 37.204755, 450.00037 10.62993, 450.00037000000003 10.62993, 423.425545 0, 423.425545 0, 386.22079 10.62993, 386.22079 10.62993, 357.87431 0, 357.87431 0, 329.52783 10.62993, 329.52783 10.62993, 301.18135 0, 301.18135 0, 272.83487 10.62993, 272.83487 10.62993, 244.48838999999998 0, 244.48838999999998 0, 216.14191 10.62993, 216.14191 10.62993, 187.79543 0, 187.79543 0, 159.44895 10.62993, 159.44895 10.62993, 131.10246999999998 0, 131.10246999999998 0, 102.75599 10.62993, 102.75599 10.62993, 74.40951 0, 74.40951 0, 37.204755 10.62993, 37.204755 "/> 
</g>
<!-- Bottom--> 
<g transform="translate(199.6655185, 177.519831) " > 
<polygon style="stroke:#000000; fill:none; stroke-width:0.90000074" points="10.62993, 10.62993 37.204755, 10.62993 37.204755, 0 74.40951, 0 74.40951, 10.62993 102.75599, 10.62993 102.75599, 0 139.96074499999997, 0 139.96074499999997, 10.62993 166.53557, 10.62993 166.53557, 37.204755 177.1655, 37.204755 177.1655, 74.40951 166.53557, 74.40951 166.53557, 102.75599 177.1655, 102.75599 177.1655, 131.10246999999998 166.53557, 131.10246999999998 166.53557, 159.44895 177.1655, 159.44895 177.1655, 187.79543 166.53557, 187.79543 166.53557, 216.14191 177.1655, 216.14191 177.1655, 244.48838999999998 166.53557, 244.48838999999998 166.53557, 272.83487 177.1655, 272.83487 177.1655, 301.18135 166.53557, 301.18135 166.53557, 329.52783 177.1655, 329.52783 177.1655, 357.87431 166.53557, 357.87431 166.53557, 386.22079 177.1655, 386.22079 177.1655, 423.425545 166.53557, 423.425545 166.53557, 450.00037 139.96074499999997, 450.00037 139.96074499999997, 460.6303 102.75599, 460.6303 102.75599, 450.00037 74.40951, 450.00037 74.40951, 460.6303 37.204755, 460.6303 37.204755, 450.00037 10.62993, 450.00037000000003 10.62993, 423.425545 0, 423.425545 0, 386.22079 10.62993, 386.22079 10.62993, 357.87431 0, 357.87431 0, 329.52783 10.62993, 329.52783 10.62993, 301.18135 0, 301.18135 0, 272.83487 10.62993, 272.83487 10.62993, 244.48838999999998 0, 244.48838999999998 0, 216.14191 10.62993, 216.14191 10.62993, 187.79543 0, 187.79543 0, 159.44895 10.62993, 159.44895 10.62993, 131.10246999999998 0, 131.10246999999998 0, 102.75599 10.62993, 102.75599 10.62993, 74.40951 0, 74.40951 0, 37.204755 10.62993, 37.204755 "/> 
</g></svg>