999
DXF created by Inkscape
  0
SECTION
  2
HEADER
  9
$ACADVER
  1
AC1014
  9
$HANDSEED
  5
FFFF
  9
$MEASUREMENT
 70
     1
  0
ENDSEC
  0
SECTION
  2
TABLES
  0
TABLE
  2
VPORT
  5
8
330
0
100
AcDbSymbolTable
 70
     4
  0
VPORT
  5
2E
330
8
100
AcDbSymbolTableRecord
100
AcDbViewportTableRecord
  2
*ACTIVE
 70
     0
 10
0.0
 20
0.0
 11
1.0
 21
1.0
 12
210.0
 22
148.5
 13
0.0
 23
0.0
 14
10.0
 24
10.0
 15
10.0
 25
10.0
 16
0.0
 26
0.0
 36
1.0
 17
0.0
 27
0.0
 37
0.0
 40
341.0
 41
1.24
 42
50.0
 43
0.0
 44
0.0
 50
0.0
 51
0.0
 71
     0
 72
   100
 73
     1
 74
     3
 75
     0
 76
     0
 77
     0
 78
     0
  0
ENDTAB
  0
TABLE
  2
LTYPE
  5
5
330
0
100
AcDbSymbolTable
 70
     1
  0
LTYPE
  5
14
330
5
100
AcDbSymbolTableRecord
100
AcDbLinetypeTableRecord
  2
BYBLOCK
 70
     0
  3

 72
    65
 73
     0
 40
0.0
  0
LTYPE
  5
15
330
5
100
AcDbSymbolTableRecord
100
AcDbLinetypeTableRecord
  2
BYLAYER
 70
     0
  3

 72
    65
 73
     0
 40
0.0
  0
LTYPE
  5
16
330
5
100
AcDbSymbolTableRecord
100
AcDbLinetypeTableRecord
  2
CONTINUOUS
 70
     0
  3
Solid line
 72
    65
 73
     0
 40
0.0
  0
ENDTAB
  0
TABLE
  2
LAYER
  5
2
100
AcDbSymbolTable
 70
1
  0
LAYER
  5
50
100
AcDbSymbolTableRecord
100
AcDbLayerTableRecord
  2
0
 70
0
  6
CONTINUOUS
  0
ENDTAB
  0
TABLE
  2
STYLE
  5
3
330
0
100
AcDbSymbolTable
 70
     1
  0
STYLE
  5
11
330
3
100
AcDbSymbolTableRecord
100
AcDbTextStyleTableRecord
  2
STANDARD
 70
     0
 40
0.0
 41
1.0
 50
0.0
 71
     0
 42
2.5
  3
txt
  4

  0
ENDTAB
  0
TABLE
  2
VIEW
  5
6
330
0
100
AcDbSymbolTable
 70
     0
  0
ENDTAB
  0
TABLE
  2
UCS
  5
7
330
0
100
AcDbSymbolTable
 70
     0
  0
ENDTAB
  0
TABLE
  2
APPID
  5
9
330
0
100
AcDbSymbolTable
 70
     2
  0
APPID
  5
12
330
9
100
AcDbSymbolTableRecord
100
AcDbRegAppTableRecord
  2
ACAD
 70
     0
  0
ENDTAB
  0
TABLE
  2
DIMSTYLE
  5
A
330
0
100
AcDbSymbolTable
 70
     1
  0
DIMSTYLE
105
27
330
A
100
AcDbSymbolTableRecord
100
AcDbDimStyleTableRecord
  2
ISO-25
 70
     0
  3

  4

  5

  6

  7

 40
1.0
 41
2.5
 42
0.625
 43
3.75
 44
1.25
 45
0.0
 46
0.0
 47
0.0
 48
0.0
140
2.5
141
2.5
142
0.0
143
0.03937007874016
144
1.0
145
0.0
146
1.0
147
0.625
 71
     0
 72
     0
 73
     0
 74
     0
 75
     0
 76
     0
 77
     1
 78
     8
170
     0
171
     3
172
     1
173
     0
174
     0
175
     0
176
     0
177
     0
178
     0
270
     2
271
     2
272
     2
273
     2
274
     3
340
11
275
     0
280
     0
281
     0
282
     0
283
     0
284
     8
285
     0
286
     0
287
     3
288
     0
  0
ENDTAB
  0
TABLE
  2
BLOCK_RECORD
  5
1
330
0
100
AcDbSymbolTable
 70
     1
  0
BLOCK_RECORD
  5
1F
330
1
100
AcDbSymbolTableRecord
100
AcDbBlockTableRecord
  2
*MODEL_SPACE
  0
BLOCK_RECORD
  5
1B
330
1
100
AcDbSymbolTableRecord
100
AcDbBlockTableRecord
  2
*PAPER_SPACE
  0
ENDTAB
  0
ENDSEC
  0
SECTION
  2
BLOCKS
  0
BLOCK
  5
20
330
1F
100
AcDbEntity
  8
0
100
AcDbBlockBegin
  2
*MODEL_SPACE
 70
     0
 10
0.0
 20
0.0
 30
0.0
  3
*MODEL_SPACE
  1

  0
ENDBLK
  5
21
330
1F
100
AcDbEntity
  8
0
100
AcDbBlockEnd
  0
BLOCK
  5
1C
330
1B
100
AcDbEntity
 67
     1
  8
0
100
AcDbBlockBegin
  2
*PAPER_SPACE
  1

  0
ENDBLK
  5
1D
330
1B
100
AcDbEntity
 67
     1
  8
0
100
AcDbBlockEnd
  0
ENDSEC
  0
SECTION
  2
ENTITIES
  0
LINE
  5
100
100
AcDbEntity
  8
0
 62
7
100
AcDbLine
 10
-28.900232
 20
188.594120
 30
0.0
 11
-36.400238
 21
188.594120
 31
0.0
  0
LINE
  5
101
100
AcDbEntity
  8
0
 62
7
100
AcDbLine
 10
-36.400238
 20
188.594120
 30
0.0
 11
-36.400238
 21
179.844113
 31
0.0
  0
LINE
  5
102
100
AcDbEntity
  8
0
 62
7
100
AcDbLine
 10
-36.400238
 20
179.844113
 30
0.0
 11
-39.400241
 21
179.844113
 31
0.0
  0
LINE
  5
103
100
AcDbEntity
  8
0
 62
7
100
AcDbLine
 10
-39.400241
 20
179.844113
 30
0.0
 11
-39.400241
 21
171.094105
 31
0.0
  0
LINE
  5
104
100
AcDbEntity
  8
0
 62
7
100
AcDbLine
 10
-39.400241
 20
171.094105
 30
0.0
 11
-36.400238
 21
171.094105
 31
0.0
  0
LINE
  5
105
100
AcDbEntity
  8
0
 62
7
100
AcDbLine
 10
-36.400238
 20
171.094105
 30
0.0
 11
-36.400238
 21
162.344098
 31
0.0
  0
LINE
  5
106
100
AcDbEntity
  8
0
 62
7
100
AcDbLine
 10
-36.400238
 20
162.344098
 30
0.0
 11
-39.400241
 21
162.344098
 31
0.0
  0
LINE
  5
107
100
AcDbEntity
  8
0
 62
7
100
AcDbLine
 10
-39.400241
 20
162.344098
 30
0.0
 11
-39.400241
 21
153.594091
 31
0.0
  0
LINE
  5
108
100
AcDbEntity
  8
0
 62
7
100
AcDbLine
 10
-39.400241
 20
153.594091
 30
0.0
 11
-36.400238
 21
153.594091
 31
0.0
  0
LINE
  5
109
100
AcDbEntity
  8
0
 62
7
100
AcDbLine
 10
-36.400238
 20
153.594091
 30
0.0
 11
-36.400238
 21
144.844085
 31
0.0
  0
LINE
  5
10a
100
AcDbEntity
  8
0
 62
7
100
AcDbLine
 10
-36.400238
 20
144.844085
 30
0.0
 11
-28.900232
 21
144.844085
 31
0.0
  0
LINE
  5
10b
100
AcDbEntity
  8
0
 62
7
100
AcDbLine
 10
-28.900232
 20
144.844085
 30
0.0
 11
-28.900232
 21
147.844087
 31
0.0
  0
LINE
  5
10c
100
AcDbEntity
  8
0
 62
7
100
AcDbLine
 10
-28.900232
 20
147.844087
 30
0.0
 11
-18.400223
 21
147.844087
 31
0.0
  0
LINE
  5
10d
100
AcDbEntity
  8
0
 62
7
100
AcDbLine
 10
-18.400223
 20
147.844087
 30
0.0
 11
-18.400223
 21
144.844085
 31
0.0
  0
LINE
  5
10e
100
AcDbEntity
  8
0
 62
7
100
AcDbLine
 10
-18.400223
 20
144.844085
 30
0.0
 11
-10.400217
 21
144.844085
 31
0.0
  0
LINE
  5
10f
100
AcDbEntity
  8
0
 62
7
100
AcDbLine
 10
-10.400217
 20
144.844085
 30
0.0
 11
-10.400217
 21
147.844087
 31
0.0
  0
LINE
  5
110
100
AcDbEntity
  8
0
 62
7
100
AcDbLine
 10
-10.400217
 20
147.844087
 30
0.0
 11
-2.400210
 21
147.844087
 31
0.0
  0
LINE
  5
111
100
AcDbEntity
  8
0
 62
7
100
AcDbLine
 10
-2.400210
 20
147.844087
 30
0.0
 11
-2.400210
 21
144.844085
 31
0.0
  0
LINE
  5
112
100
AcDbEntity
  8
0
 62
7
100
AcDbLine
 10
-2.400210
 20
144.844085
 30
0.0
 11
5.599796
 21
144.844085
 31
0.0
  0
LINE
  5
113
100
AcDbEntity
  8
0
 62
7
100
AcDbLine
 10
5.599796
 20
144.844085
 30
0.0
 11
5.599796
 21
147.844087
 31
0.0
  0
LINE
  5
114
100
AcDbEntity
  8
0
 62
7
100
AcDbLine
 10
5.599796
 20
147.844087
 30
0.0
 11
13.599803
 21
147.844087
 31
0.0
  0
LINE
  5
115
100
AcDbEntity
  8
0
 62
7
100
AcDbLine
 10
13.599803
 20
147.844087
 30
0.0
 11
13.599803
 21
144.844085
 31
0.0
  0
LINE
  5
116
100
AcDbEntity
  8
0
 62
7
100
AcDbLine
 10
13.599803
 20
144.844085
 30
0.0
 11
21.599810
 21
144.844085
 31
0.0
  0
LINE
  5
117
100
AcDbEntity
  8
0
 62
7
100
AcDbLine
 10
21.599810
 20
144.844085
 30
0.0
 11
21.599810
 21
147.844087
 31
0.0
  0
LINE
  5
118
100
AcDbEntity
  8
0
 62
7
100
AcDbLine
 10
21.599810
 20
147.844087
 30
0.0
 11
29.599816
 21
147.844087
 31
0.0
  0
LINE
  5
119
100
AcDbEntity
  8
0
 62
7
100
AcDbLine
 10
29.599816
 20
147.844087
 30
0.0
 11
29.599816
 21
144.844085
 31
0.0
  0
LINE
  5
11a
100
AcDbEntity
  8
0
 62
7
100
AcDbLine
 10
29.599816
 20
144.844085
 30
0.0
 11
37.599823
 21
144.844085
 31
0.0
  0
LINE
  5
11b
100
AcDbEntity
  8
0
 62
7
100
AcDbLine
 10
37.599823
 20
144.844085
 30
0.0
 11
37.599823
 21
147.844087
 31
0.0
  0
LINE
  5
11c
100
AcDbEntity
  8
0
 62
7
100
AcDbLine
 10
37.599823
 20
147.844087
 30
0.0
 11
45.599829
 21
147.844087
 31
0.0
  0
LINE
  5
11d
100
AcDbEntity
  8
0
 62
7
100
AcDbLine
 10
45.599829
 20
147.844087
 30
0.0
 11
45.599829
 21
144.844085
 31
0.0
  0
LINE
  5
11e
100
AcDbEntity
  8
0
 62
7
100
AcDbLine
 10
45.599829
 20
144.844085
 30
0.0
 11
53.599836
 21
144.844085
 31
0.0
  0
LINE
  5
11f
100
AcDbEntity
  8
0
 62
7
100
AcDbLine
 10
53.599836
 20
144.844085
 30
0.0
 11
53.599836
 21
147.844087
 31
0.0
  0
LINE
  5
120
100
AcDbEntity
  8
0
 62
7
100
AcDbLine
 10
53.599836
 20
147.844087
 30
0.0
 11
61.599842
 21
147.844087
 31
0.0
  0
LINE
  5
121
100
AcDbEntity
  8
0
 62
7
100
AcDbLine
 10
61.599842
 20
147.844087
 30
0.0
 11
61.599842
 21
144.844085
 31
0.0
  0
LINE
  5
122
100
AcDbEntity
  8
0
 62
7
100
AcDbLine
 10
61.599842
 20
144.844085
 30
0.0
 11
69.599849
 21
144.844085
 31
0.0
  0
LINE
  5
123
100
AcDbEntity
  8
0
 62
7
100
AcDbLine
 10
69.599849
 20
144.844085
 30
0.0
 11
69.599849
 21
147.844087
 31
0.0
  0
LINE
  5
124
100
AcDbEntity
  8
0
 62
7
100
AcDbLine
 10
69.599849
 20
147.844087
 30
0.0
 11
80.099856
 21
147.844087
 31
0.0
  0
LINE
  5
125
100
AcDbEntity
  8
0
 62
7
100
AcDbLine
 10
80.099856
 20
147.844087
 30
0.0
 11
80.099856
 21
144.844085
 31
0.0
  0
LINE
  5
126
100
AcDbEntity
  8
0
 62
7
100
AcDbLine
 10
80.099856
 20
144.844085
 30
0.0
 11
87.599864
 21
144.844085
 31
0.0
  0
LINE
  5
127
100
AcDbEntity
  8
0
 62
7
100
AcDbLine
 10
87.599864
 20
144.844085
 30
0.0
 11
87.599864
 21
153.594091
 31
0.0
  0
LINE
  5
128
100
AcDbEntity
  8
0
 62
7
100
AcDbLine
 10
87.599864
 20
153.594091
 30
0.0
 11
90.599866
 21
153.594091
 31
0.0
  0
LINE
  5
129
100
AcDbEntity
  8
0
 62
7
100
AcDbLine
 10
90.599866
 20
153.594091
 30
0.0
 11
90.599866
 21
162.344098
 31
0.0
  0
LINE
  5
12a
100
AcDbEntity
  8
0
 62
7
100
AcDbLine
 10
90.599866
 20
162.344098
 30
0.0
 11
87.599864
 21
162.344098
 31
0.0
  0
LINE
  5
12b
100
AcDbEntity
  8
0
 62
7
100
AcDbLine
 10
87.599864
 20
162.344098
 30
0.0
 11
87.599864
 21
171.094105
 31
0.0
  0
LINE
  5
12c
100
AcDbEntity
  8
0
 62
7
100
AcDbLine
 10
87.599864
 20
171.094105
 30
0.0
 11
90.599866
 21
171.094105
 31
0.0
  0
LINE
  5
12d
100
AcDbEntity
  8
0
 62
7
100
AcDbLine
 10
90.599866
 20
171.094105
 30
0.0
 11
90.599866
 21
179.844113
 31
0.0
  0
LINE
  5
12e
100
AcDbEntity
  8
0
 62
7
100
AcDbLine
 10
90.599866
 20
179.844113
 30
0.0
 11
87.599864
 21
179.844113
 31
0.0
  0
LINE
  5
12f
100
AcDbEntity
  8
0
 62
7
100
AcDbLine
 10
87.599864
 20
179.844113
 30
0.0
 11
87.599864
 21
188.594120
 31
0.0
  0
LINE
  5
130
100
AcDbEntity
  8
0
 62
7
100
AcDbLine
 10
87.599864
 20
188.594120
 30
0.0
 11
80.099856
 21
188.594117
 31
0.0
  0
LINE
  5
131
100
AcDbEntity
  8
0
 62
7
100
AcDbLine
 10
80.099856
 20
188.594117
 30
0.0
 11
69.599849
 21
188.594120
 31
0.0
  0
LINE
  5
132
100
AcDbEntity
  8
0
 62
7
100
AcDbLine
 10
69.599849
 20
188.594120
 30
0.0
 11
61.599842
 21
188.594117
 31
0.0
  0
LINE
  5
133
100
AcDbEntity
  8
0
 62
7
100
AcDbLine
 10
61.599842
 20
188.594117
 30
0.0
 11
53.599836
 21
188.594120
 31
0.0
  0
LINE
  5
134
100
AcDbEntity
  8
0
 62
7
100
AcDbLine
 10
53.599836
 20
188.594120
 30
0.0
 11
45.599829
 21
188.594117
 31
0.0
  0
LINE
  5
135
100
AcDbEntity
  8
0
 62
7
100
AcDbLine
 10
45.599829
 20
188.594117
 30
0.0
 11
37.599823
 21
188.594120
 31
0.0
  0
LINE
  5
136
100
AcDbEntity
  8
0
 62
7
100
AcDbLine
 10
37.599823
 20
188.594120
 30
0.0
 11
29.599816
 21
188.594117
 31
0.0
  0
LINE
  5
137
100
AcDbEntity
  8
0
 62
7
100
AcDbLine
 10
29.599816
 20
188.594117
 30
0.0
 11
21.599810
 21
188.594120
 31
0.0
  0
LINE
  5
138
100
AcDbEntity
  8
0
 62
7
100
AcDbLine
 10
21.599810
 20
188.594120
 30
0.0
 11
13.599803
 21
188.594117
 31
0.0
  0
LINE
  5
139
100
AcDbEntity
  8
0
 62
7
100
AcDbLine
 10
13.599803
 20
188.594117
 30
0.0
 11
5.599796
 21
188.594120
 31
0.0
  0
LINE
  5
13a
100
AcDbEntity
  8
0
 62
7
100
AcDbLine
 10
5.599796
 20
188.594120
 30
0.0
 11
-2.400210
 21
188.594117
 31
0.0
  0
LINE
  5
13b
100
AcDbEntity
  8
0
 62
7
100
AcDbLine
 10
-2.400210
 20
188.594117
 30
0.0
 11
-10.400217
 21
188.594120
 31
0.0
  0
LINE
  5
13c
100
AcDbEntity
  8
0
 62
7
100
AcDbLine
 10
-10.400217
 20
188.594120
 30
0.0
 11
-18.400223
 21
188.594117
 31
0.0
  0
LINE
  5
13d
100
AcDbEntity
  8
0
 62
7
100
AcDbLine
 10
-18.400223
 20
188.594117
 30
0.0
 11
-28.900232
 21
188.594120
 31
0.0
  0
LINE
  5
13e
100
AcDbEntity
  8
0
 62
7
100
AcDbLine
 10
-28.900232
 20
188.594120
 30
0.0
 11
-28.900232
 21
188.594120
 31
0.0
  0
LINE
  5
13f
100
AcDbEntity
  8
0
 62
7
100
AcDbLine
 10
261.338361
 20
144.736874
 30
0.0
 11
268.838369
 21
144.736874
 31
0.0
  0
LINE
  5
140
100
AcDbEntity
  8
0
 62
7
100
AcDbLine
 10
268.838369
 20
144.736874
 30
0.0
 11
268.838369
 21
153.486880
 31
0.0
  0
LINE
  5
141
100
AcDbEntity
  8
0
 62
7
100
AcDbLine
 10
268.838369
 20
153.486880
 30
0.0
 11
271.838371
 21
153.486880
 31
0.0
  0
LINE
  5
142
100
AcDbEntity
  8
0
 62
7
100
AcDbLine
 10
271.838371
 20
153.486880
 30
0.0
 11
271.838371
 21
162.236887
 31
0.0
  0
LINE
  5
143
100
AcDbEntity
  8
0
 62
7
100
AcDbLine
 10
271.838371
 20
162.236887
 30
0.0
 11
268.838369
 21
162.236887
 31
0.0
  0
LINE
  5
144
100
AcDbEntity
  8
0
 62
7
100
AcDbLine
 10
268.838369
 20
162.236887
 30
0.0
 11
268.838369
 21
170.986894
 31
0.0
  0
LINE
  5
145
100
AcDbEntity
  8
0
 62
7
100
AcDbLine
 10
268.838369
 20
170.986894
 30
0.0
 11
271.838371
 21
170.986894
 31
0.0
  0
LINE
  5
146
100
AcDbEntity
  8
0
 62
7
100
AcDbLine
 10
271.838371
 20
170.986894
 30
0.0
 11
271.838371
 21
179.736902
 31
0.0
  0
LINE
  5
147
100
AcDbEntity
  8
0
 62
7
100
AcDbLine
 10
271.838371
 20
179.736902
 30
0.0
 11
268.838369
 21
179.736902
 31
0.0
  0
LINE
  5
148
100
AcDbEntity
  8
0
 62
7
100
AcDbLine
 10
268.838369
 20
179.736902
 30
0.0
 11
268.838369
 21
188.486909
 31
0.0
  0
LINE
  5
149
100
AcDbEntity
  8
0
 62
7
100
AcDbLine
 10
268.838369
 20
188.486909
 30
0.0
 11
261.338361
 21
188.486906
 31
0.0
  0
LINE
  5
14a
100
AcDbEntity
  8
0
 62
7
100
AcDbLine
 10
261.338361
 20
188.486906
 30
0.0
 11
250.838354
 21
188.486909
 31
0.0
  0
LINE
  5
14b
100
AcDbEntity
  8
0
 62
7
100
AcDbLine
 10
250.838354
 20
188.486909
 30
0.0
 11
242.838347
 21
188.486906
 31
0.0
  0
LINE
  5
14c
100
AcDbEntity
  8
0
 62
7
100
AcDbLine
 10
242.838347
 20
188.486906
 30
0.0
 11
234.838341
 21
188.486909
 31
0.0
  0
LINE
  5
14d
100
AcDbEntity
  8
0
 62
7
100
AcDbLine
 10
234.838341
 20
188.486909
 30
0.0
 11
226.838334
 21
188.486906
 31
0.0
  0
LINE
  5
14e
100
AcDbEntity
  8
0
 62
7
100
AcDbLine
 10
226.838334
 20
188.486906
 30
0.0
 11
218.838328
 21
188.486909
 31
0.0
  0
LINE
  5
14f
100
AcDbEntity
  8
0
 62
7
100
AcDbLine
 10
218.838328
 20
188.486909
 30
0.0
 11
210.838321
 21
188.486906
 31
0.0
  0
LINE
  5
150
100
AcDbEntity
  8
0
 62
7
100
AcDbLine
 10
210.838321
 20
188.486906
 30
0.0
 11
202.838315
 21
188.486909
 31
0.0
  0
LINE
  5
151
100
AcDbEntity
  8
0
 62
7
100
AcDbLine
 10
202.838315
 20
188.486909
 30
0.0
 11
194.838308
 21
188.486906
 31
0.0
  0
LINE
  5
152
100
AcDbEntity
  8
0
 62
7
100
AcDbLine
 10
194.838308
 20
188.486906
 30
0.0
 11
186.838301
 21
188.486909
 31
0.0
  0
LINE
  5
153
100
AcDbEntity
  8
0
 62
7
100
AcDbLine
 10
186.838301
 20
188.486909
 30
0.0
 11
178.838295
 21
188.486906
 31
0.0
  0
LINE
  5
154
100
AcDbEntity
  8
0
 62
7
100
AcDbLine
 10
178.838295
 20
188.486906
 30
0.0
 11
170.838288
 21
188.486909
 31
0.0
  0
LINE
  5
155
100
AcDbEntity
  8
0
 62
7
100
AcDbLine
 10
170.838288
 20
188.486909
 30
0.0
 11
162.838282
 21
188.486906
 31
0.0
  0
LINE
  5
156
100
AcDbEntity
  8
0
 62
7
100
AcDbLine
 10
162.838282
 20
188.486906
 30
0.0
 11
152.338273
 21
188.486909
 31
0.0
  0
LINE
  5
157
100
AcDbEntity
  8
0
 62
7
100
AcDbLine
 10
152.338273
 20
188.486909
 30
0.0
 11
144.838267
 21
188.486909
 31
0.0
  0
LINE
  5
158
100
AcDbEntity
  8
0
 62
7
100
AcDbLine
 10
144.838267
 20
188.486909
 30
0.0
 11
144.838267
 21
179.736902
 31
0.0
  0
LINE
  5
159
100
AcDbEntity
  8
0
 62
7
100
AcDbLine
 10
144.838267
 20
179.736902
 30
0.0
 11
141.838264
 21
179.736902
 31
0.0
  0
LINE
  5
15a
100
AcDbEntity
  8
0
 62
7
100
AcDbLine
 10
141.838264
 20
179.736902
 30
0.0
 11
141.838264
 21
170.986894
 31
0.0
  0
LINE
  5
15b
100
AcDbEntity
  8
0
 62
7
100
AcDbLine
 10
141.838264
 20
170.986894
 30
0.0
 11
144.838267
 21
170.986894
 31
0.0
  0
LINE
  5
15c
100
AcDbEntity
  8
0
 62
7
100
AcDbLine
 10
144.838267
 20
170.986894
 30
0.0
 11
144.838267
 21
162.236887
 31
0.0
  0
LINE
  5
15d
100
AcDbEntity
  8
0
 62
7
100
AcDbLine
 10
144.838267
 20
162.236887
 30
0.0
 11
141.838264
 21
162.236887
 31
0.0
  0
LINE
  5
15e
100
AcDbEntity
  8
0
 62
7
100
AcDbLine
 10
141.838264
 20
162.236887
 30
0.0
 11
141.838264
 21
153.486880
 31
0.0
  0
LINE
  5
15f
100
AcDbEntity
  8
0
 62
7
100
AcDbLine
 10
141.838264
 20
153.486880
 30
0.0
 11
144.838267
 21
153.486880
 31
0.0
  0
LINE
  5
160
100
AcDbEntity
  8
0
 62
7
100
AcDbLine
 10
144.838267
 20
153.486880
 30
0.0
 11
144.838267
 21
144.736874
 31
0.0
  0
LINE
  5
161
100
AcDbEntity
  8
0
 62
7
100
AcDbLine
 10
144.838267
 20
144.736874
 30
0.0
 11
152.338273
 21
144.736874
 31
0.0
  0
LINE
  5
162
100
AcDbEntity
  8
0
 62
7
100
AcDbLine
 10
152.338273
 20
144.736874
 30
0.0
 11
152.338273
 21
147.736876
 31
0.0
  0
LINE
  5
163
100
AcDbEntity
  8
0
 62
7
100
AcDbLine
 10
152.338273
 20
147.736876
 30
0.0
 11
162.838282
 21
147.736876
 31
0.0
  0
LINE
  5
164
100
AcDbEntity
  8
0
 62
7
100
AcDbLine
 10
162.838282
 20
147.736876
 30
0.0
 11
162.838282
 21
144.736874
 31
0.0
  0
LINE
  5
165
100
AcDbEntity
  8
0
 62
7
100
AcDbLine
 10
162.838282
 20
144.736874
 30
0.0
 11
170.838288
 21
144.736874
 31
0.0
  0
LINE
  5
166
100
AcDbEntity
  8
0
 62
7
100
AcDbLine
 10
170.838288
 20
144.736874
 30
0.0
 11
170.838288
 21
147.736876
 31
0.0
  0
LINE
  5
167
100
AcDbEntity
  8
0
 62
7
100
AcDbLine
 10
170.838288
 20
147.736876
 30
0.0
 11
178.838295
 21
147.736876
 31
0.0
  0
LINE
  5
168
100
AcDbEntity
  8
0
 62
7
100
AcDbLine
 10
178.838295
 20
147.736876
 30
0.0
 11
178.838295
 21
144.736874
 31
0.0
  0
LINE
  5
169
100
AcDbEntity
  8
0
 62
7
100
AcDbLine
 10
178.838295
 20
144.736874
 30
0.0
 11
186.838301
 21
144.736874
 31
0.0
  0
LINE
  5
16a
100
AcDbEntity
  8
0
 62
7
100
AcDbLine
 10
186.838301
 20
144.736874
 30
0.0
 11
186.838301
 21
147.736876
 31
0.0
  0
LINE
  5
16b
100
AcDbEntity
  8
0
 62
7
100
AcDbLine
 10
186.838301
 20
147.736876
 30
0.0
 11
194.838308
 21
147.736876
 31
0.0
  0
LINE
  5
16c
100
AcDbEntity
  8
0
 62
7
100
AcDbLine
 10
194.838308
 20
147.736876
 30
0.0
 11
194.838308
 21
144.736874
 31
0.0
  0
LINE
  5
16d
100
AcDbEntity
  8
0
 62
7
100
AcDbLine
 10
194.838308
 20
144.736874
 30
0.0
 11
202.838315
 21
144.736874
 31
0.0
  0
LINE
  5
16e
100
AcDbEntity
  8
0
 62
7
100
AcDbLine
 10
202.838315
 20
144.736874
 30
0.0
 11
202.838315
 21
147.736876
 31
0.0
  0
LINE
  5
16f
100
AcDbEntity
  8
0
 62
7
100
AcDbLine
 10
202.838315
 20
147.736876
 30
0.0
 11
210.838321
 21
147.736876
 31
0.0
  0
LINE
  5
170
100
AcDbEntity
  8
0
 62
7
100
AcDbLine
 10
210.838321
 20
147.736876
 30
0.0
 11
210.838321
 21
144.736874
 31
0.0
  0
LINE
  5
171
100
AcDbEntity
  8
0
 62
7
100
AcDbLine
 10
210.838321
 20
144.736874
 30
0.0
 11
218.838328
 21
144.736874
 31
0.0
  0
LINE
  5
172
100
AcDbEntity
  8
0
 62
7
100
AcDbLine
 10
218.838328
 20
144.736874
 30
0.0
 11
218.838328
 21
147.736876
 31
0.0
  0
LINE
  5
173
100
AcDbEntity
  8
0
 62
7
100
AcDbLine
 10
218.838328
 20
147.736876
 30
0.0
 11
226.838334
 21
147.736876
 31
0.0
  0
LINE
  5
174
100
AcDbEntity
  8
0
 62
7
100
AcDbLine
 10
226.838334
 20
147.736876
 30
0.0
 11
226.838334
 21
144.736874
 31
0.0
  0
LINE
  5
175
100
AcDbEntity
  8
0
 62
7
100
AcDbLine
 10
226.838334
 20
144.736874
 30
0.0
 11
234.838341
 21
144.736874
 31
0.0
  0
LINE
  5
176
100
AcDbEntity
  8
0
 62
7
100
AcDbLine
 10
234.838341
 20
144.736874
 30
0.0
 11
234.838341
 21
147.736876
 31
0.0
  0
LINE
  5
177
100
AcDbEntity
  8
0
 62
7
100
AcDbLine
 10
234.838341
 20
147.736876
 30
0.0
 11
242.838347
 21
147.736876
 31
0.0
  0
LINE
  5
178
100
AcDbEntity
  8
0
 62
7
100
AcDbLine
 10
242.838347
 20
147.736876
 30
0.0
 11
242.838347
 21
144.736874
 31
0.0
  0
LINE
  5
179
100
AcDbEntity
  8
0
 62
7
100
AcDbLine
 10
242.838347
 20
144.736874
 30
0.0
 11
250.838354
 21
144.736874
 31
0.0
  0
LINE
  5
17a
100
AcDbEntity
  8
0
 62
7
100
AcDbLine
 10
250.838354
 20
144.736874
 30
0.0
 11
250.838354
 21
147.736876
 31
0.0
  0
LINE
  5
17b
100
AcDbEntity
  8
0
 62
7
100
AcDbLine
 10
250.838354
 20
147.736876
 30
0.0
 11
261.338361
 21
147.736876
 31
0.0
  0
LINE
  5
17c
100
AcDbEntity
  8
0
 62
7
100
AcDbLine
 10
261.338361
 20
147.736876
 30
0.0
 11
261.338361
 21
144.736874
 31
0.0
  0
LINE
  5
17d
100
AcDbEntity
  8
0
 62
7
100
AcDbLine
 10
261.338361
 20
144.736874
 30
0.0
 11
261.338361
 21
144.736874
 31
0.0
  0
LINE
  5
17e
100
AcDbEntity
  8
0
 62
7
100
AcDbLine
 10
152.007051
 20
11.632216
 30
0.0
 11
152.007051
 21
2.882209
 31
0.0
  0
LINE
  5
17f
100
AcDbEntity
  8
0
 62
7
100
AcDbLine
 10
152.007051
 20
2.882209
 30
0.0
 11
155.007054
 21
2.882209
 31
0.0
  0
LINE
  5
180
100
AcDbEntity
  8
0
 62
7
100
AcDbLine
 10
155.007054
 20
2.882209
 30
0.0
 11
155.007054
 21
-5.867799
 31
0.0
  0
LINE
  5
181
100
AcDbEntity
  8
0
 62
7
100
AcDbLine
 10
155.007054
 20
-5.867799
 30
0.0
 11
152.007051
 21
-5.867799
 31
0.0
  0
LINE
  5
182
100
AcDbEntity
  8
0
 62
7
100
AcDbLine
 10
152.007051
 20
-5.867799
 30
0.0
 11
152.007051
 21
-14.617806
 31
0.0
  0
LINE
  5
183
100
AcDbEntity
  8
0
 62
7
100
AcDbLine
 10
152.007051
 20
-14.617806
 30
0.0
 11
155.007054
 21
-14.617806
 31
0.0
  0
LINE
  5
184
100
AcDbEntity
  8
0
 62
7
100
AcDbLine
 10
155.007054
 20
-14.617806
 30
0.0
 11
155.007054
 21
-23.367813
 31
0.0
  0
LINE
  5
185
100
AcDbEntity
  8
0
 62
7
100
AcDbLine
 10
155.007054
 20
-23.367813
 30
0.0
 11
152.007051
 21
-23.367813
 31
0.0
  0
LINE
  5
186
100
AcDbEntity
  8
0
 62
7
100
AcDbLine
 10
152.007051
 20
-23.367813
 30
0.0
 11
152.007051
 21
-32.117819
 31
0.0
  0
LINE
  5
187
100
AcDbEntity
  8
0
 62
7
100
AcDbLine
 10
152.007051
 20
-32.117819
 30
0.0
 11
162.507060
 21
-32.117819
 31
0.0
  0
LINE
  5
188
100
AcDbEntity
  8
0
 62
7
100
AcDbLine
 10
162.507060
 20
-32.117819
 30
0.0
 11
162.507060
 21
-29.117817
 31
0.0
  0
LINE
  5
189
100
AcDbEntity
  8
0
 62
7
100
AcDbLine
 10
162.507060
 20
-29.117817
 30
0.0
 11
173.007068
 21
-29.117817
 31
0.0
  0
LINE
  5
18a
100
AcDbEntity
  8
0
 62
7
100
AcDbLine
 10
173.007068
 20
-29.117817
 30
0.0
 11
173.007068
 21
-32.117819
 31
0.0
  0
LINE
  5
18b
100
AcDbEntity
  8
0
 62
7
100
AcDbLine
 10
173.007068
 20
-32.117819
 30
0.0
 11
181.007075
 21
-32.117819
 31
0.0
  0
LINE
  5
18c
100
AcDbEntity
  8
0
 62
7
100
AcDbLine
 10
181.007075
 20
-32.117819
 30
0.0
 11
181.007075
 21
-29.117817
 31
0.0
  0
LINE
  5
18d
100
AcDbEntity
  8
0
 62
7
100
AcDbLine
 10
181.007075
 20
-29.117817
 30
0.0
 11
191.507082
 21
-29.117817
 31
0.0
  0
LINE
  5
18e
100
AcDbEntity
  8
0
 62
7
100
AcDbLine
 10
191.507082
 20
-29.117817
 30
0.0
 11
191.507082
 21
-32.117819
 31
0.0
  0
LINE
  5
18f
100
AcDbEntity
  8
0
 62
7
100
AcDbLine
 10
191.507082
 20
-32.117819
 30
0.0
 11
202.007092
 21
-32.117819
 31
0.0
  0
LINE
  5
190
100
AcDbEntity
  8
0
 62
7
100
AcDbLine
 10
202.007092
 20
-32.117819
 30
0.0
 11
202.007092
 21
-23.367813
 31
0.0
  0
LINE
  5
191
100
AcDbEntity
  8
0
 62
7
100
AcDbLine
 10
202.007092
 20
-23.367813
 30
0.0
 11
199.007090
 21
-23.367813
 31
0.0
  0
LINE
  5
192
100
AcDbEntity
  8
0
 62
7
100
AcDbLine
 10
199.007090
 20
-23.367813
 30
0.0
 11
199.007090
 21
-14.617806
 31
0.0
  0
LINE
  5
193
100
AcDbEntity
  8
0
 62
7
100
AcDbLine
 10
199.007090
 20
-14.617806
 30
0.0
 11
202.007092
 21
-14.617806
 31
0.0
  0
LINE
  5
194
100
AcDbEntity
  8
0
 62
7
100
AcDbLine
 10
202.007092
 20
-14.617806
 30
0.0
 11
202.007092
 21
-5.867799
 31
0.0
  0
LINE
  5
195
100
AcDbEntity
  8
0
 62
7
100
AcDbLine
 10
202.007092
 20
-5.867799
 30
0.0
 11
199.007090
 21
-5.867799
 31
0.0
  0
LINE
  5
196
100
AcDbEntity
  8
0
 62
7
100
AcDbLine
 10
199.007090
 20
-5.867799
 30
0.0
 11
199.007090
 21
2.882209
 31
0.0
  0
LINE
  5
197
100
AcDbEntity
  8
0
 62
7
100
AcDbLine
 10
199.007090
 20
2.882209
 30
0.0
 11
202.007092
 21
2.882209
 31
0.0
  0
LINE
  5
198
100
AcDbEntity
  8
0
 62
7
100
AcDbLine
 10
202.007092
 20
2.882209
 30
0.0
 11
202.007092
 21
11.632216
 31
0.0
  0
LINE
  5
199
100
AcDbEntity
  8
0
 62
7
100
AcDbLine
 10
202.007092
 20
11.632216
 30
0.0
 11
191.507082
 21
11.632213
 31
0.0
  0
LINE
  5
19a
100
AcDbEntity
  8
0
 62
7
100
AcDbLine
 10
191.507082
 20
11.632213
 30
0.0
 11
181.007075
 21
11.632216
 31
0.0
  0
LINE
  5
19b
100
AcDbEntity
  8
0
 62
7
100
AcDbLine
 10
181.007075
 20
11.632216
 30
0.0
 11
173.007068
 21
11.632213
 31
0.0
  0
LINE
  5
19c
100
AcDbEntity
  8
0
 62
7
100
AcDbLine
 10
173.007068
 20
11.632213
 30
0.0
 11
162.507060
 21
11.632216
 31
0.0
  0
LINE
  5
19d
100
AcDbEntity
  8
0
 62
7
100
AcDbLine
 10
162.507060
 20
11.632216
 30
0.0
 11
152.007051
 21
11.632216
 31
0.0
  0
LINE
  5
19e
100
AcDbEntity
  8
0
 62
7
100
AcDbLine
 10
152.007051
 20
11.632216
 30
0.0
 11
152.007051
 21
11.632216
 31
0.0
  0
LINE
  5
19f
100
AcDbEntity
  8
0
 62
7
100
AcDbLine
 10
137.668640
 20
17.418497
 30
0.0
 11
130.168632
 21
17.418497
 31
0.0
  0
LINE
  5
1a0
100
AcDbEntity
  8
0
 62
7
100
AcDbLine
 10
130.168632
 20
17.418497
 30
0.0
 11
130.168632
 21
14.418495
 31
0.0
  0
LINE
  5
1a1
100
AcDbEntity
  8
0
 62
7
100
AcDbLine
 10
130.168632
 20
14.418495
 30
0.0
 11
119.668625
 21
14.418495
 31
0.0
  0
LINE
  5
1a2
100
AcDbEntity
  8
0
 62
7
100
AcDbLine
 10
119.668625
 20
14.418495
 30
0.0
 11
119.668625
 21
17.418497
 31
0.0
  0
LINE
  5
1a3
100
AcDbEntity
  8
0
 62
7
100
AcDbLine
 10
119.668625
 20
17.418497
 30
0.0
 11
111.668619
 21
17.418497
 31
0.0
  0
LINE
  5
1a4
100
AcDbEntity
  8
0
 62
7
100
AcDbLine
 10
111.668619
 20
17.418497
 30
0.0
 11
111.668619
 21
14.418495
 31
0.0
  0
LINE
  5
1a5
100
AcDbEntity
  8
0
 62
7
100
AcDbLine
 10
111.668619
 20
14.418495
 30
0.0
 11
101.168610
 21
14.418495
 31
0.0
  0
LINE
  5
1a6
100
AcDbEntity
  8
0
 62
7
100
AcDbLine
 10
101.168610
 20
14.418495
 30
0.0
 11
101.168610
 21
17.418497
 31
0.0
  0
LINE
  5
1a7
100
AcDbEntity
  8
0
 62
7
100
AcDbLine
 10
101.168610
 20
17.418497
 30
0.0
 11
93.668604
 21
17.418497
 31
0.0
  0
LINE
  5
1a8
100
AcDbEntity
  8
0
 62
7
100
AcDbLine
 10
93.668604
 20
17.418497
 30
0.0
 11
93.668604
 21
24.918505
 31
0.0
  0
LINE
  5
1a9
100
AcDbEntity
  8
0
 62
7
100
AcDbLine
 10
93.668604
 20
24.918505
 30
0.0
 11
90.668601
 21
24.918505
 31
0.0
  0
LINE
  5
1aa
100
AcDbEntity
  8
0
 62
7
100
AcDbLine
 10
90.668601
 20
24.918505
 30
0.0
 11
90.668601
 21
35.418512
 31
0.0
  0
LINE
  5
1ab
100
AcDbEntity
  8
0
 62
7
100
AcDbLine
 10
90.668601
 20
35.418512
 30
0.0
 11
93.668604
 21
35.418512
 31
0.0
  0
LINE
  5
1ac
100
AcDbEntity
  8
0
 62
7
100
AcDbLine
 10
93.668604
 20
35.418512
 30
0.0
 11
93.668604
 21
43.418519
 31
0.0
  0
LINE
  5
1ad
100
AcDbEntity
  8
0
 62
7
100
AcDbLine
 10
93.668604
 20
43.418519
 30
0.0
 11
90.668601
 21
43.418519
 31
0.0
  0
LINE
  5
1ae
100
AcDbEntity
  8
0
 62
7
100
AcDbLine
 10
90.668601
 20
43.418519
 30
0.0
 11
90.668601
 21
51.418525
 31
0.0
  0
LINE
  5
1af
100
AcDbEntity
  8
0
 62
7
100
AcDbLine
 10
90.668601
 20
51.418525
 30
0.0
 11
93.668604
 21
51.418525
 31
0.0
  0
LINE
  5
1b0
100
AcDbEntity
  8
0
 62
7
100
AcDbLine
 10
93.668604
 20
51.418525
 30
0.0
 11
93.668604
 21
59.418532
 31
0.0
  0
LINE
  5
1b1
100
AcDbEntity
  8
0
 62
7
100
AcDbLine
 10
93.668604
 20
59.418532
 30
0.0
 11
90.668601
 21
59.418532
 31
0.0
  0
LINE
  5
1b2
100
AcDbEntity
  8
0
 62
7
100
AcDbLine
 10
90.668601
 20
59.418532
 30
0.0
 11
90.668601
 21
67.418538
 31
0.0
  0
LINE
  5
1b3
100
AcDbEntity
  8
0
 62
7
100
AcDbLine
 10
90.668601
 20
67.418538
 30
0.0
 11
93.668604
 21
67.418538
 31
0.0
  0
LINE
  5
1b4
100
AcDbEntity
  8
0
 62
7
100
AcDbLine
 10
93.668604
 20
67.418538
 30
0.0
 11
93.668604
 21
75.418545
 31
0.0
  0
LINE
  5
1b5
100
AcDbEntity
  8
0
 62
7
100
AcDbLine
 10
93.668604
 20
75.418545
 30
0.0
 11
90.668601
 21
75.418545
 31
0.0
  0
LINE
  5
1b6
100
AcDbEntity
  8
0
 62
7
100
AcDbLine
 10
90.668601
 20
75.418545
 30
0.0
 11
90.668601
 21
83.418552
 31
0.0
  0
LINE
  5
1b7
100
AcDbEntity
  8
0
 62
7
100
AcDbLine
 10
90.668601
 20
83.418552
 30
0.0
 11
93.668604
 21
83.418552
 31
0.0
  0
LINE
  5
1b8
100
AcDbEntity
  8
0
 62
7
100
AcDbLine
 10
93.668604
 20
83.418552
 30
0.0
 11
93.668604
 21
91.418558
 31
0.0
  0
LINE
  5
1b9
100
AcDbEntity
  8
0
 62
7
100
AcDbLine
 10
93.668604
 20
91.418558
 30
0.0
 11
90.668601
 21
91.418558
 31
0.0
  0
LINE
  5
1ba
100
AcDbEntity
  8
0
 62
7
100
AcDbLine
 10
90.668601
 20
91.418558
 30
0.0
 11
90.668601
 21
99.418565
 31
0.0
  0
LINE
  5
1bb
100
AcDbEntity
  8
0
 62
7
100
AcDbLine
 10
90.668601
 20
99.418565
 30
0.0
 11
93.668604
 21
99.418565
 31
0.0
  0
LINE
  5
1bc
100
AcDbEntity
  8
0
 62
7
100
AcDbLine
 10
93.668604
 20
99.418565
 30
0.0
 11
93.668604
 21
107.418571
 31
0.0
  0
LINE
  5
1bd
100
AcDbEntity
  8
0
 62
7
100
AcDbLine
 10
93.668604
 20
107.418571
 30
0.0
 11
90.668601
 21
107.418571
 31
0.0
  0
LINE
  5
1be
100
AcDbEntity
  8
0
 62
7
100
AcDbLine
 10
90.668601
 20
107.418571
 30
0.0
 11
90.668601
 21
115.418578
 31
0.0
  0
LINE
  5
1bf
100
AcDbEntity
  8
0
 62
7
100
AcDbLine
 10
90.668601
 20
115.418578
 30
0.0
 11
93.668604
 21
115.418578
 31
0.0
  0
LINE
  5
1c0
100
AcDbEntity
  8
0
 62
7
100
AcDbLine
 10
93.668604
 20
115.418578
 30
0.0
 11
93.668604
 21
123.418585
 31
0.0
  0
LINE
  5
1c1
100
AcDbEntity
  8
0
 62
7
100
AcDbLine
 10
93.668604
 20
123.418585
 30
0.0
 11
90.668601
 21
123.418585
 31
0.0
  0
LINE
  5
1c2
100
AcDbEntity
  8
0
 62
7
100
AcDbLine
 10
90.668601
 20
123.418585
 30
0.0
 11
90.668601
 21
133.918593
 31
0.0
  0
LINE
  5
1c3
100
AcDbEntity
  8
0
 62
7
100
AcDbLine
 10
90.668601
 20
133.918593
 30
0.0
 11
93.668604
 21
133.918593
 31
0.0
  0
LINE
  5
1c4
100
AcDbEntity
  8
0
 62
7
100
AcDbLine
 10
93.668604
 20
133.918593
 30
0.0
 11
93.668604
 21
141.418599
 31
0.0
  0
LINE
  5
1c5
100
AcDbEntity
  8
0
 62
7
100
AcDbLine
 10
93.668604
 20
141.418599
 30
0.0
 11
101.168610
 21
141.418599
 31
0.0
  0
LINE
  5
1c6
100
AcDbEntity
  8
0
 62
7
100
AcDbLine
 10
101.168610
 20
141.418599
 30
0.0
 11
101.168610
 21
144.418602
 31
0.0
  0
LINE
  5
1c7
100
AcDbEntity
  8
0
 62
7
100
AcDbLine
 10
101.168610
 20
144.418602
 30
0.0
 11
111.668619
 21
144.418602
 31
0.0
  0
LINE
  5
1c8
100
AcDbEntity
  8
0
 62
7
100
AcDbLine
 10
111.668619
 20
144.418602
 30
0.0
 11
111.668619
 21
141.418599
 31
0.0
  0
LINE
  5
1c9
100
AcDbEntity
  8
0
 62
7
100
AcDbLine
 10
111.668619
 20
141.418599
 30
0.0
 11
119.668625
 21
141.418599
 31
0.0
  0
LINE
  5
1ca
100
AcDbEntity
  8
0
 62
7
100
AcDbLine
 10
119.668625
 20
141.418599
 30
0.0
 11
119.668625
 21
144.418602
 31
0.0
  0
LINE
  5
1cb
100
AcDbEntity
  8
0
 62
7
100
AcDbLine
 10
119.668625
 20
144.418602
 30
0.0
 11
130.168632
 21
144.418602
 31
0.0
  0
LINE
  5
1cc
100
AcDbEntity
  8
0
 62
7
100
AcDbLine
 10
130.168632
 20
144.418602
 30
0.0
 11
130.168632
 21
141.418599
 31
0.0
  0
LINE
  5
1cd
100
AcDbEntity
  8
0
 62
7
100
AcDbLine
 10
130.168632
 20
141.418599
 30
0.0
 11
137.668640
 21
141.418599
 31
0.0
  0
LINE
  5
1ce
100
AcDbEntity
  8
0
 62
7
100
AcDbLine
 10
137.668640
 20
141.418599
 30
0.0
 11
137.668640
 21
133.918593
 31
0.0
  0
LINE
  5
1cf
100
AcDbEntity
  8
0
 62
7
100
AcDbLine
 10
137.668640
 20
133.918593
 30
0.0
 11
140.668642
 21
133.918593
 31
0.0
  0
LINE
  5
1d0
100
AcDbEntity
  8
0
 62
7
100
AcDbLine
 10
140.668642
 20
133.918593
 30
0.0
 11
140.668642
 21
123.418585
 31
0.0
  0
LINE
  5
1d1
100
AcDbEntity
  8
0
 62
7
100
AcDbLine
 10
140.668642
 20
123.418585
 30
0.0
 11
137.668640
 21
123.418585
 31
0.0
  0
LINE
  5
1d2
100
AcDbEntity
  8
0
 62
7
100
AcDbLine
 10
137.668640
 20
123.418585
 30
0.0
 11
137.668640
 21
115.418578
 31
0.0
  0
LINE
  5
1d3
100
AcDbEntity
  8
0
 62
7
100
AcDbLine
 10
137.668640
 20
115.418578
 30
0.0
 11
140.668642
 21
115.418578
 31
0.0
  0
LINE
  5
1d4
100
AcDbEntity
  8
0
 62
7
100
AcDbLine
 10
140.668642
 20
115.418578
 30
0.0
 11
140.668642
 21
107.418571
 31
0.0
  0
LINE
  5
1d5
100
AcDbEntity
  8
0
 62
7
100
AcDbLine
 10
140.668642
 20
107.418571
 30
0.0
 11
137.668640
 21
107.418571
 31
0.0
  0
LINE
  5
1d6
100
AcDbEntity
  8
0
 62
7
100
AcDbLine
 10
137.668640
 20
107.418571
 30
0.0
 11
137.668640
 21
99.418565
 31
0.0
  0
LINE
  5
1d7
100
AcDbEntity
  8
0
 62
7
100
AcDbLine
 10
137.668640
 20
99.418565
 30
0.0
 11
140.668642
 21
99.418565
 31
0.0
  0
LINE
  5
1d8
100
AcDbEntity
  8
0
 62
7
100
AcDbLine
 10
140.668642
 20
99.418565
 30
0.0
 11
140.668642
 21
91.418558
 31
0.0
  0
LINE
  5
1d9
100
AcDbEntity
  8
0
 62
7
100
AcDbLine
 10
140.668642
 20
91.418558
 30
0.0
 11
137.668640
 21
91.418558
 31
0.0
  0
LINE
  5
1da
100
AcDbEntity
  8
0
 62
7
100
AcDbLine
 10
137.668640
 20
91.418558
 30
0.0
 11
137.668640
 21
83.418552
 31
0.0
  0
LINE
  5
1db
100
AcDbEntity
  8
0
 62
7
100
AcDbLine
 10
137.668640
 20
83.418552
 30
0.0
 11
140.668642
 21
83.418552
 31
0.0
  0
LINE
  5
1dc
100
AcDbEntity
  8
0
 62
7
100
AcDbLine
 10
140.668642
 20
83.418552
 30
0.0
 11
140.668642
 21
75.418545
 31
0.0
  0
LINE
  5
1dd
100
AcDbEntity
  8
0
 62
7
100
AcDbLine
 10
140.668642
 20
75.418545
 30
0.0
 11
137.668640
 21
75.418545
 31
0.0
  0
LINE
  5
1de
100
AcDbEntity
  8
0
 62
7
100
AcDbLine
 10
137.668640
 20
75.418545
 30
0.0
 11
137.668640
 21
67.418538
 31
0.0
  0
LINE
  5
1df
100
AcDbEntity
  8
0
 62
7
100
AcDbLine
 10
137.668640
 20
67.418538
 30
0.0
 11
140.668642
 21
67.418538
 31
0.0
  0
LINE
  5
1e0
100
AcDbEntity
  8
0
 62
7
100
AcDbLine
 10
140.668642
 20
67.418538
 30
0.0
 11
140.668642
 21
59.418532
 31
0.0
  0
LINE
  5
1e1
100
AcDbEntity
  8
0
 62
7
100
AcDbLine
 10
140.668642
 20
59.418532
 30
0.0
 11
137.668640
 21
59.418532
 31
0.0
  0
LINE
  5
1e2
100
AcDbEntity
  8
0
 62
7
100
AcDbLine
 10
137.668640
 20
59.418532
 30
0.0
 11
137.668640
 21
51.418525
 31
0.0
  0
LINE
  5
1e3
100
AcDbEntity
  8
0
 62
7
100
AcDbLine
 10
137.668640
 20
51.418525
 30
0.0
 11
140.668642
 21
51.418525
 31
0.0
  0
LINE
  5
1e4
100
AcDbEntity
  8
0
 62
7
100
AcDbLine
 10
140.668642
 20
51.418525
 30
0.0
 11
140.668642
 21
43.418519
 31
0.0
  0
LINE
  5
1e5
100
AcDbEntity
  8
0
 62
7
100
AcDbLine
 10
140.668642
 20
43.418519
 30
0.0
 11
137.668640
 21
43.418519
 31
0.0
  0
LINE
  5
1e6
100
AcDbEntity
  8
0
 62
7
100
AcDbLine
 10
137.668640
 20
43.418519
 30
0.0
 11
137.668640
 21
35.418512
 31
0.0
  0
LINE
  5
1e7
100
AcDbEntity
  8
0
 62
7
100
AcDbLine
 10
137.668640
 20
35.418512
 30
0.0
 11
140.668642
 21
35.418512
 31
0.0
  0
LINE
  5
1e8
100
AcDbEntity
  8
0
 62
7
100
AcDbLine
 10
140.668642
 20
35.418512
 30
0.0
 11
140.668642
 21
24.918505
 31
0.0
  0
LINE
  5
1e9
100
AcDbEntity
  8
0
 62
7
100
AcDbLine
 10
140.668642
 20
24.918505
 30
0.0
 11
137.668640
 21
24.918505
 31
0.0
  0
LINE
  5
1ea
100
AcDbEntity
  8
0
 62
7
100
AcDbLine
 10
137.668640
 20
24.918505
 30
0.0
 11
137.668640
 21
17.418497
 31
0.0
  0
LINE
  5
1eb
100
AcDbEntity
  8
0
 62
7
100
AcDbLine
 10
137.668640
 20
17.418497
 30
0.0
 11
137.668640
 21
17.418497
 31
0.0
  0
LINE
  5
1ec
100
AcDbEntity
  8
0
 62
7
100
AcDbLine
 10
177.174624
 20
-14.438019
 30
0.0
 11
178.303238
 21
-17.321566
 31
0.0
  0
LINE
  5
1ed
100
AcDbEntity
  8
0
 62
7
100
AcDbLine
 10
178.303238
 20
-17.321566
 30
0.0
 11
179.394645
 21
-17.321566
 31
0.0
  0
LINE
  5
1ee
100
AcDbEntity
  8
0
 62
7
100
AcDbLine
 10
179.394645
 20
-17.321566
 30
0.0
 11
175.828969
 21
-8.218238
 31
0.0
  0
LINE
  5
1ef
100
AcDbEntity
  8
0
 62
7
100
AcDbLine
 10
175.828969
 20
-8.218238
 30
0.0
 11
174.942200
 21
-8.218238
 31
0.0
  0
LINE
  5
1f0
100
AcDbEntity
  8
0
 62
7
100
AcDbLine
 10
174.942200
 20
-8.218238
 30
0.0
 11
171.357920
 21
-17.321566
 31
0.0
  0
LINE
  5
1f1
100
AcDbEntity
  8
0
 62
7
100
AcDbLine
 10
171.357920
 20
-17.321566
 30
0.0
 11
172.424522
 21
-17.321566
 31
0.0
  0
LINE
  5
1f2
100
AcDbEntity
  8
0
 62
7
100
AcDbLine
 10
172.424522
 20
-17.321566
 30
0.0
 11
173.540734
 21
-14.438019
 31
0.0
  0
LINE
  5
1f3
100
AcDbEntity
  8
0
 62
7
100
AcDbLine
 10
173.540734
 20
-14.438019
 30
0.0
 11
177.174624
 21
-14.438019
 31
0.0
  0
LINE
  5
1f4
100
AcDbEntity
  8
0
 62
7
100
AcDbLine
 10
177.174624
 20
-14.438019
 30
0.0
 11
177.174624
 21
-14.438019
 31
0.0
  0
LINE
  5
1f5
100
AcDbEntity
  8
0
 62
7
100
AcDbLine
 10
90.668601
 20
133.918593
 30
0.0
 11
90.668601
 21
123.418585
 31
0.0
  0
LINE
  5
1f6
100
AcDbEntity
  8
0
 62
7
100
AcDbLine
 10
183.828487
 20
-17.321566
 30
0.0
 11
182.823890
 21
-17.321566
 31
0.0
  0
LINE
  5
1f7
100
AcDbEntity
  8
0
 62
7
100
AcDbLine
 10
141.046591
 20
170.974998
 30
0.0
 11
138.046589
 21
170.974998
 31
0.0
  0
LINE
  5
1f8
100
AcDbEntity
  8
0
 62
7
100
AcDbLine
 10
138.046589
 20
170.974998
 30
0.0
 11
138.046589
 21
179.725006
 31
0.0
  0
LINE
  5
1f9
100
AcDbEntity
  8
0
 62
7
100
AcDbLine
 10
138.046589
 20
179.725006
 30
0.0
 11
141.046591
 21
179.725006
 31
0.0
  0
LINE
  5
1fa
100
AcDbEntity
  8
0
 62
7
100
AcDbLine
 10
141.046591
 20
179.725006
 30
0.0
 11
141.046591
 21
188.475013
 31
0.0
  0
LINE
  5
1fb
100
AcDbEntity
  8
0
 62
7
100
AcDbLine
 10
141.046591
 20
188.475013
 30
0.0
 11
130.546581
 21
188.475010
 31
0.0
  0
LINE
  5
1fc
100
AcDbEntity
  8
0
 62
7
100
AcDbLine
 10
130.546581
 20
188.475010
 30
0.0
 11
120.046574
 21
188.475013
 31
0.0
  0
LINE
  5
1fd
100
AcDbEntity
  8
0
 62
7
100
AcDbLine
 10
120.046574
 20
188.475013
 30
0.0
 11
112.046568
 21
188.475010
 31
0.0
  0
LINE
  5
1fe
100
AcDbEntity
  8
0
 62
7
100
AcDbLine
 10
112.046568
 20
188.475010
 30
0.0
 11
101.546559
 21
188.475013
 31
0.0
  0
LINE
  5
1ff
100
AcDbEntity
  8
0
 62
7
100
AcDbLine
 10
101.546559
 20
188.475013
 30
0.0
 11
91.046550
 21
188.475013
 31
0.0
  0
LINE
  5
200
100
AcDbEntity
  8
0
 62
7
100
AcDbLine
 10
91.046550
 20
188.475013
 30
0.0
 11
91.046550
 21
179.725006
 31
0.0
  0
LINE
  5
201
100
AcDbEntity
  8
0
 62
7
100
AcDbLine
 10
91.046550
 20
179.725006
 30
0.0
 11
94.046553
 21
179.725006
 31
0.0
  0
LINE
  5
202
100
AcDbEntity
  8
0
 62
7
100
AcDbLine
 10
94.046553
 20
179.725006
 30
0.0
 11
94.046553
 21
170.974998
 31
0.0
  0
LINE
  5
203
100
AcDbEntity
  8
0
 62
7
100
AcDbLine
 10
94.046553
 20
170.974998
 30
0.0
 11
91.046550
 21
170.974998
 31
0.0
  0
LINE
  5
204
100
AcDbEntity
  8
0
 62
7
100
AcDbLine
 10
91.046550
 20
170.974998
 30
0.0
 11
91.046550
 21
162.224991
 31
0.0
  0
LINE
  5
205
100
AcDbEntity
  8
0
 62
7
100
AcDbLine
 10
91.046550
 20
162.224991
 30
0.0
 11
94.046553
 21
162.224991
 31
0.0
  0
LINE
  5
206
100
AcDbEntity
  8
0
 62
7
100
AcDbLine
 10
94.046553
 20
162.224991
 30
0.0
 11
94.046553
 21
153.474984
 31
0.0
  0
LINE
  5
207
100
AcDbEntity
  8
0
 62
7
100
AcDbLine
 10
94.046553
 20
153.474984
 30
0.0
 11
91.046550
 21
153.474984
 31
0.0
  0
LINE
  5
208
100
AcDbEntity
  8
0
 62
7
100
AcDbLine
 10
91.046550
 20
153.474984
 30
0.0
 11
91.046550
 21
144.724978
 31
0.0
  0
LINE
  5
209
100
AcDbEntity
  8
0
 62
7
100
AcDbLine
 10
91.046550
 20
144.724978
 30
0.0
 11
101.546559
 21
144.724978
 31
0.0
  0
LINE
  5
20a
100
AcDbEntity
  8
0
 62
7
100
AcDbLine
 10
101.546559
 20
144.724978
 30
0.0
 11
101.546559
 21
147.724980
 31
0.0
  0
LINE
  5
20b
100
AcDbEntity
  8
0
 62
7
100
AcDbLine
 10
101.546559
 20
147.724980
 30
0.0
 11
112.046568
 21
147.724980
 31
0.0
  0
LINE
  5
20c
100
AcDbEntity
  8
0
 62
7
100
AcDbLine
 10
112.046568
 20
147.724980
 30
0.0
 11
112.046568
 21
144.724978
 31
0.0
  0
LINE
  5
20d
100
AcDbEntity
  8
0
 62
7
100
AcDbLine
 10
112.046568
 20
144.724978
 30
0.0
 11
120.046574
 21
144.724978
 31
0.0
  0
LINE
  5
20e
100
AcDbEntity
  8
0
 62
7
100
AcDbLine
 10
120.046574
 20
144.724978
 30
0.0
 11
120.046574
 21
147.724980
 31
0.0
  0
LINE
  5
20f
100
AcDbEntity
  8
0
 62
7
100
AcDbLine
 10
120.046574
 20
147.724980
 30
0.0
 11
130.546581
 21
147.724980
 31
0.0
  0
LINE
  5
210
100
AcDbEntity
  8
0
 62
7
100
AcDbLine
 10
130.546581
 20
147.724980
 30
0.0
 11
130.546581
 21
144.724978
 31
0.0
  0
LINE
  5
211
100
AcDbEntity
  8
0
 62
7
100
AcDbLine
 10
130.546581
 20
144.724978
 30
0.0
 11
141.046591
 21
144.724978
 31
0.0
  0
LINE
  5
212
100
AcDbEntity
  8
0
 62
7
100
AcDbLine
 10
141.046591
 20
144.724978
 30
0.0
 11
141.046591
 21
153.474984
 31
0.0
  0
LINE
  5
213
100
AcDbEntity
  8
0
 62
7
100
AcDbLine
 10
141.046591
 20
153.474984
 30
0.0
 11
138.046589
 21
153.474984
 31
0.0
  0
LINE
  5
214
100
AcDbEntity
  8
0
 62
7
100
AcDbLine
 10
138.046589
 20
153.474984
 30
0.0
 11
138.046589
 21
162.224991
 31
0.0
  0
LINE
  5
215
100
AcDbEntity
  8
0
 62
7
100
AcDbLine
 10
138.046589
 20
162.224991
 30
0.0
 11
141.046591
 21
162.224991
 31
0.0
  0
LINE
  5
216
100
AcDbEntity
  8
0
 62
7
100
AcDbLine
 10
141.046591
 20
162.224991
 30
0.0
 11
141.046591
 21
170.974998
 31
0.0
  0
LINE
  5
217
100
AcDbEntity
  8
0
 62
7
100
AcDbLine
 10
141.046591
 20
170.974998
 30
0.0
 11
141.046591
 21
170.974998
 31
0.0
  0
LINE
  5
218
100
AcDbEntity
  8
0
 62
7
100
AcDbLine
 10
173.912805
 20
-13.489239
 30
0.0
 11
176.845962
 21
-13.489239
 31
0.0
  0
SPLINE
  5
219
100
AcDbEntity
  8
0
 62
7
100
AcDbSpline
 70
8
 71
3
 72
8
 73
4
 74
0
 40
0
 40
0
 40
0
 40
0
 40
1
 40
1
 40
1
 40
1
 10
182.823890
 20
-10.859940
 30
0.0
 10
182.823890
 20
-10.322502
 30
0.0
 10
182.840428
 20
-9.814006
 30
0.0
 10
182.873499
 20
-9.334450
 30
0.0
  0
SPLINE
  5
21a
100
AcDbEntity
  8
0
 62
7
100
AcDbSpline
 70
8
 71
3
 72
8
 73
4
 74
0
 40
0
 40
0
 40
0
 40
0
 40
1
 40
1
 40
1
 40
1
 10
175.370081
 20
-9.371657
 30
0.0
 10
175.279129
 20
-9.768533
 30
0.0
 10
175.148904
 20
-10.204680
 30
0.0
 10
174.979407
 20
-10.680106
 30
0.0
  0
SPLINE
  5
21b
100
AcDbEntity
  8
0
 62
7
100
AcDbSpline
 70
8
 71
3
 72
8
 73
4
 74
0
 40
0
 40
0
 40
0
 40
0
 40
1
 40
1
 40
1
 40
1
 10
175.791762
 20
-10.680099
 30
0.0
 10
175.655336
 20
-10.324567
 30
0.0
 10
175.514774
 20
-9.888420
 30
0.0
 10
175.370081
 20
-9.371657
 30
0.0
  0
LINE
  5
21c
100
AcDbEntity
  8
0
 62
7
100
AcDbLine
 10
176.845962
 20
-13.489239
 30
0.0
 11
175.791762
 21
-10.680099
 31
0.0
  0
LINE
  5
21d
100
AcDbEntity
  8
0
 62
7
100
AcDbLine
 10
174.979407
 20
-10.680106
 30
0.0
 11
173.912805
 21
-13.489239
 31
0.0
  0
SPLINE
  5
21e
100
AcDbEntity
  8
0
 62
7
100
AcDbSpline
 70
8
 71
3
 72
8
 73
4
 74
0
 40
0
 40
0
 40
0
 40
0
 40
1
 40
1
 40
1
 40
1
 10
182.873499
 20
-9.334450
 30
0.0
 10
182.786683
 20
-9.421267
 30
0.0
 10
182.689529
 20
-9.512219
 30
0.0
 10
182.582044
 20
-9.607302
 30
0.0
  0
LINE
  5
21f
100
AcDbEntity
  8
0
 62
7
100
AcDbLine
 10
182.823890
 20
-17.321566
 30
0.0
 11
182.823890
 21
-10.859940
 31
0.0
  0
LINE
  5
220
100
AcDbEntity
  8
0
 62
7
100
AcDbLine
 10
183.828487
 20
-8.255445
 30
0.0
 11
183.828487
 21
-17.321566
 31
0.0
  0
LINE
  5
221
100
AcDbEntity
  8
0
 62
7
100
AcDbLine
 10
180.560467
 20
-10.109597
 30
0.0
 11
182.960322
 21
-8.255445
 31
0.0
  0
LINE
  5
222
100
AcDbEntity
  8
0
 62
7
100
AcDbLine
 10
182.960322
 20
-8.255445
 30
0.0
 11
183.828487
 21
-8.255445
 31
0.0
  0
SPLINE
  5
223
100
AcDbEntity
  8
0
 62
7
100
AcDbSpline
 70
8
 71
3
 72
8
 73
4
 74
0
 40
0
 40
0
 40
0
 40
0
 40
1
 40
1
 40
1
 40
1
 10
182.582044
 20
-9.607302
 30
0.0
 10
182.474559
 20
-9.702385
 30
0.0
 10
181.982601
 20
-10.105461
 30
0.0
 10
181.106170
 20
-10.816532
 30
0.0
  0
LINE
  5
224
100
AcDbEntity
  8
0
 62
7
100
AcDbLine
 10
181.106170
 20
-10.816532
 30
0.0
 11
180.560467
 21
-10.109597
 31
0.0
  0
LINE
  5
225
100
AcDbEntity
  8
0
 62
7
100
AcDbLine
 10
140.668642
 20
14.418495
 30
0.0
 11
90.668601
 21
14.418495
 31
0.0
  0
SPLINE
  5
226
100
AcDbEntity
  8
0
 62
7
100
AcDbSpline
 70
8
 71
3
 72
8
 73
4
 74
0
 40
0
 40
0
 40
0
 40
0
 40
1
 40
1
 40
1
 40
1
 10
90.668601
 20
14.418495
 30
0.0
 10
90.668601
 20
14.418495
 30
0.0
 10
90.668601
 20
7.418495
 30
0.0
 10
90.668601
 20
7.418495
 30
0.0
  0
SPLINE
  5
227
100
AcDbEntity
  8
0
 62
7
100
AcDbSpline
 70
8
 71
3
 72
8
 73
4
 74
0
 40
0
 40
0
 40
0
 40
0
 40
1
 40
1
 40
1
 40
1
 10
90.668601
 20
7.418495
 30
0.0
 10
90.668601
 20
6.092412
 30
0.0
 10
91.195385
 20
4.820643
 30
0.0
 10
92.133067
 20
3.882961
 30
0.0
  0
SPLINE
  5
228
100
AcDbEntity
  8
0
 62
7
100
AcDbSpline
 70
8
 71
3
 72
8
 73
4
 74
0
 40
0
 40
0
 40
0
 40
0
 40
1
 40
1
 40
1
 40
1
 10
92.133067
 20
3.882961
 30
0.0
 10
93.070749
 20
2.945279
 30
0.0
 10
94.342519
 20
2.418495
 30
0.0
 10
95.668601
 20
2.418495
 30
0.0
  0
SPLINE
  5
229
100
AcDbEntity
  8
0
 62
7
100
AcDbSpline
 70
8
 71
3
 72
8
 73
4
 74
0
 40
0
 40
0
 40
0
 40
0
 40
1
 40
1
 40
1
 40
1
 10
95.668601
 20
2.418495
 30
0.0
 10
95.668601
 20
2.418495
 30
0.0
 10
135.668642
 20
2.418495
 30
0.0
 10
135.668642
 20
2.418495
 30
0.0
  0
SPLINE
  5
22a
100
AcDbEntity
  8
0
 62
7
100
AcDbSpline
 70
8
 71
3
 72
8
 73
4
 74
0
 40
0
 40
0
 40
0
 40
0
 40
1
 40
1
 40
1
 40
1
 10
135.668642
 20
2.418495
 30
0.0
 10
136.994725
 20
2.418495
 30
0.0
 10
138.266494
 20
2.945279
 30
0.0
 10
139.204176
 20
3.882961
 30
0.0
  0
SPLINE
  5
22b
100
AcDbEntity
  8
0
 62
7
100
AcDbSpline
 70
8
 71
3
 72
8
 73
4
 74
0
 40
0
 40
0
 40
0
 40
0
 40
1
 40
1
 40
1
 40
1
 10
139.204176
 20
3.882961
 30
0.0
 10
140.141858
 20
4.820643
 30
0.0
 10
140.668642
 20
6.092413
 30
0.0
 10
140.668642
 20
7.418495
 30
0.0
  0
LINE
  5
22c
100
AcDbEntity
  8
0
 62
7
100
AcDbLine
 10
140.668642
 20
7.418495
 30
0.0
 11
140.668642
 21
14.418495
 31
0.0
  0
LINE
  5
22d
100
AcDbEntity
  8
0
 62
7
100
AcDbLine
 10
140.668642
 20
14.418495
 30
0.0
 11
140.668642
 21
14.418495
 31
0.0
  0
ENDSEC
  0
SECTION
  2
OBJECTS
  0
DICTIONARY
  5
C
330
0
100
AcDbDictionary
  3
ACAD_GROUP
350
D
  3
ACAD_MLINESTYLE
350
17
  0
DICTIONARY
  5
D
330
C
100
AcDbDictionary
  0
DICTIONARY
  5
1A
330
C
100
AcDbDictionary
  0
DICTIONARY
  5
17
330
C
100
AcDbDictionary
  3
STANDARD
350
18
  0
DICTIONARY
  5
19
330
C
100
AcDbDictionary
  0
ENDSEC
  0
EOF
