999
DXF created by Inkscape
  0
SECTION
  2
HEADER
  9
$ACADVER
  1
AC1014
  9
$HANDSEED
  5
FFFF
  9
$MEASUREMENT
 70
     1
  0
ENDSEC
  0
SECTION
  2
TABLES
  0
TABLE
  2
VPORT
  5
8
330
0
100
AcDbSymbolTable
 70
     4
  0
VPORT
  5
2E
330
8
100
AcDbSymbolTableRecord
100
AcDbViewportTableRecord
  2
*ACTIVE
 70
     0
 10
0.0
 20
0.0
 11
1.0
 21
1.0
 12
210.0
 22
148.5
 13
0.0
 23
0.0
 14
10.0
 24
10.0
 15
10.0
 25
10.0
 16
0.0
 26
0.0
 36
1.0
 17
0.0
 27
0.0
 37
0.0
 40
341.0
 41
1.24
 42
50.0
 43
0.0
 44
0.0
 50
0.0
 51
0.0
 71
     0
 72
   100
 73
     1
 74
     3
 75
     0
 76
     0
 77
     0
 78
     0
  0
ENDTAB
  0
TABLE
  2
LTYPE
  5
5
330
0
100
AcDbSymbolTable
 70
     1
  0
LTYPE
  5
14
330
5
100
AcDbSymbolTableRecord
100
AcDbLinetypeTableRecord
  2
BYBLOCK
 70
     0
  3

 72
    65
 73
     0
 40
0.0
  0
LTYPE
  5
15
330
5
100
AcDbSymbolTableRecord
100
AcDbLinetypeTableRecord
  2
BYLAYER
 70
     0
  3

 72
    65
 73
     0
 40
0.0
  0
LTYPE
  5
16
330
5
100
AcDbSymbolTableRecord
100
AcDbLinetypeTableRecord
  2
CONTINUOUS
 70
     0
  3
Solid line
 72
    65
 73
     0
 40
0.0
  0
ENDTAB
  0
TABLE
  2
LAYER
  5
2
100
AcDbSymbolTable
 70
1
  0
LAYER
  5
50
100
AcDbSymbolTableRecord
100
AcDbLayerTableRecord
  2
0
 70
0
  6
CONTINUOUS
  0
ENDTAB
  0
TABLE
  2
STYLE
  5
3
330
0
100
AcDbSymbolTable
 70
     1
  0
STYLE
  5
11
330
3
100
AcDbSymbolTableRecord
100
AcDbTextStyleTableRecord
  2
STANDARD
 70
     0
 40
0.0
 41
1.0
 50
0.0
 71
     0
 42
2.5
  3
txt
  4

  0
ENDTAB
  0
TABLE
  2
VIEW
  5
6
330
0
100
AcDbSymbolTable
 70
     0
  0
ENDTAB
  0
TABLE
  2
UCS
  5
7
330
0
100
AcDbSymbolTable
 70
     0
  0
ENDTAB
  0
TABLE
  2
APPID
  5
9
330
0
100
AcDbSymbolTable
 70
     2
  0
APPID
  5
12
330
9
100
AcDbSymbolTableRecord
100
AcDbRegAppTableRecord
  2
ACAD
 70
     0
  0
ENDTAB
  0
TABLE
  2
DIMSTYLE
  5
A
330
0
100
AcDbSymbolTable
 70
     1
  0
DIMSTYLE
105
27
330
A
100
AcDbSymbolTableRecord
100
AcDbDimStyleTableRecord
  2
ISO-25
 70
     0
  3

  4

  5

  6

  7

 40
1.0
 41
2.5
 42
0.625
 43
3.75
 44
1.25
 45
0.0
 46
0.0
 47
0.0
 48
0.0
140
2.5
141
2.5
142
0.0
143
0.03937007874016
144
1.0
145
0.0
146
1.0
147
0.625
 71
     0
 72
     0
 73
     0
 74
     0
 75
     0
 76
     0
 77
     1
 78
     8
170
     0
171
     3
172
     1
173
     0
174
     0
175
     0
176
     0
177
     0
178
     0
270
     2
271
     2
272
     2
273
     2
274
     3
340
11
275
     0
280
     0
281
     0
282
     0
283
     0
284
     8
285
     0
286
     0
287
     3
288
     0
  0
ENDTAB
  0
TABLE
  2
BLOCK_RECORD
  5
1
330
0
100
AcDbSymbolTable
 70
     1
  0
BLOCK_RECORD
  5
1F
330
1
100
AcDbSymbolTableRecord
100
AcDbBlockTableRecord
  2
*MODEL_SPACE
  0
BLOCK_RECORD
  5
1B
330
1
100
AcDbSymbolTableRecord
100
AcDbBlockTableRecord
  2
*PAPER_SPACE
  0
ENDTAB
  0
ENDSEC
  0
SECTION
  2
BLOCKS
  0
BLOCK
  5
20
330
1F
100
AcDbEntity
  8
0
100
AcDbBlockBegin
  2
*MODEL_SPACE
 70
     0
 10
0.0
 20
0.0
 30
0.0
  3
*MODEL_SPACE
  1

  0
ENDBLK
  5
21
330
1F
100
AcDbEntity
  8
0
100
AcDbBlockEnd
  0
BLOCK
  5
1C
330
1B
100
AcDbEntity
 67
     1
  8
0
100
AcDbBlockBegin
  2
*PAPER_SPACE
  1

  0
ENDBLK
  5
1D
330
1B
100
AcDbEntity
 67
     1
  8
0
100
AcDbBlockEnd
  0
ENDSEC
  0
SECTION
  2
ENTITIES
  0
LINE
  5
100
100
AcDbEntity
  8
0
 62
7
100
AcDbLine
 10
0.000000
 20
292.000000
 30
0.0
 11
15.000012
 21
292.000000
 31
0.0
  0
LINE
  5
101
100
AcDbEntity
  8
0
 62
7
100
AcDbLine
 10
15.000012
 20
292.000000
 30
0.0
 11
15.000012
 21
288.999998
 31
0.0
  0
LINE
  5
102
100
AcDbEntity
  8
0
 62
7
100
AcDbLine
 10
15.000012
 20
288.999998
 30
0.0
 11
28.000023
 21
288.999998
 31
0.0
  0
LINE
  5
103
100
AcDbEntity
  8
0
 62
7
100
AcDbLine
 10
28.000023
 20
288.999998
 30
0.0
 11
28.000023
 21
292.000000
 31
0.0
  0
LINE
  5
104
100
AcDbEntity
  8
0
 62
7
100
AcDbLine
 10
28.000023
 20
292.000000
 30
0.0
 11
39.000032
 21
292.000000
 31
0.0
  0
LINE
  5
105
100
AcDbEntity
  8
0
 62
7
100
AcDbLine
 10
39.000032
 20
292.000000
 30
0.0
 11
39.000032
 21
288.999998
 31
0.0
  0
LINE
  5
106
100
AcDbEntity
  8
0
 62
7
100
AcDbLine
 10
39.000032
 20
288.999998
 30
0.0
 11
48.000039
 21
288.999998
 31
0.0
  0
LINE
  5
107
100
AcDbEntity
  8
0
 62
7
100
AcDbLine
 10
48.000039
 20
288.999998
 30
0.0
 11
48.000039
 21
292.000000
 31
0.0
  0
LINE
  5
108
100
AcDbEntity
  8
0
 62
7
100
AcDbLine
 10
48.000039
 20
292.000000
 30
0.0
 11
59.000049
 21
292.000000
 31
0.0
  0
LINE
  5
109
100
AcDbEntity
  8
0
 62
7
100
AcDbLine
 10
59.000049
 20
292.000000
 30
0.0
 11
59.000049
 21
288.999998
 31
0.0
  0
LINE
  5
10a
100
AcDbEntity
  8
0
 62
7
100
AcDbLine
 10
59.000049
 20
288.999998
 30
0.0
 11
68.000056
 21
288.999998
 31
0.0
  0
LINE
  5
10b
100
AcDbEntity
  8
0
 62
7
100
AcDbLine
 10
68.000056
 20
288.999998
 30
0.0
 11
68.000056
 21
292.000000
 31
0.0
  0
LINE
  5
10c
100
AcDbEntity
  8
0
 62
7
100
AcDbLine
 10
68.000056
 20
292.000000
 30
0.0
 11
79.000065
 21
292.000000
 31
0.0
  0
LINE
  5
10d
100
AcDbEntity
  8
0
 62
7
100
AcDbLine
 10
79.000065
 20
292.000000
 30
0.0
 11
79.000065
 21
288.999998
 31
0.0
  0
LINE
  5
10e
100
AcDbEntity
  8
0
 62
7
100
AcDbLine
 10
79.000065
 20
288.999998
 30
0.0
 11
88.000072
 21
288.999998
 31
0.0
  0
LINE
  5
10f
100
AcDbEntity
  8
0
 62
7
100
AcDbLine
 10
88.000072
 20
288.999998
 30
0.0
 11
88.000072
 21
292.000000
 31
0.0
  0
LINE
  5
110
100
AcDbEntity
  8
0
 62
7
100
AcDbLine
 10
88.000072
 20
292.000000
 30
0.0
 11
99.000081
 21
292.000000
 31
0.0
  0
LINE
  5
111
100
AcDbEntity
  8
0
 62
7
100
AcDbLine
 10
99.000081
 20
292.000000
 30
0.0
 11
99.000081
 21
288.999998
 31
0.0
  0
LINE
  5
112
100
AcDbEntity
  8
0
 62
7
100
AcDbLine
 10
99.000081
 20
288.999998
 30
0.0
 11
108.000089
 21
288.999998
 31
0.0
  0
LINE
  5
113
100
AcDbEntity
  8
0
 62
7
100
AcDbLine
 10
108.000089
 20
288.999998
 30
0.0
 11
108.000089
 21
292.000000
 31
0.0
  0
LINE
  5
114
100
AcDbEntity
  8
0
 62
7
100
AcDbLine
 10
108.000089
 20
292.000000
 30
0.0
 11
119.000098
 21
292.000000
 31
0.0
  0
LINE
  5
115
100
AcDbEntity
  8
0
 62
7
100
AcDbLine
 10
119.000098
 20
292.000000
 30
0.0
 11
119.000098
 21
288.999998
 31
0.0
  0
LINE
  5
116
100
AcDbEntity
  8
0
 62
7
100
AcDbLine
 10
119.000098
 20
288.999998
 30
0.0
 11
128.000105
 21
288.999998
 31
0.0
  0
LINE
  5
117
100
AcDbEntity
  8
0
 62
7
100
AcDbLine
 10
128.000105
 20
288.999998
 30
0.0
 11
128.000105
 21
292.000000
 31
0.0
  0
LINE
  5
118
100
AcDbEntity
  8
0
 62
7
100
AcDbLine
 10
128.000105
 20
292.000000
 30
0.0
 11
139.000114
 21
292.000000
 31
0.0
  0
LINE
  5
119
100
AcDbEntity
  8
0
 62
7
100
AcDbLine
 10
139.000114
 20
292.000000
 30
0.0
 11
139.000114
 21
288.999998
 31
0.0
  0
LINE
  5
11a
100
AcDbEntity
  8
0
 62
7
100
AcDbLine
 10
139.000114
 20
288.999998
 30
0.0
 11
148.000122
 21
288.999998
 31
0.0
  0
LINE
  5
11b
100
AcDbEntity
  8
0
 62
7
100
AcDbLine
 10
148.000122
 20
288.999998
 30
0.0
 11
148.000122
 21
292.000000
 31
0.0
  0
LINE
  5
11c
100
AcDbEntity
  8
0
 62
7
100
AcDbLine
 10
148.000122
 20
292.000000
 30
0.0
 11
159.000131
 21
292.000000
 31
0.0
  0
LINE
  5
11d
100
AcDbEntity
  8
0
 62
7
100
AcDbLine
 10
159.000131
 20
292.000000
 30
0.0
 11
159.000131
 21
288.999998
 31
0.0
  0
LINE
  5
11e
100
AcDbEntity
  8
0
 62
7
100
AcDbLine
 10
159.000131
 20
288.999998
 30
0.0
 11
168.000138
 21
288.999998
 31
0.0
  0
LINE
  5
11f
100
AcDbEntity
  8
0
 62
7
100
AcDbLine
 10
168.000138
 20
288.999998
 30
0.0
 11
168.000138
 21
292.000000
 31
0.0
  0
LINE
  5
120
100
AcDbEntity
  8
0
 62
7
100
AcDbLine
 10
168.000138
 20
292.000000
 30
0.0
 11
179.000147
 21
292.000000
 31
0.0
  0
LINE
  5
121
100
AcDbEntity
  8
0
 62
7
100
AcDbLine
 10
179.000147
 20
292.000000
 30
0.0
 11
179.000147
 21
288.999998
 31
0.0
  0
LINE
  5
122
100
AcDbEntity
  8
0
 62
7
100
AcDbLine
 10
179.000147
 20
288.999998
 30
0.0
 11
188.000155
 21
288.999998
 31
0.0
  0
LINE
  5
123
100
AcDbEntity
  8
0
 62
7
100
AcDbLine
 10
188.000155
 20
288.999998
 30
0.0
 11
188.000155
 21
292.000000
 31
0.0
  0
LINE
  5
124
100
AcDbEntity
  8
0
 62
7
100
AcDbLine
 10
188.000155
 20
292.000000
 30
0.0
 11
199.000164
 21
292.000000
 31
0.0
  0
LINE
  5
125
100
AcDbEntity
  8
0
 62
7
100
AcDbLine
 10
199.000164
 20
292.000000
 30
0.0
 11
199.000164
 21
288.999998
 31
0.0
  0
LINE
  5
126
100
AcDbEntity
  8
0
 62
7
100
AcDbLine
 10
199.000164
 20
288.999998
 30
0.0
 11
212.000174
 21
288.999998
 31
0.0
  0
LINE
  5
127
100
AcDbEntity
  8
0
 62
7
100
AcDbLine
 10
212.000174
 20
288.999998
 30
0.0
 11
212.000174
 21
292.000000
 31
0.0
  0
LINE
  5
128
100
AcDbEntity
  8
0
 62
7
100
AcDbLine
 10
212.000174
 20
292.000000
 30
0.0
 11
227.000187
 21
292.000000
 31
0.0
  0
LINE
  5
129
100
AcDbEntity
  8
0
 62
7
100
AcDbLine
 10
227.000187
 20
292.000000
 30
0.0
 11
227.000187
 21
276.999988
 31
0.0
  0
LINE
  5
12a
100
AcDbEntity
  8
0
 62
7
100
AcDbLine
 10
227.000187
 20
276.999988
 30
0.0
 11
224.000184
 21
276.999988
 31
0.0
  0
LINE
  5
12b
100
AcDbEntity
  8
0
 62
7
100
AcDbLine
 10
224.000184
 20
276.999988
 30
0.0
 11
224.000184
 21
263.999977
 31
0.0
  0
LINE
  5
12c
100
AcDbEntity
  8
0
 62
7
100
AcDbLine
 10
224.000184
 20
263.999977
 30
0.0
 11
227.000187
 21
263.999977
 31
0.0
  0
LINE
  5
12d
100
AcDbEntity
  8
0
 62
7
100
AcDbLine
 10
227.000187
 20
263.999977
 30
0.0
 11
227.000187
 21
252.999968
 31
0.0
  0
LINE
  5
12e
100
AcDbEntity
  8
0
 62
7
100
AcDbLine
 10
227.000187
 20
252.999968
 30
0.0
 11
224.000184
 21
252.999968
 31
0.0
  0
LINE
  5
12f
100
AcDbEntity
  8
0
 62
7
100
AcDbLine
 10
224.000184
 20
252.999968
 30
0.0
 11
224.000184
 21
239.999957
 31
0.0
  0
LINE
  5
130
100
AcDbEntity
  8
0
 62
7
100
AcDbLine
 10
224.000184
 20
239.999957
 30
0.0
 11
227.000187
 21
239.999957
 31
0.0
  0
LINE
  5
131
100
AcDbEntity
  8
0
 62
7
100
AcDbLine
 10
227.000187
 20
239.999957
 30
0.0
 11
227.000187
 21
224.999945
 31
0.0
  0
LINE
  5
132
100
AcDbEntity
  8
0
 62
7
100
AcDbLine
 10
227.000187
 20
224.999945
 30
0.0
 11
212.000174
 21
224.999945
 31
0.0
  0
LINE
  5
133
100
AcDbEntity
  8
0
 62
7
100
AcDbLine
 10
212.000174
 20
224.999945
 30
0.0
 11
212.000174
 21
227.999947
 31
0.0
  0
LINE
  5
134
100
AcDbEntity
  8
0
 62
7
100
AcDbLine
 10
212.000174
 20
227.999947
 30
0.0
 11
199.000164
 21
227.999947
 31
0.0
  0
LINE
  5
135
100
AcDbEntity
  8
0
 62
7
100
AcDbLine
 10
199.000164
 20
227.999947
 30
0.0
 11
199.000164
 21
224.999945
 31
0.0
  0
LINE
  5
136
100
AcDbEntity
  8
0
 62
7
100
AcDbLine
 10
199.000164
 20
224.999945
 30
0.0
 11
188.000155
 21
224.999945
 31
0.0
  0
LINE
  5
137
100
AcDbEntity
  8
0
 62
7
100
AcDbLine
 10
188.000155
 20
224.999945
 30
0.0
 11
188.000155
 21
227.999947
 31
0.0
  0
LINE
  5
138
100
AcDbEntity
  8
0
 62
7
100
AcDbLine
 10
188.000155
 20
227.999947
 30
0.0
 11
179.000147
 21
227.999947
 31
0.0
  0
LINE
  5
139
100
AcDbEntity
  8
0
 62
7
100
AcDbLine
 10
179.000147
 20
227.999947
 30
0.0
 11
179.000147
 21
224.999945
 31
0.0
  0
LINE
  5
13a
100
AcDbEntity
  8
0
 62
7
100
AcDbLine
 10
179.000147
 20
224.999945
 30
0.0
 11
168.000138
 21
224.999945
 31
0.0
  0
LINE
  5
13b
100
AcDbEntity
  8
0
 62
7
100
AcDbLine
 10
168.000138
 20
224.999945
 30
0.0
 11
168.000138
 21
227.999947
 31
0.0
  0
LINE
  5
13c
100
AcDbEntity
  8
0
 62
7
100
AcDbLine
 10
168.000138
 20
227.999947
 30
0.0
 11
159.000131
 21
227.999947
 31
0.0
  0
LINE
  5
13d
100
AcDbEntity
  8
0
 62
7
100
AcDbLine
 10
159.000131
 20
227.999947
 30
0.0
 11
159.000131
 21
224.999945
 31
0.0
  0
LINE
  5
13e
100
AcDbEntity
  8
0
 62
7
100
AcDbLine
 10
159.000131
 20
224.999945
 30
0.0
 11
148.000122
 21
224.999945
 31
0.0
  0
LINE
  5
13f
100
AcDbEntity
  8
0
 62
7
100
AcDbLine
 10
148.000122
 20
224.999945
 30
0.0
 11
148.000122
 21
227.999947
 31
0.0
  0
LINE
  5
140
100
AcDbEntity
  8
0
 62
7
100
AcDbLine
 10
148.000122
 20
227.999947
 30
0.0
 11
139.000114
 21
227.999947
 31
0.0
  0
LINE
  5
141
100
AcDbEntity
  8
0
 62
7
100
AcDbLine
 10
139.000114
 20
227.999947
 30
0.0
 11
139.000114
 21
224.999945
 31
0.0
  0
LINE
  5
142
100
AcDbEntity
  8
0
 62
7
100
AcDbLine
 10
139.000114
 20
224.999945
 30
0.0
 11
128.000105
 21
224.999945
 31
0.0
  0
LINE
  5
143
100
AcDbEntity
  8
0
 62
7
100
AcDbLine
 10
128.000105
 20
224.999945
 30
0.0
 11
128.000105
 21
227.999947
 31
0.0
  0
LINE
  5
144
100
AcDbEntity
  8
0
 62
7
100
AcDbLine
 10
128.000105
 20
227.999947
 30
0.0
 11
119.000098
 21
227.999947
 31
0.0
  0
LINE
  5
145
100
AcDbEntity
  8
0
 62
7
100
AcDbLine
 10
119.000098
 20
227.999947
 30
0.0
 11
119.000098
 21
224.999945
 31
0.0
  0
LINE
  5
146
100
AcDbEntity
  8
0
 62
7
100
AcDbLine
 10
119.000098
 20
224.999945
 30
0.0
 11
108.000089
 21
224.999945
 31
0.0
  0
LINE
  5
147
100
AcDbEntity
  8
0
 62
7
100
AcDbLine
 10
108.000089
 20
224.999945
 30
0.0
 11
108.000089
 21
227.999947
 31
0.0
  0
LINE
  5
148
100
AcDbEntity
  8
0
 62
7
100
AcDbLine
 10
108.000089
 20
227.999947
 30
0.0
 11
99.000081
 21
227.999947
 31
0.0
  0
LINE
  5
149
100
AcDbEntity
  8
0
 62
7
100
AcDbLine
 10
99.000081
 20
227.999947
 30
0.0
 11
99.000081
 21
224.999945
 31
0.0
  0
LINE
  5
14a
100
AcDbEntity
  8
0
 62
7
100
AcDbLine
 10
99.000081
 20
224.999945
 30
0.0
 11
88.000072
 21
224.999945
 31
0.0
  0
LINE
  5
14b
100
AcDbEntity
  8
0
 62
7
100
AcDbLine
 10
88.000072
 20
224.999945
 30
0.0
 11
88.000072
 21
227.999947
 31
0.0
  0
LINE
  5
14c
100
AcDbEntity
  8
0
 62
7
100
AcDbLine
 10
88.000072
 20
227.999947
 30
0.0
 11
79.000065
 21
227.999947
 31
0.0
  0
LINE
  5
14d
100
AcDbEntity
  8
0
 62
7
100
AcDbLine
 10
79.000065
 20
227.999947
 30
0.0
 11
79.000065
 21
224.999945
 31
0.0
  0
LINE
  5
14e
100
AcDbEntity
  8
0
 62
7
100
AcDbLine
 10
79.000065
 20
224.999945
 30
0.0
 11
68.000056
 21
224.999945
 31
0.0
  0
LINE
  5
14f
100
AcDbEntity
  8
0
 62
7
100
AcDbLine
 10
68.000056
 20
224.999945
 30
0.0
 11
68.000056
 21
227.999947
 31
0.0
  0
LINE
  5
150
100
AcDbEntity
  8
0
 62
7
100
AcDbLine
 10
68.000056
 20
227.999947
 30
0.0
 11
59.000049
 21
227.999947
 31
0.0
  0
LINE
  5
151
100
AcDbEntity
  8
0
 62
7
100
AcDbLine
 10
59.000049
 20
227.999947
 30
0.0
 11
59.000049
 21
224.999945
 31
0.0
  0
LINE
  5
152
100
AcDbEntity
  8
0
 62
7
100
AcDbLine
 10
59.000049
 20
224.999945
 30
0.0
 11
48.000039
 21
224.999945
 31
0.0
  0
LINE
  5
153
100
AcDbEntity
  8
0
 62
7
100
AcDbLine
 10
48.000039
 20
224.999945
 30
0.0
 11
48.000039
 21
227.999947
 31
0.0
  0
LINE
  5
154
100
AcDbEntity
  8
0
 62
7
100
AcDbLine
 10
48.000039
 20
227.999947
 30
0.0
 11
39.000032
 21
227.999947
 31
0.0
  0
LINE
  5
155
100
AcDbEntity
  8
0
 62
7
100
AcDbLine
 10
39.000032
 20
227.999947
 30
0.0
 11
39.000032
 21
224.999945
 31
0.0
  0
LINE
  5
156
100
AcDbEntity
  8
0
 62
7
100
AcDbLine
 10
39.000032
 20
224.999945
 30
0.0
 11
28.000023
 21
224.999945
 31
0.0
  0
LINE
  5
157
100
AcDbEntity
  8
0
 62
7
100
AcDbLine
 10
28.000023
 20
224.999945
 30
0.0
 11
28.000023
 21
227.999947
 31
0.0
  0
LINE
  5
158
100
AcDbEntity
  8
0
 62
7
100
AcDbLine
 10
28.000023
 20
227.999947
 30
0.0
 11
15.000012
 21
227.999947
 31
0.0
  0
LINE
  5
159
100
AcDbEntity
  8
0
 62
7
100
AcDbLine
 10
15.000012
 20
227.999947
 30
0.0
 11
15.000012
 21
224.999945
 31
0.0
  0
LINE
  5
15a
100
AcDbEntity
  8
0
 62
7
100
AcDbLine
 10
15.000012
 20
224.999945
 30
0.0
 11
-0.000000
 21
224.999945
 31
0.0
  0
LINE
  5
15b
100
AcDbEntity
  8
0
 62
7
100
AcDbLine
 10
-0.000000
 20
224.999945
 30
0.0
 11
-0.000000
 21
239.999957
 31
0.0
  0
LINE
  5
15c
100
AcDbEntity
  8
0
 62
7
100
AcDbLine
 10
-0.000000
 20
239.999957
 30
0.0
 11
3.000002
 21
239.999957
 31
0.0
  0
LINE
  5
15d
100
AcDbEntity
  8
0
 62
7
100
AcDbLine
 10
3.000002
 20
239.999957
 30
0.0
 11
3.000002
 21
252.999968
 31
0.0
  0
LINE
  5
15e
100
AcDbEntity
  8
0
 62
7
100
AcDbLine
 10
3.000002
 20
252.999968
 30
0.0
 11
-0.000000
 21
252.999968
 31
0.0
  0
LINE
  5
15f
100
AcDbEntity
  8
0
 62
7
100
AcDbLine
 10
-0.000000
 20
252.999968
 30
0.0
 11
-0.000000
 21
263.999977
 31
0.0
  0
LINE
  5
160
100
AcDbEntity
  8
0
 62
7
100
AcDbLine
 10
-0.000000
 20
263.999977
 30
0.0
 11
3.000002
 21
263.999977
 31
0.0
  0
LINE
  5
161
100
AcDbEntity
  8
0
 62
7
100
AcDbLine
 10
3.000002
 20
263.999977
 30
0.0
 11
3.000002
 21
276.999988
 31
0.0
  0
LINE
  5
162
100
AcDbEntity
  8
0
 62
7
100
AcDbLine
 10
3.000002
 20
276.999988
 30
0.0
 11
-0.000000
 21
276.999988
 31
0.0
  0
LINE
  5
163
100
AcDbEntity
  8
0
 62
7
100
AcDbLine
 10
-0.000000
 20
276.999988
 30
0.0
 11
0.000000
 21
292.000000
 31
0.0
  0
LINE
  5
164
100
AcDbEntity
  8
0
 62
7
100
AcDbLine
 10
227.000187
 20
292.000000
 30
0.0
 11
242.000199
 21
292.000000
 31
0.0
  0
LINE
  5
165
100
AcDbEntity
  8
0
 62
7
100
AcDbLine
 10
242.000199
 20
292.000000
 30
0.0
 11
242.000199
 21
288.999998
 31
0.0
  0
LINE
  5
166
100
AcDbEntity
  8
0
 62
7
100
AcDbLine
 10
242.000199
 20
288.999998
 30
0.0
 11
255.000210
 21
288.999998
 31
0.0
  0
LINE
  5
167
100
AcDbEntity
  8
0
 62
7
100
AcDbLine
 10
255.000210
 20
288.999998
 30
0.0
 11
255.000210
 21
292.000000
 31
0.0
  0
LINE
  5
168
100
AcDbEntity
  8
0
 62
7
100
AcDbLine
 10
255.000210
 20
292.000000
 30
0.0
 11
266.000219
 21
292.000000
 31
0.0
  0
LINE
  5
169
100
AcDbEntity
  8
0
 62
7
100
AcDbLine
 10
266.000219
 20
292.000000
 30
0.0
 11
266.000219
 21
288.999998
 31
0.0
  0
LINE
  5
16a
100
AcDbEntity
  8
0
 62
7
100
AcDbLine
 10
266.000219
 20
288.999998
 30
0.0
 11
275.000226
 21
288.999998
 31
0.0
  0
LINE
  5
16b
100
AcDbEntity
  8
0
 62
7
100
AcDbLine
 10
275.000226
 20
288.999998
 30
0.0
 11
275.000226
 21
292.000000
 31
0.0
  0
LINE
  5
16c
100
AcDbEntity
  8
0
 62
7
100
AcDbLine
 10
275.000226
 20
292.000000
 30
0.0
 11
286.000235
 21
292.000000
 31
0.0
  0
LINE
  5
16d
100
AcDbEntity
  8
0
 62
7
100
AcDbLine
 10
286.000235
 20
292.000000
 30
0.0
 11
286.000235
 21
288.999998
 31
0.0
  0
LINE
  5
16e
100
AcDbEntity
  8
0
 62
7
100
AcDbLine
 10
286.000235
 20
288.999998
 30
0.0
 11
295.000243
 21
288.999998
 31
0.0
  0
LINE
  5
16f
100
AcDbEntity
  8
0
 62
7
100
AcDbLine
 10
295.000243
 20
288.999998
 30
0.0
 11
295.000243
 21
292.000000
 31
0.0
  0
LINE
  5
170
100
AcDbEntity
  8
0
 62
7
100
AcDbLine
 10
295.000243
 20
292.000000
 30
0.0
 11
306.000252
 21
292.000000
 31
0.0
  0
LINE
  5
171
100
AcDbEntity
  8
0
 62
7
100
AcDbLine
 10
306.000252
 20
292.000000
 30
0.0
 11
306.000252
 21
288.999998
 31
0.0
  0
LINE
  5
172
100
AcDbEntity
  8
0
 62
7
100
AcDbLine
 10
306.000252
 20
288.999998
 30
0.0
 11
315.000259
 21
288.999998
 31
0.0
  0
LINE
  5
173
100
AcDbEntity
  8
0
 62
7
100
AcDbLine
 10
315.000259
 20
288.999998
 30
0.0
 11
315.000259
 21
292.000000
 31
0.0
  0
LINE
  5
174
100
AcDbEntity
  8
0
 62
7
100
AcDbLine
 10
315.000259
 20
292.000000
 30
0.0
 11
326.000268
 21
292.000000
 31
0.0
  0
LINE
  5
175
100
AcDbEntity
  8
0
 62
7
100
AcDbLine
 10
326.000268
 20
292.000000
 30
0.0
 11
326.000268
 21
288.999998
 31
0.0
  0
LINE
  5
176
100
AcDbEntity
  8
0
 62
7
100
AcDbLine
 10
326.000268
 20
288.999998
 30
0.0
 11
335.000275
 21
288.999998
 31
0.0
  0
LINE
  5
177
100
AcDbEntity
  8
0
 62
7
100
AcDbLine
 10
335.000275
 20
288.999998
 30
0.0
 11
335.000275
 21
292.000000
 31
0.0
  0
LINE
  5
178
100
AcDbEntity
  8
0
 62
7
100
AcDbLine
 10
335.000275
 20
292.000000
 30
0.0
 11
346.000284
 21
292.000000
 31
0.0
  0
LINE
  5
179
100
AcDbEntity
  8
0
 62
7
100
AcDbLine
 10
346.000284
 20
292.000000
 30
0.0
 11
346.000284
 21
288.999998
 31
0.0
  0
LINE
  5
17a
100
AcDbEntity
  8
0
 62
7
100
AcDbLine
 10
346.000284
 20
288.999998
 30
0.0
 11
355.000292
 21
288.999998
 31
0.0
  0
LINE
  5
17b
100
AcDbEntity
  8
0
 62
7
100
AcDbLine
 10
355.000292
 20
288.999998
 30
0.0
 11
355.000292
 21
292.000000
 31
0.0
  0
LINE
  5
17c
100
AcDbEntity
  8
0
 62
7
100
AcDbLine
 10
355.000292
 20
292.000000
 30
0.0
 11
366.000301
 21
292.000000
 31
0.0
  0
LINE
  5
17d
100
AcDbEntity
  8
0
 62
7
100
AcDbLine
 10
366.000301
 20
292.000000
 30
0.0
 11
366.000301
 21
288.999998
 31
0.0
  0
LINE
  5
17e
100
AcDbEntity
  8
0
 62
7
100
AcDbLine
 10
366.000301
 20
288.999998
 30
0.0
 11
375.000308
 21
288.999998
 31
0.0
  0
LINE
  5
17f
100
AcDbEntity
  8
0
 62
7
100
AcDbLine
 10
375.000308
 20
288.999998
 30
0.0
 11
375.000308
 21
292.000000
 31
0.0
  0
LINE
  5
180
100
AcDbEntity
  8
0
 62
7
100
AcDbLine
 10
375.000308
 20
292.000000
 30
0.0
 11
386.000317
 21
292.000000
 31
0.0
  0
LINE
  5
181
100
AcDbEntity
  8
0
 62
7
100
AcDbLine
 10
386.000317
 20
292.000000
 30
0.0
 11
386.000317
 21
288.999998
 31
0.0
  0
LINE
  5
182
100
AcDbEntity
  8
0
 62
7
100
AcDbLine
 10
386.000317
 20
288.999998
 30
0.0
 11
395.000325
 21
288.999998
 31
0.0
  0
LINE
  5
183
100
AcDbEntity
  8
0
 62
7
100
AcDbLine
 10
395.000325
 20
288.999998
 30
0.0
 11
395.000325
 21
292.000000
 31
0.0
  0
LINE
  5
184
100
AcDbEntity
  8
0
 62
7
100
AcDbLine
 10
395.000325
 20
292.000000
 30
0.0
 11
406.000334
 21
292.000000
 31
0.0
  0
LINE
  5
185
100
AcDbEntity
  8
0
 62
7
100
AcDbLine
 10
406.000334
 20
292.000000
 30
0.0
 11
406.000334
 21
288.999998
 31
0.0
  0
LINE
  5
186
100
AcDbEntity
  8
0
 62
7
100
AcDbLine
 10
406.000334
 20
288.999998
 30
0.0
 11
415.000341
 21
288.999998
 31
0.0
  0
LINE
  5
187
100
AcDbEntity
  8
0
 62
7
100
AcDbLine
 10
415.000341
 20
288.999998
 30
0.0
 11
415.000341
 21
292.000000
 31
0.0
  0
LINE
  5
188
100
AcDbEntity
  8
0
 62
7
100
AcDbLine
 10
415.000341
 20
292.000000
 30
0.0
 11
426.000350
 21
292.000000
 31
0.0
  0
LINE
  5
189
100
AcDbEntity
  8
0
 62
7
100
AcDbLine
 10
426.000350
 20
292.000000
 30
0.0
 11
426.000350
 21
288.999998
 31
0.0
  0
LINE
  5
18a
100
AcDbEntity
  8
0
 62
7
100
AcDbLine
 10
426.000350
 20
288.999998
 30
0.0
 11
439.000361
 21
288.999998
 31
0.0
  0
LINE
  5
18b
100
AcDbEntity
  8
0
 62
7
100
AcDbLine
 10
439.000361
 20
288.999998
 30
0.0
 11
439.000361
 21
292.000000
 31
0.0
  0
LINE
  5
18c
100
AcDbEntity
  8
0
 62
7
100
AcDbLine
 10
439.000361
 20
292.000000
 30
0.0
 11
454.000373
 21
292.000000
 31
0.0
  0
LINE
  5
18d
100
AcDbEntity
  8
0
 62
7
100
AcDbLine
 10
454.000373
 20
292.000000
 30
0.0
 11
454.000373
 21
276.999988
 31
0.0
  0
LINE
  5
18e
100
AcDbEntity
  8
0
 62
7
100
AcDbLine
 10
454.000373
 20
276.999988
 30
0.0
 11
451.000371
 21
276.999988
 31
0.0
  0
LINE
  5
18f
100
AcDbEntity
  8
0
 62
7
100
AcDbLine
 10
451.000371
 20
276.999988
 30
0.0
 11
451.000371
 21
263.999977
 31
0.0
  0
LINE
  5
190
100
AcDbEntity
  8
0
 62
7
100
AcDbLine
 10
451.000371
 20
263.999977
 30
0.0
 11
454.000373
 21
263.999977
 31
0.0
  0
LINE
  5
191
100
AcDbEntity
  8
0
 62
7
100
AcDbLine
 10
454.000373
 20
263.999977
 30
0.0
 11
454.000373
 21
252.999968
 31
0.0
  0
LINE
  5
192
100
AcDbEntity
  8
0
 62
7
100
AcDbLine
 10
454.000373
 20
252.999968
 30
0.0
 11
451.000371
 21
252.999968
 31
0.0
  0
LINE
  5
193
100
AcDbEntity
  8
0
 62
7
100
AcDbLine
 10
451.000371
 20
252.999968
 30
0.0
 11
451.000371
 21
239.999957
 31
0.0
  0
LINE
  5
194
100
AcDbEntity
  8
0
 62
7
100
AcDbLine
 10
451.000371
 20
239.999957
 30
0.0
 11
454.000373
 21
239.999957
 31
0.0
  0
LINE
  5
195
100
AcDbEntity
  8
0
 62
7
100
AcDbLine
 10
454.000373
 20
239.999957
 30
0.0
 11
454.000373
 21
224.999945
 31
0.0
  0
LINE
  5
196
100
AcDbEntity
  8
0
 62
7
100
AcDbLine
 10
454.000373
 20
224.999945
 30
0.0
 11
439.000361
 21
224.999945
 31
0.0
  0
LINE
  5
197
100
AcDbEntity
  8
0
 62
7
100
AcDbLine
 10
439.000361
 20
224.999945
 30
0.0
 11
439.000361
 21
227.999947
 31
0.0
  0
LINE
  5
198
100
AcDbEntity
  8
0
 62
7
100
AcDbLine
 10
439.000361
 20
227.999947
 30
0.0
 11
426.000350
 21
227.999947
 31
0.0
  0
LINE
  5
199
100
AcDbEntity
  8
0
 62
7
100
AcDbLine
 10
426.000350
 20
227.999947
 30
0.0
 11
426.000350
 21
224.999945
 31
0.0
  0
LINE
  5
19a
100
AcDbEntity
  8
0
 62
7
100
AcDbLine
 10
426.000350
 20
224.999945
 30
0.0
 11
415.000341
 21
224.999945
 31
0.0
  0
LINE
  5
19b
100
AcDbEntity
  8
0
 62
7
100
AcDbLine
 10
415.000341
 20
224.999945
 30
0.0
 11
415.000341
 21
227.999947
 31
0.0
  0
LINE
  5
19c
100
AcDbEntity
  8
0
 62
7
100
AcDbLine
 10
415.000341
 20
227.999947
 30
0.0
 11
406.000334
 21
227.999947
 31
0.0
  0
LINE
  5
19d
100
AcDbEntity
  8
0
 62
7
100
AcDbLine
 10
406.000334
 20
227.999947
 30
0.0
 11
406.000334
 21
224.999945
 31
0.0
  0
LINE
  5
19e
100
AcDbEntity
  8
0
 62
7
100
AcDbLine
 10
406.000334
 20
224.999945
 30
0.0
 11
395.000325
 21
224.999945
 31
0.0
  0
LINE
  5
19f
100
AcDbEntity
  8
0
 62
7
100
AcDbLine
 10
395.000325
 20
224.999945
 30
0.0
 11
395.000325
 21
227.999947
 31
0.0
  0
LINE
  5
1a0
100
AcDbEntity
  8
0
 62
7
100
AcDbLine
 10
395.000325
 20
227.999947
 30
0.0
 11
386.000317
 21
227.999947
 31
0.0
  0
LINE
  5
1a1
100
AcDbEntity
  8
0
 62
7
100
AcDbLine
 10
386.000317
 20
227.999947
 30
0.0
 11
386.000317
 21
224.999945
 31
0.0
  0
LINE
  5
1a2
100
AcDbEntity
  8
0
 62
7
100
AcDbLine
 10
386.000317
 20
224.999945
 30
0.0
 11
375.000308
 21
224.999945
 31
0.0
  0
LINE
  5
1a3
100
AcDbEntity
  8
0
 62
7
100
AcDbLine
 10
375.000308
 20
224.999945
 30
0.0
 11
375.000308
 21
227.999947
 31
0.0
  0
LINE
  5
1a4
100
AcDbEntity
  8
0
 62
7
100
AcDbLine
 10
375.000308
 20
227.999947
 30
0.0
 11
366.000301
 21
227.999947
 31
0.0
  0
LINE
  5
1a5
100
AcDbEntity
  8
0
 62
7
100
AcDbLine
 10
366.000301
 20
227.999947
 30
0.0
 11
366.000301
 21
224.999945
 31
0.0
  0
LINE
  5
1a6
100
AcDbEntity
  8
0
 62
7
100
AcDbLine
 10
366.000301
 20
224.999945
 30
0.0
 11
355.000292
 21
224.999945
 31
0.0
  0
LINE
  5
1a7
100
AcDbEntity
  8
0
 62
7
100
AcDbLine
 10
355.000292
 20
224.999945
 30
0.0
 11
355.000292
 21
227.999947
 31
0.0
  0
LINE
  5
1a8
100
AcDbEntity
  8
0
 62
7
100
AcDbLine
 10
355.000292
 20
227.999947
 30
0.0
 11
346.000284
 21
227.999947
 31
0.0
  0
LINE
  5
1a9
100
AcDbEntity
  8
0
 62
7
100
AcDbLine
 10
346.000284
 20
227.999947
 30
0.0
 11
346.000284
 21
224.999945
 31
0.0
  0
LINE
  5
1aa
100
AcDbEntity
  8
0
 62
7
100
AcDbLine
 10
346.000284
 20
224.999945
 30
0.0
 11
335.000275
 21
224.999945
 31
0.0
  0
LINE
  5
1ab
100
AcDbEntity
  8
0
 62
7
100
AcDbLine
 10
335.000275
 20
224.999945
 30
0.0
 11
335.000275
 21
227.999947
 31
0.0
  0
LINE
  5
1ac
100
AcDbEntity
  8
0
 62
7
100
AcDbLine
 10
335.000275
 20
227.999947
 30
0.0
 11
326.000268
 21
227.999947
 31
0.0
  0
LINE
  5
1ad
100
AcDbEntity
  8
0
 62
7
100
AcDbLine
 10
326.000268
 20
227.999947
 30
0.0
 11
326.000268
 21
224.999945
 31
0.0
  0
LINE
  5
1ae
100
AcDbEntity
  8
0
 62
7
100
AcDbLine
 10
326.000268
 20
224.999945
 30
0.0
 11
315.000259
 21
224.999945
 31
0.0
  0
LINE
  5
1af
100
AcDbEntity
  8
0
 62
7
100
AcDbLine
 10
315.000259
 20
224.999945
 30
0.0
 11
315.000259
 21
227.999947
 31
0.0
  0
LINE
  5
1b0
100
AcDbEntity
  8
0
 62
7
100
AcDbLine
 10
315.000259
 20
227.999947
 30
0.0
 11
306.000252
 21
227.999947
 31
0.0
  0
LINE
  5
1b1
100
AcDbEntity
  8
0
 62
7
100
AcDbLine
 10
306.000252
 20
227.999947
 30
0.0
 11
306.000252
 21
224.999945
 31
0.0
  0
LINE
  5
1b2
100
AcDbEntity
  8
0
 62
7
100
AcDbLine
 10
306.000252
 20
224.999945
 30
0.0
 11
295.000243
 21
224.999945
 31
0.0
  0
LINE
  5
1b3
100
AcDbEntity
  8
0
 62
7
100
AcDbLine
 10
295.000243
 20
224.999945
 30
0.0
 11
295.000243
 21
227.999947
 31
0.0
  0
LINE
  5
1b4
100
AcDbEntity
  8
0
 62
7
100
AcDbLine
 10
295.000243
 20
227.999947
 30
0.0
 11
286.000235
 21
227.999947
 31
0.0
  0
LINE
  5
1b5
100
AcDbEntity
  8
0
 62
7
100
AcDbLine
 10
286.000235
 20
227.999947
 30
0.0
 11
286.000235
 21
224.999945
 31
0.0
  0
LINE
  5
1b6
100
AcDbEntity
  8
0
 62
7
100
AcDbLine
 10
286.000235
 20
224.999945
 30
0.0
 11
275.000226
 21
224.999945
 31
0.0
  0
LINE
  5
1b7
100
AcDbEntity
  8
0
 62
7
100
AcDbLine
 10
275.000226
 20
224.999945
 30
0.0
 11
275.000226
 21
227.999947
 31
0.0
  0
LINE
  5
1b8
100
AcDbEntity
  8
0
 62
7
100
AcDbLine
 10
275.000226
 20
227.999947
 30
0.0
 11
266.000219
 21
227.999947
 31
0.0
  0
LINE
  5
1b9
100
AcDbEntity
  8
0
 62
7
100
AcDbLine
 10
266.000219
 20
227.999947
 30
0.0
 11
266.000219
 21
224.999945
 31
0.0
  0
LINE
  5
1ba
100
AcDbEntity
  8
0
 62
7
100
AcDbLine
 10
266.000219
 20
224.999945
 30
0.0
 11
255.000210
 21
224.999945
 31
0.0
  0
LINE
  5
1bb
100
AcDbEntity
  8
0
 62
7
100
AcDbLine
 10
255.000210
 20
224.999945
 30
0.0
 11
255.000210
 21
227.999947
 31
0.0
  0
LINE
  5
1bc
100
AcDbEntity
  8
0
 62
7
100
AcDbLine
 10
255.000210
 20
227.999947
 30
0.0
 11
242.000199
 21
227.999947
 31
0.0
  0
LINE
  5
1bd
100
AcDbEntity
  8
0
 62
7
100
AcDbLine
 10
242.000199
 20
227.999947
 30
0.0
 11
242.000199
 21
224.999945
 31
0.0
  0
LINE
  5
1be
100
AcDbEntity
  8
0
 62
7
100
AcDbLine
 10
242.000199
 20
224.999945
 30
0.0
 11
227.000187
 21
224.999945
 31
0.0
  0
LINE
  5
1bf
100
AcDbEntity
  8
0
 62
7
100
AcDbLine
 10
227.000187
 20
224.999945
 30
0.0
 11
227.000187
 21
239.999957
 31
0.0
  0
LINE
  5
1c0
100
AcDbEntity
  8
0
 62
7
100
AcDbLine
 10
227.000187
 20
239.999957
 30
0.0
 11
230.000189
 21
239.999957
 31
0.0
  0
LINE
  5
1c1
100
AcDbEntity
  8
0
 62
7
100
AcDbLine
 10
230.000189
 20
239.999957
 30
0.0
 11
230.000189
 21
252.999968
 31
0.0
  0
LINE
  5
1c2
100
AcDbEntity
  8
0
 62
7
100
AcDbLine
 10
230.000189
 20
252.999968
 30
0.0
 11
227.000187
 21
252.999968
 31
0.0
  0
LINE
  5
1c3
100
AcDbEntity
  8
0
 62
7
100
AcDbLine
 10
227.000187
 20
252.999968
 30
0.0
 11
227.000187
 21
263.999977
 31
0.0
  0
LINE
  5
1c4
100
AcDbEntity
  8
0
 62
7
100
AcDbLine
 10
227.000187
 20
263.999977
 30
0.0
 11
230.000189
 21
263.999977
 31
0.0
  0
LINE
  5
1c5
100
AcDbEntity
  8
0
 62
7
100
AcDbLine
 10
230.000189
 20
263.999977
 30
0.0
 11
230.000189
 21
276.999988
 31
0.0
  0
LINE
  5
1c6
100
AcDbEntity
  8
0
 62
7
100
AcDbLine
 10
230.000189
 20
276.999988
 30
0.0
 11
227.000187
 21
276.999988
 31
0.0
  0
LINE
  5
1c7
100
AcDbEntity
  8
0
 62
7
100
AcDbLine
 10
227.000187
 20
276.999988
 30
0.0
 11
227.000187
 21
292.000000
 31
0.0
  0
LINE
  5
1c8
100
AcDbEntity
  8
0
 62
7
100
AcDbLine
 10
457.000376
 20
292.000000
 30
0.0
 11
469.000386
 21
292.000000
 31
0.0
  0
LINE
  5
1c9
100
AcDbEntity
  8
0
 62
7
100
AcDbLine
 10
469.000386
 20
292.000000
 30
0.0
 11
469.000386
 21
288.999998
 31
0.0
  0
LINE
  5
1ca
100
AcDbEntity
  8
0
 62
7
100
AcDbLine
 10
469.000386
 20
288.999998
 30
0.0
 11
482.000396
 21
288.999998
 31
0.0
  0
LINE
  5
1cb
100
AcDbEntity
  8
0
 62
7
100
AcDbLine
 10
482.000396
 20
288.999998
 30
0.0
 11
482.000396
 21
292.000000
 31
0.0
  0
LINE
  5
1cc
100
AcDbEntity
  8
0
 62
7
100
AcDbLine
 10
482.000396
 20
292.000000
 30
0.0
 11
493.000405
 21
292.000000
 31
0.0
  0
LINE
  5
1cd
100
AcDbEntity
  8
0
 62
7
100
AcDbLine
 10
493.000405
 20
292.000000
 30
0.0
 11
493.000405
 21
288.999998
 31
0.0
  0
LINE
  5
1ce
100
AcDbEntity
  8
0
 62
7
100
AcDbLine
 10
493.000405
 20
288.999998
 30
0.0
 11
502.000413
 21
288.999998
 31
0.0
  0
LINE
  5
1cf
100
AcDbEntity
  8
0
 62
7
100
AcDbLine
 10
502.000413
 20
288.999998
 30
0.0
 11
502.000413
 21
292.000000
 31
0.0
  0
LINE
  5
1d0
100
AcDbEntity
  8
0
 62
7
100
AcDbLine
 10
502.000413
 20
292.000000
 30
0.0
 11
513.000422
 21
292.000000
 31
0.0
  0
LINE
  5
1d1
100
AcDbEntity
  8
0
 62
7
100
AcDbLine
 10
513.000422
 20
292.000000
 30
0.0
 11
513.000422
 21
288.999998
 31
0.0
  0
LINE
  5
1d2
100
AcDbEntity
  8
0
 62
7
100
AcDbLine
 10
513.000422
 20
288.999998
 30
0.0
 11
522.000429
 21
288.999998
 31
0.0
  0
LINE
  5
1d3
100
AcDbEntity
  8
0
 62
7
100
AcDbLine
 10
522.000429
 20
288.999998
 30
0.0
 11
522.000429
 21
292.000000
 31
0.0
  0
LINE
  5
1d4
100
AcDbEntity
  8
0
 62
7
100
AcDbLine
 10
522.000429
 20
292.000000
 30
0.0
 11
533.000438
 21
292.000000
 31
0.0
  0
LINE
  5
1d5
100
AcDbEntity
  8
0
 62
7
100
AcDbLine
 10
533.000438
 20
292.000000
 30
0.0
 11
533.000438
 21
288.999998
 31
0.0
  0
LINE
  5
1d6
100
AcDbEntity
  8
0
 62
7
100
AcDbLine
 10
533.000438
 20
288.999998
 30
0.0
 11
542.000446
 21
288.999998
 31
0.0
  0
LINE
  5
1d7
100
AcDbEntity
  8
0
 62
7
100
AcDbLine
 10
542.000446
 20
288.999998
 30
0.0
 11
542.000446
 21
292.000000
 31
0.0
  0
LINE
  5
1d8
100
AcDbEntity
  8
0
 62
7
100
AcDbLine
 10
542.000446
 20
292.000000
 30
0.0
 11
553.000455
 21
292.000000
 31
0.0
  0
LINE
  5
1d9
100
AcDbEntity
  8
0
 62
7
100
AcDbLine
 10
553.000455
 20
292.000000
 30
0.0
 11
553.000455
 21
288.999998
 31
0.0
  0
LINE
  5
1da
100
AcDbEntity
  8
0
 62
7
100
AcDbLine
 10
553.000455
 20
288.999998
 30
0.0
 11
562.000462
 21
288.999998
 31
0.0
  0
LINE
  5
1db
100
AcDbEntity
  8
0
 62
7
100
AcDbLine
 10
562.000462
 20
288.999998
 30
0.0
 11
562.000462
 21
292.000000
 31
0.0
  0
LINE
  5
1dc
100
AcDbEntity
  8
0
 62
7
100
AcDbLine
 10
562.000462
 20
292.000000
 30
0.0
 11
573.000471
 21
292.000000
 31
0.0
  0
LINE
  5
1dd
100
AcDbEntity
  8
0
 62
7
100
AcDbLine
 10
573.000471
 20
292.000000
 30
0.0
 11
573.000471
 21
288.999998
 31
0.0
  0
LINE
  5
1de
100
AcDbEntity
  8
0
 62
7
100
AcDbLine
 10
573.000471
 20
288.999998
 30
0.0
 11
582.000479
 21
288.999998
 31
0.0
  0
LINE
  5
1df
100
AcDbEntity
  8
0
 62
7
100
AcDbLine
 10
582.000479
 20
288.999998
 30
0.0
 11
582.000479
 21
292.000000
 31
0.0
  0
LINE
  5
1e0
100
AcDbEntity
  8
0
 62
7
100
AcDbLine
 10
582.000479
 20
292.000000
 30
0.0
 11
593.000488
 21
292.000000
 31
0.0
  0
LINE
  5
1e1
100
AcDbEntity
  8
0
 62
7
100
AcDbLine
 10
593.000488
 20
292.000000
 30
0.0
 11
593.000488
 21
288.999998
 31
0.0
  0
LINE
  5
1e2
100
AcDbEntity
  8
0
 62
7
100
AcDbLine
 10
593.000488
 20
288.999998
 30
0.0
 11
602.000495
 21
288.999998
 31
0.0
  0
LINE
  5
1e3
100
AcDbEntity
  8
0
 62
7
100
AcDbLine
 10
602.000495
 20
288.999998
 30
0.0
 11
602.000495
 21
292.000000
 31
0.0
  0
LINE
  5
1e4
100
AcDbEntity
  8
0
 62
7
100
AcDbLine
 10
602.000495
 20
292.000000
 30
0.0
 11
613.000504
 21
292.000000
 31
0.0
  0
LINE
  5
1e5
100
AcDbEntity
  8
0
 62
7
100
AcDbLine
 10
613.000504
 20
292.000000
 30
0.0
 11
613.000504
 21
288.999998
 31
0.0
  0
LINE
  5
1e6
100
AcDbEntity
  8
0
 62
7
100
AcDbLine
 10
613.000504
 20
288.999998
 30
0.0
 11
622.000511
 21
288.999998
 31
0.0
  0
LINE
  5
1e7
100
AcDbEntity
  8
0
 62
7
100
AcDbLine
 10
622.000511
 20
288.999998
 30
0.0
 11
622.000511
 21
292.000000
 31
0.0
  0
LINE
  5
1e8
100
AcDbEntity
  8
0
 62
7
100
AcDbLine
 10
622.000511
 20
292.000000
 30
0.0
 11
633.000520
 21
292.000000
 31
0.0
  0
LINE
  5
1e9
100
AcDbEntity
  8
0
 62
7
100
AcDbLine
 10
633.000520
 20
292.000000
 30
0.0
 11
633.000520
 21
288.999998
 31
0.0
  0
LINE
  5
1ea
100
AcDbEntity
  8
0
 62
7
100
AcDbLine
 10
633.000520
 20
288.999998
 30
0.0
 11
642.000528
 21
288.999998
 31
0.0
  0
LINE
  5
1eb
100
AcDbEntity
  8
0
 62
7
100
AcDbLine
 10
642.000528
 20
288.999998
 30
0.0
 11
642.000528
 21
292.000000
 31
0.0
  0
LINE
  5
1ec
100
AcDbEntity
  8
0
 62
7
100
AcDbLine
 10
642.000528
 20
292.000000
 30
0.0
 11
653.000537
 21
292.000000
 31
0.0
  0
LINE
  5
1ed
100
AcDbEntity
  8
0
 62
7
100
AcDbLine
 10
653.000537
 20
292.000000
 30
0.0
 11
653.000537
 21
288.999998
 31
0.0
  0
LINE
  5
1ee
100
AcDbEntity
  8
0
 62
7
100
AcDbLine
 10
653.000537
 20
288.999998
 30
0.0
 11
666.000548
 21
288.999998
 31
0.0
  0
LINE
  5
1ef
100
AcDbEntity
  8
0
 62
7
100
AcDbLine
 10
666.000548
 20
288.999998
 30
0.0
 11
666.000548
 21
292.000000
 31
0.0
  0
LINE
  5
1f0
100
AcDbEntity
  8
0
 62
7
100
AcDbLine
 10
666.000548
 20
292.000000
 30
0.0
 11
678.000557
 21
292.000000
 31
0.0
  0
LINE
  5
1f1
100
AcDbEntity
  8
0
 62
7
100
AcDbLine
 10
678.000557
 20
292.000000
 30
0.0
 11
678.000557
 21
277.999988
 31
0.0
  0
LINE
  5
1f2
100
AcDbEntity
  8
0
 62
7
100
AcDbLine
 10
678.000557
 20
277.999988
 30
0.0
 11
681.000560
 21
277.999988
 31
0.0
  0
LINE
  5
1f3
100
AcDbEntity
  8
0
 62
7
100
AcDbLine
 10
681.000560
 20
277.999988
 30
0.0
 11
681.000560
 21
262.999976
 31
0.0
  0
LINE
  5
1f4
100
AcDbEntity
  8
0
 62
7
100
AcDbLine
 10
681.000560
 20
262.999976
 30
0.0
 11
678.000557
 21
262.999976
 31
0.0
  0
LINE
  5
1f5
100
AcDbEntity
  8
0
 62
7
100
AcDbLine
 10
678.000557
 20
262.999976
 30
0.0
 11
678.000557
 21
253.999969
 31
0.0
  0
LINE
  5
1f6
100
AcDbEntity
  8
0
 62
7
100
AcDbLine
 10
678.000557
 20
253.999969
 30
0.0
 11
681.000560
 21
253.999969
 31
0.0
  0
LINE
  5
1f7
100
AcDbEntity
  8
0
 62
7
100
AcDbLine
 10
681.000560
 20
253.999969
 30
0.0
 11
681.000560
 21
238.999956
 31
0.0
  0
LINE
  5
1f8
100
AcDbEntity
  8
0
 62
7
100
AcDbLine
 10
681.000560
 20
238.999956
 30
0.0
 11
678.000557
 21
238.999956
 31
0.0
  0
LINE
  5
1f9
100
AcDbEntity
  8
0
 62
7
100
AcDbLine
 10
678.000557
 20
238.999956
 30
0.0
 11
678.000557
 21
224.999945
 31
0.0
  0
LINE
  5
1fa
100
AcDbEntity
  8
0
 62
7
100
AcDbLine
 10
678.000557
 20
224.999945
 30
0.0
 11
666.000548
 21
224.999945
 31
0.0
  0
LINE
  5
1fb
100
AcDbEntity
  8
0
 62
7
100
AcDbLine
 10
666.000548
 20
224.999945
 30
0.0
 11
666.000548
 21
227.999947
 31
0.0
  0
LINE
  5
1fc
100
AcDbEntity
  8
0
 62
7
100
AcDbLine
 10
666.000548
 20
227.999947
 30
0.0
 11
653.000537
 21
227.999947
 31
0.0
  0
LINE
  5
1fd
100
AcDbEntity
  8
0
 62
7
100
AcDbLine
 10
653.000537
 20
227.999947
 30
0.0
 11
653.000537
 21
224.999945
 31
0.0
  0
LINE
  5
1fe
100
AcDbEntity
  8
0
 62
7
100
AcDbLine
 10
653.000537
 20
224.999945
 30
0.0
 11
642.000528
 21
224.999945
 31
0.0
  0
LINE
  5
1ff
100
AcDbEntity
  8
0
 62
7
100
AcDbLine
 10
642.000528
 20
224.999945
 30
0.0
 11
642.000528
 21
227.999947
 31
0.0
  0
LINE
  5
200
100
AcDbEntity
  8
0
 62
7
100
AcDbLine
 10
642.000528
 20
227.999947
 30
0.0
 11
633.000520
 21
227.999947
 31
0.0
  0
LINE
  5
201
100
AcDbEntity
  8
0
 62
7
100
AcDbLine
 10
633.000520
 20
227.999947
 30
0.0
 11
633.000520
 21
224.999945
 31
0.0
  0
LINE
  5
202
100
AcDbEntity
  8
0
 62
7
100
AcDbLine
 10
633.000520
 20
224.999945
 30
0.0
 11
622.000511
 21
224.999945
 31
0.0
  0
LINE
  5
203
100
AcDbEntity
  8
0
 62
7
100
AcDbLine
 10
622.000511
 20
224.999945
 30
0.0
 11
622.000511
 21
227.999947
 31
0.0
  0
LINE
  5
204
100
AcDbEntity
  8
0
 62
7
100
AcDbLine
 10
622.000511
 20
227.999947
 30
0.0
 11
613.000504
 21
227.999947
 31
0.0
  0
LINE
  5
205
100
AcDbEntity
  8
0
 62
7
100
AcDbLine
 10
613.000504
 20
227.999947
 30
0.0
 11
613.000504
 21
224.999945
 31
0.0
  0
LINE
  5
206
100
AcDbEntity
  8
0
 62
7
100
AcDbLine
 10
613.000504
 20
224.999945
 30
0.0
 11
602.000495
 21
224.999945
 31
0.0
  0
LINE
  5
207
100
AcDbEntity
  8
0
 62
7
100
AcDbLine
 10
602.000495
 20
224.999945
 30
0.0
 11
602.000495
 21
227.999947
 31
0.0
  0
LINE
  5
208
100
AcDbEntity
  8
0
 62
7
100
AcDbLine
 10
602.000495
 20
227.999947
 30
0.0
 11
593.000488
 21
227.999947
 31
0.0
  0
LINE
  5
209
100
AcDbEntity
  8
0
 62
7
100
AcDbLine
 10
593.000488
 20
227.999947
 30
0.0
 11
593.000488
 21
224.999945
 31
0.0
  0
LINE
  5
20a
100
AcDbEntity
  8
0
 62
7
100
AcDbLine
 10
593.000488
 20
224.999945
 30
0.0
 11
582.000479
 21
224.999945
 31
0.0
  0
LINE
  5
20b
100
AcDbEntity
  8
0
 62
7
100
AcDbLine
 10
582.000479
 20
224.999945
 30
0.0
 11
582.000479
 21
227.999947
 31
0.0
  0
LINE
  5
20c
100
AcDbEntity
  8
0
 62
7
100
AcDbLine
 10
582.000479
 20
227.999947
 30
0.0
 11
573.000471
 21
227.999947
 31
0.0
  0
LINE
  5
20d
100
AcDbEntity
  8
0
 62
7
100
AcDbLine
 10
573.000471
 20
227.999947
 30
0.0
 11
573.000471
 21
224.999945
 31
0.0
  0
LINE
  5
20e
100
AcDbEntity
  8
0
 62
7
100
AcDbLine
 10
573.000471
 20
224.999945
 30
0.0
 11
562.000462
 21
224.999945
 31
0.0
  0
LINE
  5
20f
100
AcDbEntity
  8
0
 62
7
100
AcDbLine
 10
562.000462
 20
224.999945
 30
0.0
 11
562.000462
 21
227.999947
 31
0.0
  0
LINE
  5
210
100
AcDbEntity
  8
0
 62
7
100
AcDbLine
 10
562.000462
 20
227.999947
 30
0.0
 11
553.000455
 21
227.999947
 31
0.0
  0
LINE
  5
211
100
AcDbEntity
  8
0
 62
7
100
AcDbLine
 10
553.000455
 20
227.999947
 30
0.0
 11
553.000455
 21
224.999945
 31
0.0
  0
LINE
  5
212
100
AcDbEntity
  8
0
 62
7
100
AcDbLine
 10
553.000455
 20
224.999945
 30
0.0
 11
542.000446
 21
224.999945
 31
0.0
  0
LINE
  5
213
100
AcDbEntity
  8
0
 62
7
100
AcDbLine
 10
542.000446
 20
224.999945
 30
0.0
 11
542.000446
 21
227.999947
 31
0.0
  0
LINE
  5
214
100
AcDbEntity
  8
0
 62
7
100
AcDbLine
 10
542.000446
 20
227.999947
 30
0.0
 11
533.000438
 21
227.999947
 31
0.0
  0
LINE
  5
215
100
AcDbEntity
  8
0
 62
7
100
AcDbLine
 10
533.000438
 20
227.999947
 30
0.0
 11
533.000438
 21
224.999945
 31
0.0
  0
LINE
  5
216
100
AcDbEntity
  8
0
 62
7
100
AcDbLine
 10
533.000438
 20
224.999945
 30
0.0
 11
522.000429
 21
224.999945
 31
0.0
  0
LINE
  5
217
100
AcDbEntity
  8
0
 62
7
100
AcDbLine
 10
522.000429
 20
224.999945
 30
0.0
 11
522.000429
 21
227.999947
 31
0.0
  0
LINE
  5
218
100
AcDbEntity
  8
0
 62
7
100
AcDbLine
 10
522.000429
 20
227.999947
 30
0.0
 11
513.000422
 21
227.999947
 31
0.0
  0
LINE
  5
219
100
AcDbEntity
  8
0
 62
7
100
AcDbLine
 10
513.000422
 20
227.999947
 30
0.0
 11
513.000422
 21
224.999945
 31
0.0
  0
LINE
  5
21a
100
AcDbEntity
  8
0
 62
7
100
AcDbLine
 10
513.000422
 20
224.999945
 30
0.0
 11
502.000413
 21
224.999945
 31
0.0
  0
LINE
  5
21b
100
AcDbEntity
  8
0
 62
7
100
AcDbLine
 10
502.000413
 20
224.999945
 30
0.0
 11
502.000413
 21
227.999947
 31
0.0
  0
LINE
  5
21c
100
AcDbEntity
  8
0
 62
7
100
AcDbLine
 10
502.000413
 20
227.999947
 30
0.0
 11
493.000405
 21
227.999947
 31
0.0
  0
LINE
  5
21d
100
AcDbEntity
  8
0
 62
7
100
AcDbLine
 10
493.000405
 20
227.999947
 30
0.0
 11
493.000405
 21
224.999945
 31
0.0
  0
LINE
  5
21e
100
AcDbEntity
  8
0
 62
7
100
AcDbLine
 10
493.000405
 20
224.999945
 30
0.0
 11
482.000396
 21
224.999945
 31
0.0
  0
LINE
  5
21f
100
AcDbEntity
  8
0
 62
7
100
AcDbLine
 10
482.000396
 20
224.999945
 30
0.0
 11
482.000396
 21
227.999947
 31
0.0
  0
LINE
  5
220
100
AcDbEntity
  8
0
 62
7
100
AcDbLine
 10
482.000396
 20
227.999947
 30
0.0
 11
469.000386
 21
227.999947
 31
0.0
  0
LINE
  5
221
100
AcDbEntity
  8
0
 62
7
100
AcDbLine
 10
469.000386
 20
227.999947
 30
0.0
 11
469.000386
 21
224.999945
 31
0.0
  0
LINE
  5
222
100
AcDbEntity
  8
0
 62
7
100
AcDbLine
 10
469.000386
 20
224.999945
 30
0.0
 11
457.000376
 21
224.999945
 31
0.0
  0
LINE
  5
223
100
AcDbEntity
  8
0
 62
7
100
AcDbLine
 10
457.000376
 20
224.999945
 30
0.0
 11
457.000376
 21
238.999956
 31
0.0
  0
LINE
  5
224
100
AcDbEntity
  8
0
 62
7
100
AcDbLine
 10
457.000376
 20
238.999956
 30
0.0
 11
454.000373
 21
238.999956
 31
0.0
  0
LINE
  5
225
100
AcDbEntity
  8
0
 62
7
100
AcDbLine
 10
454.000373
 20
238.999956
 30
0.0
 11
454.000373
 21
253.999969
 31
0.0
  0
LINE
  5
226
100
AcDbEntity
  8
0
 62
7
100
AcDbLine
 10
454.000373
 20
253.999969
 30
0.0
 11
457.000376
 21
253.999969
 31
0.0
  0
LINE
  5
227
100
AcDbEntity
  8
0
 62
7
100
AcDbLine
 10
457.000376
 20
253.999969
 30
0.0
 11
457.000376
 21
262.999976
 31
0.0
  0
LINE
  5
228
100
AcDbEntity
  8
0
 62
7
100
AcDbLine
 10
457.000376
 20
262.999976
 30
0.0
 11
454.000373
 21
262.999976
 31
0.0
  0
LINE
  5
229
100
AcDbEntity
  8
0
 62
7
100
AcDbLine
 10
454.000373
 20
262.999976
 30
0.0
 11
454.000373
 21
277.999988
 31
0.0
  0
LINE
  5
22a
100
AcDbEntity
  8
0
 62
7
100
AcDbLine
 10
454.000373
 20
277.999988
 30
0.0
 11
457.000376
 21
277.999988
 31
0.0
  0
LINE
  5
22b
100
AcDbEntity
  8
0
 62
7
100
AcDbLine
 10
457.000376
 20
277.999988
 30
0.0
 11
457.000376
 21
292.000000
 31
0.0
  0
LINE
  5
22c
100
AcDbEntity
  8
0
 62
7
100
AcDbLine
 10
457.000376
 20
224.999945
 30
0.0
 11
469.000386
 21
224.999945
 31
0.0
  0
LINE
  5
22d
100
AcDbEntity
  8
0
 62
7
100
AcDbLine
 10
469.000386
 20
224.999945
 30
0.0
 11
469.000386
 21
221.999942
 31
0.0
  0
LINE
  5
22e
100
AcDbEntity
  8
0
 62
7
100
AcDbLine
 10
469.000386
 20
221.999942
 30
0.0
 11
482.000396
 21
221.999942
 31
0.0
  0
LINE
  5
22f
100
AcDbEntity
  8
0
 62
7
100
AcDbLine
 10
482.000396
 20
221.999942
 30
0.0
 11
482.000396
 21
224.999945
 31
0.0
  0
LINE
  5
230
100
AcDbEntity
  8
0
 62
7
100
AcDbLine
 10
482.000396
 20
224.999945
 30
0.0
 11
493.000405
 21
224.999945
 31
0.0
  0
LINE
  5
231
100
AcDbEntity
  8
0
 62
7
100
AcDbLine
 10
493.000405
 20
224.999945
 30
0.0
 11
493.000405
 21
221.999942
 31
0.0
  0
LINE
  5
232
100
AcDbEntity
  8
0
 62
7
100
AcDbLine
 10
493.000405
 20
221.999942
 30
0.0
 11
502.000413
 21
221.999942
 31
0.0
  0
LINE
  5
233
100
AcDbEntity
  8
0
 62
7
100
AcDbLine
 10
502.000413
 20
221.999942
 30
0.0
 11
502.000413
 21
224.999945
 31
0.0
  0
LINE
  5
234
100
AcDbEntity
  8
0
 62
7
100
AcDbLine
 10
502.000413
 20
224.999945
 30
0.0
 11
513.000422
 21
224.999945
 31
0.0
  0
LINE
  5
235
100
AcDbEntity
  8
0
 62
7
100
AcDbLine
 10
513.000422
 20
224.999945
 30
0.0
 11
513.000422
 21
221.999942
 31
0.0
  0
LINE
  5
236
100
AcDbEntity
  8
0
 62
7
100
AcDbLine
 10
513.000422
 20
221.999942
 30
0.0
 11
522.000429
 21
221.999942
 31
0.0
  0
LINE
  5
237
100
AcDbEntity
  8
0
 62
7
100
AcDbLine
 10
522.000429
 20
221.999942
 30
0.0
 11
522.000429
 21
224.999945
 31
0.0
  0
LINE
  5
238
100
AcDbEntity
  8
0
 62
7
100
AcDbLine
 10
522.000429
 20
224.999945
 30
0.0
 11
533.000438
 21
224.999945
 31
0.0
  0
LINE
  5
239
100
AcDbEntity
  8
0
 62
7
100
AcDbLine
 10
533.000438
 20
224.999945
 30
0.0
 11
533.000438
 21
221.999942
 31
0.0
  0
LINE
  5
23a
100
AcDbEntity
  8
0
 62
7
100
AcDbLine
 10
533.000438
 20
221.999942
 30
0.0
 11
542.000446
 21
221.999942
 31
0.0
  0
LINE
  5
23b
100
AcDbEntity
  8
0
 62
7
100
AcDbLine
 10
542.000446
 20
221.999942
 30
0.0
 11
542.000446
 21
224.999945
 31
0.0
  0
LINE
  5
23c
100
AcDbEntity
  8
0
 62
7
100
AcDbLine
 10
542.000446
 20
224.999945
 30
0.0
 11
553.000455
 21
224.999945
 31
0.0
  0
LINE
  5
23d
100
AcDbEntity
  8
0
 62
7
100
AcDbLine
 10
553.000455
 20
224.999945
 30
0.0
 11
553.000455
 21
221.999942
 31
0.0
  0
LINE
  5
23e
100
AcDbEntity
  8
0
 62
7
100
AcDbLine
 10
553.000455
 20
221.999942
 30
0.0
 11
562.000462
 21
221.999942
 31
0.0
  0
LINE
  5
23f
100
AcDbEntity
  8
0
 62
7
100
AcDbLine
 10
562.000462
 20
221.999942
 30
0.0
 11
562.000462
 21
224.999945
 31
0.0
  0
LINE
  5
240
100
AcDbEntity
  8
0
 62
7
100
AcDbLine
 10
562.000462
 20
224.999945
 30
0.0
 11
573.000471
 21
224.999945
 31
0.0
  0
LINE
  5
241
100
AcDbEntity
  8
0
 62
7
100
AcDbLine
 10
573.000471
 20
224.999945
 30
0.0
 11
573.000471
 21
221.999942
 31
0.0
  0
LINE
  5
242
100
AcDbEntity
  8
0
 62
7
100
AcDbLine
 10
573.000471
 20
221.999942
 30
0.0
 11
582.000479
 21
221.999942
 31
0.0
  0
LINE
  5
243
100
AcDbEntity
  8
0
 62
7
100
AcDbLine
 10
582.000479
 20
221.999942
 30
0.0
 11
582.000479
 21
224.999945
 31
0.0
  0
LINE
  5
244
100
AcDbEntity
  8
0
 62
7
100
AcDbLine
 10
582.000479
 20
224.999945
 30
0.0
 11
593.000488
 21
224.999945
 31
0.0
  0
LINE
  5
245
100
AcDbEntity
  8
0
 62
7
100
AcDbLine
 10
593.000488
 20
224.999945
 30
0.0
 11
593.000488
 21
221.999942
 31
0.0
  0
LINE
  5
246
100
AcDbEntity
  8
0
 62
7
100
AcDbLine
 10
593.000488
 20
221.999942
 30
0.0
 11
602.000495
 21
221.999942
 31
0.0
  0
LINE
  5
247
100
AcDbEntity
  8
0
 62
7
100
AcDbLine
 10
602.000495
 20
221.999942
 30
0.0
 11
602.000495
 21
224.999945
 31
0.0
  0
LINE
  5
248
100
AcDbEntity
  8
0
 62
7
100
AcDbLine
 10
602.000495
 20
224.999945
 30
0.0
 11
613.000504
 21
224.999945
 31
0.0
  0
LINE
  5
249
100
AcDbEntity
  8
0
 62
7
100
AcDbLine
 10
613.000504
 20
224.999945
 30
0.0
 11
613.000504
 21
221.999942
 31
0.0
  0
LINE
  5
24a
100
AcDbEntity
  8
0
 62
7
100
AcDbLine
 10
613.000504
 20
221.999942
 30
0.0
 11
622.000511
 21
221.999942
 31
0.0
  0
LINE
  5
24b
100
AcDbEntity
  8
0
 62
7
100
AcDbLine
 10
622.000511
 20
221.999942
 30
0.0
 11
622.000511
 21
224.999945
 31
0.0
  0
LINE
  5
24c
100
AcDbEntity
  8
0
 62
7
100
AcDbLine
 10
622.000511
 20
224.999945
 30
0.0
 11
633.000520
 21
224.999945
 31
0.0
  0
LINE
  5
24d
100
AcDbEntity
  8
0
 62
7
100
AcDbLine
 10
633.000520
 20
224.999945
 30
0.0
 11
633.000520
 21
221.999942
 31
0.0
  0
LINE
  5
24e
100
AcDbEntity
  8
0
 62
7
100
AcDbLine
 10
633.000520
 20
221.999942
 30
0.0
 11
642.000528
 21
221.999942
 31
0.0
  0
LINE
  5
24f
100
AcDbEntity
  8
0
 62
7
100
AcDbLine
 10
642.000528
 20
221.999942
 30
0.0
 11
642.000528
 21
224.999945
 31
0.0
  0
LINE
  5
250
100
AcDbEntity
  8
0
 62
7
100
AcDbLine
 10
642.000528
 20
224.999945
 30
0.0
 11
653.000537
 21
224.999945
 31
0.0
  0
LINE
  5
251
100
AcDbEntity
  8
0
 62
7
100
AcDbLine
 10
653.000537
 20
224.999945
 30
0.0
 11
653.000537
 21
221.999942
 31
0.0
  0
LINE
  5
252
100
AcDbEntity
  8
0
 62
7
100
AcDbLine
 10
653.000537
 20
221.999942
 30
0.0
 11
666.000548
 21
221.999942
 31
0.0
  0
LINE
  5
253
100
AcDbEntity
  8
0
 62
7
100
AcDbLine
 10
666.000548
 20
221.999942
 30
0.0
 11
666.000548
 21
224.999945
 31
0.0
  0
LINE
  5
254
100
AcDbEntity
  8
0
 62
7
100
AcDbLine
 10
666.000548
 20
224.999945
 30
0.0
 11
678.000557
 21
224.999945
 31
0.0
  0
LINE
  5
255
100
AcDbEntity
  8
0
 62
7
100
AcDbLine
 10
678.000557
 20
224.999945
 30
0.0
 11
678.000557
 21
210.999933
 31
0.0
  0
LINE
  5
256
100
AcDbEntity
  8
0
 62
7
100
AcDbLine
 10
678.000557
 20
210.999933
 30
0.0
 11
681.000560
 21
210.999933
 31
0.0
  0
LINE
  5
257
100
AcDbEntity
  8
0
 62
7
100
AcDbLine
 10
681.000560
 20
210.999933
 30
0.0
 11
681.000560
 21
195.999921
 31
0.0
  0
LINE
  5
258
100
AcDbEntity
  8
0
 62
7
100
AcDbLine
 10
681.000560
 20
195.999921
 30
0.0
 11
678.000557
 21
195.999921
 31
0.0
  0
LINE
  5
259
100
AcDbEntity
  8
0
 62
7
100
AcDbLine
 10
678.000557
 20
195.999921
 30
0.0
 11
678.000557
 21
186.999914
 31
0.0
  0
LINE
  5
25a
100
AcDbEntity
  8
0
 62
7
100
AcDbLine
 10
678.000557
 20
186.999914
 30
0.0
 11
681.000560
 21
186.999914
 31
0.0
  0
LINE
  5
25b
100
AcDbEntity
  8
0
 62
7
100
AcDbLine
 10
681.000560
 20
186.999914
 30
0.0
 11
681.000560
 21
171.999901
 31
0.0
  0
LINE
  5
25c
100
AcDbEntity
  8
0
 62
7
100
AcDbLine
 10
681.000560
 20
171.999901
 30
0.0
 11
678.000557
 21
171.999901
 31
0.0
  0
LINE
  5
25d
100
AcDbEntity
  8
0
 62
7
100
AcDbLine
 10
678.000557
 20
171.999901
 30
0.0
 11
678.000557
 21
157.999890
 31
0.0
  0
LINE
  5
25e
100
AcDbEntity
  8
0
 62
7
100
AcDbLine
 10
678.000557
 20
157.999890
 30
0.0
 11
666.000548
 21
157.999890
 31
0.0
  0
LINE
  5
25f
100
AcDbEntity
  8
0
 62
7
100
AcDbLine
 10
666.000548
 20
157.999890
 30
0.0
 11
666.000548
 21
160.999892
 31
0.0
  0
LINE
  5
260
100
AcDbEntity
  8
0
 62
7
100
AcDbLine
 10
666.000548
 20
160.999892
 30
0.0
 11
653.000537
 21
160.999892
 31
0.0
  0
LINE
  5
261
100
AcDbEntity
  8
0
 62
7
100
AcDbLine
 10
653.000537
 20
160.999892
 30
0.0
 11
653.000537
 21
157.999890
 31
0.0
  0
LINE
  5
262
100
AcDbEntity
  8
0
 62
7
100
AcDbLine
 10
653.000537
 20
157.999890
 30
0.0
 11
642.000528
 21
157.999890
 31
0.0
  0
LINE
  5
263
100
AcDbEntity
  8
0
 62
7
100
AcDbLine
 10
642.000528
 20
157.999890
 30
0.0
 11
642.000528
 21
160.999892
 31
0.0
  0
LINE
  5
264
100
AcDbEntity
  8
0
 62
7
100
AcDbLine
 10
642.000528
 20
160.999892
 30
0.0
 11
633.000520
 21
160.999892
 31
0.0
  0
LINE
  5
265
100
AcDbEntity
  8
0
 62
7
100
AcDbLine
 10
633.000520
 20
160.999892
 30
0.0
 11
633.000520
 21
157.999890
 31
0.0
  0
LINE
  5
266
100
AcDbEntity
  8
0
 62
7
100
AcDbLine
 10
633.000520
 20
157.999890
 30
0.0
 11
622.000511
 21
157.999890
 31
0.0
  0
LINE
  5
267
100
AcDbEntity
  8
0
 62
7
100
AcDbLine
 10
622.000511
 20
157.999890
 30
0.0
 11
622.000511
 21
160.999892
 31
0.0
  0
LINE
  5
268
100
AcDbEntity
  8
0
 62
7
100
AcDbLine
 10
622.000511
 20
160.999892
 30
0.0
 11
613.000504
 21
160.999892
 31
0.0
  0
LINE
  5
269
100
AcDbEntity
  8
0
 62
7
100
AcDbLine
 10
613.000504
 20
160.999892
 30
0.0
 11
613.000504
 21
157.999890
 31
0.0
  0
LINE
  5
26a
100
AcDbEntity
  8
0
 62
7
100
AcDbLine
 10
613.000504
 20
157.999890
 30
0.0
 11
602.000495
 21
157.999890
 31
0.0
  0
LINE
  5
26b
100
AcDbEntity
  8
0
 62
7
100
AcDbLine
 10
602.000495
 20
157.999890
 30
0.0
 11
602.000495
 21
160.999892
 31
0.0
  0
LINE
  5
26c
100
AcDbEntity
  8
0
 62
7
100
AcDbLine
 10
602.000495
 20
160.999892
 30
0.0
 11
593.000488
 21
160.999892
 31
0.0
  0
LINE
  5
26d
100
AcDbEntity
  8
0
 62
7
100
AcDbLine
 10
593.000488
 20
160.999892
 30
0.0
 11
593.000488
 21
157.999890
 31
0.0
  0
LINE
  5
26e
100
AcDbEntity
  8
0
 62
7
100
AcDbLine
 10
593.000488
 20
157.999890
 30
0.0
 11
582.000479
 21
157.999890
 31
0.0
  0
LINE
  5
26f
100
AcDbEntity
  8
0
 62
7
100
AcDbLine
 10
582.000479
 20
157.999890
 30
0.0
 11
582.000479
 21
160.999892
 31
0.0
  0
LINE
  5
270
100
AcDbEntity
  8
0
 62
7
100
AcDbLine
 10
582.000479
 20
160.999892
 30
0.0
 11
573.000471
 21
160.999892
 31
0.0
  0
LINE
  5
271
100
AcDbEntity
  8
0
 62
7
100
AcDbLine
 10
573.000471
 20
160.999892
 30
0.0
 11
573.000471
 21
157.999890
 31
0.0
  0
LINE
  5
272
100
AcDbEntity
  8
0
 62
7
100
AcDbLine
 10
573.000471
 20
157.999890
 30
0.0
 11
562.000462
 21
157.999890
 31
0.0
  0
LINE
  5
273
100
AcDbEntity
  8
0
 62
7
100
AcDbLine
 10
562.000462
 20
157.999890
 30
0.0
 11
562.000462
 21
160.999892
 31
0.0
  0
LINE
  5
274
100
AcDbEntity
  8
0
 62
7
100
AcDbLine
 10
562.000462
 20
160.999892
 30
0.0
 11
553.000455
 21
160.999892
 31
0.0
  0
LINE
  5
275
100
AcDbEntity
  8
0
 62
7
100
AcDbLine
 10
553.000455
 20
160.999892
 30
0.0
 11
553.000455
 21
157.999890
 31
0.0
  0
LINE
  5
276
100
AcDbEntity
  8
0
 62
7
100
AcDbLine
 10
553.000455
 20
157.999890
 30
0.0
 11
542.000446
 21
157.999890
 31
0.0
  0
LINE
  5
277
100
AcDbEntity
  8
0
 62
7
100
AcDbLine
 10
542.000446
 20
157.999890
 30
0.0
 11
542.000446
 21
160.999892
 31
0.0
  0
LINE
  5
278
100
AcDbEntity
  8
0
 62
7
100
AcDbLine
 10
542.000446
 20
160.999892
 30
0.0
 11
533.000438
 21
160.999892
 31
0.0
  0
LINE
  5
279
100
AcDbEntity
  8
0
 62
7
100
AcDbLine
 10
533.000438
 20
160.999892
 30
0.0
 11
533.000438
 21
157.999890
 31
0.0
  0
LINE
  5
27a
100
AcDbEntity
  8
0
 62
7
100
AcDbLine
 10
533.000438
 20
157.999890
 30
0.0
 11
522.000429
 21
157.999890
 31
0.0
  0
LINE
  5
27b
100
AcDbEntity
  8
0
 62
7
100
AcDbLine
 10
522.000429
 20
157.999890
 30
0.0
 11
522.000429
 21
160.999892
 31
0.0
  0
LINE
  5
27c
100
AcDbEntity
  8
0
 62
7
100
AcDbLine
 10
522.000429
 20
160.999892
 30
0.0
 11
513.000422
 21
160.999892
 31
0.0
  0
LINE
  5
27d
100
AcDbEntity
  8
0
 62
7
100
AcDbLine
 10
513.000422
 20
160.999892
 30
0.0
 11
513.000422
 21
157.999890
 31
0.0
  0
LINE
  5
27e
100
AcDbEntity
  8
0
 62
7
100
AcDbLine
 10
513.000422
 20
157.999890
 30
0.0
 11
502.000413
 21
157.999890
 31
0.0
  0
LINE
  5
27f
100
AcDbEntity
  8
0
 62
7
100
AcDbLine
 10
502.000413
 20
157.999890
 30
0.0
 11
502.000413
 21
160.999892
 31
0.0
  0
LINE
  5
280
100
AcDbEntity
  8
0
 62
7
100
AcDbLine
 10
502.000413
 20
160.999892
 30
0.0
 11
493.000405
 21
160.999892
 31
0.0
  0
LINE
  5
281
100
AcDbEntity
  8
0
 62
7
100
AcDbLine
 10
493.000405
 20
160.999892
 30
0.0
 11
493.000405
 21
157.999890
 31
0.0
  0
LINE
  5
282
100
AcDbEntity
  8
0
 62
7
100
AcDbLine
 10
493.000405
 20
157.999890
 30
0.0
 11
482.000396
 21
157.999890
 31
0.0
  0
LINE
  5
283
100
AcDbEntity
  8
0
 62
7
100
AcDbLine
 10
482.000396
 20
157.999890
 30
0.0
 11
482.000396
 21
160.999892
 31
0.0
  0
LINE
  5
284
100
AcDbEntity
  8
0
 62
7
100
AcDbLine
 10
482.000396
 20
160.999892
 30
0.0
 11
469.000386
 21
160.999892
 31
0.0
  0
LINE
  5
285
100
AcDbEntity
  8
0
 62
7
100
AcDbLine
 10
469.000386
 20
160.999892
 30
0.0
 11
469.000386
 21
157.999890
 31
0.0
  0
LINE
  5
286
100
AcDbEntity
  8
0
 62
7
100
AcDbLine
 10
469.000386
 20
157.999890
 30
0.0
 11
457.000376
 21
157.999890
 31
0.0
  0
LINE
  5
287
100
AcDbEntity
  8
0
 62
7
100
AcDbLine
 10
457.000376
 20
157.999890
 30
0.0
 11
457.000376
 21
171.999901
 31
0.0
  0
LINE
  5
288
100
AcDbEntity
  8
0
 62
7
100
AcDbLine
 10
457.000376
 20
171.999901
 30
0.0
 11
454.000373
 21
171.999901
 31
0.0
  0
LINE
  5
289
100
AcDbEntity
  8
0
 62
7
100
AcDbLine
 10
454.000373
 20
171.999901
 30
0.0
 11
454.000373
 21
186.999914
 31
0.0
  0
LINE
  5
28a
100
AcDbEntity
  8
0
 62
7
100
AcDbLine
 10
454.000373
 20
186.999914
 30
0.0
 11
457.000376
 21
186.999914
 31
0.0
  0
LINE
  5
28b
100
AcDbEntity
  8
0
 62
7
100
AcDbLine
 10
457.000376
 20
186.999914
 30
0.0
 11
457.000376
 21
195.999921
 31
0.0
  0
LINE
  5
28c
100
AcDbEntity
  8
0
 62
7
100
AcDbLine
 10
457.000376
 20
195.999921
 30
0.0
 11
454.000373
 21
195.999921
 31
0.0
  0
LINE
  5
28d
100
AcDbEntity
  8
0
 62
7
100
AcDbLine
 10
454.000373
 20
195.999921
 30
0.0
 11
454.000373
 21
210.999933
 31
0.0
  0
LINE
  5
28e
100
AcDbEntity
  8
0
 62
7
100
AcDbLine
 10
454.000373
 20
210.999933
 30
0.0
 11
457.000376
 21
210.999933
 31
0.0
  0
LINE
  5
28f
100
AcDbEntity
  8
0
 62
7
100
AcDbLine
 10
457.000376
 20
210.999933
 30
0.0
 11
457.000376
 21
224.999945
 31
0.0
  0
LINE
  5
290
100
AcDbEntity
  8
0
 62
7
100
AcDbLine
 10
3.000002
 20
221.999942
 30
0.0
 11
14.000012
 21
221.999942
 31
0.0
  0
LINE
  5
291
100
AcDbEntity
  8
0
 62
7
100
AcDbLine
 10
14.000012
 20
221.999942
 30
0.0
 11
14.000012
 21
224.999945
 31
0.0
  0
LINE
  5
292
100
AcDbEntity
  8
0
 62
7
100
AcDbLine
 10
14.000012
 20
224.999945
 30
0.0
 11
29.000024
 21
224.999945
 31
0.0
  0
LINE
  5
293
100
AcDbEntity
  8
0
 62
7
100
AcDbLine
 10
29.000024
 20
224.999945
 30
0.0
 11
29.000024
 21
221.999942
 31
0.0
  0
LINE
  5
294
100
AcDbEntity
  8
0
 62
7
100
AcDbLine
 10
29.000024
 20
221.999942
 30
0.0
 11
38.000031
 21
221.999942
 31
0.0
  0
LINE
  5
295
100
AcDbEntity
  8
0
 62
7
100
AcDbLine
 10
38.000031
 20
221.999942
 30
0.0
 11
38.000031
 21
224.999945
 31
0.0
  0
LINE
  5
296
100
AcDbEntity
  8
0
 62
7
100
AcDbLine
 10
38.000031
 20
224.999945
 30
0.0
 11
49.000040
 21
224.999945
 31
0.0
  0
LINE
  5
297
100
AcDbEntity
  8
0
 62
7
100
AcDbLine
 10
49.000040
 20
224.999945
 30
0.0
 11
49.000040
 21
221.999942
 31
0.0
  0
LINE
  5
298
100
AcDbEntity
  8
0
 62
7
100
AcDbLine
 10
49.000040
 20
221.999942
 30
0.0
 11
58.000048
 21
221.999942
 31
0.0
  0
LINE
  5
299
100
AcDbEntity
  8
0
 62
7
100
AcDbLine
 10
58.000048
 20
221.999942
 30
0.0
 11
58.000048
 21
224.999945
 31
0.0
  0
LINE
  5
29a
100
AcDbEntity
  8
0
 62
7
100
AcDbLine
 10
58.000048
 20
224.999945
 30
0.0
 11
69.000057
 21
224.999945
 31
0.0
  0
LINE
  5
29b
100
AcDbEntity
  8
0
 62
7
100
AcDbLine
 10
69.000057
 20
224.999945
 30
0.0
 11
69.000057
 21
221.999942
 31
0.0
  0
LINE
  5
29c
100
AcDbEntity
  8
0
 62
7
100
AcDbLine
 10
69.000057
 20
221.999942
 30
0.0
 11
78.000064
 21
221.999942
 31
0.0
  0
LINE
  5
29d
100
AcDbEntity
  8
0
 62
7
100
AcDbLine
 10
78.000064
 20
221.999942
 30
0.0
 11
78.000064
 21
224.999945
 31
0.0
  0
LINE
  5
29e
100
AcDbEntity
  8
0
 62
7
100
AcDbLine
 10
78.000064
 20
224.999945
 30
0.0
 11
89.000073
 21
224.999945
 31
0.0
  0
LINE
  5
29f
100
AcDbEntity
  8
0
 62
7
100
AcDbLine
 10
89.000073
 20
224.999945
 30
0.0
 11
89.000073
 21
221.999942
 31
0.0
  0
LINE
  5
2a0
100
AcDbEntity
  8
0
 62
7
100
AcDbLine
 10
89.000073
 20
221.999942
 30
0.0
 11
98.000081
 21
221.999942
 31
0.0
  0
LINE
  5
2a1
100
AcDbEntity
  8
0
 62
7
100
AcDbLine
 10
98.000081
 20
221.999942
 30
0.0
 11
98.000081
 21
224.999945
 31
0.0
  0
LINE
  5
2a2
100
AcDbEntity
  8
0
 62
7
100
AcDbLine
 10
98.000081
 20
224.999945
 30
0.0
 11
109.000090
 21
224.999945
 31
0.0
  0
LINE
  5
2a3
100
AcDbEntity
  8
0
 62
7
100
AcDbLine
 10
109.000090
 20
224.999945
 30
0.0
 11
109.000090
 21
221.999942
 31
0.0
  0
LINE
  5
2a4
100
AcDbEntity
  8
0
 62
7
100
AcDbLine
 10
109.000090
 20
221.999942
 30
0.0
 11
118.000097
 21
221.999942
 31
0.0
  0
LINE
  5
2a5
100
AcDbEntity
  8
0
 62
7
100
AcDbLine
 10
118.000097
 20
221.999942
 30
0.0
 11
118.000097
 21
224.999945
 31
0.0
  0
LINE
  5
2a6
100
AcDbEntity
  8
0
 62
7
100
AcDbLine
 10
118.000097
 20
224.999945
 30
0.0
 11
129.000106
 21
224.999945
 31
0.0
  0
LINE
  5
2a7
100
AcDbEntity
  8
0
 62
7
100
AcDbLine
 10
129.000106
 20
224.999945
 30
0.0
 11
129.000106
 21
221.999942
 31
0.0
  0
LINE
  5
2a8
100
AcDbEntity
  8
0
 62
7
100
AcDbLine
 10
129.000106
 20
221.999942
 30
0.0
 11
138.000113
 21
221.999942
 31
0.0
  0
LINE
  5
2a9
100
AcDbEntity
  8
0
 62
7
100
AcDbLine
 10
138.000113
 20
221.999942
 30
0.0
 11
138.000113
 21
224.999945
 31
0.0
  0
LINE
  5
2aa
100
AcDbEntity
  8
0
 62
7
100
AcDbLine
 10
138.000113
 20
224.999945
 30
0.0
 11
149.000123
 21
224.999945
 31
0.0
  0
LINE
  5
2ab
100
AcDbEntity
  8
0
 62
7
100
AcDbLine
 10
149.000123
 20
224.999945
 30
0.0
 11
149.000123
 21
221.999942
 31
0.0
  0
LINE
  5
2ac
100
AcDbEntity
  8
0
 62
7
100
AcDbLine
 10
149.000123
 20
221.999942
 30
0.0
 11
158.000130
 21
221.999942
 31
0.0
  0
LINE
  5
2ad
100
AcDbEntity
  8
0
 62
7
100
AcDbLine
 10
158.000130
 20
221.999942
 30
0.0
 11
158.000130
 21
224.999945
 31
0.0
  0
LINE
  5
2ae
100
AcDbEntity
  8
0
 62
7
100
AcDbLine
 10
158.000130
 20
224.999945
 30
0.0
 11
169.000139
 21
224.999945
 31
0.0
  0
LINE
  5
2af
100
AcDbEntity
  8
0
 62
7
100
AcDbLine
 10
169.000139
 20
224.999945
 30
0.0
 11
169.000139
 21
221.999942
 31
0.0
  0
LINE
  5
2b0
100
AcDbEntity
  8
0
 62
7
100
AcDbLine
 10
169.000139
 20
221.999942
 30
0.0
 11
178.000146
 21
221.999942
 31
0.0
  0
LINE
  5
2b1
100
AcDbEntity
  8
0
 62
7
100
AcDbLine
 10
178.000146
 20
221.999942
 30
0.0
 11
178.000146
 21
224.999945
 31
0.0
  0
LINE
  5
2b2
100
AcDbEntity
  8
0
 62
7
100
AcDbLine
 10
178.000146
 20
224.999945
 30
0.0
 11
189.000155
 21
224.999945
 31
0.0
  0
LINE
  5
2b3
100
AcDbEntity
  8
0
 62
7
100
AcDbLine
 10
189.000155
 20
224.999945
 30
0.0
 11
189.000155
 21
221.999942
 31
0.0
  0
LINE
  5
2b4
100
AcDbEntity
  8
0
 62
7
100
AcDbLine
 10
189.000155
 20
221.999942
 30
0.0
 11
198.000163
 21
221.999942
 31
0.0
  0
LINE
  5
2b5
100
AcDbEntity
  8
0
 62
7
100
AcDbLine
 10
198.000163
 20
221.999942
 30
0.0
 11
198.000163
 21
224.999945
 31
0.0
  0
LINE
  5
2b6
100
AcDbEntity
  8
0
 62
7
100
AcDbLine
 10
198.000163
 20
224.999945
 30
0.0
 11
213.000175
 21
224.999945
 31
0.0
  0
LINE
  5
2b7
100
AcDbEntity
  8
0
 62
7
100
AcDbLine
 10
213.000175
 20
224.999945
 30
0.0
 11
213.000175
 21
221.999942
 31
0.0
  0
LINE
  5
2b8
100
AcDbEntity
  8
0
 62
7
100
AcDbLine
 10
213.000175
 20
221.999942
 30
0.0
 11
224.000184
 21
221.999942
 31
0.0
  0
LINE
  5
2b9
100
AcDbEntity
  8
0
 62
7
100
AcDbLine
 10
224.000184
 20
221.999942
 30
0.0
 11
224.000184
 21
210.999933
 31
0.0
  0
LINE
  5
2ba
100
AcDbEntity
  8
0
 62
7
100
AcDbLine
 10
224.000184
 20
210.999933
 30
0.0
 11
227.000187
 21
210.999933
 31
0.0
  0
LINE
  5
2bb
100
AcDbEntity
  8
0
 62
7
100
AcDbLine
 10
227.000187
 20
210.999933
 30
0.0
 11
227.000187
 21
195.999921
 31
0.0
  0
LINE
  5
2bc
100
AcDbEntity
  8
0
 62
7
100
AcDbLine
 10
227.000187
 20
195.999921
 30
0.0
 11
224.000184
 21
195.999921
 31
0.0
  0
LINE
  5
2bd
100
AcDbEntity
  8
0
 62
7
100
AcDbLine
 10
224.000184
 20
195.999921
 30
0.0
 11
224.000184
 21
186.999914
 31
0.0
  0
LINE
  5
2be
100
AcDbEntity
  8
0
 62
7
100
AcDbLine
 10
224.000184
 20
186.999914
 30
0.0
 11
227.000187
 21
186.999914
 31
0.0
  0
LINE
  5
2bf
100
AcDbEntity
  8
0
 62
7
100
AcDbLine
 10
227.000187
 20
186.999914
 30
0.0
 11
227.000187
 21
175.999905
 31
0.0
  0
LINE
  5
2c0
100
AcDbEntity
  8
0
 62
7
100
AcDbLine
 10
227.000187
 20
175.999905
 30
0.0
 11
224.000184
 21
175.999905
 31
0.0
  0
LINE
  5
2c1
100
AcDbEntity
  8
0
 62
7
100
AcDbLine
 10
224.000184
 20
175.999905
 30
0.0
 11
224.000184
 21
166.999897
 31
0.0
  0
LINE
  5
2c2
100
AcDbEntity
  8
0
 62
7
100
AcDbLine
 10
224.000184
 20
166.999897
 30
0.0
 11
227.000187
 21
166.999897
 31
0.0
  0
LINE
  5
2c3
100
AcDbEntity
  8
0
 62
7
100
AcDbLine
 10
227.000187
 20
166.999897
 30
0.0
 11
227.000187
 21
155.999888
 31
0.0
  0
LINE
  5
2c4
100
AcDbEntity
  8
0
 62
7
100
AcDbLine
 10
227.000187
 20
155.999888
 30
0.0
 11
224.000184
 21
155.999888
 31
0.0
  0
LINE
  5
2c5
100
AcDbEntity
  8
0
 62
7
100
AcDbLine
 10
224.000184
 20
155.999888
 30
0.0
 11
224.000184
 21
146.999881
 31
0.0
  0
LINE
  5
2c6
100
AcDbEntity
  8
0
 62
7
100
AcDbLine
 10
224.000184
 20
146.999881
 30
0.0
 11
227.000187
 21
146.999881
 31
0.0
  0
LINE
  5
2c7
100
AcDbEntity
  8
0
 62
7
100
AcDbLine
 10
227.000187
 20
146.999881
 30
0.0
 11
227.000187
 21
135.999872
 31
0.0
  0
LINE
  5
2c8
100
AcDbEntity
  8
0
 62
7
100
AcDbLine
 10
227.000187
 20
135.999872
 30
0.0
 11
224.000184
 21
135.999872
 31
0.0
  0
LINE
  5
2c9
100
AcDbEntity
  8
0
 62
7
100
AcDbLine
 10
224.000184
 20
135.999872
 30
0.0
 11
224.000184
 21
126.999864
 31
0.0
  0
LINE
  5
2ca
100
AcDbEntity
  8
0
 62
7
100
AcDbLine
 10
224.000184
 20
126.999864
 30
0.0
 11
227.000187
 21
126.999864
 31
0.0
  0
LINE
  5
2cb
100
AcDbEntity
  8
0
 62
7
100
AcDbLine
 10
227.000187
 20
126.999864
 30
0.0
 11
227.000187
 21
115.999855
 31
0.0
  0
LINE
  5
2cc
100
AcDbEntity
  8
0
 62
7
100
AcDbLine
 10
227.000187
 20
115.999855
 30
0.0
 11
224.000184
 21
115.999855
 31
0.0
  0
LINE
  5
2cd
100
AcDbEntity
  8
0
 62
7
100
AcDbLine
 10
224.000184
 20
115.999855
 30
0.0
 11
224.000184
 21
106.999848
 31
0.0
  0
LINE
  5
2ce
100
AcDbEntity
  8
0
 62
7
100
AcDbLine
 10
224.000184
 20
106.999848
 30
0.0
 11
227.000187
 21
106.999848
 31
0.0
  0
LINE
  5
2cf
100
AcDbEntity
  8
0
 62
7
100
AcDbLine
 10
227.000187
 20
106.999848
 30
0.0
 11
227.000187
 21
95.999839
 31
0.0
  0
LINE
  5
2d0
100
AcDbEntity
  8
0
 62
7
100
AcDbLine
 10
227.000187
 20
95.999839
 30
0.0
 11
224.000184
 21
95.999839
 31
0.0
  0
LINE
  5
2d1
100
AcDbEntity
  8
0
 62
7
100
AcDbLine
 10
224.000184
 20
95.999839
 30
0.0
 11
224.000184
 21
86.999831
 31
0.0
  0
LINE
  5
2d2
100
AcDbEntity
  8
0
 62
7
100
AcDbLine
 10
224.000184
 20
86.999831
 30
0.0
 11
227.000187
 21
86.999831
 31
0.0
  0
LINE
  5
2d3
100
AcDbEntity
  8
0
 62
7
100
AcDbLine
 10
227.000187
 20
86.999831
 30
0.0
 11
227.000187
 21
75.999822
 31
0.0
  0
LINE
  5
2d4
100
AcDbEntity
  8
0
 62
7
100
AcDbLine
 10
227.000187
 20
75.999822
 30
0.0
 11
224.000184
 21
75.999822
 31
0.0
  0
LINE
  5
2d5
100
AcDbEntity
  8
0
 62
7
100
AcDbLine
 10
224.000184
 20
75.999822
 30
0.0
 11
224.000184
 21
66.999815
 31
0.0
  0
LINE
  5
2d6
100
AcDbEntity
  8
0
 62
7
100
AcDbLine
 10
224.000184
 20
66.999815
 30
0.0
 11
227.000187
 21
66.999815
 31
0.0
  0
LINE
  5
2d7
100
AcDbEntity
  8
0
 62
7
100
AcDbLine
 10
227.000187
 20
66.999815
 30
0.0
 11
227.000187
 21
55.999806
 31
0.0
  0
LINE
  5
2d8
100
AcDbEntity
  8
0
 62
7
100
AcDbLine
 10
227.000187
 20
55.999806
 30
0.0
 11
224.000184
 21
55.999806
 31
0.0
  0
LINE
  5
2d9
100
AcDbEntity
  8
0
 62
7
100
AcDbLine
 10
224.000184
 20
55.999806
 30
0.0
 11
224.000184
 21
46.999799
 31
0.0
  0
LINE
  5
2da
100
AcDbEntity
  8
0
 62
7
100
AcDbLine
 10
224.000184
 20
46.999799
 30
0.0
 11
227.000187
 21
46.999799
 31
0.0
  0
LINE
  5
2db
100
AcDbEntity
  8
0
 62
7
100
AcDbLine
 10
227.000187
 20
46.999799
 30
0.0
 11
227.000187
 21
35.999790
 31
0.0
  0
LINE
  5
2dc
100
AcDbEntity
  8
0
 62
7
100
AcDbLine
 10
227.000187
 20
35.999790
 30
0.0
 11
224.000184
 21
35.999790
 31
0.0
  0
LINE
  5
2dd
100
AcDbEntity
  8
0
 62
7
100
AcDbLine
 10
224.000184
 20
35.999790
 30
0.0
 11
224.000184
 21
26.999782
 31
0.0
  0
LINE
  5
2de
100
AcDbEntity
  8
0
 62
7
100
AcDbLine
 10
224.000184
 20
26.999782
 30
0.0
 11
227.000187
 21
26.999782
 31
0.0
  0
LINE
  5
2df
100
AcDbEntity
  8
0
 62
7
100
AcDbLine
 10
227.000187
 20
26.999782
 30
0.0
 11
227.000187
 21
11.999770
 31
0.0
  0
LINE
  5
2e0
100
AcDbEntity
  8
0
 62
7
100
AcDbLine
 10
227.000187
 20
11.999770
 30
0.0
 11
224.000184
 21
11.999770
 31
0.0
  0
LINE
  5
2e1
100
AcDbEntity
  8
0
 62
7
100
AcDbLine
 10
224.000184
 20
11.999770
 30
0.0
 11
224.000184
 21
0.999761
 31
0.0
  0
LINE
  5
2e2
100
AcDbEntity
  8
0
 62
7
100
AcDbLine
 10
224.000184
 20
0.999761
 30
0.0
 11
213.000175
 21
0.999761
 31
0.0
  0
LINE
  5
2e3
100
AcDbEntity
  8
0
 62
7
100
AcDbLine
 10
213.000175
 20
0.999761
 30
0.0
 11
213.000175
 21
-2.000242
 31
0.0
  0
LINE
  5
2e4
100
AcDbEntity
  8
0
 62
7
100
AcDbLine
 10
213.000175
 20
-2.000242
 30
0.0
 11
198.000163
 21
-2.000242
 31
0.0
  0
LINE
  5
2e5
100
AcDbEntity
  8
0
 62
7
100
AcDbLine
 10
198.000163
 20
-2.000242
 30
0.0
 11
198.000163
 21
0.999761
 31
0.0
  0
LINE
  5
2e6
100
AcDbEntity
  8
0
 62
7
100
AcDbLine
 10
198.000163
 20
0.999761
 30
0.0
 11
189.000155
 21
0.999761
 31
0.0
  0
LINE
  5
2e7
100
AcDbEntity
  8
0
 62
7
100
AcDbLine
 10
189.000155
 20
0.999761
 30
0.0
 11
189.000155
 21
-2.000242
 31
0.0
  0
LINE
  5
2e8
100
AcDbEntity
  8
0
 62
7
100
AcDbLine
 10
189.000155
 20
-2.000242
 30
0.0
 11
178.000146
 21
-2.000242
 31
0.0
  0
LINE
  5
2e9
100
AcDbEntity
  8
0
 62
7
100
AcDbLine
 10
178.000146
 20
-2.000242
 30
0.0
 11
178.000146
 21
0.999761
 31
0.0
  0
LINE
  5
2ea
100
AcDbEntity
  8
0
 62
7
100
AcDbLine
 10
178.000146
 20
0.999761
 30
0.0
 11
169.000139
 21
0.999761
 31
0.0
  0
LINE
  5
2eb
100
AcDbEntity
  8
0
 62
7
100
AcDbLine
 10
169.000139
 20
0.999761
 30
0.0
 11
169.000139
 21
-2.000242
 31
0.0
  0
LINE
  5
2ec
100
AcDbEntity
  8
0
 62
7
100
AcDbLine
 10
169.000139
 20
-2.000242
 30
0.0
 11
158.000130
 21
-2.000242
 31
0.0
  0
LINE
  5
2ed
100
AcDbEntity
  8
0
 62
7
100
AcDbLine
 10
158.000130
 20
-2.000242
 30
0.0
 11
158.000130
 21
0.999761
 31
0.0
  0
LINE
  5
2ee
100
AcDbEntity
  8
0
 62
7
100
AcDbLine
 10
158.000130
 20
0.999761
 30
0.0
 11
149.000123
 21
0.999761
 31
0.0
  0
LINE
  5
2ef
100
AcDbEntity
  8
0
 62
7
100
AcDbLine
 10
149.000123
 20
0.999761
 30
0.0
 11
149.000123
 21
-2.000242
 31
0.0
  0
LINE
  5
2f0
100
AcDbEntity
  8
0
 62
7
100
AcDbLine
 10
149.000123
 20
-2.000242
 30
0.0
 11
138.000113
 21
-2.000242
 31
0.0
  0
LINE
  5
2f1
100
AcDbEntity
  8
0
 62
7
100
AcDbLine
 10
138.000113
 20
-2.000242
 30
0.0
 11
138.000113
 21
0.999761
 31
0.0
  0
LINE
  5
2f2
100
AcDbEntity
  8
0
 62
7
100
AcDbLine
 10
138.000113
 20
0.999761
 30
0.0
 11
129.000106
 21
0.999761
 31
0.0
  0
LINE
  5
2f3
100
AcDbEntity
  8
0
 62
7
100
AcDbLine
 10
129.000106
 20
0.999761
 30
0.0
 11
129.000106
 21
-2.000242
 31
0.0
  0
LINE
  5
2f4
100
AcDbEntity
  8
0
 62
7
100
AcDbLine
 10
129.000106
 20
-2.000242
 30
0.0
 11
118.000097
 21
-2.000242
 31
0.0
  0
LINE
  5
2f5
100
AcDbEntity
  8
0
 62
7
100
AcDbLine
 10
118.000097
 20
-2.000242
 30
0.0
 11
118.000097
 21
0.999761
 31
0.0
  0
LINE
  5
2f6
100
AcDbEntity
  8
0
 62
7
100
AcDbLine
 10
118.000097
 20
0.999761
 30
0.0
 11
109.000090
 21
0.999761
 31
0.0
  0
LINE
  5
2f7
100
AcDbEntity
  8
0
 62
7
100
AcDbLine
 10
109.000090
 20
0.999761
 30
0.0
 11
109.000090
 21
-2.000242
 31
0.0
  0
LINE
  5
2f8
100
AcDbEntity
  8
0
 62
7
100
AcDbLine
 10
109.000090
 20
-2.000242
 30
0.0
 11
98.000081
 21
-2.000242
 31
0.0
  0
LINE
  5
2f9
100
AcDbEntity
  8
0
 62
7
100
AcDbLine
 10
98.000081
 20
-2.000242
 30
0.0
 11
98.000081
 21
0.999761
 31
0.0
  0
LINE
  5
2fa
100
AcDbEntity
  8
0
 62
7
100
AcDbLine
 10
98.000081
 20
0.999761
 30
0.0
 11
89.000073
 21
0.999761
 31
0.0
  0
LINE
  5
2fb
100
AcDbEntity
  8
0
 62
7
100
AcDbLine
 10
89.000073
 20
0.999761
 30
0.0
 11
89.000073
 21
-2.000242
 31
0.0
  0
LINE
  5
2fc
100
AcDbEntity
  8
0
 62
7
100
AcDbLine
 10
89.000073
 20
-2.000242
 30
0.0
 11
78.000064
 21
-2.000242
 31
0.0
  0
LINE
  5
2fd
100
AcDbEntity
  8
0
 62
7
100
AcDbLine
 10
78.000064
 20
-2.000242
 30
0.0
 11
78.000064
 21
0.999761
 31
0.0
  0
LINE
  5
2fe
100
AcDbEntity
  8
0
 62
7
100
AcDbLine
 10
78.000064
 20
0.999761
 30
0.0
 11
69.000057
 21
0.999761
 31
0.0
  0
LINE
  5
2ff
100
AcDbEntity
  8
0
 62
7
100
AcDbLine
 10
69.000057
 20
0.999761
 30
0.0
 11
69.000057
 21
-2.000242
 31
0.0
  0
LINE
  5
300
100
AcDbEntity
  8
0
 62
7
100
AcDbLine
 10
69.000057
 20
-2.000242
 30
0.0
 11
58.000048
 21
-2.000242
 31
0.0
  0
LINE
  5
301
100
AcDbEntity
  8
0
 62
7
100
AcDbLine
 10
58.000048
 20
-2.000242
 30
0.0
 11
58.000048
 21
0.999761
 31
0.0
  0
LINE
  5
302
100
AcDbEntity
  8
0
 62
7
100
AcDbLine
 10
58.000048
 20
0.999761
 30
0.0
 11
49.000040
 21
0.999761
 31
0.0
  0
LINE
  5
303
100
AcDbEntity
  8
0
 62
7
100
AcDbLine
 10
49.000040
 20
0.999761
 30
0.0
 11
49.000040
 21
-2.000242
 31
0.0
  0
LINE
  5
304
100
AcDbEntity
  8
0
 62
7
100
AcDbLine
 10
49.000040
 20
-2.000242
 30
0.0
 11
38.000031
 21
-2.000242
 31
0.0
  0
LINE
  5
305
100
AcDbEntity
  8
0
 62
7
100
AcDbLine
 10
38.000031
 20
-2.000242
 30
0.0
 11
38.000031
 21
0.999761
 31
0.0
  0
LINE
  5
306
100
AcDbEntity
  8
0
 62
7
100
AcDbLine
 10
38.000031
 20
0.999761
 30
0.0
 11
29.000024
 21
0.999761
 31
0.0
  0
LINE
  5
307
100
AcDbEntity
  8
0
 62
7
100
AcDbLine
 10
29.000024
 20
0.999761
 30
0.0
 11
29.000024
 21
-2.000242
 31
0.0
  0
LINE
  5
308
100
AcDbEntity
  8
0
 62
7
100
AcDbLine
 10
29.000024
 20
-2.000242
 30
0.0
 11
14.000012
 21
-2.000242
 31
0.0
  0
LINE
  5
309
100
AcDbEntity
  8
0
 62
7
100
AcDbLine
 10
14.000012
 20
-2.000242
 30
0.0
 11
14.000012
 21
0.999761
 31
0.0
  0
LINE
  5
30a
100
AcDbEntity
  8
0
 62
7
100
AcDbLine
 10
14.000012
 20
0.999761
 30
0.0
 11
3.000002
 21
0.999761
 31
0.0
  0
LINE
  5
30b
100
AcDbEntity
  8
0
 62
7
100
AcDbLine
 10
3.000002
 20
0.999761
 30
0.0
 11
3.000002
 21
11.999770
 31
0.0
  0
LINE
  5
30c
100
AcDbEntity
  8
0
 62
7
100
AcDbLine
 10
3.000002
 20
11.999770
 30
0.0
 11
-0.000000
 21
11.999770
 31
0.0
  0
LINE
  5
30d
100
AcDbEntity
  8
0
 62
7
100
AcDbLine
 10
-0.000000
 20
11.999770
 30
0.0
 11
-0.000000
 21
26.999782
 31
0.0
  0
LINE
  5
30e
100
AcDbEntity
  8
0
 62
7
100
AcDbLine
 10
-0.000000
 20
26.999782
 30
0.0
 11
3.000002
 21
26.999782
 31
0.0
  0
LINE
  5
30f
100
AcDbEntity
  8
0
 62
7
100
AcDbLine
 10
3.000002
 20
26.999782
 30
0.0
 11
3.000002
 21
35.999790
 31
0.0
  0
LINE
  5
310
100
AcDbEntity
  8
0
 62
7
100
AcDbLine
 10
3.000002
 20
35.999790
 30
0.0
 11
-0.000000
 21
35.999790
 31
0.0
  0
LINE
  5
311
100
AcDbEntity
  8
0
 62
7
100
AcDbLine
 10
-0.000000
 20
35.999790
 30
0.0
 11
-0.000000
 21
46.999799
 31
0.0
  0
LINE
  5
312
100
AcDbEntity
  8
0
 62
7
100
AcDbLine
 10
-0.000000
 20
46.999799
 30
0.0
 11
3.000002
 21
46.999799
 31
0.0
  0
LINE
  5
313
100
AcDbEntity
  8
0
 62
7
100
AcDbLine
 10
3.000002
 20
46.999799
 30
0.0
 11
3.000002
 21
55.999806
 31
0.0
  0
LINE
  5
314
100
AcDbEntity
  8
0
 62
7
100
AcDbLine
 10
3.000002
 20
55.999806
 30
0.0
 11
-0.000000
 21
55.999806
 31
0.0
  0
LINE
  5
315
100
AcDbEntity
  8
0
 62
7
100
AcDbLine
 10
-0.000000
 20
55.999806
 30
0.0
 11
-0.000000
 21
66.999815
 31
0.0
  0
LINE
  5
316
100
AcDbEntity
  8
0
 62
7
100
AcDbLine
 10
-0.000000
 20
66.999815
 30
0.0
 11
3.000002
 21
66.999815
 31
0.0
  0
LINE
  5
317
100
AcDbEntity
  8
0
 62
7
100
AcDbLine
 10
3.000002
 20
66.999815
 30
0.0
 11
3.000002
 21
75.999822
 31
0.0
  0
LINE
  5
318
100
AcDbEntity
  8
0
 62
7
100
AcDbLine
 10
3.000002
 20
75.999822
 30
0.0
 11
-0.000000
 21
75.999822
 31
0.0
  0
LINE
  5
319
100
AcDbEntity
  8
0
 62
7
100
AcDbLine
 10
-0.000000
 20
75.999822
 30
0.0
 11
-0.000000
 21
86.999831
 31
0.0
  0
LINE
  5
31a
100
AcDbEntity
  8
0
 62
7
100
AcDbLine
 10
-0.000000
 20
86.999831
 30
0.0
 11
3.000002
 21
86.999831
 31
0.0
  0
LINE
  5
31b
100
AcDbEntity
  8
0
 62
7
100
AcDbLine
 10
3.000002
 20
86.999831
 30
0.0
 11
3.000002
 21
95.999839
 31
0.0
  0
LINE
  5
31c
100
AcDbEntity
  8
0
 62
7
100
AcDbLine
 10
3.000002
 20
95.999839
 30
0.0
 11
-0.000000
 21
95.999839
 31
0.0
  0
LINE
  5
31d
100
AcDbEntity
  8
0
 62
7
100
AcDbLine
 10
-0.000000
 20
95.999839
 30
0.0
 11
-0.000000
 21
106.999848
 31
0.0
  0
LINE
  5
31e
100
AcDbEntity
  8
0
 62
7
100
AcDbLine
 10
-0.000000
 20
106.999848
 30
0.0
 11
3.000002
 21
106.999848
 31
0.0
  0
LINE
  5
31f
100
AcDbEntity
  8
0
 62
7
100
AcDbLine
 10
3.000002
 20
106.999848
 30
0.0
 11
3.000002
 21
115.999855
 31
0.0
  0
LINE
  5
320
100
AcDbEntity
  8
0
 62
7
100
AcDbLine
 10
3.000002
 20
115.999855
 30
0.0
 11
-0.000000
 21
115.999855
 31
0.0
  0
LINE
  5
321
100
AcDbEntity
  8
0
 62
7
100
AcDbLine
 10
-0.000000
 20
115.999855
 30
0.0
 11
-0.000000
 21
126.999864
 31
0.0
  0
LINE
  5
322
100
AcDbEntity
  8
0
 62
7
100
AcDbLine
 10
-0.000000
 20
126.999864
 30
0.0
 11
3.000002
 21
126.999864
 31
0.0
  0
LINE
  5
323
100
AcDbEntity
  8
0
 62
7
100
AcDbLine
 10
3.000002
 20
126.999864
 30
0.0
 11
3.000002
 21
135.999872
 31
0.0
  0
LINE
  5
324
100
AcDbEntity
  8
0
 62
7
100
AcDbLine
 10
3.000002
 20
135.999872
 30
0.0
 11
-0.000000
 21
135.999872
 31
0.0
  0
LINE
  5
325
100
AcDbEntity
  8
0
 62
7
100
AcDbLine
 10
-0.000000
 20
135.999872
 30
0.0
 11
-0.000000
 21
146.999881
 31
0.0
  0
LINE
  5
326
100
AcDbEntity
  8
0
 62
7
100
AcDbLine
 10
-0.000000
 20
146.999881
 30
0.0
 11
3.000002
 21
146.999881
 31
0.0
  0
LINE
  5
327
100
AcDbEntity
  8
0
 62
7
100
AcDbLine
 10
3.000002
 20
146.999881
 30
0.0
 11
3.000002
 21
155.999888
 31
0.0
  0
LINE
  5
328
100
AcDbEntity
  8
0
 62
7
100
AcDbLine
 10
3.000002
 20
155.999888
 30
0.0
 11
-0.000000
 21
155.999888
 31
0.0
  0
LINE
  5
329
100
AcDbEntity
  8
0
 62
7
100
AcDbLine
 10
-0.000000
 20
155.999888
 30
0.0
 11
-0.000000
 21
166.999897
 31
0.0
  0
LINE
  5
32a
100
AcDbEntity
  8
0
 62
7
100
AcDbLine
 10
-0.000000
 20
166.999897
 30
0.0
 11
3.000002
 21
166.999897
 31
0.0
  0
LINE
  5
32b
100
AcDbEntity
  8
0
 62
7
100
AcDbLine
 10
3.000002
 20
166.999897
 30
0.0
 11
3.000002
 21
175.999905
 31
0.0
  0
LINE
  5
32c
100
AcDbEntity
  8
0
 62
7
100
AcDbLine
 10
3.000002
 20
175.999905
 30
0.0
 11
-0.000000
 21
175.999905
 31
0.0
  0
LINE
  5
32d
100
AcDbEntity
  8
0
 62
7
100
AcDbLine
 10
-0.000000
 20
175.999905
 30
0.0
 11
-0.000000
 21
186.999914
 31
0.0
  0
LINE
  5
32e
100
AcDbEntity
  8
0
 62
7
100
AcDbLine
 10
-0.000000
 20
186.999914
 30
0.0
 11
3.000002
 21
186.999914
 31
0.0
  0
LINE
  5
32f
100
AcDbEntity
  8
0
 62
7
100
AcDbLine
 10
3.000002
 20
186.999914
 30
0.0
 11
3.000002
 21
195.999921
 31
0.0
  0
LINE
  5
330
100
AcDbEntity
  8
0
 62
7
100
AcDbLine
 10
3.000002
 20
195.999921
 30
0.0
 11
-0.000000
 21
195.999921
 31
0.0
  0
LINE
  5
331
100
AcDbEntity
  8
0
 62
7
100
AcDbLine
 10
-0.000000
 20
195.999921
 30
0.0
 11
-0.000000
 21
210.999933
 31
0.0
  0
LINE
  5
332
100
AcDbEntity
  8
0
 62
7
100
AcDbLine
 10
-0.000000
 20
210.999933
 30
0.0
 11
3.000002
 21
210.999933
 31
0.0
  0
LINE
  5
333
100
AcDbEntity
  8
0
 62
7
100
AcDbLine
 10
3.000002
 20
210.999933
 30
0.0
 11
3.000002
 21
221.999942
 31
0.0
  0
LINE
  5
334
100
AcDbEntity
  8
0
 62
7
100
AcDbLine
 10
230.000189
 20
221.999942
 30
0.0
 11
241.000198
 21
221.999942
 31
0.0
  0
LINE
  5
335
100
AcDbEntity
  8
0
 62
7
100
AcDbLine
 10
241.000198
 20
221.999942
 30
0.0
 11
241.000198
 21
224.999945
 31
0.0
  0
LINE
  5
336
100
AcDbEntity
  8
0
 62
7
100
AcDbLine
 10
241.000198
 20
224.999945
 30
0.0
 11
256.000210
 21
224.999945
 31
0.0
  0
LINE
  5
337
100
AcDbEntity
  8
0
 62
7
100
AcDbLine
 10
256.000210
 20
224.999945
 30
0.0
 11
256.000210
 21
221.999942
 31
0.0
  0
LINE
  5
338
100
AcDbEntity
  8
0
 62
7
100
AcDbLine
 10
256.000210
 20
221.999942
 30
0.0
 11
265.000218
 21
221.999942
 31
0.0
  0
LINE
  5
339
100
AcDbEntity
  8
0
 62
7
100
AcDbLine
 10
265.000218
 20
221.999942
 30
0.0
 11
265.000218
 21
224.999945
 31
0.0
  0
LINE
  5
33a
100
AcDbEntity
  8
0
 62
7
100
AcDbLine
 10
265.000218
 20
224.999945
 30
0.0
 11
276.000227
 21
224.999945
 31
0.0
  0
LINE
  5
33b
100
AcDbEntity
  8
0
 62
7
100
AcDbLine
 10
276.000227
 20
224.999945
 30
0.0
 11
276.000227
 21
221.999942
 31
0.0
  0
LINE
  5
33c
100
AcDbEntity
  8
0
 62
7
100
AcDbLine
 10
276.000227
 20
221.999942
 30
0.0
 11
285.000234
 21
221.999942
 31
0.0
  0
LINE
  5
33d
100
AcDbEntity
  8
0
 62
7
100
AcDbLine
 10
285.000234
 20
221.999942
 30
0.0
 11
285.000234
 21
224.999945
 31
0.0
  0
LINE
  5
33e
100
AcDbEntity
  8
0
 62
7
100
AcDbLine
 10
285.000234
 20
224.999945
 30
0.0
 11
296.000243
 21
224.999945
 31
0.0
  0
LINE
  5
33f
100
AcDbEntity
  8
0
 62
7
100
AcDbLine
 10
296.000243
 20
224.999945
 30
0.0
 11
296.000243
 21
221.999942
 31
0.0
  0
LINE
  5
340
100
AcDbEntity
  8
0
 62
7
100
AcDbLine
 10
296.000243
 20
221.999942
 30
0.0
 11
305.000251
 21
221.999942
 31
0.0
  0
LINE
  5
341
100
AcDbEntity
  8
0
 62
7
100
AcDbLine
 10
305.000251
 20
221.999942
 30
0.0
 11
305.000251
 21
224.999945
 31
0.0
  0
LINE
  5
342
100
AcDbEntity
  8
0
 62
7
100
AcDbLine
 10
305.000251
 20
224.999945
 30
0.0
 11
316.000260
 21
224.999945
 31
0.0
  0
LINE
  5
343
100
AcDbEntity
  8
0
 62
7
100
AcDbLine
 10
316.000260
 20
224.999945
 30
0.0
 11
316.000260
 21
221.999942
 31
0.0
  0
LINE
  5
344
100
AcDbEntity
  8
0
 62
7
100
AcDbLine
 10
316.000260
 20
221.999942
 30
0.0
 11
325.000267
 21
221.999942
 31
0.0
  0
LINE
  5
345
100
AcDbEntity
  8
0
 62
7
100
AcDbLine
 10
325.000267
 20
221.999942
 30
0.0
 11
325.000267
 21
224.999945
 31
0.0
  0
LINE
  5
346
100
AcDbEntity
  8
0
 62
7
100
AcDbLine
 10
325.000267
 20
224.999945
 30
0.0
 11
336.000276
 21
224.999945
 31
0.0
  0
LINE
  5
347
100
AcDbEntity
  8
0
 62
7
100
AcDbLine
 10
336.000276
 20
224.999945
 30
0.0
 11
336.000276
 21
221.999942
 31
0.0
  0
LINE
  5
348
100
AcDbEntity
  8
0
 62
7
100
AcDbLine
 10
336.000276
 20
221.999942
 30
0.0
 11
345.000284
 21
221.999942
 31
0.0
  0
LINE
  5
349
100
AcDbEntity
  8
0
 62
7
100
AcDbLine
 10
345.000284
 20
221.999942
 30
0.0
 11
345.000284
 21
224.999945
 31
0.0
  0
LINE
  5
34a
100
AcDbEntity
  8
0
 62
7
100
AcDbLine
 10
345.000284
 20
224.999945
 30
0.0
 11
356.000293
 21
224.999945
 31
0.0
  0
LINE
  5
34b
100
AcDbEntity
  8
0
 62
7
100
AcDbLine
 10
356.000293
 20
224.999945
 30
0.0
 11
356.000293
 21
221.999942
 31
0.0
  0
LINE
  5
34c
100
AcDbEntity
  8
0
 62
7
100
AcDbLine
 10
356.000293
 20
221.999942
 30
0.0
 11
365.000300
 21
221.999942
 31
0.0
  0
LINE
  5
34d
100
AcDbEntity
  8
0
 62
7
100
AcDbLine
 10
365.000300
 20
221.999942
 30
0.0
 11
365.000300
 21
224.999945
 31
0.0
  0
LINE
  5
34e
100
AcDbEntity
  8
0
 62
7
100
AcDbLine
 10
365.000300
 20
224.999945
 30
0.0
 11
376.000309
 21
224.999945
 31
0.0
  0
LINE
  5
34f
100
AcDbEntity
  8
0
 62
7
100
AcDbLine
 10
376.000309
 20
224.999945
 30
0.0
 11
376.000309
 21
221.999942
 31
0.0
  0
LINE
  5
350
100
AcDbEntity
  8
0
 62
7
100
AcDbLine
 10
376.000309
 20
221.999942
 30
0.0
 11
385.000317
 21
221.999942
 31
0.0
  0
LINE
  5
351
100
AcDbEntity
  8
0
 62
7
100
AcDbLine
 10
385.000317
 20
221.999942
 30
0.0
 11
385.000317
 21
224.999945
 31
0.0
  0
LINE
  5
352
100
AcDbEntity
  8
0
 62
7
100
AcDbLine
 10
385.000317
 20
224.999945
 30
0.0
 11
396.000326
 21
224.999945
 31
0.0
  0
LINE
  5
353
100
AcDbEntity
  8
0
 62
7
100
AcDbLine
 10
396.000326
 20
224.999945
 30
0.0
 11
396.000326
 21
221.999942
 31
0.0
  0
LINE
  5
354
100
AcDbEntity
  8
0
 62
7
100
AcDbLine
 10
396.000326
 20
221.999942
 30
0.0
 11
405.000333
 21
221.999942
 31
0.0
  0
LINE
  5
355
100
AcDbEntity
  8
0
 62
7
100
AcDbLine
 10
405.000333
 20
221.999942
 30
0.0
 11
405.000333
 21
224.999945
 31
0.0
  0
LINE
  5
356
100
AcDbEntity
  8
0
 62
7
100
AcDbLine
 10
405.000333
 20
224.999945
 30
0.0
 11
416.000342
 21
224.999945
 31
0.0
  0
LINE
  5
357
100
AcDbEntity
  8
0
 62
7
100
AcDbLine
 10
416.000342
 20
224.999945
 30
0.0
 11
416.000342
 21
221.999942
 31
0.0
  0
LINE
  5
358
100
AcDbEntity
  8
0
 62
7
100
AcDbLine
 10
416.000342
 20
221.999942
 30
0.0
 11
425.000349
 21
221.999942
 31
0.0
  0
LINE
  5
359
100
AcDbEntity
  8
0
 62
7
100
AcDbLine
 10
425.000349
 20
221.999942
 30
0.0
 11
425.000349
 21
224.999945
 31
0.0
  0
LINE
  5
35a
100
AcDbEntity
  8
0
 62
7
100
AcDbLine
 10
425.000349
 20
224.999945
 30
0.0
 11
440.000362
 21
224.999945
 31
0.0
  0
LINE
  5
35b
100
AcDbEntity
  8
0
 62
7
100
AcDbLine
 10
440.000362
 20
224.999945
 30
0.0
 11
440.000362
 21
221.999942
 31
0.0
  0
LINE
  5
35c
100
AcDbEntity
  8
0
 62
7
100
AcDbLine
 10
440.000362
 20
221.999942
 30
0.0
 11
451.000371
 21
221.999942
 31
0.0
  0
LINE
  5
35d
100
AcDbEntity
  8
0
 62
7
100
AcDbLine
 10
451.000371
 20
221.999942
 30
0.0
 11
451.000371
 21
210.999933
 31
0.0
  0
LINE
  5
35e
100
AcDbEntity
  8
0
 62
7
100
AcDbLine
 10
451.000371
 20
210.999933
 30
0.0
 11
454.000373
 21
210.999933
 31
0.0
  0
LINE
  5
35f
100
AcDbEntity
  8
0
 62
7
100
AcDbLine
 10
454.000373
 20
210.999933
 30
0.0
 11
454.000373
 21
195.999921
 31
0.0
  0
LINE
  5
360
100
AcDbEntity
  8
0
 62
7
100
AcDbLine
 10
454.000373
 20
195.999921
 30
0.0
 11
451.000371
 21
195.999921
 31
0.0
  0
LINE
  5
361
100
AcDbEntity
  8
0
 62
7
100
AcDbLine
 10
451.000371
 20
195.999921
 30
0.0
 11
451.000371
 21
186.999914
 31
0.0
  0
LINE
  5
362
100
AcDbEntity
  8
0
 62
7
100
AcDbLine
 10
451.000371
 20
186.999914
 30
0.0
 11
454.000373
 21
186.999914
 31
0.0
  0
LINE
  5
363
100
AcDbEntity
  8
0
 62
7
100
AcDbLine
 10
454.000373
 20
186.999914
 30
0.0
 11
454.000373
 21
175.999905
 31
0.0
  0
LINE
  5
364
100
AcDbEntity
  8
0
 62
7
100
AcDbLine
 10
454.000373
 20
175.999905
 30
0.0
 11
451.000371
 21
175.999905
 31
0.0
  0
LINE
  5
365
100
AcDbEntity
  8
0
 62
7
100
AcDbLine
 10
451.000371
 20
175.999905
 30
0.0
 11
451.000371
 21
166.999897
 31
0.0
  0
LINE
  5
366
100
AcDbEntity
  8
0
 62
7
100
AcDbLine
 10
451.000371
 20
166.999897
 30
0.0
 11
454.000373
 21
166.999897
 31
0.0
  0
LINE
  5
367
100
AcDbEntity
  8
0
 62
7
100
AcDbLine
 10
454.000373
 20
166.999897
 30
0.0
 11
454.000373
 21
155.999888
 31
0.0
  0
LINE
  5
368
100
AcDbEntity
  8
0
 62
7
100
AcDbLine
 10
454.000373
 20
155.999888
 30
0.0
 11
451.000371
 21
155.999888
 31
0.0
  0
LINE
  5
369
100
AcDbEntity
  8
0
 62
7
100
AcDbLine
 10
451.000371
 20
155.999888
 30
0.0
 11
451.000371
 21
146.999881
 31
0.0
  0
LINE
  5
36a
100
AcDbEntity
  8
0
 62
7
100
AcDbLine
 10
451.000371
 20
146.999881
 30
0.0
 11
454.000373
 21
146.999881
 31
0.0
  0
LINE
  5
36b
100
AcDbEntity
  8
0
 62
7
100
AcDbLine
 10
454.000373
 20
146.999881
 30
0.0
 11
454.000373
 21
135.999872
 31
0.0
  0
LINE
  5
36c
100
AcDbEntity
  8
0
 62
7
100
AcDbLine
 10
454.000373
 20
135.999872
 30
0.0
 11
451.000371
 21
135.999872
 31
0.0
  0
LINE
  5
36d
100
AcDbEntity
  8
0
 62
7
100
AcDbLine
 10
451.000371
 20
135.999872
 30
0.0
 11
451.000371
 21
126.999864
 31
0.0
  0
LINE
  5
36e
100
AcDbEntity
  8
0
 62
7
100
AcDbLine
 10
451.000371
 20
126.999864
 30
0.0
 11
454.000373
 21
126.999864
 31
0.0
  0
LINE
  5
36f
100
AcDbEntity
  8
0
 62
7
100
AcDbLine
 10
454.000373
 20
126.999864
 30
0.0
 11
454.000373
 21
115.999855
 31
0.0
  0
LINE
  5
370
100
AcDbEntity
  8
0
 62
7
100
AcDbLine
 10
454.000373
 20
115.999855
 30
0.0
 11
451.000371
 21
115.999855
 31
0.0
  0
LINE
  5
371
100
AcDbEntity
  8
0
 62
7
100
AcDbLine
 10
451.000371
 20
115.999855
 30
0.0
 11
451.000371
 21
106.999848
 31
0.0
  0
LINE
  5
372
100
AcDbEntity
  8
0
 62
7
100
AcDbLine
 10
451.000371
 20
106.999848
 30
0.0
 11
454.000373
 21
106.999848
 31
0.0
  0
LINE
  5
373
100
AcDbEntity
  8
0
 62
7
100
AcDbLine
 10
454.000373
 20
106.999848
 30
0.0
 11
454.000373
 21
95.999839
 31
0.0
  0
LINE
  5
374
100
AcDbEntity
  8
0
 62
7
100
AcDbLine
 10
454.000373
 20
95.999839
 30
0.0
 11
451.000371
 21
95.999839
 31
0.0
  0
LINE
  5
375
100
AcDbEntity
  8
0
 62
7
100
AcDbLine
 10
451.000371
 20
95.999839
 30
0.0
 11
451.000371
 21
86.999831
 31
0.0
  0
LINE
  5
376
100
AcDbEntity
  8
0
 62
7
100
AcDbLine
 10
451.000371
 20
86.999831
 30
0.0
 11
454.000373
 21
86.999831
 31
0.0
  0
LINE
  5
377
100
AcDbEntity
  8
0
 62
7
100
AcDbLine
 10
454.000373
 20
86.999831
 30
0.0
 11
454.000373
 21
75.999822
 31
0.0
  0
LINE
  5
378
100
AcDbEntity
  8
0
 62
7
100
AcDbLine
 10
454.000373
 20
75.999822
 30
0.0
 11
451.000371
 21
75.999822
 31
0.0
  0
LINE
  5
379
100
AcDbEntity
  8
0
 62
7
100
AcDbLine
 10
451.000371
 20
75.999822
 30
0.0
 11
451.000371
 21
66.999815
 31
0.0
  0
LINE
  5
37a
100
AcDbEntity
  8
0
 62
7
100
AcDbLine
 10
451.000371
 20
66.999815
 30
0.0
 11
454.000373
 21
66.999815
 31
0.0
  0
LINE
  5
37b
100
AcDbEntity
  8
0
 62
7
100
AcDbLine
 10
454.000373
 20
66.999815
 30
0.0
 11
454.000373
 21
55.999806
 31
0.0
  0
LINE
  5
37c
100
AcDbEntity
  8
0
 62
7
100
AcDbLine
 10
454.000373
 20
55.999806
 30
0.0
 11
451.000371
 21
55.999806
 31
0.0
  0
LINE
  5
37d
100
AcDbEntity
  8
0
 62
7
100
AcDbLine
 10
451.000371
 20
55.999806
 30
0.0
 11
451.000371
 21
46.999799
 31
0.0
  0
LINE
  5
37e
100
AcDbEntity
  8
0
 62
7
100
AcDbLine
 10
451.000371
 20
46.999799
 30
0.0
 11
454.000373
 21
46.999799
 31
0.0
  0
LINE
  5
37f
100
AcDbEntity
  8
0
 62
7
100
AcDbLine
 10
454.000373
 20
46.999799
 30
0.0
 11
454.000373
 21
35.999790
 31
0.0
  0
LINE
  5
380
100
AcDbEntity
  8
0
 62
7
100
AcDbLine
 10
454.000373
 20
35.999790
 30
0.0
 11
451.000371
 21
35.999790
 31
0.0
  0
LINE
  5
381
100
AcDbEntity
  8
0
 62
7
100
AcDbLine
 10
451.000371
 20
35.999790
 30
0.0
 11
451.000371
 21
26.999782
 31
0.0
  0
LINE
  5
382
100
AcDbEntity
  8
0
 62
7
100
AcDbLine
 10
451.000371
 20
26.999782
 30
0.0
 11
454.000373
 21
26.999782
 31
0.0
  0
LINE
  5
383
100
AcDbEntity
  8
0
 62
7
100
AcDbLine
 10
454.000373
 20
26.999782
 30
0.0
 11
454.000373
 21
11.999770
 31
0.0
  0
LINE
  5
384
100
AcDbEntity
  8
0
 62
7
100
AcDbLine
 10
454.000373
 20
11.999770
 30
0.0
 11
451.000371
 21
11.999770
 31
0.0
  0
LINE
  5
385
100
AcDbEntity
  8
0
 62
7
100
AcDbLine
 10
451.000371
 20
11.999770
 30
0.0
 11
451.000371
 21
0.999761
 31
0.0
  0
LINE
  5
386
100
AcDbEntity
  8
0
 62
7
100
AcDbLine
 10
451.000371
 20
0.999761
 30
0.0
 11
440.000362
 21
0.999761
 31
0.0
  0
LINE
  5
387
100
AcDbEntity
  8
0
 62
7
100
AcDbLine
 10
440.000362
 20
0.999761
 30
0.0
 11
440.000362
 21
-2.000242
 31
0.0
  0
LINE
  5
388
100
AcDbEntity
  8
0
 62
7
100
AcDbLine
 10
440.000362
 20
-2.000242
 30
0.0
 11
425.000349
 21
-2.000242
 31
0.0
  0
LINE
  5
389
100
AcDbEntity
  8
0
 62
7
100
AcDbLine
 10
425.000349
 20
-2.000242
 30
0.0
 11
425.000349
 21
0.999761
 31
0.0
  0
LINE
  5
38a
100
AcDbEntity
  8
0
 62
7
100
AcDbLine
 10
425.000349
 20
0.999761
 30
0.0
 11
416.000342
 21
0.999761
 31
0.0
  0
LINE
  5
38b
100
AcDbEntity
  8
0
 62
7
100
AcDbLine
 10
416.000342
 20
0.999761
 30
0.0
 11
416.000342
 21
-2.000242
 31
0.0
  0
LINE
  5
38c
100
AcDbEntity
  8
0
 62
7
100
AcDbLine
 10
416.000342
 20
-2.000242
 30
0.0
 11
405.000333
 21
-2.000242
 31
0.0
  0
LINE
  5
38d
100
AcDbEntity
  8
0
 62
7
100
AcDbLine
 10
405.000333
 20
-2.000242
 30
0.0
 11
405.000333
 21
0.999761
 31
0.0
  0
LINE
  5
38e
100
AcDbEntity
  8
0
 62
7
100
AcDbLine
 10
405.000333
 20
0.999761
 30
0.0
 11
396.000326
 21
0.999761
 31
0.0
  0
LINE
  5
38f
100
AcDbEntity
  8
0
 62
7
100
AcDbLine
 10
396.000326
 20
0.999761
 30
0.0
 11
396.000326
 21
-2.000242
 31
0.0
  0
LINE
  5
390
100
AcDbEntity
  8
0
 62
7
100
AcDbLine
 10
396.000326
 20
-2.000242
 30
0.0
 11
385.000317
 21
-2.000242
 31
0.0
  0
LINE
  5
391
100
AcDbEntity
  8
0
 62
7
100
AcDbLine
 10
385.000317
 20
-2.000242
 30
0.0
 11
385.000317
 21
0.999761
 31
0.0
  0
LINE
  5
392
100
AcDbEntity
  8
0
 62
7
100
AcDbLine
 10
385.000317
 20
0.999761
 30
0.0
 11
376.000309
 21
0.999761
 31
0.0
  0
LINE
  5
393
100
AcDbEntity
  8
0
 62
7
100
AcDbLine
 10
376.000309
 20
0.999761
 30
0.0
 11
376.000309
 21
-2.000242
 31
0.0
  0
LINE
  5
394
100
AcDbEntity
  8
0
 62
7
100
AcDbLine
 10
376.000309
 20
-2.000242
 30
0.0
 11
365.000300
 21
-2.000242
 31
0.0
  0
LINE
  5
395
100
AcDbEntity
  8
0
 62
7
100
AcDbLine
 10
365.000300
 20
-2.000242
 30
0.0
 11
365.000300
 21
0.999761
 31
0.0
  0
LINE
  5
396
100
AcDbEntity
  8
0
 62
7
100
AcDbLine
 10
365.000300
 20
0.999761
 30
0.0
 11
356.000293
 21
0.999761
 31
0.0
  0
LINE
  5
397
100
AcDbEntity
  8
0
 62
7
100
AcDbLine
 10
356.000293
 20
0.999761
 30
0.0
 11
356.000293
 21
-2.000242
 31
0.0
  0
LINE
  5
398
100
AcDbEntity
  8
0
 62
7
100
AcDbLine
 10
356.000293
 20
-2.000242
 30
0.0
 11
345.000284
 21
-2.000242
 31
0.0
  0
LINE
  5
399
100
AcDbEntity
  8
0
 62
7
100
AcDbLine
 10
345.000284
 20
-2.000242
 30
0.0
 11
345.000284
 21
0.999761
 31
0.0
  0
LINE
  5
39a
100
AcDbEntity
  8
0
 62
7
100
AcDbLine
 10
345.000284
 20
0.999761
 30
0.0
 11
336.000276
 21
0.999761
 31
0.0
  0
LINE
  5
39b
100
AcDbEntity
  8
0
 62
7
100
AcDbLine
 10
336.000276
 20
0.999761
 30
0.0
 11
336.000276
 21
-2.000242
 31
0.0
  0
LINE
  5
39c
100
AcDbEntity
  8
0
 62
7
100
AcDbLine
 10
336.000276
 20
-2.000242
 30
0.0
 11
325.000267
 21
-2.000242
 31
0.0
  0
LINE
  5
39d
100
AcDbEntity
  8
0
 62
7
100
AcDbLine
 10
325.000267
 20
-2.000242
 30
0.0
 11
325.000267
 21
0.999761
 31
0.0
  0
LINE
  5
39e
100
AcDbEntity
  8
0
 62
7
100
AcDbLine
 10
325.000267
 20
0.999761
 30
0.0
 11
316.000260
 21
0.999761
 31
0.0
  0
LINE
  5
39f
100
AcDbEntity
  8
0
 62
7
100
AcDbLine
 10
316.000260
 20
0.999761
 30
0.0
 11
316.000260
 21
-2.000242
 31
0.0
  0
LINE
  5
3a0
100
AcDbEntity
  8
0
 62
7
100
AcDbLine
 10
316.000260
 20
-2.000242
 30
0.0
 11
305.000251
 21
-2.000242
 31
0.0
  0
LINE
  5
3a1
100
AcDbEntity
  8
0
 62
7
100
AcDbLine
 10
305.000251
 20
-2.000242
 30
0.0
 11
305.000251
 21
0.999761
 31
0.0
  0
LINE
  5
3a2
100
AcDbEntity
  8
0
 62
7
100
AcDbLine
 10
305.000251
 20
0.999761
 30
0.0
 11
296.000243
 21
0.999761
 31
0.0
  0
LINE
  5
3a3
100
AcDbEntity
  8
0
 62
7
100
AcDbLine
 10
296.000243
 20
0.999761
 30
0.0
 11
296.000243
 21
-2.000242
 31
0.0
  0
LINE
  5
3a4
100
AcDbEntity
  8
0
 62
7
100
AcDbLine
 10
296.000243
 20
-2.000242
 30
0.0
 11
285.000234
 21
-2.000242
 31
0.0
  0
LINE
  5
3a5
100
AcDbEntity
  8
0
 62
7
100
AcDbLine
 10
285.000234
 20
-2.000242
 30
0.0
 11
285.000234
 21
0.999761
 31
0.0
  0
LINE
  5
3a6
100
AcDbEntity
  8
0
 62
7
100
AcDbLine
 10
285.000234
 20
0.999761
 30
0.0
 11
276.000227
 21
0.999761
 31
0.0
  0
LINE
  5
3a7
100
AcDbEntity
  8
0
 62
7
100
AcDbLine
 10
276.000227
 20
0.999761
 30
0.0
 11
276.000227
 21
-2.000242
 31
0.0
  0
LINE
  5
3a8
100
AcDbEntity
  8
0
 62
7
100
AcDbLine
 10
276.000227
 20
-2.000242
 30
0.0
 11
265.000218
 21
-2.000242
 31
0.0
  0
LINE
  5
3a9
100
AcDbEntity
  8
0
 62
7
100
AcDbLine
 10
265.000218
 20
-2.000242
 30
0.0
 11
265.000218
 21
0.999761
 31
0.0
  0
LINE
  5
3aa
100
AcDbEntity
  8
0
 62
7
100
AcDbLine
 10
265.000218
 20
0.999761
 30
0.0
 11
256.000210
 21
0.999761
 31
0.0
  0
LINE
  5
3ab
100
AcDbEntity
  8
0
 62
7
100
AcDbLine
 10
256.000210
 20
0.999761
 30
0.0
 11
256.000210
 21
-2.000242
 31
0.0
  0
LINE
  5
3ac
100
AcDbEntity
  8
0
 62
7
100
AcDbLine
 10
256.000210
 20
-2.000242
 30
0.0
 11
241.000198
 21
-2.000242
 31
0.0
  0
LINE
  5
3ad
100
AcDbEntity
  8
0
 62
7
100
AcDbLine
 10
241.000198
 20
-2.000242
 30
0.0
 11
241.000198
 21
0.999761
 31
0.0
  0
LINE
  5
3ae
100
AcDbEntity
  8
0
 62
7
100
AcDbLine
 10
241.000198
 20
0.999761
 30
0.0
 11
230.000189
 21
0.999761
 31
0.0
  0
LINE
  5
3af
100
AcDbEntity
  8
0
 62
7
100
AcDbLine
 10
230.000189
 20
0.999761
 30
0.0
 11
230.000189
 21
11.999770
 31
0.0
  0
LINE
  5
3b0
100
AcDbEntity
  8
0
 62
7
100
AcDbLine
 10
230.000189
 20
11.999770
 30
0.0
 11
227.000187
 21
11.999770
 31
0.0
  0
LINE
  5
3b1
100
AcDbEntity
  8
0
 62
7
100
AcDbLine
 10
227.000187
 20
11.999770
 30
0.0
 11
227.000187
 21
26.999782
 31
0.0
  0
LINE
  5
3b2
100
AcDbEntity
  8
0
 62
7
100
AcDbLine
 10
227.000187
 20
26.999782
 30
0.0
 11
230.000189
 21
26.999782
 31
0.0
  0
LINE
  5
3b3
100
AcDbEntity
  8
0
 62
7
100
AcDbLine
 10
230.000189
 20
26.999782
 30
0.0
 11
230.000189
 21
35.999790
 31
0.0
  0
LINE
  5
3b4
100
AcDbEntity
  8
0
 62
7
100
AcDbLine
 10
230.000189
 20
35.999790
 30
0.0
 11
227.000187
 21
35.999790
 31
0.0
  0
LINE
  5
3b5
100
AcDbEntity
  8
0
 62
7
100
AcDbLine
 10
227.000187
 20
35.999790
 30
0.0
 11
227.000187
 21
46.999799
 31
0.0
  0
LINE
  5
3b6
100
AcDbEntity
  8
0
 62
7
100
AcDbLine
 10
227.000187
 20
46.999799
 30
0.0
 11
230.000189
 21
46.999799
 31
0.0
  0
LINE
  5
3b7
100
AcDbEntity
  8
0
 62
7
100
AcDbLine
 10
230.000189
 20
46.999799
 30
0.0
 11
230.000189
 21
55.999806
 31
0.0
  0
LINE
  5
3b8
100
AcDbEntity
  8
0
 62
7
100
AcDbLine
 10
230.000189
 20
55.999806
 30
0.0
 11
227.000187
 21
55.999806
 31
0.0
  0
LINE
  5
3b9
100
AcDbEntity
  8
0
 62
7
100
AcDbLine
 10
227.000187
 20
55.999806
 30
0.0
 11
227.000187
 21
66.999815
 31
0.0
  0
LINE
  5
3ba
100
AcDbEntity
  8
0
 62
7
100
AcDbLine
 10
227.000187
 20
66.999815
 30
0.0
 11
230.000189
 21
66.999815
 31
0.0
  0
LINE
  5
3bb
100
AcDbEntity
  8
0
 62
7
100
AcDbLine
 10
230.000189
 20
66.999815
 30
0.0
 11
230.000189
 21
75.999822
 31
0.0
  0
LINE
  5
3bc
100
AcDbEntity
  8
0
 62
7
100
AcDbLine
 10
230.000189
 20
75.999822
 30
0.0
 11
227.000187
 21
75.999822
 31
0.0
  0
LINE
  5
3bd
100
AcDbEntity
  8
0
 62
7
100
AcDbLine
 10
227.000187
 20
75.999822
 30
0.0
 11
227.000187
 21
86.999831
 31
0.0
  0
LINE
  5
3be
100
AcDbEntity
  8
0
 62
7
100
AcDbLine
 10
227.000187
 20
86.999831
 30
0.0
 11
230.000189
 21
86.999831
 31
0.0
  0
LINE
  5
3bf
100
AcDbEntity
  8
0
 62
7
100
AcDbLine
 10
230.000189
 20
86.999831
 30
0.0
 11
230.000189
 21
95.999839
 31
0.0
  0
LINE
  5
3c0
100
AcDbEntity
  8
0
 62
7
100
AcDbLine
 10
230.000189
 20
95.999839
 30
0.0
 11
227.000187
 21
95.999839
 31
0.0
  0
LINE
  5
3c1
100
AcDbEntity
  8
0
 62
7
100
AcDbLine
 10
227.000187
 20
95.999839
 30
0.0
 11
227.000187
 21
106.999848
 31
0.0
  0
LINE
  5
3c2
100
AcDbEntity
  8
0
 62
7
100
AcDbLine
 10
227.000187
 20
106.999848
 30
0.0
 11
230.000189
 21
106.999848
 31
0.0
  0
LINE
  5
3c3
100
AcDbEntity
  8
0
 62
7
100
AcDbLine
 10
230.000189
 20
106.999848
 30
0.0
 11
230.000189
 21
115.999855
 31
0.0
  0
LINE
  5
3c4
100
AcDbEntity
  8
0
 62
7
100
AcDbLine
 10
230.000189
 20
115.999855
 30
0.0
 11
227.000187
 21
115.999855
 31
0.0
  0
LINE
  5
3c5
100
AcDbEntity
  8
0
 62
7
100
AcDbLine
 10
227.000187
 20
115.999855
 30
0.0
 11
227.000187
 21
126.999864
 31
0.0
  0
LINE
  5
3c6
100
AcDbEntity
  8
0
 62
7
100
AcDbLine
 10
227.000187
 20
126.999864
 30
0.0
 11
230.000189
 21
126.999864
 31
0.0
  0
LINE
  5
3c7
100
AcDbEntity
  8
0
 62
7
100
AcDbLine
 10
230.000189
 20
126.999864
 30
0.0
 11
230.000189
 21
135.999872
 31
0.0
  0
LINE
  5
3c8
100
AcDbEntity
  8
0
 62
7
100
AcDbLine
 10
230.000189
 20
135.999872
 30
0.0
 11
227.000187
 21
135.999872
 31
0.0
  0
LINE
  5
3c9
100
AcDbEntity
  8
0
 62
7
100
AcDbLine
 10
227.000187
 20
135.999872
 30
0.0
 11
227.000187
 21
146.999881
 31
0.0
  0
LINE
  5
3ca
100
AcDbEntity
  8
0
 62
7
100
AcDbLine
 10
227.000187
 20
146.999881
 30
0.0
 11
230.000189
 21
146.999881
 31
0.0
  0
LINE
  5
3cb
100
AcDbEntity
  8
0
 62
7
100
AcDbLine
 10
230.000189
 20
146.999881
 30
0.0
 11
230.000189
 21
155.999888
 31
0.0
  0
LINE
  5
3cc
100
AcDbEntity
  8
0
 62
7
100
AcDbLine
 10
230.000189
 20
155.999888
 30
0.0
 11
227.000187
 21
155.999888
 31
0.0
  0
LINE
  5
3cd
100
AcDbEntity
  8
0
 62
7
100
AcDbLine
 10
227.000187
 20
155.999888
 30
0.0
 11
227.000187
 21
166.999897
 31
0.0
  0
LINE
  5
3ce
100
AcDbEntity
  8
0
 62
7
100
AcDbLine
 10
227.000187
 20
166.999897
 30
0.0
 11
230.000189
 21
166.999897
 31
0.0
  0
LINE
  5
3cf
100
AcDbEntity
  8
0
 62
7
100
AcDbLine
 10
230.000189
 20
166.999897
 30
0.0
 11
230.000189
 21
175.999905
 31
0.0
  0
LINE
  5
3d0
100
AcDbEntity
  8
0
 62
7
100
AcDbLine
 10
230.000189
 20
175.999905
 30
0.0
 11
227.000187
 21
175.999905
 31
0.0
  0
LINE
  5
3d1
100
AcDbEntity
  8
0
 62
7
100
AcDbLine
 10
227.000187
 20
175.999905
 30
0.0
 11
227.000187
 21
186.999914
 31
0.0
  0
LINE
  5
3d2
100
AcDbEntity
  8
0
 62
7
100
AcDbLine
 10
227.000187
 20
186.999914
 30
0.0
 11
230.000189
 21
186.999914
 31
0.0
  0
LINE
  5
3d3
100
AcDbEntity
  8
0
 62
7
100
AcDbLine
 10
230.000189
 20
186.999914
 30
0.0
 11
230.000189
 21
195.999921
 31
0.0
  0
LINE
  5
3d4
100
AcDbEntity
  8
0
 62
7
100
AcDbLine
 10
230.000189
 20
195.999921
 30
0.0
 11
227.000187
 21
195.999921
 31
0.0
  0
LINE
  5
3d5
100
AcDbEntity
  8
0
 62
7
100
AcDbLine
 10
227.000187
 20
195.999921
 30
0.0
 11
227.000187
 21
210.999933
 31
0.0
  0
LINE
  5
3d6
100
AcDbEntity
  8
0
 62
7
100
AcDbLine
 10
227.000187
 20
210.999933
 30
0.0
 11
230.000189
 21
210.999933
 31
0.0
  0
LINE
  5
3d7
100
AcDbEntity
  8
0
 62
7
100
AcDbLine
 10
230.000189
 20
210.999933
 30
0.0
 11
230.000189
 21
221.999942
 31
0.0
  0
ENDSEC
  0
SECTION
  2
OBJECTS
  0
DICTIONARY
  5
C
330
0
100
AcDbDictionary
  3
ACAD_GROUP
350
D
  3
ACAD_MLINESTYLE
350
17
  0
DICTIONARY
  5
D
330
C
100
AcDbDictionary
  0
DICTIONARY
  5
1A
330
C
100
AcDbDictionary
  0
DICTIONARY
  5
17
330
C
100
AcDbDictionary
  3
STANDARD
350
18
  0
DICTIONARY
  5
19
330
C
100
AcDbDictionary
  0
ENDSEC
  0
EOF
