<svg xmlns="http://www.w3.org/2000/svg" version="1.1" width="300.7mm" height="154.7mm" viewBox = " 0 0 1065.473317 548.150057" >
<!-- Front--> 
<g transform="translate(22.5000185, 22.5000185) " > 
<polygon style="stroke:#000000; fill:none; stroke-width:0.90000074" points="0, 0 35.433099999999996, 0 35.433099999999996, 10.62993 70.86619999999999, 10.62993 70.86619999999999, 0 92.12606, 0 92.12606, 10.62993 113.38592, 10.62993 113.38592, 0 134.64578, 0 134.64578, 10.62993 155.90564, 10.62993 155.90564, 0 177.1655, 0 177.1655, 10.62993 198.42535999999998, 10.62993 198.42535999999998, 0 219.68522, 0 219.68522, 10.62993 240.94508, 10.62993 240.94508, 0 262.20493999999997, 0 262.20493999999997, 10.62993 283.46479999999997, 10.62993 283.46479999999997, 0 304.72466, 0 304.72466, 10.62993 340.15776, 10.62993 340.15776, 0 375.59086, 0 375.59086, 31.889789999999998 364.96093, 31.889789999999998 364.96093, 63.779579999999996 375.59086, 63.779579999999996 375.59086, 85.03944 364.96093, 85.03944 364.96093, 106.29929999999999 375.59086, 106.29929999999999 375.59086, 127.55915999999999 364.96093, 127.55915999999999 364.96093, 148.81902 375.59086, 148.81902 375.59086, 170.07888 364.96093, 170.07888 364.96093, 201.96866999999997 375.59086, 201.96866999999997 375.59086, 233.85846 340.15776, 233.85846 340.15776, 223.22853 304.72466, 223.22853 304.72466, 233.85846 283.46479999999997, 233.85846 283.46479999999997, 223.22853 262.20493999999997, 223.22853 262.20493999999997, 233.85846 240.94508, 233.85846 240.94508, 223.22853 219.68522, 223.22853 219.68522, 233.85846 198.42535999999998, 233.85846 198.42535999999998, 223.22853 177.1655, 223.22853 177.1655, 233.85846 155.90564, 233.85846 155.90564, 223.22853 134.64578, 223.22853 134.64578, 233.85846 113.38592, 233.85846 113.38592, 223.22853 92.12606, 223.22853 92.12606, 233.85846 70.86619999999999, 233.85846 70.86619999999999, 223.22853 35.433099999999996, 223.22853 35.433099999999996, 233.85846 0, 233.85845999999998 0, 201.96866999999997 10.62993, 201.96866999999997 10.62993, 170.07888 0, 170.07888 0, 148.81902 10.62993, 148.81902 10.62993, 127.55915999999999 0, 127.55915999999999 0, 106.29929999999999 10.62993, 106.29929999999999 10.62993, 85.03944 0, 85.03944 0, 63.779579999999996 10.62993, 63.779579999999996 10.62993, 31.889789999999998 0, 31.889789999999998 "/> 
</g>
<!-- Back--> 
<g transform="translate(398.0908785, 22.5000185) " > 
<polygon style="stroke:#000000; fill:none; stroke-width:0.90000074" points="0, 0 35.433099999999996, 0 35.433099999999996, 10.62993 70.86619999999999, 10.62993 70.86619999999999, 0 92.12606, 0 92.12606, 10.62993 113.38592, 10.62993 113.38592, 0 134.64578, 0 134.64578, 10.62993 155.90564, 10.62993 155.90564, 0 177.1655, 0 177.1655, 10.62993 198.42535999999998, 10.62993 198.42535999999998, 0 219.68522, 0 219.68522, 10.62993 240.94508, 10.62993 240.94508, 0 262.20493999999997, 0 262.20493999999997, 10.62993 283.46479999999997, 10.62993 283.46479999999997, 0 304.72466, 0 304.72466, 10.62993 340.15776, 10.62993 340.15776, 0 375.59086, 0 375.59086, 31.889789999999998 364.96093, 31.889789999999998 364.96093, 63.779579999999996 375.59086, 63.779579999999996 375.59086, 85.03944 364.96093, 85.03944 364.96093, 106.29929999999999 375.59086, 106.29929999999999 375.59086, 127.55915999999999 364.96093, 127.55915999999999 364.96093, 148.81902 375.59086, 148.81902 375.59086, 170.07888 364.96093, 170.07888 364.96093, 201.96866999999997 375.59086, 201.96866999999997 375.59086, 233.85846 340.15776, 233.85846 340.15776, 223.22853 304.72466, 223.22853 304.72466, 233.85846 283.46479999999997, 233.85846 283.46479999999997, 223.22853 262.20493999999997, 223.22853 262.20493999999997, 233.85846 240.94508, 233.85846 240.94508, 223.22853 219.68522, 223.22853 219.68522, 233.85846 198.42535999999998, 233.85846 198.42535999999998, 223.22853 177.1655, 223.22853 177.1655, 233.85846 155.90564, 233.85846 155.90564, 223.22853 134.64578, 223.22853 134.64578, 233.85846 113.38592, 233.85846 113.38592, 223.22853 92.12606, 223.22853 92.12606, 233.85846 70.86619999999999, 233.85846 70.86619999999999, 223.22853 35.433099999999996, 223.22853 35.433099999999996, 233.85846 0, 233.85845999999998 0, 201.96866999999997 10.62993, 201.96866999999997 10.62993, 170.07888 0, 170.07888 0, 148.81902 10.62993, 148.81902 10.62993, 127.55915999999999 0, 127.55915999999999 0, 106.29929999999999 10.62993, 106.29929999999999 10.62993, 85.03944 0, 85.03944 0, 63.779579999999996 10.62993, 63.779579999999996 10.62993, 31.889789999999998 0, 31.889789999999998 "/> 
</g>
<!-- Left--> 
<g transform="translate(773.6817384999999, 22.5000185) " > 
<polygon style="stroke:#000000; fill:none; stroke-width:0.90000074" points="10.62993, 0 30.118135, 0 30.118135, 10.62993 60.23627, 10.62993 60.23627, 0 81.49613, 0 81.49613, 10.62993 102.75599, 10.62993 102.75599, 0 124.01585, 0 124.01585, 10.62993 145.27571, 10.62993 145.27571, 0 166.53557, 0 166.53557, 10.62993 187.79542999999998, 10.62993 187.79542999999998, 0 209.05528999999999, 0 209.05528999999999, 10.62993 239.173425, 10.62993 239.173425, 0 258.66163, 0 258.66163, 31.889789999999998 269.29156, 31.889789999999998 269.29156, 63.779579999999996 258.66163, 63.779579999999996 258.66163, 85.03944 269.29156, 85.03944 269.29156, 106.29929999999999 258.66163, 106.29929999999999 258.66163, 127.55915999999999 269.29156, 127.55915999999999 269.29156, 148.81902 258.66163, 148.81902 258.66163, 170.07888 269.29156, 170.07888 269.29156, 201.96866999999997 258.66163, 201.96866999999997 258.66163, 233.85846 239.173425, 233.85846 239.173425, 223.22853 209.05528999999999, 223.22853 209.05528999999999, 233.85846 187.79542999999998, 233.85846 187.79542999999998, 223.22853 166.53557, 223.22853 166.53557, 233.85846 145.27571, 233.85846 145.27571, 223.22853 124.01585, 223.22853 124.01585, 233.85846 102.75599, 233.85846 102.75599, 223.22853 81.49613, 223.22853 81.49613, 233.85846 60.23627, 233.85846 60.23627, 223.22853 30.118135, 223.22853 30.118135, 233.85846 10.62993, 233.85845999999998 10.62993, 201.96866999999997 0, 201.96866999999997 0, 170.07888 10.62993, 170.07888 10.62993, 148.81902 0, 148.81902 0, 127.55915999999999 10.62993, 127.55915999999999 10.62993, 106.29929999999999 0, 106.29929999999999 0, 85.03944 10.62993, 85.03944 10.62993, 63.779579999999996 0, 63.779579999999996 0, 31.889789999999998 10.62993, 31.889789999999998 "/> 
 <rect x="11.338592" y="134.90258519087038" width="95.66937" height="65.551235" rx="10.62993" ry="10.62993" style="stroke:#000000;stroke-width:0.90000074;fill:none" /> 
</g>
<!-- Right--> 
<g transform="translate(773.6817384999999, 256.3584785) " > 
<polygon style="stroke:#000000; fill:none; stroke-width:0.90000074" points="10.62993, 0 30.118135, 0 30.118135, 10.62993 60.23627, 10.62993 60.23627, 0 81.49613, 0 81.49613, 10.62993 102.75599, 10.62993 102.75599, 0 124.01585, 0 124.01585, 10.62993 145.27571, 10.62993 145.27571, 0 166.53557, 0 166.53557, 10.62993 187.79542999999998, 10.62993 187.79542999999998, 0 209.05528999999999, 0 209.05528999999999, 10.62993 239.173425, 10.62993 239.173425, 0 258.66163, 0 258.66163, 31.889789999999998 269.29156, 31.889789999999998 269.29156, 63.779579999999996 258.66163, 63.779579999999996 258.66163, 85.03944 269.29156, 85.03944 269.29156, 106.29929999999999 258.66163, 106.29929999999999 258.66163, 127.55915999999999 269.29156, 127.55915999999999 269.29156, 148.81902 258.66163, 148.81902 258.66163, 170.07888 269.29156, 170.07888 269.29156, 201.96866999999997 258.66163, 201.96866999999997 258.66163, 233.85846 239.173425, 233.85846 239.173425, 223.22853 209.05528999999999, 223.22853 209.05528999999999, 233.85846 187.79542999999998, 233.85846 187.79542999999998, 223.22853 166.53557, 223.22853 166.53557, 233.85846 145.27571, 233.85846 145.27571, 223.22853 124.01585, 223.22853 124.01585, 233.85846 102.75599, 233.85846 102.75599, 223.22853 81.49613, 223.22853 81.49613, 233.85846 60.23627, 233.85846 60.23627, 223.22853 30.118135, 223.22853 30.118135, 233.85846 10.62993, 233.85845999999998 10.62993, 201.96866999999997 0, 201.96866999999997 0, 170.07888 10.62993, 170.07888 10.62993, 148.81902 0, 148.81902 0, 127.55915999999999 10.62993, 127.55915999999999 10.62993, 106.29929999999999 0, 106.29929999999999 0, 85.03944 10.62993, 85.03944 10.62993, 63.779579999999996 0, 63.779579999999996 0, 31.889789999999998 10.62993, 31.889789999999998 "/> 
</g>
<!-- Top--> 
<g transform="translate(22.5000185, 256.3584785) " > 
<polygon style="stroke:#000000; fill:none; stroke-width:0.90000074" points="10.62993, 10.62993 35.433099999999996, 10.62993 35.433099999999996, 0 70.86619999999999, 0 70.86619999999999, 10.62993 92.12606, 10.62993 92.12606, 0 113.38592, 0 113.38592, 10.62993 134.64578, 10.62993 134.64578, 0 155.90564, 0 155.90564, 10.62993 177.1655, 10.62993 177.1655, 0 198.42535999999998, 0 198.42535999999998, 10.62993 219.68522, 10.62993 219.68522, 0 240.94508, 0 240.94508, 10.62993 262.20493999999997, 10.62993 262.20493999999997, 0 283.46479999999997, 0 283.46479999999997, 10.62993 304.72466, 10.62993 304.72466, 0 340.15776, 0 340.15776, 10.62993 364.96093, 10.62993 364.96093, 30.118135 375.59086, 30.118135 375.59086, 60.23627 364.96093, 60.23627 364.96093, 81.49613 375.59086, 81.49613 375.59086, 102.75599 364.96093, 102.75599 364.96093, 124.01585 375.59086, 124.01585 375.59086, 145.27571 364.96093, 145.27571 364.96093, 166.53557 375.59086, 166.53557 375.59086, 187.79542999999998 364.96093, 187.79542999999998 364.96093, 209.05528999999999 375.59086, 209.05528999999999 375.59086, 239.173425 364.96093, 239.173425 364.96093, 258.66163 340.15776, 258.66163 340.15776, 269.29156 304.72466, 269.29156 304.72466, 258.66163 283.46479999999997, 258.66163 283.46479999999997, 269.29156 262.20493999999997, 269.29156 262.20493999999997, 258.66163 240.94508, 258.66163 240.94508, 269.29156 219.68522, 269.29156 219.68522, 258.66163 198.42535999999998, 258.66163 198.42535999999998, 269.29156 177.1655, 269.29156 177.1655, 258.66163 155.90564, 258.66163 155.90564, 269.29156 134.64578, 269.29156 134.64578, 258.66163 113.38592, 258.66163 113.38592, 269.29156 92.12606, 269.29156 92.12606, 258.66163 70.86619999999999, 258.66163 70.86619999999999, 269.29156 35.433099999999996, 269.29156 35.433099999999996, 258.66163 10.62993, 258.66163 10.62993, 239.173425 0, 239.173425 0, 209.05528999999999 10.62993, 209.05528999999999 10.62993, 187.79542999999998 0, 187.79542999999998 0, 166.53557 10.62993, 166.53557 10.62993, 145.27571 0, 145.27571 0, 124.01585 10.62993, 124.01585 10.62993, 102.75599 0, 102.75599 0, 81.49613 10.62993, 81.49613 10.62993, 60.23627 0, 60.23627 0, 30.118135 10.62993, 30.118135 "/> 
 <circle cx="70.86619999999999" cy="70.86619999999999" r="10.62993" style="stroke:#000000;stroke-width:0.90000074;fill:none" /> 
 <circle cx="141.73239999999998" cy="70.86619999999999" r="7.9724474999999995" style="stroke:#000000;stroke-width:0.90000074;fill:none" /> 
 <rect x="197.5395325" y="55.8071325" width="30.118135" height="30.118135" rx="0" ry="0" style="stroke:#000000;stroke-width:0.90000074;fill:none" /> 
</g>
<!-- Bottom--> 
<g transform="translate(398.0908785, 256.3584785) " > 
<polygon style="stroke:#000000; fill:none; stroke-width:0.90000074" points="10.62993, 10.62993 35.433099999999996, 10.62993 35.433099999999996, 0 70.86619999999999, 0 70.86619999999999, 10.62993 92.12606, 10.62993 92.12606, 0 113.38592, 0 113.38592, 10.62993 134.64578, 10.62993 134.64578, 0 155.90564, 0 155.90564, 10.62993 177.1655, 10.62993 177.1655, 0 198.42535999999998, 0 198.42535999999998, 10.62993 219.68522, 10.62993 219.68522, 0 240.94508, 0 240.94508, 10.62993 262.20493999999997, 10.62993 262.20493999999997, 0 283.46479999999997, 0 283.46479999999997, 10.62993 304.72466, 10.62993 304.72466, 0 340.15776, 0 340.15776, 10.62993 364.96093, 10.62993 364.96093, 30.118135 375.59086, 30.118135 375.59086, 60.23627 364.96093, 60.23627 364.96093, 81.49613 375.59086, 81.49613 375.59086, 102.75599 364.96093, 102.75599 364.96093, 124.01585 375.59086, 124.01585 375.59086, 145.27571 364.96093, 145.27571 364.96093, 166.53557 375.59086, 166.53557 375.59086, 187.79542999999998 364.96093, 187.79542999999998 364.96093, 209.05528999999999 375.59086, 209.05528999999999 375.59086, 239.173425 364.96093, 239.173425 364.96093, 258.66163 340.15776, 258.66163 340.15776, 269.29156 304.72466, 269.29156 304.72466, 258.66163 283.46479999999997, 258.66163 283.46479999999997, 269.29156 262.20493999999997, 269.29156 262.20493999999997, 258.66163 240.94508, 258.66163 240.94508, 269.29156 219.68522, 269.29156 219.68522, 258.66163 198.42535999999998, 258.66163 198.42535999999998, 269.29156 177.1655, 269.29156 177.1655, 258.66163 155.90564, 258.66163 155.90564, 269.29156 134.64578, 269.29156 134.64578, 258.66163 113.38592, 258.66163 113.38592, 269.29156 92.12606, 269.29156 92.12606, 258.66163 70.86619999999999, 258.66163 70.86619999999999, 269.29156 35.433099999999996, 269.29156 35.433099999999996, 258.66163 10.62993, 258.66163 10.62993, 239.173425 0, 239.173425 0, 209.05528999999999 10.62993, 209.05528999999999 10.62993, 187.79542999999998 0, 187.79542999999998 0, 166.53557 10.62993, 166.53557 10.62993, 145.27571 0, 145.27571 0, 124.01585 10.62993, 124.01585 10.62993, 102.75599 0, 102.75599 0, 81.49613 10.62993, 81.49613 10.62993, 60.23627 0, 60.23627 0, 30.118135 10.62993, 30.118135 "/> 
</g></svg>