999
DXF created by Inkscape
  0
SECTION
  2
HEADER
  9
$ACADVER
  1
AC1014
  9
$HANDSEED
  5
FFFF
  9
$MEASUREMENT
 70
     1
  0
ENDSEC
  0
SECTION
  2
TABLES
  0
TABLE
  2
VPORT
  5
8
330
0
100
AcDbSymbolTable
 70
     4
  0
VPORT
  5
2E
330
8
100
AcDbSymbolTableRecord
100
AcDbViewportTableRecord
  2
*ACTIVE
 70
     0
 10
0.0
 20
0.0
 11
1.0
 21
1.0
 12
210.0
 22
148.5
 13
0.0
 23
0.0
 14
10.0
 24
10.0
 15
10.0
 25
10.0
 16
0.0
 26
0.0
 36
1.0
 17
0.0
 27
0.0
 37
0.0
 40
341.0
 41
1.24
 42
50.0
 43
0.0
 44
0.0
 50
0.0
 51
0.0
 71
     0
 72
   100
 73
     1
 74
     3
 75
     0
 76
     0
 77
     0
 78
     0
  0
ENDTAB
  0
TABLE
  2
LTYPE
  5
5
330
0
100
AcDbSymbolTable
 70
     1
  0
LTYPE
  5
14
330
5
100
AcDbSymbolTableRecord
100
AcDbLinetypeTableRecord
  2
BYBLOCK
 70
     0
  3

 72
    65
 73
     0
 40
0.0
  0
LTYPE
  5
15
330
5
100
AcDbSymbolTableRecord
100
AcDbLinetypeTableRecord
  2
BYLAYER
 70
     0
  3

 72
    65
 73
     0
 40
0.0
  0
LTYPE
  5
16
330
5
100
AcDbSymbolTableRecord
100
AcDbLinetypeTableRecord
  2
CONTINUOUS
 70
     0
  3
Solid line
 72
    65
 73
     0
 40
0.0
  0
ENDTAB
  0
TABLE
  2
LAYER
  5
2
100
AcDbSymbolTable
 70
2
  0
LAYER
  5
50
100
AcDbSymbolTableRecord
100
AcDbLayerTableRecord
  2
0
 70
0
  6
CONTINUOUS
  0
LAYER
  5
51
100
AcDbSymbolTableRecord
100
AcDbLayerTableRecord
  2
Drawing1
 70
0
  6
CONTINUOUS
  0
ENDTAB
  0
TABLE
  2
STYLE
  5
3
330
0
100
AcDbSymbolTable
 70
     1
  0
STYLE
  5
11
330
3
100
AcDbSymbolTableRecord
100
AcDbTextStyleTableRecord
  2
STANDARD
 70
     0
 40
0.0
 41
1.0
 50
0.0
 71
     0
 42
2.5
  3
txt
  4

  0
ENDTAB
  0
TABLE
  2
VIEW
  5
6
330
0
100
AcDbSymbolTable
 70
     0
  0
ENDTAB
  0
TABLE
  2
UCS
  5
7
330
0
100
AcDbSymbolTable
 70
     0
  0
ENDTAB
  0
TABLE
  2
APPID
  5
9
330
0
100
AcDbSymbolTable
 70
     2
  0
APPID
  5
12
330
9
100
AcDbSymbolTableRecord
100
AcDbRegAppTableRecord
  2
ACAD
 70
     0
  0
ENDTAB
  0
TABLE
  2
DIMSTYLE
  5
A
330
0
100
AcDbSymbolTable
 70
     1
  0
DIMSTYLE
105
27
330
A
100
AcDbSymbolTableRecord
100
AcDbDimStyleTableRecord
  2
ISO-25
 70
     0
  3

  4

  5

  6

  7

 40
1.0
 41
2.5
 42
0.625
 43
3.75
 44
1.25
 45
0.0
 46
0.0
 47
0.0
 48
0.0
140
2.5
141
2.5
142
0.0
143
0.03937007874016
144
1.0
145
0.0
146
1.0
147
0.625
 71
     0
 72
     0
 73
     0
 74
     0
 75
     0
 76
     0
 77
     1
 78
     8
170
     0
171
     3
172
     1
173
     0
174
     0
175
     0
176
     0
177
     0
178
     0
270
     2
271
     2
272
     2
273
     2
274
     3
340
11
275
     0
280
     0
281
     0
282
     0
283
     0
284
     8
285
     0
286
     0
287
     3
288
     0
  0
ENDTAB
  0
TABLE
  2
BLOCK_RECORD
  5
1
330
0
100
AcDbSymbolTable
 70
     1
  0
BLOCK_RECORD
  5
1F
330
1
100
AcDbSymbolTableRecord
100
AcDbBlockTableRecord
  2
*MODEL_SPACE
  0
BLOCK_RECORD
  5
1B
330
1
100
AcDbSymbolTableRecord
100
AcDbBlockTableRecord
  2
*PAPER_SPACE
  0
ENDTAB
  0
ENDSEC
  0
SECTION
  2
BLOCKS
  0
BLOCK
  5
20
330
1F
100
AcDbEntity
  8
0
100
AcDbBlockBegin
  2
*MODEL_SPACE
 70
     0
 10
0.0
 20
0.0
 30
0.0
  3
*MODEL_SPACE
  1

  0
ENDBLK
  5
21
330
1F
100
AcDbEntity
  8
0
100
AcDbBlockEnd
  0
BLOCK
  5
1C
330
1B
100
AcDbEntity
 67
     1
  8
0
100
AcDbBlockBegin
  2
*PAPER_SPACE
  1

  0
ENDBLK
  5
1D
330
1B
100
AcDbEntity
 67
     1
  8
0
100
AcDbBlockEnd
  0
ENDSEC
  0
SECTION
  2
ENTITIES
  0
SPLINE
  5
100
100
AcDbEntity
  8
Drawing1
 62
7
100
AcDbSpline
 70
8
 71
3
 72
8
 73
4
 74
0
 40
0
 40
0
 40
0
 40
0
 40
1
 40
1
 40
1
 40
1
 10
84.807778
 20
42.308639
 30
0.0
 10
84.807778
 20
43.413346
 30
0.0
 10
83.912235
 20
44.308889
 30
0.0
 10
82.807528
 20
44.308889
 30
0.0
  0
SPLINE
  5
101
100
AcDbEntity
  8
Drawing1
 62
7
100
AcDbSpline
 70
8
 71
3
 72
8
 73
4
 74
0
 40
0
 40
0
 40
0
 40
0
 40
1
 40
1
 40
1
 40
1
 10
82.807528
 20
44.308889
 30
0.0
 10
81.702820
 20
44.308889
 30
0.0
 10
80.807278
 20
43.413346
 30
0.0
 10
80.807278
 20
42.308639
 30
0.0
  0
SPLINE
  5
102
100
AcDbEntity
  8
Drawing1
 62
7
100
AcDbSpline
 70
8
 71
3
 72
8
 73
4
 74
0
 40
0
 40
0
 40
0
 40
0
 40
1
 40
1
 40
1
 40
1
 10
80.807278
 20
42.308639
 30
0.0
 10
80.807278
 20
41.203932
 30
0.0
 10
81.702820
 20
40.308389
 30
0.0
 10
82.807528
 20
40.308389
 30
0.0
  0
SPLINE
  5
103
100
AcDbEntity
  8
Drawing1
 62
7
100
AcDbSpline
 70
8
 71
3
 72
8
 73
4
 74
0
 40
0
 40
0
 40
0
 40
0
 40
1
 40
1
 40
1
 40
1
 10
82.807528
 20
40.308389
 30
0.0
 10
83.912235
 20
40.308389
 30
0.0
 10
84.807778
 20
41.203932
 30
0.0
 10
84.807778
 20
42.308639
 30
0.0
  0
SPLINE
  5
104
100
AcDbEntity
  8
Drawing1
 62
7
100
AcDbSpline
 70
8
 71
3
 72
8
 73
4
 74
0
 40
0
 40
0
 40
0
 40
0
 40
1
 40
1
 40
1
 40
1
 10
94.248111
 20
42.308639
 30
0.0
 10
94.248111
 20
43.413346
 30
0.0
 10
93.352568
 20
44.308889
 30
0.0
 10
92.247861
 20
44.308889
 30
0.0
  0
SPLINE
  5
105
100
AcDbEntity
  8
Drawing1
 62
7
100
AcDbSpline
 70
8
 71
3
 72
8
 73
4
 74
0
 40
0
 40
0
 40
0
 40
0
 40
1
 40
1
 40
1
 40
1
 10
92.247861
 20
44.308889
 30
0.0
 10
91.143154
 20
44.308889
 30
0.0
 10
90.247611
 20
43.413346
 30
0.0
 10
90.247611
 20
42.308639
 30
0.0
  0
SPLINE
  5
106
100
AcDbEntity
  8
Drawing1
 62
7
100
AcDbSpline
 70
8
 71
3
 72
8
 73
4
 74
0
 40
0
 40
0
 40
0
 40
0
 40
1
 40
1
 40
1
 40
1
 10
90.247611
 20
42.308639
 30
0.0
 10
90.247611
 20
41.203932
 30
0.0
 10
91.143154
 20
40.308389
 30
0.0
 10
92.247861
 20
40.308389
 30
0.0
  0
SPLINE
  5
107
100
AcDbEntity
  8
Drawing1
 62
7
100
AcDbSpline
 70
8
 71
3
 72
8
 73
4
 74
0
 40
0
 40
0
 40
0
 40
0
 40
1
 40
1
 40
1
 40
1
 10
92.247861
 20
40.308389
 30
0.0
 10
93.352568
 20
40.308389
 30
0.0
 10
94.248111
 20
41.203932
 30
0.0
 10
94.248111
 20
42.308639
 30
0.0
  0
SPLINE
  5
108
100
AcDbEntity
  8
Drawing1
 62
7
100
AcDbSpline
 70
8
 71
3
 72
8
 73
4
 74
0
 40
0
 40
0
 40
0
 40
0
 40
1
 40
1
 40
1
 40
1
 10
103.709611
 20
42.308639
 30
0.0
 10
103.709611
 20
43.413346
 30
0.0
 10
102.814068
 20
44.308889
 30
0.0
 10
101.709361
 20
44.308889
 30
0.0
  0
SPLINE
  5
109
100
AcDbEntity
  8
Drawing1
 62
7
100
AcDbSpline
 70
8
 71
3
 72
8
 73
4
 74
0
 40
0
 40
0
 40
0
 40
0
 40
1
 40
1
 40
1
 40
1
 10
101.709361
 20
44.308889
 30
0.0
 10
100.604654
 20
44.308889
 30
0.0
 10
99.709111
 20
43.413346
 30
0.0
 10
99.709111
 20
42.308639
 30
0.0
  0
SPLINE
  5
10a
100
AcDbEntity
  8
Drawing1
 62
7
100
AcDbSpline
 70
8
 71
3
 72
8
 73
4
 74
0
 40
0
 40
0
 40
0
 40
0
 40
1
 40
1
 40
1
 40
1
 10
99.709111
 20
42.308639
 30
0.0
 10
99.709111
 20
41.203932
 30
0.0
 10
100.604654
 20
40.308389
 30
0.0
 10
101.709361
 20
40.308389
 30
0.0
  0
SPLINE
  5
10b
100
AcDbEntity
  8
Drawing1
 62
7
100
AcDbSpline
 70
8
 71
3
 72
8
 73
4
 74
0
 40
0
 40
0
 40
0
 40
0
 40
1
 40
1
 40
1
 40
1
 10
101.709361
 20
40.308389
 30
0.0
 10
102.814068
 20
40.308389
 30
0.0
 10
103.709611
 20
41.203932
 30
0.0
 10
103.709611
 20
42.308639
 30
0.0
  0
SPLINE
  5
10c
100
AcDbEntity
  8
Drawing1
 62
7
100
AcDbSpline
 70
8
 71
3
 72
8
 73
4
 74
0
 40
0
 40
0
 40
0
 40
0
 40
1
 40
1
 40
1
 40
1
 10
113.171111
 20
42.308639
 30
0.0
 10
113.171111
 20
43.413346
 30
0.0
 10
112.275568
 20
44.308889
 30
0.0
 10
111.170861
 20
44.308889
 30
0.0
  0
SPLINE
  5
10d
100
AcDbEntity
  8
Drawing1
 62
7
100
AcDbSpline
 70
8
 71
3
 72
8
 73
4
 74
0
 40
0
 40
0
 40
0
 40
0
 40
1
 40
1
 40
1
 40
1
 10
111.170861
 20
44.308889
 30
0.0
 10
110.066154
 20
44.308889
 30
0.0
 10
109.170611
 20
43.413346
 30
0.0
 10
109.170611
 20
42.308639
 30
0.0
  0
SPLINE
  5
10e
100
AcDbEntity
  8
Drawing1
 62
7
100
AcDbSpline
 70
8
 71
3
 72
8
 73
4
 74
0
 40
0
 40
0
 40
0
 40
0
 40
1
 40
1
 40
1
 40
1
 10
109.170611
 20
42.308639
 30
0.0
 10
109.170611
 20
41.203932
 30
0.0
 10
110.066154
 20
40.308389
 30
0.0
 10
111.170861
 20
40.308389
 30
0.0
  0
SPLINE
  5
10f
100
AcDbEntity
  8
Drawing1
 62
7
100
AcDbSpline
 70
8
 71
3
 72
8
 73
4
 74
0
 40
0
 40
0
 40
0
 40
0
 40
1
 40
1
 40
1
 40
1
 10
111.170861
 20
40.308389
 30
0.0
 10
112.275568
 20
40.308389
 30
0.0
 10
113.171111
 20
41.203932
 30
0.0
 10
113.171111
 20
42.308639
 30
0.0
  0
SPLINE
  5
110
100
AcDbEntity
  8
Drawing1
 62
7
100
AcDbSpline
 70
8
 71
3
 72
8
 73
4
 74
0
 40
0
 40
0
 40
0
 40
0
 40
1
 40
1
 40
1
 40
1
 10
122.632611
 20
42.308639
 30
0.0
 10
122.632611
 20
43.413346
 30
0.0
 10
121.737068
 20
44.308889
 30
0.0
 10
120.632361
 20
44.308889
 30
0.0
  0
SPLINE
  5
111
100
AcDbEntity
  8
Drawing1
 62
7
100
AcDbSpline
 70
8
 71
3
 72
8
 73
4
 74
0
 40
0
 40
0
 40
0
 40
0
 40
1
 40
1
 40
1
 40
1
 10
120.632361
 20
44.308889
 30
0.0
 10
119.527654
 20
44.308889
 30
0.0
 10
118.632111
 20
43.413346
 30
0.0
 10
118.632111
 20
42.308639
 30
0.0
  0
SPLINE
  5
112
100
AcDbEntity
  8
Drawing1
 62
7
100
AcDbSpline
 70
8
 71
3
 72
8
 73
4
 74
0
 40
0
 40
0
 40
0
 40
0
 40
1
 40
1
 40
1
 40
1
 10
118.632111
 20
42.308639
 30
0.0
 10
118.632111
 20
41.203932
 30
0.0
 10
119.527654
 20
40.308389
 30
0.0
 10
120.632361
 20
40.308389
 30
0.0
  0
SPLINE
  5
113
100
AcDbEntity
  8
Drawing1
 62
7
100
AcDbSpline
 70
8
 71
3
 72
8
 73
4
 74
0
 40
0
 40
0
 40
0
 40
0
 40
1
 40
1
 40
1
 40
1
 10
120.632361
 20
40.308389
 30
0.0
 10
121.737068
 20
40.308389
 30
0.0
 10
122.632611
 20
41.203932
 30
0.0
 10
122.632611
 20
42.308639
 30
0.0
  0
SPLINE
  5
114
100
AcDbEntity
  8
Drawing1
 62
7
100
AcDbSpline
 70
8
 71
3
 72
8
 73
4
 74
0
 40
0
 40
0
 40
0
 40
0
 40
1
 40
1
 40
1
 40
1
 10
137.047111
 20
42.308639
 30
0.0
 10
137.047111
 20
43.413346
 30
0.0
 10
136.151568
 20
44.308889
 30
0.0
 10
135.046861
 20
44.308889
 30
0.0
  0
SPLINE
  5
115
100
AcDbEntity
  8
Drawing1
 62
7
100
AcDbSpline
 70
8
 71
3
 72
8
 73
4
 74
0
 40
0
 40
0
 40
0
 40
0
 40
1
 40
1
 40
1
 40
1
 10
135.046861
 20
44.308889
 30
0.0
 10
133.942154
 20
44.308889
 30
0.0
 10
133.046611
 20
43.413346
 30
0.0
 10
133.046611
 20
42.308639
 30
0.0
  0
SPLINE
  5
116
100
AcDbEntity
  8
Drawing1
 62
7
100
AcDbSpline
 70
8
 71
3
 72
8
 73
4
 74
0
 40
0
 40
0
 40
0
 40
0
 40
1
 40
1
 40
1
 40
1
 10
133.046611
 20
42.308639
 30
0.0
 10
133.046611
 20
41.203932
 30
0.0
 10
133.942154
 20
40.308389
 30
0.0
 10
135.046861
 20
40.308389
 30
0.0
  0
SPLINE
  5
117
100
AcDbEntity
  8
Drawing1
 62
7
100
AcDbSpline
 70
8
 71
3
 72
8
 73
4
 74
0
 40
0
 40
0
 40
0
 40
0
 40
1
 40
1
 40
1
 40
1
 10
135.046861
 20
40.308389
 30
0.0
 10
136.151568
 20
40.308389
 30
0.0
 10
137.047111
 20
41.203932
 30
0.0
 10
137.047111
 20
42.308639
 30
0.0
  0
SPLINE
  5
118
100
AcDbEntity
  8
Drawing1
 62
7
100
AcDbSpline
 70
8
 71
3
 72
8
 73
4
 74
0
 40
0
 40
0
 40
0
 40
0
 40
1
 40
1
 40
1
 40
1
 10
152.985611
 20
42.308639
 30
0.0
 10
152.985611
 20
43.962778
 30
0.0
 10
151.644669
 20
45.303722
 30
0.0
 10
149.990528
 20
45.303722
 30
0.0
  0
SPLINE
  5
119
100
AcDbEntity
  8
Drawing1
 62
7
100
AcDbSpline
 70
8
 71
3
 72
8
 73
4
 74
0
 40
0
 40
0
 40
0
 40
0
 40
1
 40
1
 40
1
 40
1
 10
149.990528
 20
45.303722
 30
0.0
 10
148.336387
 20
45.303722
 30
0.0
 10
146.995444
 20
43.962778
 30
0.0
 10
146.995444
 20
42.308639
 30
0.0
  0
SPLINE
  5
11a
100
AcDbEntity
  8
Drawing1
 62
7
100
AcDbSpline
 70
8
 71
3
 72
8
 73
4
 74
0
 40
0
 40
0
 40
0
 40
0
 40
1
 40
1
 40
1
 40
1
 10
146.995444
 20
42.308639
 30
0.0
 10
146.995444
 20
40.654500
 30
0.0
 10
148.336387
 20
39.313556
 30
0.0
 10
149.990528
 20
39.313556
 30
0.0
  0
SPLINE
  5
11b
100
AcDbEntity
  8
Drawing1
 62
7
100
AcDbSpline
 70
8
 71
3
 72
8
 73
4
 74
0
 40
0
 40
0
 40
0
 40
0
 40
1
 40
1
 40
1
 40
1
 10
149.990528
 20
39.313556
 30
0.0
 10
151.644669
 20
39.313556
 30
0.0
 10
152.985611
 20
40.654500
 30
0.0
 10
152.985611
 20
42.308639
 30
0.0
  0
SPLINE
  5
11c
100
AcDbEntity
  8
Drawing1
 62
7
100
AcDbSpline
 70
8
 71
3
 72
8
 73
4
 74
0
 40
0
 40
0
 40
0
 40
0
 40
1
 40
1
 40
1
 40
1
 10
162.425944
 20
42.308639
 30
0.0
 10
162.425944
 20
43.962778
 30
0.0
 10
161.085002
 20
45.303722
 30
0.0
 10
159.430861
 20
45.303722
 30
0.0
  0
SPLINE
  5
11d
100
AcDbEntity
  8
Drawing1
 62
7
100
AcDbSpline
 70
8
 71
3
 72
8
 73
4
 74
0
 40
0
 40
0
 40
0
 40
0
 40
1
 40
1
 40
1
 40
1
 10
159.430861
 20
45.303722
 30
0.0
 10
157.776720
 20
45.303722
 30
0.0
 10
156.435778
 20
43.962778
 30
0.0
 10
156.435778
 20
42.308639
 30
0.0
  0
SPLINE
  5
11e
100
AcDbEntity
  8
Drawing1
 62
7
100
AcDbSpline
 70
8
 71
3
 72
8
 73
4
 74
0
 40
0
 40
0
 40
0
 40
0
 40
1
 40
1
 40
1
 40
1
 10
156.435778
 20
42.308639
 30
0.0
 10
156.435778
 20
40.654500
 30
0.0
 10
157.776720
 20
39.313556
 30
0.0
 10
159.430861
 20
39.313556
 30
0.0
  0
SPLINE
  5
11f
100
AcDbEntity
  8
Drawing1
 62
7
100
AcDbSpline
 70
8
 71
3
 72
8
 73
4
 74
0
 40
0
 40
0
 40
0
 40
0
 40
1
 40
1
 40
1
 40
1
 10
159.430861
 20
39.313556
 30
0.0
 10
161.085002
 20
39.313556
 30
0.0
 10
162.425944
 20
40.654500
 30
0.0
 10
162.425944
 20
42.308639
 30
0.0
  0
LINE
  5
120
100
AcDbEntity
  8
Drawing1
 62
7
100
AcDbLine
 10
81.349266
 20
46.650745
 30
0.0
 11
81.349266
 21
46.804331
 31
0.0
  0
LINE
  5
121
100
AcDbEntity
  8
Drawing1
 62
7
100
AcDbLine
 10
81.349266
 20
46.804331
 30
0.0
 11
81.818507
 21
46.804331
 31
0.0
  0
LINE
  5
122
100
AcDbEntity
  8
Drawing1
 62
7
100
AcDbLine
 10
81.818507
 20
46.804331
 30
0.0
 11
81.818507
 21
46.650745
 31
0.0
  0
LINE
  5
123
100
AcDbEntity
  8
Drawing1
 62
7
100
AcDbLine
 10
81.818507
 20
46.650745
 30
0.0
 11
81.349266
 21
46.650745
 31
0.0
  0
LINE
  5
124
100
AcDbEntity
  8
Drawing1
 62
7
100
AcDbLine
 10
82.520234
 20
46.277389
 30
0.0
 11
82.367497
 21
46.277389
 31
0.0
  0
LINE
  5
125
100
AcDbEntity
  8
Drawing1
 62
7
100
AcDbLine
 10
82.367497
 20
46.277389
 30
0.0
 11
82.367497
 21
47.250661
 31
0.0
  0
SPLINE
  5
126
100
AcDbEntity
  8
Drawing1
 62
7
100
AcDbSpline
 70
8
 71
3
 72
8
 73
4
 74
0
 40
0
 40
0
 40
0
 40
0
 40
1
 40
1
 40
1
 40
1
 10
82.367497
 20
47.250661
 30
0.0
 10
82.330727
 20
47.215587
 30
0.0
 10
82.282502
 20
47.180515
 30
0.0
 10
82.222822
 20
47.145443
 30
0.0
  0
SPLINE
  5
127
100
AcDbEntity
  8
Drawing1
 62
7
100
AcDbSpline
 70
8
 71
3
 72
8
 73
4
 74
0
 40
0
 40
0
 40
0
 40
0
 40
1
 40
1
 40
1
 40
1
 10
82.222822
 20
47.145443
 30
0.0
 10
82.163141
 20
47.110369
 30
0.0
 10
82.109542
 20
47.084064
 30
0.0
 10
82.062024
 20
47.066529
 30
0.0
  0
LINE
  5
128
100
AcDbEntity
  8
Drawing1
 62
7
100
AcDbLine
 10
82.062024
 20
47.066529
 30
0.0
 11
82.062024
 21
47.214174
 31
0.0
  0
SPLINE
  5
129
100
AcDbEntity
  8
Drawing1
 62
7
100
AcDbSpline
 70
8
 71
3
 72
8
 73
4
 74
0
 40
0
 40
0
 40
0
 40
0
 40
1
 40
1
 40
1
 40
1
 10
82.062024
 20
47.214174
 30
0.0
 10
82.147443
 20
47.254337
 30
0.0
 10
82.222114
 20
47.302987
 30
0.0
 10
82.286038
 20
47.360123
 30
0.0
  0
SPLINE
  5
12a
100
AcDbEntity
  8
Drawing1
 62
7
100
AcDbSpline
 70
8
 71
3
 72
8
 73
4
 74
0
 40
0
 40
0
 40
0
 40
0
 40
1
 40
1
 40
1
 40
1
 10
82.286038
 20
47.360123
 30
0.0
 10
82.349960
 20
47.417256
 30
0.0
 10
82.395216
 20
47.472694
 30
0.0
 10
82.421804
 20
47.526436
 30
0.0
  0
LINE
  5
12b
100
AcDbEntity
  8
Drawing1
 62
7
100
AcDbLine
 10
82.421804
 20
47.526436
 30
0.0
 11
82.520234
 21
47.526436
 31
0.0
  0
LINE
  5
12c
100
AcDbEntity
  8
Drawing1
 62
7
100
AcDbLine
 10
82.520234
 20
47.526436
 30
0.0
 11
82.520234
 21
46.277389
 31
0.0
  0
LINE
  5
12d
100
AcDbEntity
  8
Drawing1
 62
7
100
AcDbLine
 10
83.713861
 20
46.424186
 30
0.0
 11
83.713861
 21
46.277389
 31
0.0
  0
LINE
  5
12e
100
AcDbEntity
  8
Drawing1
 62
7
100
AcDbLine
 10
83.713861
 20
46.277389
 30
0.0
 11
82.891629
 21
46.277389
 31
0.0
  0
SPLINE
  5
12f
100
AcDbEntity
  8
Drawing1
 62
7
100
AcDbSpline
 70
8
 71
3
 72
8
 73
4
 74
0
 40
0
 40
0
 40
0
 40
0
 40
1
 40
1
 40
1
 40
1
 10
82.891629
 20
46.277389
 30
0.0
 10
82.890497
 20
46.314159
 30
0.0
 10
82.896437
 20
46.349514
 30
0.0
 10
82.909448
 20
46.383456
 30
0.0
  0
SPLINE
  5
130
100
AcDbEntity
  8
Drawing1
 62
7
100
AcDbSpline
 70
8
 71
3
 72
8
 73
4
 74
0
 40
0
 40
0
 40
0
 40
0
 40
1
 40
1
 40
1
 40
1
 10
82.909448
 20
46.383456
 30
0.0
 10
82.930378
 20
46.439459
 30
0.0
 10
82.963896
 20
46.494614
 30
0.0
 10
83.009999
 20
46.548921
 30
0.0
  0
SPLINE
  5
131
100
AcDbEntity
  8
Drawing1
 62
7
100
AcDbSpline
 70
8
 71
3
 72
8
 73
4
 74
0
 40
0
 40
0
 40
0
 40
0
 40
1
 40
1
 40
1
 40
1
 10
83.009999
 20
46.548921
 30
0.0
 10
83.056103
 20
46.603227
 30
0.0
 10
83.122713
 20
46.666019
 30
0.0
 10
83.209830
 20
46.737296
 30
0.0
  0
SPLINE
  5
132
100
AcDbEntity
  8
Drawing1
 62
7
100
AcDbSpline
 70
8
 71
3
 72
8
 73
4
 74
0
 40
0
 40
0
 40
0
 40
0
 40
1
 40
1
 40
1
 40
1
 10
83.209830
 20
46.737296
 30
0.0
 10
83.345030
 20
46.848171
 30
0.0
 10
83.436389
 20
46.935995
 30
0.0
 10
83.483908
 20
47.000767
 30
0.0
  0
SPLINE
  5
133
100
AcDbEntity
  8
Drawing1
 62
7
100
AcDbSpline
 70
8
 71
3
 72
8
 73
4
 74
0
 40
0
 40
0
 40
0
 40
0
 40
1
 40
1
 40
1
 40
1
 10
83.483908
 20
47.000767
 30
0.0
 10
83.531425
 20
47.065538
 30
0.0
 10
83.555184
 20
47.126774
 30
0.0
 10
83.555185
 20
47.184475
 30
0.0
  0
SPLINE
  5
134
100
AcDbEntity
  8
Drawing1
 62
7
100
AcDbSpline
 70
8
 71
3
 72
8
 73
4
 74
0
 40
0
 40
0
 40
0
 40
0
 40
1
 40
1
 40
1
 40
1
 10
83.555185
 20
47.184475
 30
0.0
 10
83.555184
 20
47.245003
 30
0.0
 10
83.533546
 20
47.296057
 30
0.0
 10
83.490272
 20
47.337636
 30
0.0
  0
SPLINE
  5
135
100
AcDbEntity
  8
Drawing1
 62
7
100
AcDbSpline
 70
8
 71
3
 72
8
 73
4
 74
0
 40
0
 40
0
 40
0
 40
0
 40
1
 40
1
 40
1
 40
1
 10
83.490272
 20
47.337636
 30
0.0
 10
83.446996
 20
47.379214
 30
0.0
 10
83.390568
 20
47.400003
 30
0.0
 10
83.320988
 20
47.400004
 30
0.0
  0
SPLINE
  5
136
100
AcDbEntity
  8
Drawing1
 62
7
100
AcDbSpline
 70
8
 71
3
 72
8
 73
4
 74
0
 40
0
 40
0
 40
0
 40
0
 40
1
 40
1
 40
1
 40
1
 10
83.320988
 20
47.400004
 30
0.0
 10
83.247448
 20
47.400003
 30
0.0
 10
83.188616
 20
47.377941
 30
0.0
 10
83.144493
 20
47.333818
 30
0.0
  0
SPLINE
  5
137
100
AcDbEntity
  8
Drawing1
 62
7
100
AcDbSpline
 70
8
 71
3
 72
8
 73
4
 74
0
 40
0
 40
0
 40
0
 40
0
 40
1
 40
1
 40
1
 40
1
 10
83.144493
 20
47.333818
 30
0.0
 10
83.100368
 20
47.289693
 30
0.0
 10
83.078024
 20
47.228598
 30
0.0
 10
83.077458
 20
47.150534
 30
0.0
  0
LINE
  5
138
100
AcDbEntity
  8
Drawing1
 62
7
100
AcDbLine
 10
83.077458
 20
47.150534
 30
0.0
 11
82.920479
 21
47.166656
 31
0.0
  0
SPLINE
  5
139
100
AcDbEntity
  8
Drawing1
 62
7
100
AcDbSpline
 70
8
 71
3
 72
8
 73
4
 74
0
 40
0
 40
0
 40
0
 40
0
 40
1
 40
1
 40
1
 40
1
 10
82.920479
 20
47.166656
 30
0.0
 10
82.931227
 20
47.283753
 30
0.0
 10
82.971674
 20
47.372991
 30
0.0
 10
83.041820
 20
47.434370
 30
0.0
  0
SPLINE
  5
13a
100
AcDbEntity
  8
Drawing1
 62
7
100
AcDbSpline
 70
8
 71
3
 72
8
 73
4
 74
0
 40
0
 40
0
 40
0
 40
0
 40
1
 40
1
 40
1
 40
1
 10
83.041820
 20
47.434370
 30
0.0
 10
83.111965
 20
47.495746
 30
0.0
 10
83.206153
 20
47.526435
 30
0.0
 10
83.324383
 20
47.526436
 30
0.0
  0
SPLINE
  5
13b
100
AcDbEntity
  8
Drawing1
 62
7
100
AcDbSpline
 70
8
 71
3
 72
8
 73
4
 74
0
 40
0
 40
0
 40
0
 40
0
 40
1
 40
1
 40
1
 40
1
 10
83.324383
 20
47.526436
 30
0.0
 10
83.443743
 20
47.526435
 30
0.0
 10
83.538213
 20
47.493342
 30
0.0
 10
83.607794
 20
47.427157
 30
0.0
  0
SPLINE
  5
13c
100
AcDbEntity
  8
Drawing1
 62
7
100
AcDbSpline
 70
8
 71
3
 72
8
 73
4
 74
0
 40
0
 40
0
 40
0
 40
0
 40
1
 40
1
 40
1
 40
1
 10
83.607794
 20
47.427157
 30
0.0
 10
83.677373
 20
47.360970
 30
0.0
 10
83.712163
 20
47.278945
 30
0.0
 10
83.712164
 20
47.181081
 30
0.0
  0
SPLINE
  5
13d
100
AcDbEntity
  8
Drawing1
 62
7
100
AcDbSpline
 70
8
 71
3
 72
8
 73
4
 74
0
 40
0
 40
0
 40
0
 40
0
 40
1
 40
1
 40
1
 40
1
 10
83.712164
 20
47.181081
 30
0.0
 10
83.712163
 20
47.131299
 30
0.0
 10
83.701981
 20
47.082367
 30
0.0
 10
83.681617
 20
47.034284
 30
0.0
  0
SPLINE
  5
13e
100
AcDbEntity
  8
Drawing1
 62
7
100
AcDbSpline
 70
8
 71
3
 72
8
 73
4
 74
0
 40
0
 40
0
 40
0
 40
0
 40
1
 40
1
 40
1
 40
1
 10
83.681617
 20
47.034284
 30
0.0
 10
83.661251
 20
46.986200
 30
0.0
 10
83.627451
 20
46.935570
 30
0.0
 10
83.580217
 20
46.882396
 30
0.0
  0
SPLINE
  5
13f
100
AcDbEntity
  8
Drawing1
 62
7
100
AcDbSpline
 70
8
 71
3
 72
8
 73
4
 74
0
 40
0
 40
0
 40
0
 40
0
 40
1
 40
1
 40
1
 40
1
 10
83.580217
 20
46.882396
 30
0.0
 10
83.532981
 20
46.829220
 30
0.0
 10
83.454491
 20
46.756246
 30
0.0
 10
83.344747
 20
46.663473
 30
0.0
  0
SPLINE
  5
140
100
AcDbEntity
  8
Drawing1
 62
7
100
AcDbSpline
 70
8
 71
3
 72
8
 73
4
 74
0
 40
0
 40
0
 40
0
 40
0
 40
1
 40
1
 40
1
 40
1
 10
83.344747
 20
46.663473
 30
0.0
 10
83.253105
 20
46.586539
 30
0.0
 10
83.194273
 20
46.534354
 30
0.0
 10
83.168252
 20
46.506918
 30
0.0
  0
SPLINE
  5
141
100
AcDbEntity
  8
Drawing1
 62
7
100
AcDbSpline
 70
8
 71
3
 72
8
 73
4
 74
0
 40
0
 40
0
 40
0
 40
0
 40
1
 40
1
 40
1
 40
1
 10
83.168252
 20
46.506918
 30
0.0
 10
83.142230
 20
46.479482
 30
0.0
 10
83.120733
 20
46.451905
 30
0.0
 10
83.103763
 20
46.424186
 30
0.0
  0
LINE
  5
142
100
AcDbEntity
  8
Drawing1
 62
7
100
AcDbLine
 10
83.103763
 20
46.424186
 30
0.0
 11
83.713861
 21
46.424186
 31
0.0
  0
LINE
  5
143
100
AcDbEntity
  8
Drawing1
 62
7
100
AcDbLine
 10
84.294845
 20
46.277389
 30
0.0
 11
83.812875
 21
47.521345
 31
0.0
  0
LINE
  5
144
100
AcDbEntity
  8
Drawing1
 62
7
100
AcDbLine
 10
83.812875
 20
47.521345
 30
0.0
 11
83.991068
 21
47.521345
 31
0.0
  0
LINE
  5
145
100
AcDbEntity
  8
Drawing1
 62
7
100
AcDbLine
 10
83.991068
 20
47.521345
 30
0.0
 11
84.314361
 21
46.617652
 31
0.0
  0
SPLINE
  5
146
100
AcDbEntity
  8
Drawing1
 62
7
100
AcDbSpline
 70
8
 71
3
 72
8
 73
4
 74
0
 40
0
 40
0
 40
0
 40
0
 40
1
 40
1
 40
1
 40
1
 10
84.314361
 20
46.617652
 30
0.0
 10
84.340382
 20
46.545244
 30
0.0
 10
84.362161
 20
46.477361
 30
0.0
 10
84.379698
 20
46.414003
 30
0.0
  0
SPLINE
  5
147
100
AcDbEntity
  8
Drawing1
 62
7
100
AcDbSpline
 70
8
 71
3
 72
8
 73
4
 74
0
 40
0
 40
0
 40
0
 40
0
 40
1
 40
1
 40
1
 40
1
 10
84.379698
 20
46.414003
 30
0.0
 10
84.398931
 20
46.481886
 30
0.0
 10
84.421276
 20
46.549769
 30
0.0
 10
84.446733
 20
46.617652
 30
0.0
  0
LINE
  5
148
100
AcDbEntity
  8
Drawing1
 62
7
100
AcDbLine
 10
84.446733
 20
46.617652
 30
0.0
 11
84.782754
 21
47.521345
 31
0.0
  0
LINE
  5
149
100
AcDbEntity
  8
Drawing1
 62
7
100
AcDbLine
 10
84.782754
 20
47.521345
 30
0.0
 11
84.950764
 21
47.521345
 31
0.0
  0
LINE
  5
14a
100
AcDbEntity
  8
Drawing1
 62
7
100
AcDbLine
 10
84.950764
 20
47.521345
 30
0.0
 11
84.463704
 21
46.277389
 31
0.0
  0
LINE
  5
14b
100
AcDbEntity
  8
Drawing1
 62
7
100
AcDbLine
 10
84.463704
 20
46.277389
 30
0.0
 11
84.294845
 21
46.277389
 31
0.0
  0
LINE
  5
14c
100
AcDbEntity
  8
Drawing1
 62
7
100
AcDbLine
 10
91.471777
 20
46.765298
 30
0.0
 11
91.471777
 21
46.911246
 31
0.0
  0
LINE
  5
14d
100
AcDbEntity
  8
Drawing1
 62
7
100
AcDbLine
 10
91.471777
 20
46.911246
 30
0.0
 11
91.998718
 21
46.912095
 31
0.0
  0
LINE
  5
14e
100
AcDbEntity
  8
Drawing1
 62
7
100
AcDbLine
 10
91.998718
 20
46.912095
 30
0.0
 11
91.998718
 21
46.450491
 31
0.0
  0
SPLINE
  5
14f
100
AcDbEntity
  8
Drawing1
 62
7
100
AcDbSpline
 70
8
 71
3
 72
8
 73
4
 74
0
 40
0
 40
0
 40
0
 40
0
 40
1
 40
1
 40
1
 40
1
 10
91.998718
 20
46.450491
 30
0.0
 10
91.917823
 20
46.386002
 30
0.0
 10
91.834384
 20
46.337494
 30
0.0
 10
91.748400
 20
46.304966
 30
0.0
  0
SPLINE
  5
150
100
AcDbEntity
  8
Drawing1
 62
7
100
AcDbSpline
 70
8
 71
3
 72
8
 73
4
 74
0
 40
0
 40
0
 40
0
 40
0
 40
1
 40
1
 40
1
 40
1
 10
91.748400
 20
46.304966
 30
0.0
 10
91.662414
 20
46.272439
 30
0.0
 10
91.574166
 20
46.256175
 30
0.0
 10
91.483656
 20
46.256175
 30
0.0
  0
SPLINE
  5
151
100
AcDbEntity
  8
Drawing1
 62
7
100
AcDbSpline
 70
8
 71
3
 72
8
 73
4
 74
0
 40
0
 40
0
 40
0
 40
0
 40
1
 40
1
 40
1
 40
1
 10
91.483656
 20
46.256175
 30
0.0
 10
91.361466
 20
46.256175
 30
0.0
 10
91.250449
 20
46.282339
 30
0.0
 10
91.150605
 20
46.334665
 30
0.0
  0
SPLINE
  5
152
100
AcDbEntity
  8
Drawing1
 62
7
100
AcDbSpline
 70
8
 71
3
 72
8
 73
4
 74
0
 40
0
 40
0
 40
0
 40
0
 40
1
 40
1
 40
1
 40
1
 10
91.150605
 20
46.334665
 30
0.0
 10
91.050760
 20
46.386992
 30
0.0
 10
90.975382
 20
46.462653
 30
0.0
 10
90.924470
 20
46.561649
 30
0.0
  0
SPLINE
  5
153
100
AcDbEntity
  8
Drawing1
 62
7
100
AcDbSpline
 70
8
 71
3
 72
8
 73
4
 74
0
 40
0
 40
0
 40
0
 40
0
 40
1
 40
1
 40
1
 40
1
 10
90.924470
 20
46.561649
 30
0.0
 10
90.873558
 20
46.660645
 30
0.0
 10
90.848102
 20
46.771237
 30
0.0
 10
90.848102
 20
46.893427
 30
0.0
  0
SPLINE
  5
154
100
AcDbEntity
  8
Drawing1
 62
7
100
AcDbSpline
 70
8
 71
3
 72
8
 73
4
 74
0
 40
0
 40
0
 40
0
 40
0
 40
1
 40
1
 40
1
 40
1
 10
90.848102
 20
46.893427
 30
0.0
 10
90.848102
 20
47.014484
 30
0.0
 10
90.873416
 20
47.127481
 30
0.0
 10
90.924046
 20
47.232418
 30
0.0
  0
SPLINE
  5
155
100
AcDbEntity
  8
Drawing1
 62
7
100
AcDbSpline
 70
8
 71
3
 72
8
 73
4
 74
0
 40
0
 40
0
 40
0
 40
0
 40
1
 40
1
 40
1
 40
1
 10
90.924046
 20
47.232418
 30
0.0
 10
90.974675
 20
47.337352
 30
0.0
 10
91.047508
 20
47.415276
 30
0.0
 10
91.142544
 20
47.466190
 30
0.0
  0
SPLINE
  5
156
100
AcDbEntity
  8
Drawing1
 62
7
100
AcDbSpline
 70
8
 71
3
 72
8
 73
4
 74
0
 40
0
 40
0
 40
0
 40
0
 40
1
 40
1
 40
1
 40
1
 10
91.142544
 20
47.466190
 30
0.0
 10
91.237580
 20
47.517101
 30
0.0
 10
91.347041
 20
47.542557
 30
0.0
 10
91.470928
 20
47.542558
 30
0.0
  0
SPLINE
  5
157
100
AcDbEntity
  8
Drawing1
 62
7
100
AcDbSpline
 70
8
 71
3
 72
8
 73
4
 74
0
 40
0
 40
0
 40
0
 40
0
 40
1
 40
1
 40
1
 40
1
 10
91.470928
 20
47.542558
 30
0.0
 10
91.560872
 20
47.542557
 30
0.0
 10
91.642190
 20
47.527990
 30
0.0
 10
91.714883
 20
47.498858
 30
0.0
  0
SPLINE
  5
158
100
AcDbEntity
  8
Drawing1
 62
7
100
AcDbSpline
 70
8
 71
3
 72
8
 73
4
 74
0
 40
0
 40
0
 40
0
 40
0
 40
1
 40
1
 40
1
 40
1
 10
91.714883
 20
47.498858
 30
0.0
 10
91.787573
 20
47.469724
 30
0.0
 10
91.844566
 20
47.429136
 30
0.0
 10
91.885863
 20
47.377093
 30
0.0
  0
SPLINE
  5
159
100
AcDbEntity
  8
Drawing1
 62
7
100
AcDbSpline
 70
8
 71
3
 72
8
 73
4
 74
0
 40
0
 40
0
 40
0
 40
0
 40
1
 40
1
 40
1
 40
1
 10
91.885863
 20
47.377093
 30
0.0
 10
91.927157
 20
47.325049
 30
0.0
 10
91.958553
 20
47.257166
 30
0.0
 10
91.980050
 20
47.173444
 30
0.0
  0
LINE
  5
15a
100
AcDbEntity
  8
Drawing1
 62
7
100
AcDbLine
 10
91.980050
 20
47.173444
 30
0.0
 11
91.831556
 21
47.132715
 31
0.0
  0
SPLINE
  5
15b
100
AcDbEntity
  8
Drawing1
 62
7
100
AcDbSpline
 70
8
 71
3
 72
8
 73
4
 74
0
 40
0
 40
0
 40
0
 40
0
 40
1
 40
1
 40
1
 40
1
 10
91.831556
 20
47.132715
 30
0.0
 10
91.812888
 20
47.196071
 30
0.0
 10
91.789694
 20
47.245852
 30
0.0
 10
91.761976
 20
47.282057
 30
0.0
  0
SPLINE
  5
15c
100
AcDbEntity
  8
Drawing1
 62
7
100
AcDbSpline
 70
8
 71
3
 72
8
 73
4
 74
0
 40
0
 40
0
 40
0
 40
0
 40
1
 40
1
 40
1
 40
1
 10
91.761976
 20
47.282057
 30
0.0
 10
91.734257
 20
47.318260
 30
0.0
 10
91.694658
 20
47.347252
 30
0.0
 10
91.643181
 20
47.369032
 30
0.0
  0
SPLINE
  5
15d
100
AcDbEntity
  8
Drawing1
 62
7
100
AcDbSpline
 70
8
 71
3
 72
8
 73
4
 74
0
 40
0
 40
0
 40
0
 40
0
 40
1
 40
1
 40
1
 40
1
 10
91.643181
 20
47.369032
 30
0.0
 10
91.591702
 20
47.390810
 30
0.0
 10
91.534568
 20
47.401700
 30
0.0
 10
91.471777
 20
47.401701
 30
0.0
  0
SPLINE
  5
15e
100
AcDbEntity
  8
Drawing1
 62
7
100
AcDbSpline
 70
8
 71
3
 72
8
 73
4
 74
0
 40
0
 40
0
 40
0
 40
0
 40
1
 40
1
 40
1
 40
1
 10
91.471777
 20
47.401701
 30
0.0
 10
91.396539
 20
47.401700
 30
0.0
 10
91.331485
 20
47.390244
 30
0.0
 10
91.276613
 20
47.367335
 30
0.0
  0
SPLINE
  5
15f
100
AcDbEntity
  8
Drawing1
 62
7
100
AcDbSpline
 70
8
 71
3
 72
8
 73
4
 74
0
 40
0
 40
0
 40
0
 40
0
 40
1
 40
1
 40
1
 40
1
 10
91.276613
 20
47.367335
 30
0.0
 10
91.221740
 20
47.344424
 30
0.0
 10
91.177475
 20
47.314300
 30
0.0
 10
91.143817
 20
47.276966
 30
0.0
  0
SPLINE
  5
160
100
AcDbEntity
  8
Drawing1
 62
7
100
AcDbSpline
 70
8
 71
3
 72
8
 73
4
 74
0
 40
0
 40
0
 40
0
 40
0
 40
1
 40
1
 40
1
 40
1
 10
91.143817
 20
47.276966
 30
0.0
 10
91.110158
 20
47.239629
 30
0.0
 10
91.083995
 20
47.198617
 30
0.0
 10
91.065327
 20
47.153928
 30
0.0
  0
SPLINE
  5
161
100
AcDbEntity
  8
Drawing1
 62
7
100
AcDbSpline
 70
8
 71
3
 72
8
 73
4
 74
0
 40
0
 40
0
 40
0
 40
0
 40
1
 40
1
 40
1
 40
1
 10
91.065327
 20
47.153928
 30
0.0
 10
91.033648
 20
47.076993
 30
0.0
 10
91.017809
 20
46.993554
 30
0.0
 10
91.017809
 20
46.903609
 30
0.0
  0
SPLINE
  5
162
100
AcDbEntity
  8
Drawing1
 62
7
100
AcDbSpline
 70
8
 71
3
 72
8
 73
4
 74
0
 40
0
 40
0
 40
0
 40
0
 40
1
 40
1
 40
1
 40
1
 10
91.017809
 20
46.903609
 30
0.0
 10
91.017809
 20
46.792733
 30
0.0
 10
91.036901
 20
46.699960
 30
0.0
 10
91.075085
 20
46.625289
 30
0.0
  0
SPLINE
  5
163
100
AcDbEntity
  8
Drawing1
 62
7
100
AcDbSpline
 70
8
 71
3
 72
8
 73
4
 74
0
 40
0
 40
0
 40
0
 40
0
 40
1
 40
1
 40
1
 40
1
 10
91.075085
 20
46.625289
 30
0.0
 10
91.113269
 20
46.550618
 30
0.0
 10
91.168848
 20
46.495180
 30
0.0
 10
91.241823
 20
46.458976
 30
0.0
  0
SPLINE
  5
164
100
AcDbEntity
  8
Drawing1
 62
7
100
AcDbSpline
 70
8
 71
3
 72
8
 73
4
 74
0
 40
0
 40
0
 40
0
 40
0
 40
1
 40
1
 40
1
 40
1
 10
91.241823
 20
46.458976
 30
0.0
 10
91.314797
 20
46.422771
 30
0.0
 10
91.392296
 20
46.404669
 30
0.0
 10
91.474322
 20
46.404669
 30
0.0
  0
SPLINE
  5
165
100
AcDbEntity
  8
Drawing1
 62
7
100
AcDbSpline
 70
8
 71
3
 72
8
 73
4
 74
0
 40
0
 40
0
 40
0
 40
0
 40
1
 40
1
 40
1
 40
1
 10
91.474322
 20
46.404669
 30
0.0
 10
91.545599
 20
46.404669
 30
0.0
 10
91.615179
 20
46.418387
 30
0.0
 10
91.683062
 20
46.445824
 30
0.0
  0
SPLINE
  5
166
100
AcDbEntity
  8
Drawing1
 62
7
100
AcDbSpline
 70
8
 71
3
 72
8
 73
4
 74
0
 40
0
 40
0
 40
0
 40
0
 40
1
 40
1
 40
1
 40
1
 10
91.683062
 20
46.445824
 30
0.0
 10
91.750944
 20
46.473259
 30
0.0
 10
91.802422
 20
46.502534
 30
0.0
 10
91.837496
 20
46.533647
 30
0.0
  0
LINE
  5
167
100
AcDbEntity
  8
Drawing1
 62
7
100
AcDbLine
 10
91.837496
 20
46.533647
 30
0.0
 11
91.837496
 21
46.765298
 31
0.0
  0
LINE
  5
168
100
AcDbEntity
  8
Drawing1
 62
7
100
AcDbLine
 10
91.837496
 20
46.765298
 30
0.0
 11
91.471777
 21
46.765298
 31
0.0
  0
LINE
  5
169
100
AcDbEntity
  8
Drawing1
 62
7
100
AcDbLine
 10
92.239995
 20
46.277389
 30
0.0
 11
92.239995
 21
47.521345
 31
0.0
  0
LINE
  5
16a
100
AcDbEntity
  8
Drawing1
 62
7
100
AcDbLine
 10
92.239995
 20
47.521345
 30
0.0
 11
92.408854
 21
47.521345
 31
0.0
  0
LINE
  5
16b
100
AcDbEntity
  8
Drawing1
 62
7
100
AcDbLine
 10
92.408854
 20
47.521345
 30
0.0
 11
93.062227
 21
46.544678
 31
0.0
  0
LINE
  5
16c
100
AcDbEntity
  8
Drawing1
 62
7
100
AcDbLine
 10
93.062227
 20
46.544678
 30
0.0
 11
93.062227
 21
47.521345
 31
0.0
  0
LINE
  5
16d
100
AcDbEntity
  8
Drawing1
 62
7
100
AcDbLine
 10
93.062227
 20
47.521345
 30
0.0
 11
93.220055
 21
47.521345
 31
0.0
  0
LINE
  5
16e
100
AcDbEntity
  8
Drawing1
 62
7
100
AcDbLine
 10
93.220055
 20
47.521345
 30
0.0
 11
93.220055
 21
46.277389
 31
0.0
  0
LINE
  5
16f
100
AcDbEntity
  8
Drawing1
 62
7
100
AcDbLine
 10
93.220055
 20
46.277389
 30
0.0
 11
93.051196
 21
46.277389
 31
0.0
  0
LINE
  5
170
100
AcDbEntity
  8
Drawing1
 62
7
100
AcDbLine
 10
93.051196
 20
46.277389
 30
0.0
 11
92.397823
 21
47.254904
 31
0.0
  0
LINE
  5
171
100
AcDbEntity
  8
Drawing1
 62
7
100
AcDbLine
 10
92.397823
 20
47.254904
 30
0.0
 11
92.397823
 21
46.277389
 31
0.0
  0
LINE
  5
172
100
AcDbEntity
  8
Drawing1
 62
7
100
AcDbLine
 10
92.397823
 20
46.277389
 30
0.0
 11
92.239995
 21
46.277389
 31
0.0
  0
LINE
  5
173
100
AcDbEntity
  8
Drawing1
 62
7
100
AcDbLine
 10
93.496387
 20
46.277389
 30
0.0
 11
93.496387
 21
47.521345
 31
0.0
  0
LINE
  5
174
100
AcDbEntity
  8
Drawing1
 62
7
100
AcDbLine
 10
93.496387
 20
47.521345
 30
0.0
 11
93.924898
 21
47.521345
 31
0.0
  0
SPLINE
  5
175
100
AcDbEntity
  8
Drawing1
 62
7
100
AcDbSpline
 70
8
 71
3
 72
8
 73
4
 74
0
 40
0
 40
0
 40
0
 40
0
 40
1
 40
1
 40
1
 40
1
 10
93.924898
 20
47.521345
 30
0.0
 10
94.021631
 20
47.521343
 30
0.0
 10
94.095453
 20
47.515404
 30
0.0
 10
94.146366
 20
47.503525
 30
0.0
  0
SPLINE
  5
176
100
AcDbEntity
  8
Drawing1
 62
7
100
AcDbSpline
 70
8
 71
3
 72
8
 73
4
 74
0
 40
0
 40
0
 40
0
 40
0
 40
1
 40
1
 40
1
 40
1
 10
94.146366
 20
47.503525
 30
0.0
 10
94.217643
 20
47.487119
 30
0.0
 10
94.278454
 20
47.457420
 30
0.0
 10
94.328802
 20
47.414429
 30
0.0
  0
SPLINE
  5
177
100
AcDbEntity
  8
Drawing1
 62
7
100
AcDbSpline
 70
8
 71
3
 72
8
 73
4
 74
0
 40
0
 40
0
 40
0
 40
0
 40
1
 40
1
 40
1
 40
1
 10
94.328802
 20
47.414429
 30
0.0
 10
94.394421
 20
47.358990
 30
0.0
 10
94.443495
 20
47.288137
 30
0.0
 10
94.476023
 20
47.201870
 30
0.0
  0
SPLINE
  5
178
100
AcDbEntity
  8
Drawing1
 62
7
100
AcDbSpline
 70
8
 71
3
 72
8
 73
4
 74
0
 40
0
 40
0
 40
0
 40
0
 40
1
 40
1
 40
1
 40
1
 10
94.476023
 20
47.201870
 30
0.0
 10
94.508549
 20
47.115602
 30
0.0
 10
94.524813
 20
47.017030
 30
0.0
 10
94.524814
 20
46.906155
 30
0.0
  0
SPLINE
  5
179
100
AcDbEntity
  8
Drawing1
 62
7
100
AcDbSpline
 70
8
 71
3
 72
8
 73
4
 74
0
 40
0
 40
0
 40
0
 40
0
 40
1
 40
1
 40
1
 40
1
 10
94.524814
 20
46.906155
 30
0.0
 10
94.524813
 20
46.811684
 30
0.0
 10
94.513782
 20
46.727962
 30
0.0
 10
94.491721
 20
46.654988
 30
0.0
  0
SPLINE
  5
17a
100
AcDbEntity
  8
Drawing1
 62
7
100
AcDbSpline
 70
8
 71
3
 72
8
 73
4
 74
0
 40
0
 40
0
 40
0
 40
0
 40
1
 40
1
 40
1
 40
1
 10
94.491721
 20
46.654988
 30
0.0
 10
94.469658
 20
46.582013
 30
0.0
 10
94.441373
 20
46.521626
 30
0.0
 10
94.406867
 20
46.473825
 30
0.0
  0
SPLINE
  5
17b
100
AcDbEntity
  8
Drawing1
 62
7
100
AcDbSpline
 70
8
 71
3
 72
8
 73
4
 74
0
 40
0
 40
0
 40
0
 40
0
 40
1
 40
1
 40
1
 40
1
 10
94.406867
 20
46.473825
 30
0.0
 10
94.372359
 20
46.426024
 30
0.0
 10
94.334599
 20
46.388406
 30
0.0
 10
94.293587
 20
46.360970
 30
0.0
  0
SPLINE
  5
17c
100
AcDbEntity
  8
Drawing1
 62
7
100
AcDbSpline
 70
8
 71
3
 72
8
 73
4
 74
0
 40
0
 40
0
 40
0
 40
0
 40
1
 40
1
 40
1
 40
1
 10
94.293587
 20
46.360970
 30
0.0
 10
94.252574
 20
46.333534
 30
0.0
 10
94.203076
 20
46.312745
 30
0.0
 10
94.145094
 20
46.298602
 30
0.0
  0
SPLINE
  5
17d
100
AcDbEntity
  8
Drawing1
 62
7
100
AcDbSpline
 70
8
 71
3
 72
8
 73
4
 74
0
 40
0
 40
0
 40
0
 40
0
 40
1
 40
1
 40
1
 40
1
 10
94.145094
 20
46.298602
 30
0.0
 10
94.087109
 20
46.284460
 30
0.0
 10
94.020499
 20
46.277389
 30
0.0
 10
93.945263
 20
46.277389
 30
0.0
  0
LINE
  5
17e
100
AcDbEntity
  8
Drawing1
 62
7
100
AcDbLine
 10
93.945263
 20
46.277389
 30
0.0
 11
93.496387
 21
46.277389
 31
0.0
  0
LINE
  5
17f
100
AcDbEntity
  8
Drawing1
 62
7
100
AcDbLine
 10
93.661003
 20
46.424186
 30
0.0
 11
93.926595
 21
46.424186
 31
0.0
  0
SPLINE
  5
180
100
AcDbEntity
  8
Drawing1
 62
7
100
AcDbSpline
 70
8
 71
3
 72
8
 73
4
 74
0
 40
0
 40
0
 40
0
 40
0
 40
1
 40
1
 40
1
 40
1
 10
93.926595
 20
46.424186
 30
0.0
 10
94.008620
 20
46.424186
 30
0.0
 10
94.072967
 20
46.431823
 30
0.0
 10
94.119637
 20
46.447096
 30
0.0
  0
SPLINE
  5
181
100
AcDbEntity
  8
Drawing1
 62
7
100
AcDbSpline
 70
8
 71
3
 72
8
 73
4
 74
0
 40
0
 40
0
 40
0
 40
0
 40
1
 40
1
 40
1
 40
1
 10
94.119637
 20
46.447096
 30
0.0
 10
94.166306
 20
46.462370
 30
0.0
 10
94.203500
 20
46.483866
 30
0.0
 10
94.231220
 20
46.511585
 30
0.0
  0
SPLINE
  5
182
100
AcDbEntity
  8
Drawing1
 62
7
100
AcDbSpline
 70
8
 71
3
 72
8
 73
4
 74
0
 40
0
 40
0
 40
0
 40
0
 40
1
 40
1
 40
1
 40
1
 10
94.231220
 20
46.511585
 30
0.0
 10
94.270252
 20
46.550618
 30
0.0
 10
94.300658
 20
46.603085
 30
0.0
 10
94.322438
 20
46.668989
 30
0.0
  0
SPLINE
  5
183
100
AcDbEntity
  8
Drawing1
 62
7
100
AcDbSpline
 70
8
 71
3
 72
8
 73
4
 74
0
 40
0
 40
0
 40
0
 40
0
 40
1
 40
1
 40
1
 40
1
 10
94.322438
 20
46.668989
 30
0.0
 10
94.344216
 20
46.734891
 30
0.0
 10
94.355105
 20
46.814795
 30
0.0
 10
94.355106
 20
46.908701
 30
0.0
  0
SPLINE
  5
184
100
AcDbEntity
  8
Drawing1
 62
7
100
AcDbSpline
 70
8
 71
3
 72
8
 73
4
 74
0
 40
0
 40
0
 40
0
 40
0
 40
1
 40
1
 40
1
 40
1
 10
94.355106
 20
46.908701
 30
0.0
 10
94.355105
 20
47.038809
 30
0.0
 10
94.333751
 20
47.138795
 30
0.0
 10
94.291042
 20
47.208659
 30
0.0
  0
SPLINE
  5
185
100
AcDbEntity
  8
Drawing1
 62
7
100
AcDbSpline
 70
8
 71
3
 72
8
 73
4
 74
0
 40
0
 40
0
 40
0
 40
0
 40
1
 40
1
 40
1
 40
1
 10
94.291042
 20
47.208659
 30
0.0
 10
94.248331
 20
47.278521
 30
0.0
 10
94.196429
 20
47.325331
 30
0.0
 10
94.135335
 20
47.349092
 30
0.0
  0
SPLINE
  5
186
100
AcDbEntity
  8
Drawing1
 62
7
100
AcDbSpline
 70
8
 71
3
 72
8
 73
4
 74
0
 40
0
 40
0
 40
0
 40
0
 40
1
 40
1
 40
1
 40
1
 10
94.135335
 20
47.349092
 30
0.0
 10
94.091211
 20
47.366061
 30
0.0
 10
94.020216
 20
47.374547
 30
0.0
 10
93.922353
 20
47.374548
 30
0.0
  0
LINE
  5
187
100
AcDbEntity
  8
Drawing1
 62
7
100
AcDbLine
 10
93.922353
 20
47.374548
 30
0.0
 11
93.661003
 21
47.374548
 31
0.0
  0
LINE
  5
188
100
AcDbEntity
  8
Drawing1
 62
7
100
AcDbLine
 10
93.661003
 20
47.374548
 30
0.0
 11
93.661003
 21
46.424186
 31
0.0
  0
LINE
  5
189
100
AcDbEntity
  8
Drawing1
 62
7
100
AcDbLine
 10
100.652411
 20
46.478492
 30
0.0
 11
100.652411
 21
46.819604
 31
0.0
  0
LINE
  5
18a
100
AcDbEntity
  8
Drawing1
 62
7
100
AcDbLine
 10
100.652411
 20
46.819604
 30
0.0
 11
100.313844
 21
46.819604
 31
0.0
  0
LINE
  5
18b
100
AcDbEntity
  8
Drawing1
 62
7
100
AcDbLine
 10
100.313844
 20
46.819604
 30
0.0
 11
100.313844
 21
46.962159
 31
0.0
  0
LINE
  5
18c
100
AcDbEntity
  8
Drawing1
 62
7
100
AcDbLine
 10
100.313844
 20
46.962159
 30
0.0
 11
100.652411
 21
46.962159
 31
0.0
  0
LINE
  5
18d
100
AcDbEntity
  8
Drawing1
 62
7
100
AcDbLine
 10
100.652411
 20
46.962159
 30
0.0
 11
100.652411
 21
47.300725
 31
0.0
  0
LINE
  5
18e
100
AcDbEntity
  8
Drawing1
 62
7
100
AcDbLine
 10
100.652411
 20
47.300725
 30
0.0
 11
100.796662
 21
47.300725
 31
0.0
  0
LINE
  5
18f
100
AcDbEntity
  8
Drawing1
 62
7
100
AcDbLine
 10
100.796662
 20
47.300725
 30
0.0
 11
100.796662
 21
46.962159
 31
0.0
  0
LINE
  5
190
100
AcDbEntity
  8
Drawing1
 62
7
100
AcDbLine
 10
100.796662
 20
46.962159
 30
0.0
 11
101.135229
 21
46.962159
 31
0.0
  0
LINE
  5
191
100
AcDbEntity
  8
Drawing1
 62
7
100
AcDbLine
 10
101.135229
 20
46.962159
 30
0.0
 11
101.135229
 21
46.819604
 31
0.0
  0
LINE
  5
192
100
AcDbEntity
  8
Drawing1
 62
7
100
AcDbLine
 10
101.135229
 20
46.819604
 30
0.0
 11
100.796662
 21
46.819604
 31
0.0
  0
LINE
  5
193
100
AcDbEntity
  8
Drawing1
 62
7
100
AcDbLine
 10
100.796662
 20
46.819604
 30
0.0
 11
100.796662
 21
46.478492
 31
0.0
  0
LINE
  5
194
100
AcDbEntity
  8
Drawing1
 62
7
100
AcDbLine
 10
100.796662
 20
46.478492
 30
0.0
 11
100.652411
 21
46.478492
 31
0.0
  0
LINE
  5
195
100
AcDbEntity
  8
Drawing1
 62
7
100
AcDbLine
 10
101.304115
 20
46.603227
 30
0.0
 11
101.464488
 21
46.616804
 31
0.0
  0
SPLINE
  5
196
100
AcDbEntity
  8
Drawing1
 62
7
100
AcDbSpline
 70
8
 71
3
 72
8
 73
4
 74
0
 40
0
 40
0
 40
0
 40
0
 40
1
 40
1
 40
1
 40
1
 10
101.464488
 20
46.616804
 30
0.0
 10
101.476367
 20
46.538738
 30
0.0
 10
101.503945
 20
46.480048
 30
0.0
 10
101.547221
 20
46.440732
 30
0.0
  0
SPLINE
  5
197
100
AcDbEntity
  8
Drawing1
 62
7
100
AcDbSpline
 70
8
 71
3
 72
8
 73
4
 74
0
 40
0
 40
0
 40
0
 40
0
 40
1
 40
1
 40
1
 40
1
 10
101.547221
 20
46.440732
 30
0.0
 10
101.590496
 20
46.401417
 30
0.0
 10
101.642681
 20
46.381759
 30
0.0
 10
101.703776
 20
46.381759
 30
0.0
  0
SPLINE
  5
198
100
AcDbEntity
  8
Drawing1
 62
7
100
AcDbSpline
 70
8
 71
3
 72
8
 73
4
 74
0
 40
0
 40
0
 40
0
 40
0
 40
1
 40
1
 40
1
 40
1
 10
101.703776
 20
46.381759
 30
0.0
 10
101.777315
 20
46.381759
 30
0.0
 10
101.839541
 20
46.409478
 30
0.0
 10
101.890454
 20
46.464916
 30
0.0
  0
SPLINE
  5
199
100
AcDbEntity
  8
Drawing1
 62
7
100
AcDbSpline
 70
8
 71
3
 72
8
 73
4
 74
0
 40
0
 40
0
 40
0
 40
0
 40
1
 40
1
 40
1
 40
1
 10
101.890454
 20
46.464916
 30
0.0
 10
101.941365
 20
46.520353
 30
0.0
 10
101.966822
 20
46.593893
 30
0.0
 10
101.966822
 20
46.685535
 30
0.0
  0
SPLINE
  5
19a
100
AcDbEntity
  8
Drawing1
 62
7
100
AcDbSpline
 70
8
 71
3
 72
8
 73
4
 74
0
 40
0
 40
0
 40
0
 40
0
 40
1
 40
1
 40
1
 40
1
 10
101.966822
 20
46.685535
 30
0.0
 10
101.966822
 20
46.772651
 30
0.0
 10
101.942355
 20
46.841383
 30
0.0
 10
101.893424
 20
46.891730
 30
0.0
  0
SPLINE
  5
19b
100
AcDbEntity
  8
Drawing1
 62
7
100
AcDbSpline
 70
8
 71
3
 72
8
 73
4
 74
0
 40
0
 40
0
 40
0
 40
0
 40
1
 40
1
 40
1
 40
1
 10
101.893424
 20
46.891730
 30
0.0
 10
101.844491
 20
46.942076
 30
0.0
 10
101.780426
 20
46.967249
 30
0.0
 10
101.701230
 20
46.967250
 30
0.0
  0
SPLINE
  5
19c
100
AcDbEntity
  8
Drawing1
 62
7
100
AcDbSpline
 70
8
 71
3
 72
8
 73
4
 74
0
 40
0
 40
0
 40
0
 40
0
 40
1
 40
1
 40
1
 40
1
 10
101.701230
 20
46.967250
 30
0.0
 10
101.652014
 20
46.967249
 30
0.0
 10
101.607608
 20
46.956077
 30
0.0
 10
101.568010
 20
46.933733
 30
0.0
  0
SPLINE
  5
19d
100
AcDbEntity
  8
Drawing1
 62
7
100
AcDbSpline
 70
8
 71
3
 72
8
 73
4
 74
0
 40
0
 40
0
 40
0
 40
0
 40
1
 40
1
 40
1
 40
1
 10
101.568010
 20
46.933733
 30
0.0
 10
101.528411
 20
46.911387
 30
0.0
 10
101.497298
 20
46.882395
 30
0.0
 10
101.474671
 20
46.846757
 30
0.0
  0
LINE
  5
19e
100
AcDbEntity
  8
Drawing1
 62
7
100
AcDbLine
 10
101.474671
 20
46.846757
 30
0.0
 11
101.331268
 21
46.865425
 31
0.0
  0
LINE
  5
19f
100
AcDbEntity
  8
Drawing1
 62
7
100
AcDbLine
 10
101.331268
 20
46.865425
 30
0.0
 11
101.451760
 21
47.504374
 31
0.0
  0
LINE
  5
1a0
100
AcDbEntity
  8
Drawing1
 62
7
100
AcDbLine
 10
101.451760
 20
47.504374
 30
0.0
 11
102.070344
 21
47.504374
 31
0.0
  0
LINE
  5
1a1
100
AcDbEntity
  8
Drawing1
 62
7
100
AcDbLine
 10
102.070344
 20
47.504374
 30
0.0
 11
102.070344
 21
47.358425
 31
0.0
  0
LINE
  5
1a2
100
AcDbEntity
  8
Drawing1
 62
7
100
AcDbLine
 10
102.070344
 20
47.358425
 30
0.0
 11
101.573949
 21
47.358425
 31
0.0
  0
LINE
  5
1a3
100
AcDbEntity
  8
Drawing1
 62
7
100
AcDbLine
 10
101.573949
 20
47.358425
 30
0.0
 11
101.506915
 21
47.024102
 31
0.0
  0
SPLINE
  5
1a4
100
AcDbEntity
  8
Drawing1
 62
7
100
AcDbSpline
 70
8
 71
3
 72
8
 73
4
 74
0
 40
0
 40
0
 40
0
 40
0
 40
1
 40
1
 40
1
 40
1
 10
101.506915
 20
47.024102
 30
0.0
 10
101.581586
 20
47.076145
 30
0.0
 10
101.659934
 20
47.102166
 30
0.0
 10
101.741960
 20
47.102167
 30
0.0
  0
SPLINE
  5
1a5
100
AcDbEntity
  8
Drawing1
 62
7
100
AcDbSpline
 70
8
 71
3
 72
8
 73
4
 74
0
 40
0
 40
0
 40
0
 40
0
 40
1
 40
1
 40
1
 40
1
 10
101.741960
 20
47.102167
 30
0.0
 10
101.850572
 20
47.102166
 30
0.0
 10
101.942214
 20
47.064548
 30
0.0
 10
102.016886
 20
46.989312
 30
0.0
  0
SPLINE
  5
1a6
100
AcDbEntity
  8
Drawing1
 62
7
100
AcDbSpline
 70
8
 71
3
 72
8
 73
4
 74
0
 40
0
 40
0
 40
0
 40
0
 40
1
 40
1
 40
1
 40
1
 10
102.016886
 20
46.989312
 30
0.0
 10
102.091556
 20
46.914074
 30
0.0
 10
102.128892
 20
46.817341
 30
0.0
 10
102.128893
 20
46.699112
 30
0.0
  0
SPLINE
  5
1a7
100
AcDbEntity
  8
Drawing1
 62
7
100
AcDbSpline
 70
8
 71
3
 72
8
 73
4
 74
0
 40
0
 40
0
 40
0
 40
0
 40
1
 40
1
 40
1
 40
1
 10
102.128893
 20
46.699112
 30
0.0
 10
102.128892
 20
46.586539
 30
0.0
 10
102.096082
 20
46.489240
 30
0.0
 10
102.030463
 20
46.407215
 30
0.0
  0
SPLINE
  5
1a8
100
AcDbEntity
  8
Drawing1
 62
7
100
AcDbSpline
 70
8
 71
3
 72
8
 73
4
 74
0
 40
0
 40
0
 40
0
 40
0
 40
1
 40
1
 40
1
 40
1
 10
102.030463
 20
46.407215
 30
0.0
 10
101.950699
 20
46.306522
 30
0.0
 10
101.841804
 20
46.256175
 30
0.0
 10
101.703776
 20
46.256175
 30
0.0
  0
SPLINE
  5
1a9
100
AcDbEntity
  8
Drawing1
 62
7
100
AcDbSpline
 70
8
 71
3
 72
8
 73
4
 74
0
 40
0
 40
0
 40
0
 40
0
 40
1
 40
1
 40
1
 40
1
 10
101.703776
 20
46.256175
 30
0.0
 10
101.590637
 20
46.256175
 30
0.0
 10
101.498288
 20
46.287854
 30
0.0
 10
101.426728
 20
46.351212
 30
0.0
  0
SPLINE
  5
1aa
100
AcDbEntity
  8
Drawing1
 62
7
100
AcDbSpline
 70
8
 71
3
 72
8
 73
4
 74
0
 40
0
 40
0
 40
0
 40
0
 40
1
 40
1
 40
1
 40
1
 10
101.426728
 20
46.351212
 30
0.0
 10
101.355168
 20
46.414569
 30
0.0
 10
101.314297
 20
46.498574
 30
0.0
 10
101.304115
 20
46.603227
 30
0.0
  0
LINE
  5
1ab
100
AcDbEntity
  8
Drawing1
 62
7
100
AcDbLine
 10
101.304115
 20
46.603227
 30
0.0
 11
101.304115
 21
46.603227
 31
0.0
  0
LINE
  5
1ac
100
AcDbEntity
  8
Drawing1
 62
7
100
AcDbLine
 10
102.687814
 20
46.277389
 30
0.0
 11
102.205845
 21
47.521345
 31
0.0
  0
LINE
  5
1ad
100
AcDbEntity
  8
Drawing1
 62
7
100
AcDbLine
 10
102.205845
 20
47.521345
 30
0.0
 11
102.384038
 21
47.521345
 31
0.0
  0
LINE
  5
1ae
100
AcDbEntity
  8
Drawing1
 62
7
100
AcDbLine
 10
102.384038
 20
47.521345
 30
0.0
 11
102.707331
 21
46.617652
 31
0.0
  0
SPLINE
  5
1af
100
AcDbEntity
  8
Drawing1
 62
7
100
AcDbSpline
 70
8
 71
3
 72
8
 73
4
 74
0
 40
0
 40
0
 40
0
 40
0
 40
1
 40
1
 40
1
 40
1
 10
102.707331
 20
46.617652
 30
0.0
 10
102.733352
 20
46.545244
 30
0.0
 10
102.755131
 20
46.477361
 30
0.0
 10
102.772668
 20
46.414003
 30
0.0
  0
SPLINE
  5
1b0
100
AcDbEntity
  8
Drawing1
 62
7
100
AcDbSpline
 70
8
 71
3
 72
8
 73
4
 74
0
 40
0
 40
0
 40
0
 40
0
 40
1
 40
1
 40
1
 40
1
 10
102.772668
 20
46.414003
 30
0.0
 10
102.791901
 20
46.481886
 30
0.0
 10
102.814246
 20
46.549769
 30
0.0
 10
102.839702
 20
46.617652
 30
0.0
  0
LINE
  5
1b1
100
AcDbEntity
  8
Drawing1
 62
7
100
AcDbLine
 10
102.839702
 20
46.617652
 30
0.0
 11
103.175723
 21
47.521345
 31
0.0
  0
LINE
  5
1b2
100
AcDbEntity
  8
Drawing1
 62
7
100
AcDbLine
 10
103.175723
 20
47.521345
 30
0.0
 11
103.343734
 21
47.521345
 31
0.0
  0
LINE
  5
1b3
100
AcDbEntity
  8
Drawing1
 62
7
100
AcDbLine
 10
103.343734
 20
47.521345
 30
0.0
 11
102.856673
 21
46.277389
 31
0.0
  0
LINE
  5
1b4
100
AcDbEntity
  8
Drawing1
 62
7
100
AcDbLine
 10
102.856673
 20
46.277389
 30
0.0
 11
102.687814
 21
46.277389
 31
0.0
  0
LINE
  5
1b5
100
AcDbEntity
  8
Drawing1
 62
7
100
AcDbLine
 10
110.092744
 20
46.478492
 30
0.0
 11
110.092744
 21
46.819604
 31
0.0
  0
LINE
  5
1b6
100
AcDbEntity
  8
Drawing1
 62
7
100
AcDbLine
 10
110.092744
 20
46.819604
 30
0.0
 11
109.754178
 21
46.819604
 31
0.0
  0
LINE
  5
1b7
100
AcDbEntity
  8
Drawing1
 62
7
100
AcDbLine
 10
109.754178
 20
46.819604
 30
0.0
 11
109.754178
 21
46.962159
 31
0.0
  0
LINE
  5
1b8
100
AcDbEntity
  8
Drawing1
 62
7
100
AcDbLine
 10
109.754178
 20
46.962159
 30
0.0
 11
110.092744
 21
46.962159
 31
0.0
  0
LINE
  5
1b9
100
AcDbEntity
  8
Drawing1
 62
7
100
AcDbLine
 10
110.092744
 20
46.962159
 30
0.0
 11
110.092744
 21
47.300725
 31
0.0
  0
LINE
  5
1ba
100
AcDbEntity
  8
Drawing1
 62
7
100
AcDbLine
 10
110.092744
 20
47.300725
 30
0.0
 11
110.236995
 21
47.300725
 31
0.0
  0
LINE
  5
1bb
100
AcDbEntity
  8
Drawing1
 62
7
100
AcDbLine
 10
110.236995
 20
47.300725
 30
0.0
 11
110.236995
 21
46.962159
 31
0.0
  0
LINE
  5
1bc
100
AcDbEntity
  8
Drawing1
 62
7
100
AcDbLine
 10
110.236995
 20
46.962159
 30
0.0
 11
110.575562
 21
46.962159
 31
0.0
  0
LINE
  5
1bd
100
AcDbEntity
  8
Drawing1
 62
7
100
AcDbLine
 10
110.575562
 20
46.962159
 30
0.0
 11
110.575562
 21
46.819604
 31
0.0
  0
LINE
  5
1be
100
AcDbEntity
  8
Drawing1
 62
7
100
AcDbLine
 10
110.575562
 20
46.819604
 30
0.0
 11
110.236995
 21
46.819604
 31
0.0
  0
LINE
  5
1bf
100
AcDbEntity
  8
Drawing1
 62
7
100
AcDbLine
 10
110.236995
 20
46.819604
 30
0.0
 11
110.236995
 21
46.478492
 31
0.0
  0
LINE
  5
1c0
100
AcDbEntity
  8
Drawing1
 62
7
100
AcDbLine
 10
110.236995
 20
46.478492
 30
0.0
 11
110.092744
 21
46.478492
 31
0.0
  0
LINE
  5
1c1
100
AcDbEntity
  8
Drawing1
 62
7
100
AcDbLine
 10
111.319756
 20
46.277389
 30
0.0
 11
111.167020
 21
46.277389
 31
0.0
  0
LINE
  5
1c2
100
AcDbEntity
  8
Drawing1
 62
7
100
AcDbLine
 10
111.167020
 20
46.277389
 30
0.0
 11
111.167020
 21
47.250661
 31
0.0
  0
SPLINE
  5
1c3
100
AcDbEntity
  8
Drawing1
 62
7
100
AcDbSpline
 70
8
 71
3
 72
8
 73
4
 74
0
 40
0
 40
0
 40
0
 40
0
 40
1
 40
1
 40
1
 40
1
 10
111.167020
 20
47.250661
 30
0.0
 10
111.130249
 20
47.215587
 30
0.0
 10
111.082024
 20
47.180515
 30
0.0
 10
111.022344
 20
47.145443
 30
0.0
  0
SPLINE
  5
1c4
100
AcDbEntity
  8
Drawing1
 62
7
100
AcDbSpline
 70
8
 71
3
 72
8
 73
4
 74
0
 40
0
 40
0
 40
0
 40
0
 40
1
 40
1
 40
1
 40
1
 10
111.022344
 20
47.145443
 30
0.0
 10
110.962663
 20
47.110369
 30
0.0
 10
110.909064
 20
47.084064
 30
0.0
 10
110.861546
 20
47.066529
 30
0.0
  0
LINE
  5
1c5
100
AcDbEntity
  8
Drawing1
 62
7
100
AcDbLine
 10
110.861546
 20
47.066529
 30
0.0
 11
110.861546
 21
47.214174
 31
0.0
  0
SPLINE
  5
1c6
100
AcDbEntity
  8
Drawing1
 62
7
100
AcDbSpline
 70
8
 71
3
 72
8
 73
4
 74
0
 40
0
 40
0
 40
0
 40
0
 40
1
 40
1
 40
1
 40
1
 10
110.861546
 20
47.214174
 30
0.0
 10
110.946965
 20
47.254337
 30
0.0
 10
111.021636
 20
47.302987
 30
0.0
 10
111.085560
 20
47.360123
 30
0.0
  0
SPLINE
  5
1c7
100
AcDbEntity
  8
Drawing1
 62
7
100
AcDbSpline
 70
8
 71
3
 72
8
 73
4
 74
0
 40
0
 40
0
 40
0
 40
0
 40
1
 40
1
 40
1
 40
1
 10
111.085560
 20
47.360123
 30
0.0
 10
111.149483
 20
47.417256
 30
0.0
 10
111.194738
 20
47.472694
 30
0.0
 10
111.221326
 20
47.526436
 30
0.0
  0
LINE
  5
1c8
100
AcDbEntity
  8
Drawing1
 62
7
100
AcDbLine
 10
111.221326
 20
47.526436
 30
0.0
 11
111.319756
 21
47.526436
 31
0.0
  0
LINE
  5
1c9
100
AcDbEntity
  8
Drawing1
 62
7
100
AcDbLine
 10
111.319756
 20
47.526436
 30
0.0
 11
111.319756
 21
46.277389
 31
0.0
  0
LINE
  5
1ca
100
AcDbEntity
  8
Drawing1
 62
7
100
AcDbLine
 10
112.513384
 20
46.424186
 30
0.0
 11
112.513384
 21
46.277389
 31
0.0
  0
LINE
  5
1cb
100
AcDbEntity
  8
Drawing1
 62
7
100
AcDbLine
 10
112.513384
 20
46.277389
 30
0.0
 11
111.691151
 21
46.277389
 31
0.0
  0
SPLINE
  5
1cc
100
AcDbEntity
  8
Drawing1
 62
7
100
AcDbSpline
 70
8
 71
3
 72
8
 73
4
 74
0
 40
0
 40
0
 40
0
 40
0
 40
1
 40
1
 40
1
 40
1
 10
111.691151
 20
46.277389
 30
0.0
 10
111.690020
 20
46.314159
 30
0.0
 10
111.695959
 20
46.349514
 30
0.0
 10
111.708970
 20
46.383456
 30
0.0
  0
SPLINE
  5
1cd
100
AcDbEntity
  8
Drawing1
 62
7
100
AcDbSpline
 70
8
 71
3
 72
8
 73
4
 74
0
 40
0
 40
0
 40
0
 40
0
 40
1
 40
1
 40
1
 40
1
 10
111.708970
 20
46.383456
 30
0.0
 10
111.729901
 20
46.439459
 30
0.0
 10
111.763418
 20
46.494614
 30
0.0
 10
111.809522
 20
46.548921
 30
0.0
  0
SPLINE
  5
1ce
100
AcDbEntity
  8
Drawing1
 62
7
100
AcDbSpline
 70
8
 71
3
 72
8
 73
4
 74
0
 40
0
 40
0
 40
0
 40
0
 40
1
 40
1
 40
1
 40
1
 10
111.809522
 20
46.548921
 30
0.0
 10
111.855625
 20
46.603227
 30
0.0
 10
111.922236
 20
46.666019
 30
0.0
 10
112.009352
 20
46.737296
 30
0.0
  0
SPLINE
  5
1cf
100
AcDbEntity
  8
Drawing1
 62
7
100
AcDbSpline
 70
8
 71
3
 72
8
 73
4
 74
0
 40
0
 40
0
 40
0
 40
0
 40
1
 40
1
 40
1
 40
1
 10
112.009352
 20
46.737296
 30
0.0
 10
112.144552
 20
46.848171
 30
0.0
 10
112.235911
 20
46.935995
 30
0.0
 10
112.283430
 20
47.000767
 30
0.0
  0
SPLINE
  5
1d0
100
AcDbEntity
  8
Drawing1
 62
7
100
AcDbSpline
 70
8
 71
3
 72
8
 73
4
 74
0
 40
0
 40
0
 40
0
 40
0
 40
1
 40
1
 40
1
 40
1
 10
112.283430
 20
47.000767
 30
0.0
 10
112.330947
 20
47.065538
 30
0.0
 10
112.354706
 20
47.126774
 30
0.0
 10
112.354707
 20
47.184475
 30
0.0
  0
SPLINE
  5
1d1
100
AcDbEntity
  8
Drawing1
 62
7
100
AcDbSpline
 70
8
 71
3
 72
8
 73
4
 74
0
 40
0
 40
0
 40
0
 40
0
 40
1
 40
1
 40
1
 40
1
 10
112.354707
 20
47.184475
 30
0.0
 10
112.354706
 20
47.245003
 30
0.0
 10
112.333069
 20
47.296057
 30
0.0
 10
112.289794
 20
47.337636
 30
0.0
  0
SPLINE
  5
1d2
100
AcDbEntity
  8
Drawing1
 62
7
100
AcDbSpline
 70
8
 71
3
 72
8
 73
4
 74
0
 40
0
 40
0
 40
0
 40
0
 40
1
 40
1
 40
1
 40
1
 10
112.289794
 20
47.337636
 30
0.0
 10
112.246518
 20
47.379214
 30
0.0
 10
112.190090
 20
47.400003
 30
0.0
 10
112.120511
 20
47.400004
 30
0.0
  0
SPLINE
  5
1d3
100
AcDbEntity
  8
Drawing1
 62
7
100
AcDbSpline
 70
8
 71
3
 72
8
 73
4
 74
0
 40
0
 40
0
 40
0
 40
0
 40
1
 40
1
 40
1
 40
1
 10
112.120511
 20
47.400004
 30
0.0
 10
112.046970
 20
47.400003
 30
0.0
 10
111.988138
 20
47.377941
 30
0.0
 10
111.944015
 20
47.333818
 30
0.0
  0
SPLINE
  5
1d4
100
AcDbEntity
  8
Drawing1
 62
7
100
AcDbSpline
 70
8
 71
3
 72
8
 73
4
 74
0
 40
0
 40
0
 40
0
 40
0
 40
1
 40
1
 40
1
 40
1
 10
111.944015
 20
47.333818
 30
0.0
 10
111.899891
 20
47.289693
 30
0.0
 10
111.877546
 20
47.228598
 30
0.0
 10
111.876980
 20
47.150534
 30
0.0
  0
LINE
  5
1d5
100
AcDbEntity
  8
Drawing1
 62
7
100
AcDbLine
 10
111.876980
 20
47.150534
 30
0.0
 11
111.720001
 21
47.166656
 31
0.0
  0
SPLINE
  5
1d6
100
AcDbEntity
  8
Drawing1
 62
7
100
AcDbSpline
 70
8
 71
3
 72
8
 73
4
 74
0
 40
0
 40
0
 40
0
 40
0
 40
1
 40
1
 40
1
 40
1
 10
111.720001
 20
47.166656
 30
0.0
 10
111.730749
 20
47.283753
 30
0.0
 10
111.771196
 20
47.372991
 30
0.0
 10
111.841342
 20
47.434370
 30
0.0
  0
SPLINE
  5
1d7
100
AcDbEntity
  8
Drawing1
 62
7
100
AcDbSpline
 70
8
 71
3
 72
8
 73
4
 74
0
 40
0
 40
0
 40
0
 40
0
 40
1
 40
1
 40
1
 40
1
 10
111.841342
 20
47.434370
 30
0.0
 10
111.911487
 20
47.495746
 30
0.0
 10
112.005675
 20
47.526435
 30
0.0
 10
112.123905
 20
47.526436
 30
0.0
  0
SPLINE
  5
1d8
100
AcDbEntity
  8
Drawing1
 62
7
100
AcDbSpline
 70
8
 71
3
 72
8
 73
4
 74
0
 40
0
 40
0
 40
0
 40
0
 40
1
 40
1
 40
1
 40
1
 10
112.123905
 20
47.526436
 30
0.0
 10
112.243265
 20
47.526435
 30
0.0
 10
112.337736
 20
47.493342
 30
0.0
 10
112.407316
 20
47.427157
 30
0.0
  0
SPLINE
  5
1d9
100
AcDbEntity
  8
Drawing1
 62
7
100
AcDbSpline
 70
8
 71
3
 72
8
 73
4
 74
0
 40
0
 40
0
 40
0
 40
0
 40
1
 40
1
 40
1
 40
1
 10
112.407316
 20
47.427157
 30
0.0
 10
112.476896
 20
47.360970
 30
0.0
 10
112.511686
 20
47.278945
 30
0.0
 10
112.511686
 20
47.181081
 30
0.0
  0
SPLINE
  5
1da
100
AcDbEntity
  8
Drawing1
 62
7
100
AcDbSpline
 70
8
 71
3
 72
8
 73
4
 74
0
 40
0
 40
0
 40
0
 40
0
 40
1
 40
1
 40
1
 40
1
 10
112.511686
 20
47.181081
 30
0.0
 10
112.511686
 20
47.131299
 30
0.0
 10
112.501503
 20
47.082367
 30
0.0
 10
112.481139
 20
47.034284
 30
0.0
  0
SPLINE
  5
1db
100
AcDbEntity
  8
Drawing1
 62
7
100
AcDbSpline
 70
8
 71
3
 72
8
 73
4
 74
0
 40
0
 40
0
 40
0
 40
0
 40
1
 40
1
 40
1
 40
1
 10
112.481139
 20
47.034284
 30
0.0
 10
112.460773
 20
46.986200
 30
0.0
 10
112.426973
 20
46.935570
 30
0.0
 10
112.379739
 20
46.882396
 30
0.0
  0
SPLINE
  5
1dc
100
AcDbEntity
  8
Drawing1
 62
7
100
AcDbSpline
 70
8
 71
3
 72
8
 73
4
 74
0
 40
0
 40
0
 40
0
 40
0
 40
1
 40
1
 40
1
 40
1
 10
112.379739
 20
46.882396
 30
0.0
 10
112.332503
 20
46.829220
 30
0.0
 10
112.254013
 20
46.756246
 30
0.0
 10
112.144270
 20
46.663473
 30
0.0
  0
SPLINE
  5
1dd
100
AcDbEntity
  8
Drawing1
 62
7
100
AcDbSpline
 70
8
 71
3
 72
8
 73
4
 74
0
 40
0
 40
0
 40
0
 40
0
 40
1
 40
1
 40
1
 40
1
 10
112.144270
 20
46.663473
 30
0.0
 10
112.052627
 20
46.586539
 30
0.0
 10
111.993795
 20
46.534354
 30
0.0
 10
111.967774
 20
46.506918
 30
0.0
  0
SPLINE
  5
1de
100
AcDbEntity
  8
Drawing1
 62
7
100
AcDbSpline
 70
8
 71
3
 72
8
 73
4
 74
0
 40
0
 40
0
 40
0
 40
0
 40
1
 40
1
 40
1
 40
1
 10
111.967774
 20
46.506918
 30
0.0
 10
111.941752
 20
46.479482
 30
0.0
 10
111.920256
 20
46.451905
 30
0.0
 10
111.903285
 20
46.424186
 30
0.0
  0
LINE
  5
1df
100
AcDbEntity
  8
Drawing1
 62
7
100
AcDbLine
 10
111.903285
 20
46.424186
 30
0.0
 11
112.513384
 21
46.424186
 31
0.0
  0
LINE
  5
1e0
100
AcDbEntity
  8
Drawing1
 62
7
100
AcDbLine
 10
113.094367
 20
46.277389
 30
0.0
 11
112.612398
 21
47.521345
 31
0.0
  0
LINE
  5
1e1
100
AcDbEntity
  8
Drawing1
 62
7
100
AcDbLine
 10
112.612398
 20
47.521345
 30
0.0
 11
112.790591
 21
47.521345
 31
0.0
  0
LINE
  5
1e2
100
AcDbEntity
  8
Drawing1
 62
7
100
AcDbLine
 10
112.790591
 20
47.521345
 30
0.0
 11
113.113883
 21
46.617652
 31
0.0
  0
SPLINE
  5
1e3
100
AcDbEntity
  8
Drawing1
 62
7
100
AcDbSpline
 70
8
 71
3
 72
8
 73
4
 74
0
 40
0
 40
0
 40
0
 40
0
 40
1
 40
1
 40
1
 40
1
 10
113.113883
 20
46.617652
 30
0.0
 10
113.139905
 20
46.545244
 30
0.0
 10
113.161684
 20
46.477361
 30
0.0
 10
113.179221
 20
46.414003
 30
0.0
  0
SPLINE
  5
1e4
100
AcDbEntity
  8
Drawing1
 62
7
100
AcDbSpline
 70
8
 71
3
 72
8
 73
4
 74
0
 40
0
 40
0
 40
0
 40
0
 40
1
 40
1
 40
1
 40
1
 10
113.179221
 20
46.414003
 30
0.0
 10
113.198454
 20
46.481886
 30
0.0
 10
113.220798
 20
46.549769
 30
0.0
 10
113.246255
 20
46.617652
 30
0.0
  0
LINE
  5
1e5
100
AcDbEntity
  8
Drawing1
 62
7
100
AcDbLine
 10
113.246255
 20
46.617652
 30
0.0
 11
113.582276
 21
47.521345
 31
0.0
  0
LINE
  5
1e6
100
AcDbEntity
  8
Drawing1
 62
7
100
AcDbLine
 10
113.582276
 20
47.521345
 30
0.0
 11
113.750286
 21
47.521345
 31
0.0
  0
LINE
  5
1e7
100
AcDbEntity
  8
Drawing1
 62
7
100
AcDbLine
 10
113.750286
 20
47.521345
 30
0.0
 11
113.263226
 21
46.277389
 31
0.0
  0
LINE
  5
1e8
100
AcDbEntity
  8
Drawing1
 62
7
100
AcDbLine
 10
113.263226
 20
46.277389
 30
0.0
 11
113.094367
 21
46.277389
 31
0.0
  0
LINE
  5
1e9
100
AcDbEntity
  8
Drawing1
 62
7
100
AcDbLine
 10
119.554244
 20
46.478492
 30
0.0
 11
119.554244
 21
46.819604
 31
0.0
  0
LINE
  5
1ea
100
AcDbEntity
  8
Drawing1
 62
7
100
AcDbLine
 10
119.554244
 20
46.819604
 30
0.0
 11
119.215678
 21
46.819604
 31
0.0
  0
LINE
  5
1eb
100
AcDbEntity
  8
Drawing1
 62
7
100
AcDbLine
 10
119.215678
 20
46.819604
 30
0.0
 11
119.215678
 21
46.962159
 31
0.0
  0
LINE
  5
1ec
100
AcDbEntity
  8
Drawing1
 62
7
100
AcDbLine
 10
119.215678
 20
46.962159
 30
0.0
 11
119.554244
 21
46.962159
 31
0.0
  0
LINE
  5
1ed
100
AcDbEntity
  8
Drawing1
 62
7
100
AcDbLine
 10
119.554244
 20
46.962159
 30
0.0
 11
119.554244
 21
47.300725
 31
0.0
  0
LINE
  5
1ee
100
AcDbEntity
  8
Drawing1
 62
7
100
AcDbLine
 10
119.554244
 20
47.300725
 30
0.0
 11
119.698495
 21
47.300725
 31
0.0
  0
LINE
  5
1ef
100
AcDbEntity
  8
Drawing1
 62
7
100
AcDbLine
 10
119.698495
 20
47.300725
 30
0.0
 11
119.698495
 21
46.962159
 31
0.0
  0
LINE
  5
1f0
100
AcDbEntity
  8
Drawing1
 62
7
100
AcDbLine
 10
119.698495
 20
46.962159
 30
0.0
 11
120.037062
 21
46.962159
 31
0.0
  0
LINE
  5
1f1
100
AcDbEntity
  8
Drawing1
 62
7
100
AcDbLine
 10
120.037062
 20
46.962159
 30
0.0
 11
120.037062
 21
46.819604
 31
0.0
  0
LINE
  5
1f2
100
AcDbEntity
  8
Drawing1
 62
7
100
AcDbLine
 10
120.037062
 20
46.819604
 30
0.0
 11
119.698495
 21
46.819604
 31
0.0
  0
LINE
  5
1f3
100
AcDbEntity
  8
Drawing1
 62
7
100
AcDbLine
 10
119.698495
 20
46.819604
 30
0.0
 11
119.698495
 21
46.478492
 31
0.0
  0
LINE
  5
1f4
100
AcDbEntity
  8
Drawing1
 62
7
100
AcDbLine
 10
119.698495
 20
46.478492
 30
0.0
 11
119.554244
 21
46.478492
 31
0.0
  0
LINE
  5
1f5
100
AcDbEntity
  8
Drawing1
 62
7
100
AcDbLine
 10
121.008664
 20
46.424186
 30
0.0
 11
121.008664
 21
46.277389
 31
0.0
  0
LINE
  5
1f6
100
AcDbEntity
  8
Drawing1
 62
7
100
AcDbLine
 10
121.008664
 20
46.277389
 30
0.0
 11
120.186432
 21
46.277389
 31
0.0
  0
SPLINE
  5
1f7
100
AcDbEntity
  8
Drawing1
 62
7
100
AcDbSpline
 70
8
 71
3
 72
8
 73
4
 74
0
 40
0
 40
0
 40
0
 40
0
 40
1
 40
1
 40
1
 40
1
 10
120.186432
 20
46.277389
 30
0.0
 10
120.185300
 20
46.314159
 30
0.0
 10
120.191240
 20
46.349514
 30
0.0
 10
120.204251
 20
46.383456
 30
0.0
  0
SPLINE
  5
1f8
100
AcDbEntity
  8
Drawing1
 62
7
100
AcDbSpline
 70
8
 71
3
 72
8
 73
4
 74
0
 40
0
 40
0
 40
0
 40
0
 40
1
 40
1
 40
1
 40
1
 10
120.204251
 20
46.383456
 30
0.0
 10
120.225181
 20
46.439459
 30
0.0
 10
120.258699
 20
46.494614
 30
0.0
 10
120.304803
 20
46.548921
 30
0.0
  0
SPLINE
  5
1f9
100
AcDbEntity
  8
Drawing1
 62
7
100
AcDbSpline
 70
8
 71
3
 72
8
 73
4
 74
0
 40
0
 40
0
 40
0
 40
0
 40
1
 40
1
 40
1
 40
1
 10
120.304803
 20
46.548921
 30
0.0
 10
120.350906
 20
46.603227
 30
0.0
 10
120.417516
 20
46.666019
 30
0.0
 10
120.504633
 20
46.737296
 30
0.0
  0
SPLINE
  5
1fa
100
AcDbEntity
  8
Drawing1
 62
7
100
AcDbSpline
 70
8
 71
3
 72
8
 73
4
 74
0
 40
0
 40
0
 40
0
 40
0
 40
1
 40
1
 40
1
 40
1
 10
120.504633
 20
46.737296
 30
0.0
 10
120.639833
 20
46.848171
 30
0.0
 10
120.731192
 20
46.935995
 30
0.0
 10
120.778711
 20
47.000767
 30
0.0
  0
SPLINE
  5
1fb
100
AcDbEntity
  8
Drawing1
 62
7
100
AcDbSpline
 70
8
 71
3
 72
8
 73
4
 74
0
 40
0
 40
0
 40
0
 40
0
 40
1
 40
1
 40
1
 40
1
 10
120.778711
 20
47.000767
 30
0.0
 10
120.826228
 20
47.065538
 30
0.0
 10
120.849987
 20
47.126774
 30
0.0
 10
120.849988
 20
47.184475
 30
0.0
  0
SPLINE
  5
1fc
100
AcDbEntity
  8
Drawing1
 62
7
100
AcDbSpline
 70
8
 71
3
 72
8
 73
4
 74
0
 40
0
 40
0
 40
0
 40
0
 40
1
 40
1
 40
1
 40
1
 10
120.849988
 20
47.184475
 30
0.0
 10
120.849987
 20
47.245003
 30
0.0
 10
120.828349
 20
47.296057
 30
0.0
 10
120.785075
 20
47.337636
 30
0.0
  0
SPLINE
  5
1fd
100
AcDbEntity
  8
Drawing1
 62
7
100
AcDbSpline
 70
8
 71
3
 72
8
 73
4
 74
0
 40
0
 40
0
 40
0
 40
0
 40
1
 40
1
 40
1
 40
1
 10
120.785075
 20
47.337636
 30
0.0
 10
120.741799
 20
47.379214
 30
0.0
 10
120.685371
 20
47.400003
 30
0.0
 10
120.615791
 20
47.400004
 30
0.0
  0
SPLINE
  5
1fe
100
AcDbEntity
  8
Drawing1
 62
7
100
AcDbSpline
 70
8
 71
3
 72
8
 73
4
 74
0
 40
0
 40
0
 40
0
 40
0
 40
1
 40
1
 40
1
 40
1
 10
120.615791
 20
47.400004
 30
0.0
 10
120.542251
 20
47.400003
 30
0.0
 10
120.483419
 20
47.377941
 30
0.0
 10
120.439296
 20
47.333818
 30
0.0
  0
SPLINE
  5
1ff
100
AcDbEntity
  8
Drawing1
 62
7
100
AcDbSpline
 70
8
 71
3
 72
8
 73
4
 74
0
 40
0
 40
0
 40
0
 40
0
 40
1
 40
1
 40
1
 40
1
 10
120.439296
 20
47.333818
 30
0.0
 10
120.395171
 20
47.289693
 30
0.0
 10
120.372827
 20
47.228598
 30
0.0
 10
120.372261
 20
47.150534
 30
0.0
  0
LINE
  5
200
100
AcDbEntity
  8
Drawing1
 62
7
100
AcDbLine
 10
120.372261
 20
47.150534
 30
0.0
 11
120.215282
 21
47.166656
 31
0.0
  0
SPLINE
  5
201
100
AcDbEntity
  8
Drawing1
 62
7
100
AcDbSpline
 70
8
 71
3
 72
8
 73
4
 74
0
 40
0
 40
0
 40
0
 40
0
 40
1
 40
1
 40
1
 40
1
 10
120.215282
 20
47.166656
 30
0.0
 10
120.226030
 20
47.283753
 30
0.0
 10
120.266477
 20
47.372991
 30
0.0
 10
120.336623
 20
47.434370
 30
0.0
  0
SPLINE
  5
202
100
AcDbEntity
  8
Drawing1
 62
7
100
AcDbSpline
 70
8
 71
3
 72
8
 73
4
 74
0
 40
0
 40
0
 40
0
 40
0
 40
1
 40
1
 40
1
 40
1
 10
120.336623
 20
47.434370
 30
0.0
 10
120.406768
 20
47.495746
 30
0.0
 10
120.500956
 20
47.526435
 30
0.0
 10
120.619186
 20
47.526436
 30
0.0
  0
SPLINE
  5
203
100
AcDbEntity
  8
Drawing1
 62
7
100
AcDbSpline
 70
8
 71
3
 72
8
 73
4
 74
0
 40
0
 40
0
 40
0
 40
0
 40
1
 40
1
 40
1
 40
1
 10
120.619186
 20
47.526436
 30
0.0
 10
120.738546
 20
47.526435
 30
0.0
 10
120.833016
 20
47.493342
 30
0.0
 10
120.902597
 20
47.427157
 30
0.0
  0
SPLINE
  5
204
100
AcDbEntity
  8
Drawing1
 62
7
100
AcDbSpline
 70
8
 71
3
 72
8
 73
4
 74
0
 40
0
 40
0
 40
0
 40
0
 40
1
 40
1
 40
1
 40
1
 10
120.902597
 20
47.427157
 30
0.0
 10
120.972176
 20
47.360970
 30
0.0
 10
121.006966
 20
47.278945
 30
0.0
 10
121.006967
 20
47.181081
 30
0.0
  0
SPLINE
  5
205
100
AcDbEntity
  8
Drawing1
 62
7
100
AcDbSpline
 70
8
 71
3
 72
8
 73
4
 74
0
 40
0
 40
0
 40
0
 40
0
 40
1
 40
1
 40
1
 40
1
 10
121.006967
 20
47.181081
 30
0.0
 10
121.006966
 20
47.131299
 30
0.0
 10
120.996784
 20
47.082367
 30
0.0
 10
120.976420
 20
47.034284
 30
0.0
  0
SPLINE
  5
206
100
AcDbEntity
  8
Drawing1
 62
7
100
AcDbSpline
 70
8
 71
3
 72
8
 73
4
 74
0
 40
0
 40
0
 40
0
 40
0
 40
1
 40
1
 40
1
 40
1
 10
120.976420
 20
47.034284
 30
0.0
 10
120.956054
 20
46.986200
 30
0.0
 10
120.922254
 20
46.935570
 30
0.0
 10
120.875020
 20
46.882396
 30
0.0
  0
SPLINE
  5
207
100
AcDbEntity
  8
Drawing1
 62
7
100
AcDbSpline
 70
8
 71
3
 72
8
 73
4
 74
0
 40
0
 40
0
 40
0
 40
0
 40
1
 40
1
 40
1
 40
1
 10
120.875020
 20
46.882396
 30
0.0
 10
120.827784
 20
46.829220
 30
0.0
 10
120.749294
 20
46.756246
 30
0.0
 10
120.639551
 20
46.663473
 30
0.0
  0
SPLINE
  5
208
100
AcDbEntity
  8
Drawing1
 62
7
100
AcDbSpline
 70
8
 71
3
 72
8
 73
4
 74
0
 40
0
 40
0
 40
0
 40
0
 40
1
 40
1
 40
1
 40
1
 10
120.639551
 20
46.663473
 30
0.0
 10
120.547908
 20
46.586539
 30
0.0
 10
120.489076
 20
46.534354
 30
0.0
 10
120.463055
 20
46.506918
 30
0.0
  0
SPLINE
  5
209
100
AcDbEntity
  8
Drawing1
 62
7
100
AcDbSpline
 70
8
 71
3
 72
8
 73
4
 74
0
 40
0
 40
0
 40
0
 40
0
 40
1
 40
1
 40
1
 40
1
 10
120.463055
 20
46.506918
 30
0.0
 10
120.437033
 20
46.479482
 30
0.0
 10
120.415536
 20
46.451905
 30
0.0
 10
120.398566
 20
46.424186
 30
0.0
  0
LINE
  5
20a
100
AcDbEntity
  8
Drawing1
 62
7
100
AcDbLine
 10
120.398566
 20
46.424186
 30
0.0
 11
121.008664
 21
46.424186
 31
0.0
  0
LINE
  5
20b
100
AcDbEntity
  8
Drawing1
 62
7
100
AcDbLine
 10
121.661773
 20
46.277389
 30
0.0
 11
121.661773
 21
46.575226
 31
0.0
  0
LINE
  5
20c
100
AcDbEntity
  8
Drawing1
 62
7
100
AcDbLine
 10
121.661773
 20
46.575226
 30
0.0
 11
121.122104
 21
46.575226
 31
0.0
  0
LINE
  5
20d
100
AcDbEntity
  8
Drawing1
 62
7
100
AcDbLine
 10
121.122104
 20
46.575226
 30
0.0
 11
121.122104
 21
46.715234
 31
0.0
  0
LINE
  5
20e
100
AcDbEntity
  8
Drawing1
 62
7
100
AcDbLine
 10
121.122104
 20
46.715234
 30
0.0
 11
121.689775
 21
47.521345
 31
0.0
  0
LINE
  5
20f
100
AcDbEntity
  8
Drawing1
 62
7
100
AcDbLine
 10
121.689775
 20
47.521345
 30
0.0
 11
121.814510
 21
47.521345
 31
0.0
  0
LINE
  5
210
100
AcDbEntity
  8
Drawing1
 62
7
100
AcDbLine
 10
121.814510
 20
47.521345
 30
0.0
 11
121.814510
 21
46.715234
 31
0.0
  0
LINE
  5
211
100
AcDbEntity
  8
Drawing1
 62
7
100
AcDbLine
 10
121.814510
 20
46.715234
 30
0.0
 11
121.982520
 21
46.715234
 31
0.0
  0
LINE
  5
212
100
AcDbEntity
  8
Drawing1
 62
7
100
AcDbLine
 10
121.982520
 20
46.715234
 30
0.0
 11
121.982520
 21
46.575226
 31
0.0
  0
LINE
  5
213
100
AcDbEntity
  8
Drawing1
 62
7
100
AcDbLine
 10
121.982520
 20
46.575226
 30
0.0
 11
121.814510
 21
46.575226
 31
0.0
  0
LINE
  5
214
100
AcDbEntity
  8
Drawing1
 62
7
100
AcDbLine
 10
121.814510
 20
46.575226
 30
0.0
 11
121.814510
 21
46.277389
 31
0.0
  0
LINE
  5
215
100
AcDbEntity
  8
Drawing1
 62
7
100
AcDbLine
 10
121.814510
 20
46.277389
 30
0.0
 11
121.661773
 21
46.277389
 31
0.0
  0
LINE
  5
216
100
AcDbEntity
  8
Drawing1
 62
7
100
AcDbLine
 10
121.661773
 20
46.715234
 30
0.0
 11
121.661773
 21
47.276117
 31
0.0
  0
LINE
  5
217
100
AcDbEntity
  8
Drawing1
 62
7
100
AcDbLine
 10
121.661773
 20
47.276117
 30
0.0
 11
121.272295
 21
46.715234
 31
0.0
  0
LINE
  5
218
100
AcDbEntity
  8
Drawing1
 62
7
100
AcDbLine
 10
121.272295
 20
46.715234
 30
0.0
 11
121.661773
 21
46.715234
 31
0.0
  0
LINE
  5
219
100
AcDbEntity
  8
Drawing1
 62
7
100
AcDbLine
 10
122.555867
 20
46.277389
 30
0.0
 11
122.073898
 21
47.521345
 31
0.0
  0
LINE
  5
21a
100
AcDbEntity
  8
Drawing1
 62
7
100
AcDbLine
 10
122.073898
 20
47.521345
 30
0.0
 11
122.252091
 21
47.521345
 31
0.0
  0
LINE
  5
21b
100
AcDbEntity
  8
Drawing1
 62
7
100
AcDbLine
 10
122.252091
 20
47.521345
 30
0.0
 11
122.575383
 21
46.617652
 31
0.0
  0
SPLINE
  5
21c
100
AcDbEntity
  8
Drawing1
 62
7
100
AcDbSpline
 70
8
 71
3
 72
8
 73
4
 74
0
 40
0
 40
0
 40
0
 40
0
 40
1
 40
1
 40
1
 40
1
 10
122.575383
 20
46.617652
 30
0.0
 10
122.601405
 20
46.545244
 30
0.0
 10
122.623184
 20
46.477361
 30
0.0
 10
122.640721
 20
46.414003
 30
0.0
  0
SPLINE
  5
21d
100
AcDbEntity
  8
Drawing1
 62
7
100
AcDbSpline
 70
8
 71
3
 72
8
 73
4
 74
0
 40
0
 40
0
 40
0
 40
0
 40
1
 40
1
 40
1
 40
1
 10
122.640721
 20
46.414003
 30
0.0
 10
122.659954
 20
46.481886
 30
0.0
 10
122.682298
 20
46.549769
 30
0.0
 10
122.707755
 20
46.617652
 30
0.0
  0
LINE
  5
21e
100
AcDbEntity
  8
Drawing1
 62
7
100
AcDbLine
 10
122.707755
 20
46.617652
 30
0.0
 11
123.043776
 21
47.521345
 31
0.0
  0
LINE
  5
21f
100
AcDbEntity
  8
Drawing1
 62
7
100
AcDbLine
 10
123.043776
 20
47.521345
 30
0.0
 11
123.211786
 21
47.521345
 31
0.0
  0
LINE
  5
220
100
AcDbEntity
  8
Drawing1
 62
7
100
AcDbLine
 10
123.211786
 20
47.521345
 30
0.0
 11
122.724726
 21
46.277389
 31
0.0
  0
LINE
  5
221
100
AcDbEntity
  8
Drawing1
 62
7
100
AcDbLine
 10
122.724726
 20
46.277389
 30
0.0
 11
122.555867
 21
46.277389
 31
0.0
  0
LINE
  5
222
100
AcDbEntity
  8
Drawing1
 62
7
100
AcDbLine
 10
133.858013
 20
46.277389
 30
0.0
 11
133.858013
 21
47.521345
 31
0.0
  0
LINE
  5
223
100
AcDbEntity
  8
Drawing1
 62
7
100
AcDbLine
 10
133.858013
 20
47.521345
 30
0.0
 11
134.327254
 21
47.521345
 31
0.0
  0
SPLINE
  5
224
100
AcDbEntity
  8
Drawing1
 62
7
100
AcDbSpline
 70
8
 71
3
 72
8
 73
4
 74
0
 40
0
 40
0
 40
0
 40
0
 40
1
 40
1
 40
1
 40
1
 10
134.327254
 20
47.521345
 30
0.0
 10
134.409845
 20
47.521343
 30
0.0
 10
134.472919
 20
47.517384
 30
0.0
 10
134.516478
 20
47.509465
 30
0.0
  0
SPLINE
  5
225
100
AcDbEntity
  8
Drawing1
 62
7
100
AcDbSpline
 70
8
 71
3
 72
8
 73
4
 74
0
 40
0
 40
0
 40
0
 40
0
 40
1
 40
1
 40
1
 40
1
 10
134.516478
 20
47.509465
 30
0.0
 10
134.577572
 20
47.499281
 30
0.0
 10
134.628767
 20
47.479907
 30
0.0
 10
134.670064
 20
47.451340
 30
0.0
  0
SPLINE
  5
226
100
AcDbEntity
  8
Drawing1
 62
7
100
AcDbSpline
 70
8
 71
3
 72
8
 73
4
 74
0
 40
0
 40
0
 40
0
 40
0
 40
1
 40
1
 40
1
 40
1
 10
134.670064
 20
47.451340
 30
0.0
 10
134.711358
 20
47.422772
 30
0.0
 10
134.744592
 20
47.382749
 30
0.0
 10
134.769767
 20
47.331272
 30
0.0
  0
SPLINE
  5
227
100
AcDbEntity
  8
Drawing1
 62
7
100
AcDbSpline
 70
8
 71
3
 72
8
 73
4
 74
0
 40
0
 40
0
 40
0
 40
0
 40
1
 40
1
 40
1
 40
1
 10
134.769767
 20
47.331272
 30
0.0
 10
134.794939
 20
47.279793
 30
0.0
 10
134.807526
 20
47.223224
 30
0.0
 10
134.807527
 20
47.161565
 30
0.0
  0
SPLINE
  5
228
100
AcDbEntity
  8
Drawing1
 62
7
100
AcDbSpline
 70
8
 71
3
 72
8
 73
4
 74
0
 40
0
 40
0
 40
0
 40
0
 40
1
 40
1
 40
1
 40
1
 10
134.807527
 20
47.161565
 30
0.0
 10
134.807526
 20
47.055780
 30
0.0
 10
134.773867
 20
46.966259
 30
0.0
 10
134.706551
 20
46.893003
 30
0.0
  0
SPLINE
  5
229
100
AcDbEntity
  8
Drawing1
 62
7
100
AcDbSpline
 70
8
 71
3
 72
8
 73
4
 74
0
 40
0
 40
0
 40
0
 40
0
 40
1
 40
1
 40
1
 40
1
 10
134.706551
 20
46.893003
 30
0.0
 10
134.639232
 20
46.819745
 30
0.0
 10
134.517609
 20
46.783117
 30
0.0
 10
134.341680
 20
46.783117
 30
0.0
  0
LINE
  5
22a
100
AcDbEntity
  8
Drawing1
 62
7
100
AcDbLine
 10
134.341680
 20
46.783117
 30
0.0
 11
134.022630
 21
46.783117
 31
0.0
  0
LINE
  5
22b
100
AcDbEntity
  8
Drawing1
 62
7
100
AcDbLine
 10
134.022630
 20
46.783117
 30
0.0
 11
134.022630
 21
46.277389
 31
0.0
  0
LINE
  5
22c
100
AcDbEntity
  8
Drawing1
 62
7
100
AcDbLine
 10
134.022630
 20
46.277389
 30
0.0
 11
133.858013
 21
46.277389
 31
0.0
  0
LINE
  5
22d
100
AcDbEntity
  8
Drawing1
 62
7
100
AcDbLine
 10
134.022630
 20
46.929914
 30
0.0
 11
134.344225
 21
46.929914
 31
0.0
  0
SPLINE
  5
22e
100
AcDbEntity
  8
Drawing1
 62
7
100
AcDbSpline
 70
8
 71
3
 72
8
 73
4
 74
0
 40
0
 40
0
 40
0
 40
0
 40
1
 40
1
 40
1
 40
1
 10
134.344225
 20
46.929914
 30
0.0
 10
134.450575
 20
46.929913
 30
0.0
 10
134.526094
 20
46.949713
 30
0.0
 10
134.570785
 20
46.989312
 30
0.0
  0
SPLINE
  5
22f
100
AcDbEntity
  8
Drawing1
 62
7
100
AcDbSpline
 70
8
 71
3
 72
8
 73
4
 74
0
 40
0
 40
0
 40
0
 40
0
 40
1
 40
1
 40
1
 40
1
 10
134.570785
 20
46.989312
 30
0.0
 10
134.615473
 20
47.028909
 30
0.0
 10
134.637818
 20
47.084630
 30
0.0
 10
134.637819
 20
47.156474
 30
0.0
  0
SPLINE
  5
230
100
AcDbEntity
  8
Drawing1
 62
7
100
AcDbSpline
 70
8
 71
3
 72
8
 73
4
 74
0
 40
0
 40
0
 40
0
 40
0
 40
1
 40
1
 40
1
 40
1
 10
134.637819
 20
47.156474
 30
0.0
 10
134.637818
 20
47.208516
 30
0.0
 10
134.624666
 20
47.253064
 30
0.0
 10
134.598362
 20
47.290118
 30
0.0
  0
SPLINE
  5
231
100
AcDbEntity
  8
Drawing1
 62
7
100
AcDbSpline
 70
8
 71
3
 72
8
 73
4
 74
0
 40
0
 40
0
 40
0
 40
0
 40
1
 40
1
 40
1
 40
1
 10
134.598362
 20
47.290118
 30
0.0
 10
134.572057
 20
47.327170
 30
0.0
 10
134.537408
 20
47.351636
 30
0.0
 10
134.494416
 20
47.363517
 30
0.0
  0
SPLINE
  5
232
100
AcDbEntity
  8
Drawing1
 62
7
100
AcDbSpline
 70
8
 71
3
 72
8
 73
4
 74
0
 40
0
 40
0
 40
0
 40
0
 40
1
 40
1
 40
1
 40
1
 10
134.494416
 20
47.363517
 30
0.0
 10
134.466697
 20
47.370870
 30
0.0
 10
134.415502
 20
47.374547
 30
0.0
 10
134.340831
 20
47.374548
 30
0.0
  0
LINE
  5
233
100
AcDbEntity
  8
Drawing1
 62
7
100
AcDbLine
 10
134.340831
 20
47.374548
 30
0.0
 11
134.022630
 21
47.374548
 31
0.0
  0
LINE
  5
234
100
AcDbEntity
  8
Drawing1
 62
7
100
AcDbLine
 10
134.022630
 20
47.374548
 30
0.0
 11
134.022630
 21
46.929914
 31
0.0
  0
LINE
  5
235
100
AcDbEntity
  8
Drawing1
 62
7
100
AcDbLine
 10
135.040888
 20
46.277389
 30
0.0
 11
135.040888
 21
46.451339
 31
0.0
  0
LINE
  5
236
100
AcDbEntity
  8
Drawing1
 62
7
100
AcDbLine
 10
135.040888
 20
46.451339
 30
0.0
 11
135.214838
 21
46.451339
 31
0.0
  0
LINE
  5
237
100
AcDbEntity
  8
Drawing1
 62
7
100
AcDbLine
 10
135.214838
 20
46.451339
 30
0.0
 11
135.214838
 21
46.277389
 31
0.0
  0
LINE
  5
238
100
AcDbEntity
  8
Drawing1
 62
7
100
AcDbLine
 10
135.214838
 20
46.277389
 30
0.0
 11
135.040888
 21
46.277389
 31
0.0
  0
LINE
  5
239
100
AcDbEntity
  8
Drawing1
 62
7
100
AcDbLine
 10
135.503633
 20
46.277389
 30
0.0
 11
135.503633
 21
47.521345
 31
0.0
  0
LINE
  5
23a
100
AcDbEntity
  8
Drawing1
 62
7
100
AcDbLine
 10
135.503633
 20
47.521345
 30
0.0
 11
136.403082
 21
47.521345
 31
0.0
  0
LINE
  5
23b
100
AcDbEntity
  8
Drawing1
 62
7
100
AcDbLine
 10
136.403082
 20
47.521345
 30
0.0
 11
136.403082
 21
47.374548
 31
0.0
  0
LINE
  5
23c
100
AcDbEntity
  8
Drawing1
 62
7
100
AcDbLine
 10
136.403082
 20
47.374548
 30
0.0
 11
135.668249
 21
47.374548
 31
0.0
  0
LINE
  5
23d
100
AcDbEntity
  8
Drawing1
 62
7
100
AcDbLine
 10
135.668249
 20
47.374548
 30
0.0
 11
135.668249
 21
46.993554
 31
0.0
  0
LINE
  5
23e
100
AcDbEntity
  8
Drawing1
 62
7
100
AcDbLine
 10
135.668249
 20
46.993554
 30
0.0
 11
136.356413
 21
46.993554
 31
0.0
  0
LINE
  5
23f
100
AcDbEntity
  8
Drawing1
 62
7
100
AcDbLine
 10
136.356413
 20
46.993554
 30
0.0
 11
136.356413
 21
46.847606
 31
0.0
  0
LINE
  5
240
100
AcDbEntity
  8
Drawing1
 62
7
100
AcDbLine
 10
136.356413
 20
46.847606
 30
0.0
 11
135.668249
 21
46.847606
 31
0.0
  0
LINE
  5
241
100
AcDbEntity
  8
Drawing1
 62
7
100
AcDbLine
 10
135.668249
 20
46.847606
 30
0.0
 11
135.668249
 21
46.424186
 31
0.0
  0
LINE
  5
242
100
AcDbEntity
  8
Drawing1
 62
7
100
AcDbLine
 10
135.668249
 20
46.424186
 30
0.0
 11
136.431932
 21
46.424186
 31
0.0
  0
LINE
  5
243
100
AcDbEntity
  8
Drawing1
 62
7
100
AcDbLine
 10
136.431932
 20
46.424186
 30
0.0
 11
136.431932
 21
46.277389
 31
0.0
  0
LINE
  5
244
100
AcDbEntity
  8
Drawing1
 62
7
100
AcDbLine
 10
136.431932
 20
46.277389
 30
0.0
 11
135.503633
 21
46.277389
 31
0.0
  0
LINE
  5
245
100
AcDbEntity
  8
Drawing1
 62
7
100
AcDbLine
 10
136.683113
 20
46.277389
 30
0.0
 11
136.683113
 21
46.451339
 31
0.0
  0
LINE
  5
246
100
AcDbEntity
  8
Drawing1
 62
7
100
AcDbLine
 10
136.683113
 20
46.451339
 30
0.0
 11
136.857063
 21
46.451339
 31
0.0
  0
LINE
  5
247
100
AcDbEntity
  8
Drawing1
 62
7
100
AcDbLine
 10
136.857063
 20
46.451339
 30
0.0
 11
136.857063
 21
46.277389
 31
0.0
  0
LINE
  5
248
100
AcDbEntity
  8
Drawing1
 62
7
100
AcDbLine
 10
136.857063
 20
46.277389
 30
0.0
 11
136.683113
 21
46.277389
 31
0.0
  0
LINE
  5
249
100
AcDbEntity
  8
Drawing1
 62
7
100
AcDbLine
 10
148.558277
 20
46.765298
 30
0.0
 11
148.558277
 21
46.911246
 31
0.0
  0
LINE
  5
24a
100
AcDbEntity
  8
Drawing1
 62
7
100
AcDbLine
 10
148.558277
 20
46.911246
 30
0.0
 11
149.085218
 21
46.912095
 31
0.0
  0
LINE
  5
24b
100
AcDbEntity
  8
Drawing1
 62
7
100
AcDbLine
 10
149.085218
 20
46.912095
 30
0.0
 11
149.085218
 21
46.450491
 31
0.0
  0
SPLINE
  5
24c
100
AcDbEntity
  8
Drawing1
 62
7
100
AcDbSpline
 70
8
 71
3
 72
8
 73
4
 74
0
 40
0
 40
0
 40
0
 40
0
 40
1
 40
1
 40
1
 40
1
 10
149.085218
 20
46.450491
 30
0.0
 10
149.004323
 20
46.386002
 30
0.0
 10
148.920884
 20
46.337494
 30
0.0
 10
148.834900
 20
46.304966
 30
0.0
  0
SPLINE
  5
24d
100
AcDbEntity
  8
Drawing1
 62
7
100
AcDbSpline
 70
8
 71
3
 72
8
 73
4
 74
0
 40
0
 40
0
 40
0
 40
0
 40
1
 40
1
 40
1
 40
1
 10
148.834900
 20
46.304966
 30
0.0
 10
148.748914
 20
46.272439
 30
0.0
 10
148.660666
 20
46.256175
 30
0.0
 10
148.570156
 20
46.256175
 30
0.0
  0
SPLINE
  5
24e
100
AcDbEntity
  8
Drawing1
 62
7
100
AcDbSpline
 70
8
 71
3
 72
8
 73
4
 74
0
 40
0
 40
0
 40
0
 40
0
 40
1
 40
1
 40
1
 40
1
 10
148.570156
 20
46.256175
 30
0.0
 10
148.447966
 20
46.256175
 30
0.0
 10
148.336949
 20
46.282339
 30
0.0
 10
148.237105
 20
46.334665
 30
0.0
  0
SPLINE
  5
24f
100
AcDbEntity
  8
Drawing1
 62
7
100
AcDbSpline
 70
8
 71
3
 72
8
 73
4
 74
0
 40
0
 40
0
 40
0
 40
0
 40
1
 40
1
 40
1
 40
1
 10
148.237105
 20
46.334665
 30
0.0
 10
148.137260
 20
46.386992
 30
0.0
 10
148.061882
 20
46.462653
 30
0.0
 10
148.010970
 20
46.561649
 30
0.0
  0
SPLINE
  5
250
100
AcDbEntity
  8
Drawing1
 62
7
100
AcDbSpline
 70
8
 71
3
 72
8
 73
4
 74
0
 40
0
 40
0
 40
0
 40
0
 40
1
 40
1
 40
1
 40
1
 10
148.010970
 20
46.561649
 30
0.0
 10
147.960058
 20
46.660645
 30
0.0
 10
147.934602
 20
46.771237
 30
0.0
 10
147.934602
 20
46.893427
 30
0.0
  0
SPLINE
  5
251
100
AcDbEntity
  8
Drawing1
 62
7
100
AcDbSpline
 70
8
 71
3
 72
8
 73
4
 74
0
 40
0
 40
0
 40
0
 40
0
 40
1
 40
1
 40
1
 40
1
 10
147.934602
 20
46.893427
 30
0.0
 10
147.934602
 20
47.014484
 30
0.0
 10
147.959916
 20
47.127481
 30
0.0
 10
148.010546
 20
47.232418
 30
0.0
  0
SPLINE
  5
252
100
AcDbEntity
  8
Drawing1
 62
7
100
AcDbSpline
 70
8
 71
3
 72
8
 73
4
 74
0
 40
0
 40
0
 40
0
 40
0
 40
1
 40
1
 40
1
 40
1
 10
148.010546
 20
47.232418
 30
0.0
 10
148.061175
 20
47.337352
 30
0.0
 10
148.134008
 20
47.415276
 30
0.0
 10
148.229044
 20
47.466190
 30
0.0
  0
SPLINE
  5
253
100
AcDbEntity
  8
Drawing1
 62
7
100
AcDbSpline
 70
8
 71
3
 72
8
 73
4
 74
0
 40
0
 40
0
 40
0
 40
0
 40
1
 40
1
 40
1
 40
1
 10
148.229044
 20
47.466190
 30
0.0
 10
148.324080
 20
47.517101
 30
0.0
 10
148.433541
 20
47.542557
 30
0.0
 10
148.557428
 20
47.542558
 30
0.0
  0
SPLINE
  5
254
100
AcDbEntity
  8
Drawing1
 62
7
100
AcDbSpline
 70
8
 71
3
 72
8
 73
4
 74
0
 40
0
 40
0
 40
0
 40
0
 40
1
 40
1
 40
1
 40
1
 10
148.557428
 20
47.542558
 30
0.0
 10
148.647372
 20
47.542557
 30
0.0
 10
148.728690
 20
47.527990
 30
0.0
 10
148.801383
 20
47.498858
 30
0.0
  0
SPLINE
  5
255
100
AcDbEntity
  8
Drawing1
 62
7
100
AcDbSpline
 70
8
 71
3
 72
8
 73
4
 74
0
 40
0
 40
0
 40
0
 40
0
 40
1
 40
1
 40
1
 40
1
 10
148.801383
 20
47.498858
 30
0.0
 10
148.874073
 20
47.469724
 30
0.0
 10
148.931066
 20
47.429136
 30
0.0
 10
148.972363
 20
47.377093
 30
0.0
  0
SPLINE
  5
256
100
AcDbEntity
  8
Drawing1
 62
7
100
AcDbSpline
 70
8
 71
3
 72
8
 73
4
 74
0
 40
0
 40
0
 40
0
 40
0
 40
1
 40
1
 40
1
 40
1
 10
148.972363
 20
47.377093
 30
0.0
 10
149.013657
 20
47.325049
 30
0.0
 10
149.045053
 20
47.257166
 30
0.0
 10
149.066550
 20
47.173444
 30
0.0
  0
LINE
  5
257
100
AcDbEntity
  8
Drawing1
 62
7
100
AcDbLine
 10
149.066550
 20
47.173444
 30
0.0
 11
148.918056
 21
47.132715
 31
0.0
  0
SPLINE
  5
258
100
AcDbEntity
  8
Drawing1
 62
7
100
AcDbSpline
 70
8
 71
3
 72
8
 73
4
 74
0
 40
0
 40
0
 40
0
 40
0
 40
1
 40
1
 40
1
 40
1
 10
148.918056
 20
47.132715
 30
0.0
 10
148.899388
 20
47.196071
 30
0.0
 10
148.876194
 20
47.245852
 30
0.0
 10
148.848476
 20
47.282057
 30
0.0
  0
SPLINE
  5
259
100
AcDbEntity
  8
Drawing1
 62
7
100
AcDbSpline
 70
8
 71
3
 72
8
 73
4
 74
0
 40
0
 40
0
 40
0
 40
0
 40
1
 40
1
 40
1
 40
1
 10
148.848476
 20
47.282057
 30
0.0
 10
148.820757
 20
47.318260
 30
0.0
 10
148.781158
 20
47.347252
 30
0.0
 10
148.729681
 20
47.369032
 30
0.0
  0
SPLINE
  5
25a
100
AcDbEntity
  8
Drawing1
 62
7
100
AcDbSpline
 70
8
 71
3
 72
8
 73
4
 74
0
 40
0
 40
0
 40
0
 40
0
 40
1
 40
1
 40
1
 40
1
 10
148.729681
 20
47.369032
 30
0.0
 10
148.678202
 20
47.390810
 30
0.0
 10
148.621068
 20
47.401700
 30
0.0
 10
148.558277
 20
47.401701
 30
0.0
  0
SPLINE
  5
25b
100
AcDbEntity
  8
Drawing1
 62
7
100
AcDbSpline
 70
8
 71
3
 72
8
 73
4
 74
0
 40
0
 40
0
 40
0
 40
0
 40
1
 40
1
 40
1
 40
1
 10
148.558277
 20
47.401701
 30
0.0
 10
148.483039
 20
47.401700
 30
0.0
 10
148.417985
 20
47.390244
 30
0.0
 10
148.363113
 20
47.367335
 30
0.0
  0
SPLINE
  5
25c
100
AcDbEntity
  8
Drawing1
 62
7
100
AcDbSpline
 70
8
 71
3
 72
8
 73
4
 74
0
 40
0
 40
0
 40
0
 40
0
 40
1
 40
1
 40
1
 40
1
 10
148.363113
 20
47.367335
 30
0.0
 10
148.308240
 20
47.344424
 30
0.0
 10
148.263975
 20
47.314300
 30
0.0
 10
148.230317
 20
47.276966
 30
0.0
  0
SPLINE
  5
25d
100
AcDbEntity
  8
Drawing1
 62
7
100
AcDbSpline
 70
8
 71
3
 72
8
 73
4
 74
0
 40
0
 40
0
 40
0
 40
0
 40
1
 40
1
 40
1
 40
1
 10
148.230317
 20
47.276966
 30
0.0
 10
148.196658
 20
47.239629
 30
0.0
 10
148.170495
 20
47.198617
 30
0.0
 10
148.151827
 20
47.153928
 30
0.0
  0
SPLINE
  5
25e
100
AcDbEntity
  8
Drawing1
 62
7
100
AcDbSpline
 70
8
 71
3
 72
8
 73
4
 74
0
 40
0
 40
0
 40
0
 40
0
 40
1
 40
1
 40
1
 40
1
 10
148.151827
 20
47.153928
 30
0.0
 10
148.120148
 20
47.076993
 30
0.0
 10
148.104309
 20
46.993554
 30
0.0
 10
148.104309
 20
46.903609
 30
0.0
  0
SPLINE
  5
25f
100
AcDbEntity
  8
Drawing1
 62
7
100
AcDbSpline
 70
8
 71
3
 72
8
 73
4
 74
0
 40
0
 40
0
 40
0
 40
0
 40
1
 40
1
 40
1
 40
1
 10
148.104309
 20
46.903609
 30
0.0
 10
148.104309
 20
46.792733
 30
0.0
 10
148.123401
 20
46.699960
 30
0.0
 10
148.161585
 20
46.625289
 30
0.0
  0
SPLINE
  5
260
100
AcDbEntity
  8
Drawing1
 62
7
100
AcDbSpline
 70
8
 71
3
 72
8
 73
4
 74
0
 40
0
 40
0
 40
0
 40
0
 40
1
 40
1
 40
1
 40
1
 10
148.161585
 20
46.625289
 30
0.0
 10
148.199769
 20
46.550618
 30
0.0
 10
148.255348
 20
46.495180
 30
0.0
 10
148.328323
 20
46.458976
 30
0.0
  0
SPLINE
  5
261
100
AcDbEntity
  8
Drawing1
 62
7
100
AcDbSpline
 70
8
 71
3
 72
8
 73
4
 74
0
 40
0
 40
0
 40
0
 40
0
 40
1
 40
1
 40
1
 40
1
 10
148.328323
 20
46.458976
 30
0.0
 10
148.401297
 20
46.422771
 30
0.0
 10
148.478796
 20
46.404669
 30
0.0
 10
148.560822
 20
46.404669
 30
0.0
  0
SPLINE
  5
262
100
AcDbEntity
  8
Drawing1
 62
7
100
AcDbSpline
 70
8
 71
3
 72
8
 73
4
 74
0
 40
0
 40
0
 40
0
 40
0
 40
1
 40
1
 40
1
 40
1
 10
148.560822
 20
46.404669
 30
0.0
 10
148.632099
 20
46.404669
 30
0.0
 10
148.701679
 20
46.418387
 30
0.0
 10
148.769562
 20
46.445824
 30
0.0
  0
SPLINE
  5
263
100
AcDbEntity
  8
Drawing1
 62
7
100
AcDbSpline
 70
8
 71
3
 72
8
 73
4
 74
0
 40
0
 40
0
 40
0
 40
0
 40
1
 40
1
 40
1
 40
1
 10
148.769562
 20
46.445824
 30
0.0
 10
148.837444
 20
46.473259
 30
0.0
 10
148.888922
 20
46.502534
 30
0.0
 10
148.923996
 20
46.533647
 30
0.0
  0
LINE
  5
264
100
AcDbEntity
  8
Drawing1
 62
7
100
AcDbLine
 10
148.923996
 20
46.533647
 30
0.0
 11
148.923996
 21
46.765298
 31
0.0
  0
LINE
  5
265
100
AcDbEntity
  8
Drawing1
 62
7
100
AcDbLine
 10
148.923996
 20
46.765298
 30
0.0
 11
148.558277
 21
46.765298
 31
0.0
  0
LINE
  5
266
100
AcDbEntity
  8
Drawing1
 62
7
100
AcDbLine
 10
149.326495
 20
46.277389
 30
0.0
 11
149.326495
 21
47.521345
 31
0.0
  0
LINE
  5
267
100
AcDbEntity
  8
Drawing1
 62
7
100
AcDbLine
 10
149.326495
 20
47.521345
 30
0.0
 11
149.495354
 21
47.521345
 31
0.0
  0
LINE
  5
268
100
AcDbEntity
  8
Drawing1
 62
7
100
AcDbLine
 10
149.495354
 20
47.521345
 30
0.0
 11
150.148727
 21
46.544678
 31
0.0
  0
LINE
  5
269
100
AcDbEntity
  8
Drawing1
 62
7
100
AcDbLine
 10
150.148727
 20
46.544678
 30
0.0
 11
150.148727
 21
47.521345
 31
0.0
  0
LINE
  5
26a
100
AcDbEntity
  8
Drawing1
 62
7
100
AcDbLine
 10
150.148727
 20
47.521345
 30
0.0
 11
150.306555
 21
47.521345
 31
0.0
  0
LINE
  5
26b
100
AcDbEntity
  8
Drawing1
 62
7
100
AcDbLine
 10
150.306555
 20
47.521345
 30
0.0
 11
150.306555
 21
46.277389
 31
0.0
  0
LINE
  5
26c
100
AcDbEntity
  8
Drawing1
 62
7
100
AcDbLine
 10
150.306555
 20
46.277389
 30
0.0
 11
150.137696
 21
46.277389
 31
0.0
  0
LINE
  5
26d
100
AcDbEntity
  8
Drawing1
 62
7
100
AcDbLine
 10
150.137696
 20
46.277389
 30
0.0
 11
149.484323
 21
47.254904
 31
0.0
  0
LINE
  5
26e
100
AcDbEntity
  8
Drawing1
 62
7
100
AcDbLine
 10
149.484323
 20
47.254904
 30
0.0
 11
149.484323
 21
46.277389
 31
0.0
  0
LINE
  5
26f
100
AcDbEntity
  8
Drawing1
 62
7
100
AcDbLine
 10
149.484323
 20
46.277389
 30
0.0
 11
149.326495
 21
46.277389
 31
0.0
  0
LINE
  5
270
100
AcDbEntity
  8
Drawing1
 62
7
100
AcDbLine
 10
150.582887
 20
46.277389
 30
0.0
 11
150.582887
 21
47.521345
 31
0.0
  0
LINE
  5
271
100
AcDbEntity
  8
Drawing1
 62
7
100
AcDbLine
 10
150.582887
 20
47.521345
 30
0.0
 11
151.011398
 21
47.521345
 31
0.0
  0
SPLINE
  5
272
100
AcDbEntity
  8
Drawing1
 62
7
100
AcDbSpline
 70
8
 71
3
 72
8
 73
4
 74
0
 40
0
 40
0
 40
0
 40
0
 40
1
 40
1
 40
1
 40
1
 10
151.011398
 20
47.521345
 30
0.0
 10
151.108131
 20
47.521343
 30
0.0
 10
151.181953
 20
47.515404
 30
0.0
 10
151.232866
 20
47.503525
 30
0.0
  0
SPLINE
  5
273
100
AcDbEntity
  8
Drawing1
 62
7
100
AcDbSpline
 70
8
 71
3
 72
8
 73
4
 74
0
 40
0
 40
0
 40
0
 40
0
 40
1
 40
1
 40
1
 40
1
 10
151.232866
 20
47.503525
 30
0.0
 10
151.304143
 20
47.487119
 30
0.0
 10
151.364954
 20
47.457420
 30
0.0
 10
151.415302
 20
47.414429
 30
0.0
  0
SPLINE
  5
274
100
AcDbEntity
  8
Drawing1
 62
7
100
AcDbSpline
 70
8
 71
3
 72
8
 73
4
 74
0
 40
0
 40
0
 40
0
 40
0
 40
1
 40
1
 40
1
 40
1
 10
151.415302
 20
47.414429
 30
0.0
 10
151.480921
 20
47.358990
 30
0.0
 10
151.529995
 20
47.288137
 30
0.0
 10
151.562523
 20
47.201870
 30
0.0
  0
SPLINE
  5
275
100
AcDbEntity
  8
Drawing1
 62
7
100
AcDbSpline
 70
8
 71
3
 72
8
 73
4
 74
0
 40
0
 40
0
 40
0
 40
0
 40
1
 40
1
 40
1
 40
1
 10
151.562523
 20
47.201870
 30
0.0
 10
151.595049
 20
47.115602
 30
0.0
 10
151.611313
 20
47.017030
 30
0.0
 10
151.611314
 20
46.906155
 30
0.0
  0
SPLINE
  5
276
100
AcDbEntity
  8
Drawing1
 62
7
100
AcDbSpline
 70
8
 71
3
 72
8
 73
4
 74
0
 40
0
 40
0
 40
0
 40
0
 40
1
 40
1
 40
1
 40
1
 10
151.611314
 20
46.906155
 30
0.0
 10
151.611313
 20
46.811684
 30
0.0
 10
151.600282
 20
46.727962
 30
0.0
 10
151.578221
 20
46.654988
 30
0.0
  0
SPLINE
  5
277
100
AcDbEntity
  8
Drawing1
 62
7
100
AcDbSpline
 70
8
 71
3
 72
8
 73
4
 74
0
 40
0
 40
0
 40
0
 40
0
 40
1
 40
1
 40
1
 40
1
 10
151.578221
 20
46.654988
 30
0.0
 10
151.556158
 20
46.582013
 30
0.0
 10
151.527873
 20
46.521626
 30
0.0
 10
151.493367
 20
46.473825
 30
0.0
  0
SPLINE
  5
278
100
AcDbEntity
  8
Drawing1
 62
7
100
AcDbSpline
 70
8
 71
3
 72
8
 73
4
 74
0
 40
0
 40
0
 40
0
 40
0
 40
1
 40
1
 40
1
 40
1
 10
151.493367
 20
46.473825
 30
0.0
 10
151.458859
 20
46.426024
 30
0.0
 10
151.421099
 20
46.388406
 30
0.0
 10
151.380087
 20
46.360970
 30
0.0
  0
SPLINE
  5
279
100
AcDbEntity
  8
Drawing1
 62
7
100
AcDbSpline
 70
8
 71
3
 72
8
 73
4
 74
0
 40
0
 40
0
 40
0
 40
0
 40
1
 40
1
 40
1
 40
1
 10
151.380087
 20
46.360970
 30
0.0
 10
151.339074
 20
46.333534
 30
0.0
 10
151.289576
 20
46.312745
 30
0.0
 10
151.231594
 20
46.298602
 30
0.0
  0
SPLINE
  5
27a
100
AcDbEntity
  8
Drawing1
 62
7
100
AcDbSpline
 70
8
 71
3
 72
8
 73
4
 74
0
 40
0
 40
0
 40
0
 40
0
 40
1
 40
1
 40
1
 40
1
 10
151.231594
 20
46.298602
 30
0.0
 10
151.173609
 20
46.284460
 30
0.0
 10
151.106999
 20
46.277389
 30
0.0
 10
151.031763
 20
46.277389
 30
0.0
  0
LINE
  5
27b
100
AcDbEntity
  8
Drawing1
 62
7
100
AcDbLine
 10
151.031763
 20
46.277389
 30
0.0
 11
150.582887
 21
46.277389
 31
0.0
  0
LINE
  5
27c
100
AcDbEntity
  8
Drawing1
 62
7
100
AcDbLine
 10
150.747503
 20
46.424186
 30
0.0
 11
151.013095
 21
46.424186
 31
0.0
  0
SPLINE
  5
27d
100
AcDbEntity
  8
Drawing1
 62
7
100
AcDbSpline
 70
8
 71
3
 72
8
 73
4
 74
0
 40
0
 40
0
 40
0
 40
0
 40
1
 40
1
 40
1
 40
1
 10
151.013095
 20
46.424186
 30
0.0
 10
151.095120
 20
46.424186
 30
0.0
 10
151.159467
 20
46.431823
 30
0.0
 10
151.206137
 20
46.447096
 30
0.0
  0
SPLINE
  5
27e
100
AcDbEntity
  8
Drawing1
 62
7
100
AcDbSpline
 70
8
 71
3
 72
8
 73
4
 74
0
 40
0
 40
0
 40
0
 40
0
 40
1
 40
1
 40
1
 40
1
 10
151.206137
 20
46.447096
 30
0.0
 10
151.252806
 20
46.462370
 30
0.0
 10
151.290000
 20
46.483866
 30
0.0
 10
151.317720
 20
46.511585
 30
0.0
  0
SPLINE
  5
27f
100
AcDbEntity
  8
Drawing1
 62
7
100
AcDbSpline
 70
8
 71
3
 72
8
 73
4
 74
0
 40
0
 40
0
 40
0
 40
0
 40
1
 40
1
 40
1
 40
1
 10
151.317720
 20
46.511585
 30
0.0
 10
151.356752
 20
46.550618
 30
0.0
 10
151.387158
 20
46.603085
 30
0.0
 10
151.408938
 20
46.668989
 30
0.0
  0
SPLINE
  5
280
100
AcDbEntity
  8
Drawing1
 62
7
100
AcDbSpline
 70
8
 71
3
 72
8
 73
4
 74
0
 40
0
 40
0
 40
0
 40
0
 40
1
 40
1
 40
1
 40
1
 10
151.408938
 20
46.668989
 30
0.0
 10
151.430716
 20
46.734891
 30
0.0
 10
151.441605
 20
46.814795
 30
0.0
 10
151.441606
 20
46.908701
 30
0.0
  0
SPLINE
  5
281
100
AcDbEntity
  8
Drawing1
 62
7
100
AcDbSpline
 70
8
 71
3
 72
8
 73
4
 74
0
 40
0
 40
0
 40
0
 40
0
 40
1
 40
1
 40
1
 40
1
 10
151.441606
 20
46.908701
 30
0.0
 10
151.441605
 20
47.038809
 30
0.0
 10
151.420251
 20
47.138795
 30
0.0
 10
151.377542
 20
47.208659
 30
0.0
  0
SPLINE
  5
282
100
AcDbEntity
  8
Drawing1
 62
7
100
AcDbSpline
 70
8
 71
3
 72
8
 73
4
 74
0
 40
0
 40
0
 40
0
 40
0
 40
1
 40
1
 40
1
 40
1
 10
151.377542
 20
47.208659
 30
0.0
 10
151.334831
 20
47.278521
 30
0.0
 10
151.282929
 20
47.325331
 30
0.0
 10
151.221835
 20
47.349092
 30
0.0
  0
SPLINE
  5
283
100
AcDbEntity
  8
Drawing1
 62
7
100
AcDbSpline
 70
8
 71
3
 72
8
 73
4
 74
0
 40
0
 40
0
 40
0
 40
0
 40
1
 40
1
 40
1
 40
1
 10
151.221835
 20
47.349092
 30
0.0
 10
151.177711
 20
47.366061
 30
0.0
 10
151.106716
 20
47.374547
 30
0.0
 10
151.008853
 20
47.374548
 30
0.0
  0
LINE
  5
284
100
AcDbEntity
  8
Drawing1
 62
7
100
AcDbLine
 10
151.008853
 20
47.374548
 30
0.0
 11
150.747503
 21
47.374548
 31
0.0
  0
LINE
  5
285
100
AcDbEntity
  8
Drawing1
 62
7
100
AcDbLine
 10
150.747503
 20
47.374548
 30
0.0
 11
150.747503
 21
46.424186
 31
0.0
  0
LINE
  5
286
100
AcDbEntity
  8
Drawing1
 62
7
100
AcDbLine
 10
157.611911
 20
46.478492
 30
0.0
 11
157.611911
 21
46.819604
 31
0.0
  0
LINE
  5
287
100
AcDbEntity
  8
Drawing1
 62
7
100
AcDbLine
 10
157.611911
 20
46.819604
 30
0.0
 11
157.273344
 21
46.819604
 31
0.0
  0
LINE
  5
288
100
AcDbEntity
  8
Drawing1
 62
7
100
AcDbLine
 10
157.273344
 20
46.819604
 30
0.0
 11
157.273344
 21
46.962159
 31
0.0
  0
LINE
  5
289
100
AcDbEntity
  8
Drawing1
 62
7
100
AcDbLine
 10
157.273344
 20
46.962159
 30
0.0
 11
157.611911
 21
46.962159
 31
0.0
  0
LINE
  5
28a
100
AcDbEntity
  8
Drawing1
 62
7
100
AcDbLine
 10
157.611911
 20
46.962159
 30
0.0
 11
157.611911
 21
47.300725
 31
0.0
  0
LINE
  5
28b
100
AcDbEntity
  8
Drawing1
 62
7
100
AcDbLine
 10
157.611911
 20
47.300725
 30
0.0
 11
157.756162
 21
47.300725
 31
0.0
  0
LINE
  5
28c
100
AcDbEntity
  8
Drawing1
 62
7
100
AcDbLine
 10
157.756162
 20
47.300725
 30
0.0
 11
157.756162
 21
46.962159
 31
0.0
  0
LINE
  5
28d
100
AcDbEntity
  8
Drawing1
 62
7
100
AcDbLine
 10
157.756162
 20
46.962159
 30
0.0
 11
158.094729
 21
46.962159
 31
0.0
  0
LINE
  5
28e
100
AcDbEntity
  8
Drawing1
 62
7
100
AcDbLine
 10
158.094729
 20
46.962159
 30
0.0
 11
158.094729
 21
46.819604
 31
0.0
  0
LINE
  5
28f
100
AcDbEntity
  8
Drawing1
 62
7
100
AcDbLine
 10
158.094729
 20
46.819604
 30
0.0
 11
157.756162
 21
46.819604
 31
0.0
  0
LINE
  5
290
100
AcDbEntity
  8
Drawing1
 62
7
100
AcDbLine
 10
157.756162
 20
46.819604
 30
0.0
 11
157.756162
 21
46.478492
 31
0.0
  0
LINE
  5
291
100
AcDbEntity
  8
Drawing1
 62
7
100
AcDbLine
 10
157.756162
 20
46.478492
 30
0.0
 11
157.611911
 21
46.478492
 31
0.0
  0
LINE
  5
292
100
AcDbEntity
  8
Drawing1
 62
7
100
AcDbLine
 10
159.066331
 20
46.424186
 30
0.0
 11
159.066331
 21
46.277389
 31
0.0
  0
LINE
  5
293
100
AcDbEntity
  8
Drawing1
 62
7
100
AcDbLine
 10
159.066331
 20
46.277389
 30
0.0
 11
158.244098
 21
46.277389
 31
0.0
  0
SPLINE
  5
294
100
AcDbEntity
  8
Drawing1
 62
7
100
AcDbSpline
 70
8
 71
3
 72
8
 73
4
 74
0
 40
0
 40
0
 40
0
 40
0
 40
1
 40
1
 40
1
 40
1
 10
158.244098
 20
46.277389
 30
0.0
 10
158.242967
 20
46.314159
 30
0.0
 10
158.248907
 20
46.349514
 30
0.0
 10
158.261918
 20
46.383456
 30
0.0
  0
SPLINE
  5
295
100
AcDbEntity
  8
Drawing1
 62
7
100
AcDbSpline
 70
8
 71
3
 72
8
 73
4
 74
0
 40
0
 40
0
 40
0
 40
0
 40
1
 40
1
 40
1
 40
1
 10
158.261918
 20
46.383456
 30
0.0
 10
158.282848
 20
46.439459
 30
0.0
 10
158.316365
 20
46.494614
 30
0.0
 10
158.362469
 20
46.548921
 30
0.0
  0
SPLINE
  5
296
100
AcDbEntity
  8
Drawing1
 62
7
100
AcDbSpline
 70
8
 71
3
 72
8
 73
4
 74
0
 40
0
 40
0
 40
0
 40
0
 40
1
 40
1
 40
1
 40
1
 10
158.362469
 20
46.548921
 30
0.0
 10
158.408573
 20
46.603227
 30
0.0
 10
158.475183
 20
46.666019
 30
0.0
 10
158.562300
 20
46.737296
 30
0.0
  0
SPLINE
  5
297
100
AcDbEntity
  8
Drawing1
 62
7
100
AcDbSpline
 70
8
 71
3
 72
8
 73
4
 74
0
 40
0
 40
0
 40
0
 40
0
 40
1
 40
1
 40
1
 40
1
 10
158.562300
 20
46.737296
 30
0.0
 10
158.697500
 20
46.848171
 30
0.0
 10
158.788859
 20
46.935995
 30
0.0
 10
158.836377
 20
47.000767
 30
0.0
  0
SPLINE
  5
298
100
AcDbEntity
  8
Drawing1
 62
7
100
AcDbSpline
 70
8
 71
3
 72
8
 73
4
 74
0
 40
0
 40
0
 40
0
 40
0
 40
1
 40
1
 40
1
 40
1
 10
158.836377
 20
47.000767
 30
0.0
 10
158.883895
 20
47.065538
 30
0.0
 10
158.907654
 20
47.126774
 30
0.0
 10
158.907654
 20
47.184475
 30
0.0
  0
SPLINE
  5
299
100
AcDbEntity
  8
Drawing1
 62
7
100
AcDbSpline
 70
8
 71
3
 72
8
 73
4
 74
0
 40
0
 40
0
 40
0
 40
0
 40
1
 40
1
 40
1
 40
1
 10
158.907654
 20
47.184475
 30
0.0
 10
158.907654
 20
47.245003
 30
0.0
 10
158.886016
 20
47.296057
 30
0.0
 10
158.842741
 20
47.337636
 30
0.0
  0
SPLINE
  5
29a
100
AcDbEntity
  8
Drawing1
 62
7
100
AcDbSpline
 70
8
 71
3
 72
8
 73
4
 74
0
 40
0
 40
0
 40
0
 40
0
 40
1
 40
1
 40
1
 40
1
 10
158.842741
 20
47.337636
 30
0.0
 10
158.799465
 20
47.379214
 30
0.0
 10
158.743038
 20
47.400003
 30
0.0
 10
158.673458
 20
47.400004
 30
0.0
  0
SPLINE
  5
29b
100
AcDbEntity
  8
Drawing1
 62
7
100
AcDbSpline
 70
8
 71
3
 72
8
 73
4
 74
0
 40
0
 40
0
 40
0
 40
0
 40
1
 40
1
 40
1
 40
1
 10
158.673458
 20
47.400004
 30
0.0
 10
158.599918
 20
47.400003
 30
0.0
 10
158.541086
 20
47.377941
 30
0.0
 10
158.496962
 20
47.333818
 30
0.0
  0
SPLINE
  5
29c
100
AcDbEntity
  8
Drawing1
 62
7
100
AcDbSpline
 70
8
 71
3
 72
8
 73
4
 74
0
 40
0
 40
0
 40
0
 40
0
 40
1
 40
1
 40
1
 40
1
 10
158.496962
 20
47.333818
 30
0.0
 10
158.452838
 20
47.289693
 30
0.0
 10
158.430493
 20
47.228598
 30
0.0
 10
158.429928
 20
47.150534
 30
0.0
  0
LINE
  5
29d
100
AcDbEntity
  8
Drawing1
 62
7
100
AcDbLine
 10
158.429928
 20
47.150534
 30
0.0
 11
158.272949
 21
47.166656
 31
0.0
  0
SPLINE
  5
29e
100
AcDbEntity
  8
Drawing1
 62
7
100
AcDbSpline
 70
8
 71
3
 72
8
 73
4
 74
0
 40
0
 40
0
 40
0
 40
0
 40
1
 40
1
 40
1
 40
1
 10
158.272949
 20
47.166656
 30
0.0
 10
158.283697
 20
47.283753
 30
0.0
 10
158.324143
 20
47.372991
 30
0.0
 10
158.394289
 20
47.434370
 30
0.0
  0
SPLINE
  5
29f
100
AcDbEntity
  8
Drawing1
 62
7
100
AcDbSpline
 70
8
 71
3
 72
8
 73
4
 74
0
 40
0
 40
0
 40
0
 40
0
 40
1
 40
1
 40
1
 40
1
 10
158.394289
 20
47.434370
 30
0.0
 10
158.464435
 20
47.495746
 30
0.0
 10
158.558622
 20
47.526435
 30
0.0
 10
158.676852
 20
47.526436
 30
0.0
  0
SPLINE
  5
2a0
100
AcDbEntity
  8
Drawing1
 62
7
100
AcDbSpline
 70
8
 71
3
 72
8
 73
4
 74
0
 40
0
 40
0
 40
0
 40
0
 40
1
 40
1
 40
1
 40
1
 10
158.676852
 20
47.526436
 30
0.0
 10
158.796213
 20
47.526435
 30
0.0
 10
158.890683
 20
47.493342
 30
0.0
 10
158.960264
 20
47.427157
 30
0.0
  0
SPLINE
  5
2a1
100
AcDbEntity
  8
Drawing1
 62
7
100
AcDbSpline
 70
8
 71
3
 72
8
 73
4
 74
0
 40
0
 40
0
 40
0
 40
0
 40
1
 40
1
 40
1
 40
1
 10
158.960264
 20
47.427157
 30
0.0
 10
159.029843
 20
47.360970
 30
0.0
 10
159.064633
 20
47.278945
 30
0.0
 10
159.064634
 20
47.181081
 30
0.0
  0
SPLINE
  5
2a2
100
AcDbEntity
  8
Drawing1
 62
7
100
AcDbSpline
 70
8
 71
3
 72
8
 73
4
 74
0
 40
0
 40
0
 40
0
 40
0
 40
1
 40
1
 40
1
 40
1
 10
159.064634
 20
47.181081
 30
0.0
 10
159.064633
 20
47.131299
 30
0.0
 10
159.054451
 20
47.082367
 30
0.0
 10
159.034087
 20
47.034284
 30
0.0
  0
SPLINE
  5
2a3
100
AcDbEntity
  8
Drawing1
 62
7
100
AcDbSpline
 70
8
 71
3
 72
8
 73
4
 74
0
 40
0
 40
0
 40
0
 40
0
 40
1
 40
1
 40
1
 40
1
 10
159.034087
 20
47.034284
 30
0.0
 10
159.013721
 20
46.986200
 30
0.0
 10
158.979921
 20
46.935570
 30
0.0
 10
158.932686
 20
46.882396
 30
0.0
  0
SPLINE
  5
2a4
100
AcDbEntity
  8
Drawing1
 62
7
100
AcDbSpline
 70
8
 71
3
 72
8
 73
4
 74
0
 40
0
 40
0
 40
0
 40
0
 40
1
 40
1
 40
1
 40
1
 10
158.932686
 20
46.882396
 30
0.0
 10
158.885450
 20
46.829220
 30
0.0
 10
158.806961
 20
46.756246
 30
0.0
 10
158.697217
 20
46.663473
 30
0.0
  0
SPLINE
  5
2a5
100
AcDbEntity
  8
Drawing1
 62
7
100
AcDbSpline
 70
8
 71
3
 72
8
 73
4
 74
0
 40
0
 40
0
 40
0
 40
0
 40
1
 40
1
 40
1
 40
1
 10
158.697217
 20
46.663473
 30
0.0
 10
158.605575
 20
46.586539
 30
0.0
 10
158.546743
 20
46.534354
 30
0.0
 10
158.520721
 20
46.506918
 30
0.0
  0
SPLINE
  5
2a6
100
AcDbEntity
  8
Drawing1
 62
7
100
AcDbSpline
 70
8
 71
3
 72
8
 73
4
 74
0
 40
0
 40
0
 40
0
 40
0
 40
1
 40
1
 40
1
 40
1
 10
158.520721
 20
46.506918
 30
0.0
 10
158.494699
 20
46.479482
 30
0.0
 10
158.473203
 20
46.451905
 30
0.0
 10
158.456233
 20
46.424186
 30
0.0
  0
LINE
  5
2a7
100
AcDbEntity
  8
Drawing1
 62
7
100
AcDbLine
 10
158.456233
 20
46.424186
 30
0.0
 11
159.066331
 21
46.424186
 31
0.0
  0
LINE
  5
2a8
100
AcDbEntity
  8
Drawing1
 62
7
100
AcDbLine
 10
159.240016
 20
47.358425
 30
0.0
 11
159.240016
 21
47.505222
 31
0.0
  0
LINE
  5
2a9
100
AcDbEntity
  8
Drawing1
 62
7
100
AcDbLine
 10
159.240016
 20
47.505222
 30
0.0
 11
160.045278
 21
47.505222
 31
0.0
  0
LINE
  5
2aa
100
AcDbEntity
  8
Drawing1
 62
7
100
AcDbLine
 10
160.045278
 20
47.505222
 30
0.0
 11
160.045278
 21
47.386427
 31
0.0
  0
SPLINE
  5
2ab
100
AcDbEntity
  8
Drawing1
 62
7
100
AcDbSpline
 70
8
 71
3
 72
8
 73
4
 74
0
 40
0
 40
0
 40
0
 40
0
 40
1
 40
1
 40
1
 40
1
 10
160.045278
 20
47.386427
 30
0.0
 10
159.966081
 20
47.302138
 30
0.0
 10
159.887591
 20
47.190131
 30
0.0
 10
159.809809
 20
47.050406
 30
0.0
  0
SPLINE
  5
2ac
100
AcDbEntity
  8
Drawing1
 62
7
100
AcDbSpline
 70
8
 71
3
 72
8
 73
4
 74
0
 40
0
 40
0
 40
0
 40
0
 40
1
 40
1
 40
1
 40
1
 10
159.809809
 20
47.050406
 30
0.0
 10
159.732026
 20
46.910680
 30
0.0
 10
159.671921
 20
46.766994
 30
0.0
 10
159.629495
 20
46.619349
 30
0.0
  0
SPLINE
  5
2ad
100
AcDbEntity
  8
Drawing1
 62
7
100
AcDbSpline
 70
8
 71
3
 72
8
 73
4
 74
0
 40
0
 40
0
 40
0
 40
0
 40
1
 40
1
 40
1
 40
1
 10
159.629495
 20
46.619349
 30
0.0
 10
159.598947
 20
46.515262
 30
0.0
 10
159.579431
 20
46.401275
 30
0.0
 10
159.570946
 20
46.277389
 30
0.0
  0
LINE
  5
2ae
100
AcDbEntity
  8
Drawing1
 62
7
100
AcDbLine
 10
159.570946
 20
46.277389
 30
0.0
 11
159.413967
 21
46.277389
 31
0.0
  0
SPLINE
  5
2af
100
AcDbEntity
  8
Drawing1
 62
7
100
AcDbSpline
 70
8
 71
3
 72
8
 73
4
 74
0
 40
0
 40
0
 40
0
 40
0
 40
1
 40
1
 40
1
 40
1
 10
159.413967
 20
46.277389
 30
0.0
 10
159.415664
 20
46.375253
 30
0.0
 10
159.434897
 20
46.493483
 30
0.0
 10
159.471667
 20
46.632077
 30
0.0
  0
SPLINE
  5
2b0
100
AcDbEntity
  8
Drawing1
 62
7
100
AcDbSpline
 70
8
 71
3
 72
8
 73
4
 74
0
 40
0
 40
0
 40
0
 40
0
 40
1
 40
1
 40
1
 40
1
 10
159.471667
 20
46.632077
 30
0.0
 10
159.508437
 20
46.770671
 30
0.0
 10
159.561187
 20
46.904316
 30
0.0
 10
159.629919
 20
47.033011
 30
0.0
  0
SPLINE
  5
2b1
100
AcDbEntity
  8
Drawing1
 62
7
100
AcDbSpline
 70
8
 71
3
 72
8
 73
4
 74
0
 40
0
 40
0
 40
0
 40
0
 40
1
 40
1
 40
1
 40
1
 10
159.629919
 20
47.033011
 30
0.0
 10
159.698650
 20
47.161705
 30
0.0
 10
159.771766
 20
47.270177
 30
0.0
 10
159.849266
 20
47.358425
 30
0.0
  0
LINE
  5
2b2
100
AcDbEntity
  8
Drawing1
 62
7
100
AcDbLine
 10
159.849266
 20
47.358425
 30
0.0
 11
159.240016
 21
47.358425
 31
0.0
  0
LINE
  5
2b3
100
AcDbEntity
  8
Drawing1
 62
7
100
AcDbLine
 10
160.613534
 20
46.277389
 30
0.0
 11
160.131565
 21
47.521345
 31
0.0
  0
LINE
  5
2b4
100
AcDbEntity
  8
Drawing1
 62
7
100
AcDbLine
 10
160.131565
 20
47.521345
 30
0.0
 11
160.309757
 21
47.521345
 31
0.0
  0
LINE
  5
2b5
100
AcDbEntity
  8
Drawing1
 62
7
100
AcDbLine
 10
160.309757
 20
47.521345
 30
0.0
 11
160.633050
 21
46.617652
 31
0.0
  0
SPLINE
  5
2b6
100
AcDbEntity
  8
Drawing1
 62
7
100
AcDbSpline
 70
8
 71
3
 72
8
 73
4
 74
0
 40
0
 40
0
 40
0
 40
0
 40
1
 40
1
 40
1
 40
1
 10
160.633050
 20
46.617652
 30
0.0
 10
160.659071
 20
46.545244
 30
0.0
 10
160.680850
 20
46.477361
 30
0.0
 10
160.698387
 20
46.414003
 30
0.0
  0
SPLINE
  5
2b7
100
AcDbEntity
  8
Drawing1
 62
7
100
AcDbSpline
 70
8
 71
3
 72
8
 73
4
 74
0
 40
0
 40
0
 40
0
 40
0
 40
1
 40
1
 40
1
 40
1
 10
160.698387
 20
46.414003
 30
0.0
 10
160.717620
 20
46.481886
 30
0.0
 10
160.739965
 20
46.549769
 30
0.0
 10
160.765422
 20
46.617652
 30
0.0
  0
LINE
  5
2b8
100
AcDbEntity
  8
Drawing1
 62
7
100
AcDbLine
 10
160.765422
 20
46.617652
 30
0.0
 11
161.101443
 21
47.521345
 31
0.0
  0
LINE
  5
2b9
100
AcDbEntity
  8
Drawing1
 62
7
100
AcDbLine
 10
161.101443
 20
47.521345
 30
0.0
 11
161.269453
 21
47.521345
 31
0.0
  0
LINE
  5
2ba
100
AcDbEntity
  8
Drawing1
 62
7
100
AcDbLine
 10
161.269453
 20
47.521345
 30
0.0
 11
160.782393
 21
46.277389
 31
0.0
  0
LINE
  5
2bb
100
AcDbEntity
  8
Drawing1
 62
7
100
AcDbLine
 10
160.782393
 20
46.277389
 30
0.0
 11
160.613534
 21
46.277389
 31
0.0
  0
LINE
  5
2bc
100
AcDbEntity
  8
Drawing1
 62
7
100
AcDbLine
 10
82.513045
 20
36.329056
 30
0.0
 11
82.360308
 21
36.329056
 31
0.0
  0
LINE
  5
2bd
100
AcDbEntity
  8
Drawing1
 62
7
100
AcDbLine
 10
82.360308
 20
36.329056
 30
0.0
 11
82.360308
 21
37.302328
 31
0.0
  0
SPLINE
  5
2be
100
AcDbEntity
  8
Drawing1
 62
7
100
AcDbSpline
 70
8
 71
3
 72
8
 73
4
 74
0
 40
0
 40
0
 40
0
 40
0
 40
1
 40
1
 40
1
 40
1
 10
82.360308
 20
37.302328
 30
0.0
 10
82.323538
 20
37.267254
 30
0.0
 10
82.275313
 20
37.232181
 30
0.0
 10
82.215633
 20
37.197109
 30
0.0
  0
SPLINE
  5
2bf
100
AcDbEntity
  8
Drawing1
 62
7
100
AcDbSpline
 70
8
 71
3
 72
8
 73
4
 74
0
 40
0
 40
0
 40
0
 40
0
 40
1
 40
1
 40
1
 40
1
 10
82.215633
 20
37.197109
 30
0.0
 10
82.155952
 20
37.162036
 30
0.0
 10
82.102353
 20
37.135731
 30
0.0
 10
82.054835
 20
37.118195
 30
0.0
  0
LINE
  5
2c0
100
AcDbEntity
  8
Drawing1
 62
7
100
AcDbLine
 10
82.054835
 20
37.118195
 30
0.0
 11
82.054835
 21
37.265841
 31
0.0
  0
SPLINE
  5
2c1
100
AcDbEntity
  8
Drawing1
 62
7
100
AcDbSpline
 70
8
 71
3
 72
8
 73
4
 74
0
 40
0
 40
0
 40
0
 40
0
 40
1
 40
1
 40
1
 40
1
 10
82.054835
 20
37.265841
 30
0.0
 10
82.140254
 20
37.306004
 30
0.0
 10
82.214925
 20
37.354653
 30
0.0
 10
82.278849
 20
37.411789
 30
0.0
  0
SPLINE
  5
2c2
100
AcDbEntity
  8
Drawing1
 62
7
100
AcDbSpline
 70
8
 71
3
 72
8
 73
4
 74
0
 40
0
 40
0
 40
0
 40
0
 40
1
 40
1
 40
1
 40
1
 10
82.278849
 20
37.411789
 30
0.0
 10
82.342771
 20
37.468923
 30
0.0
 10
82.388027
 20
37.524361
 30
0.0
 10
82.414615
 20
37.578103
 30
0.0
  0
LINE
  5
2c3
100
AcDbEntity
  8
Drawing1
 62
7
100
AcDbLine
 10
82.414615
 20
37.578103
 30
0.0
 11
82.513045
 21
37.578103
 31
0.0
  0
LINE
  5
2c4
100
AcDbEntity
  8
Drawing1
 62
7
100
AcDbLine
 10
82.513045
 20
37.578103
 30
0.0
 11
82.513045
 21
36.329056
 31
0.0
  0
LINE
  5
2c5
100
AcDbEntity
  8
Drawing1
 62
7
100
AcDbLine
 10
82.829285
 20
36.329056
 30
0.0
 11
83.307011
 21
37.573011
 31
0.0
  0
LINE
  5
2c6
100
AcDbEntity
  8
Drawing1
 62
7
100
AcDbLine
 10
83.307011
 20
37.573011
 30
0.0
 11
83.484356
 21
37.573011
 31
0.0
  0
LINE
  5
2c7
100
AcDbEntity
  8
Drawing1
 62
7
100
AcDbLine
 10
83.484356
 20
37.573011
 30
0.0
 11
83.993478
 21
36.329056
 31
0.0
  0
LINE
  5
2c8
100
AcDbEntity
  8
Drawing1
 62
7
100
AcDbLine
 10
83.993478
 20
36.329056
 30
0.0
 11
83.805951
 21
36.329056
 31
0.0
  0
LINE
  5
2c9
100
AcDbEntity
  8
Drawing1
 62
7
100
AcDbLine
 10
83.805951
 20
36.329056
 30
0.0
 11
83.660851
 21
36.705806
 31
0.0
  0
LINE
  5
2ca
100
AcDbEntity
  8
Drawing1
 62
7
100
AcDbLine
 10
83.660851
 20
36.705806
 30
0.0
 11
83.140698
 21
36.705806
 31
0.0
  0
LINE
  5
2cb
100
AcDbEntity
  8
Drawing1
 62
7
100
AcDbLine
 10
83.140698
 20
36.705806
 30
0.0
 11
83.004083
 21
36.329056
 31
0.0
  0
LINE
  5
2cc
100
AcDbEntity
  8
Drawing1
 62
7
100
AcDbLine
 10
83.004083
 20
36.329056
 30
0.0
 11
82.829285
 21
36.329056
 31
0.0
  0
LINE
  5
2cd
100
AcDbEntity
  8
Drawing1
 62
7
100
AcDbLine
 10
83.188216
 20
36.839875
 30
0.0
 11
83.609939
 21
36.839875
 31
0.0
  0
LINE
  5
2ce
100
AcDbEntity
  8
Drawing1
 62
7
100
AcDbLine
 10
83.609939
 20
36.839875
 30
0.0
 11
83.480113
 21
37.184381
 31
0.0
  0
SPLINE
  5
2cf
100
AcDbEntity
  8
Drawing1
 62
7
100
AcDbSpline
 70
8
 71
3
 72
8
 73
4
 74
0
 40
0
 40
0
 40
0
 40
0
 40
1
 40
1
 40
1
 40
1
 10
83.480113
 20
37.184381
 30
0.0
 10
83.440514
 20
37.289033
 30
0.0
 10
83.411098
 20
37.375018
 30
0.0
 10
83.391865
 20
37.442337
 30
0.0
  0
SPLINE
  5
2d0
100
AcDbEntity
  8
Drawing1
 62
7
100
AcDbSpline
 70
8
 71
3
 72
8
 73
4
 74
0
 40
0
 40
0
 40
0
 40
0
 40
1
 40
1
 40
1
 40
1
 10
83.391865
 20
37.442337
 30
0.0
 10
83.376025
 20
37.362573
 30
0.0
 10
83.353680
 20
37.283376
 30
0.0
 10
83.324831
 20
37.204746
 30
0.0
  0
LINE
  5
2d1
100
AcDbEntity
  8
Drawing1
 62
7
100
AcDbLine
 10
83.324831
 20
37.204746
 30
0.0
 11
83.188216
 21
36.839875
 31
0.0
  0
LINE
  5
2d2
100
AcDbEntity
  8
Drawing1
 62
7
100
AcDbLine
 10
100.864545
 20
36.329056
 30
0.0
 11
100.711808
 21
36.329056
 31
0.0
  0
LINE
  5
2d3
100
AcDbEntity
  8
Drawing1
 62
7
100
AcDbLine
 10
100.711808
 20
36.329056
 30
0.0
 11
100.711808
 21
37.302328
 31
0.0
  0
SPLINE
  5
2d4
100
AcDbEntity
  8
Drawing1
 62
7
100
AcDbSpline
 70
8
 71
3
 72
8
 73
4
 74
0
 40
0
 40
0
 40
0
 40
0
 40
1
 40
1
 40
1
 40
1
 10
100.711808
 20
37.302328
 30
0.0
 10
100.675038
 20
37.267254
 30
0.0
 10
100.626813
 20
37.232181
 30
0.0
 10
100.567133
 20
37.197109
 30
0.0
  0
SPLINE
  5
2d5
100
AcDbEntity
  8
Drawing1
 62
7
100
AcDbSpline
 70
8
 71
3
 72
8
 73
4
 74
0
 40
0
 40
0
 40
0
 40
0
 40
1
 40
1
 40
1
 40
1
 10
100.567133
 20
37.197109
 30
0.0
 10
100.507452
 20
37.162036
 30
0.0
 10
100.453853
 20
37.135731
 30
0.0
 10
100.406335
 20
37.118195
 30
0.0
  0
LINE
  5
2d6
100
AcDbEntity
  8
Drawing1
 62
7
100
AcDbLine
 10
100.406335
 20
37.118195
 30
0.0
 11
100.406335
 21
37.265841
 31
0.0
  0
SPLINE
  5
2d7
100
AcDbEntity
  8
Drawing1
 62
7
100
AcDbSpline
 70
8
 71
3
 72
8
 73
4
 74
0
 40
0
 40
0
 40
0
 40
0
 40
1
 40
1
 40
1
 40
1
 10
100.406335
 20
37.265841
 30
0.0
 10
100.491754
 20
37.306004
 30
0.0
 10
100.566425
 20
37.354653
 30
0.0
 10
100.630349
 20
37.411789
 30
0.0
  0
SPLINE
  5
2d8
100
AcDbEntity
  8
Drawing1
 62
7
100
AcDbSpline
 70
8
 71
3
 72
8
 73
4
 74
0
 40
0
 40
0
 40
0
 40
0
 40
1
 40
1
 40
1
 40
1
 10
100.630349
 20
37.411789
 30
0.0
 10
100.694271
 20
37.468923
 30
0.0
 10
100.739527
 20
37.524361
 30
0.0
 10
100.766115
 20
37.578103
 30
0.0
  0
LINE
  5
2d9
100
AcDbEntity
  8
Drawing1
 62
7
100
AcDbLine
 10
100.766115
 20
37.578103
 30
0.0
 11
100.864545
 21
37.578103
 31
0.0
  0
LINE
  5
2da
100
AcDbEntity
  8
Drawing1
 62
7
100
AcDbLine
 10
100.864545
 20
37.578103
 30
0.0
 11
100.864545
 21
36.329056
 31
0.0
  0
LINE
  5
2db
100
AcDbEntity
  8
Drawing1
 62
7
100
AcDbLine
 10
101.745062
 20
36.329056
 30
0.0
 11
101.745062
 21
36.626892
 31
0.0
  0
LINE
  5
2dc
100
AcDbEntity
  8
Drawing1
 62
7
100
AcDbLine
 10
101.745062
 20
36.626892
 30
0.0
 11
101.205392
 21
36.626892
 31
0.0
  0
LINE
  5
2dd
100
AcDbEntity
  8
Drawing1
 62
7
100
AcDbLine
 10
101.205392
 20
36.626892
 30
0.0
 11
101.205392
 21
36.766901
 31
0.0
  0
LINE
  5
2de
100
AcDbEntity
  8
Drawing1
 62
7
100
AcDbLine
 10
101.205392
 20
36.766901
 30
0.0
 11
101.773064
 21
37.573011
 31
0.0
  0
LINE
  5
2df
100
AcDbEntity
  8
Drawing1
 62
7
100
AcDbLine
 10
101.773064
 20
37.573011
 30
0.0
 11
101.897799
 21
37.573011
 31
0.0
  0
LINE
  5
2e0
100
AcDbEntity
  8
Drawing1
 62
7
100
AcDbLine
 10
101.897799
 20
37.573011
 30
0.0
 11
101.897799
 21
36.766901
 31
0.0
  0
LINE
  5
2e1
100
AcDbEntity
  8
Drawing1
 62
7
100
AcDbLine
 10
101.897799
 20
36.766901
 30
0.0
 11
102.065809
 21
36.766901
 31
0.0
  0
LINE
  5
2e2
100
AcDbEntity
  8
Drawing1
 62
7
100
AcDbLine
 10
102.065809
 20
36.766901
 30
0.0
 11
102.065809
 21
36.626892
 31
0.0
  0
LINE
  5
2e3
100
AcDbEntity
  8
Drawing1
 62
7
100
AcDbLine
 10
102.065809
 20
36.626892
 30
0.0
 11
101.897799
 21
36.626892
 31
0.0
  0
LINE
  5
2e4
100
AcDbEntity
  8
Drawing1
 62
7
100
AcDbLine
 10
101.897799
 20
36.626892
 30
0.0
 11
101.897799
 21
36.329056
 31
0.0
  0
LINE
  5
2e5
100
AcDbEntity
  8
Drawing1
 62
7
100
AcDbLine
 10
101.897799
 20
36.329056
 30
0.0
 11
101.745062
 21
36.329056
 31
0.0
  0
LINE
  5
2e6
100
AcDbEntity
  8
Drawing1
 62
7
100
AcDbLine
 10
101.745062
 20
36.766901
 30
0.0
 11
101.745062
 21
37.327784
 31
0.0
  0
LINE
  5
2e7
100
AcDbEntity
  8
Drawing1
 62
7
100
AcDbLine
 10
101.745062
 20
37.327784
 30
0.0
 11
101.355583
 21
36.766901
 31
0.0
  0
LINE
  5
2e8
100
AcDbEntity
  8
Drawing1
 62
7
100
AcDbLine
 10
101.355583
 20
36.766901
 30
0.0
 11
101.745062
 21
36.766901
 31
0.0
  0
LINE
  5
2e9
100
AcDbEntity
  8
Drawing1
 62
7
100
AcDbLine
 10
102.147004
 20
36.329056
 30
0.0
 11
102.624731
 21
37.573011
 31
0.0
  0
LINE
  5
2ea
100
AcDbEntity
  8
Drawing1
 62
7
100
AcDbLine
 10
102.624731
 20
37.573011
 30
0.0
 11
102.802075
 21
37.573011
 31
0.0
  0
LINE
  5
2eb
100
AcDbEntity
  8
Drawing1
 62
7
100
AcDbLine
 10
102.802075
 20
37.573011
 30
0.0
 11
103.311197
 21
36.329056
 31
0.0
  0
LINE
  5
2ec
100
AcDbEntity
  8
Drawing1
 62
7
100
AcDbLine
 10
103.311197
 20
36.329056
 30
0.0
 11
103.123671
 21
36.329056
 31
0.0
  0
LINE
  5
2ed
100
AcDbEntity
  8
Drawing1
 62
7
100
AcDbLine
 10
103.123671
 20
36.329056
 30
0.0
 11
102.978571
 21
36.705806
 31
0.0
  0
LINE
  5
2ee
100
AcDbEntity
  8
Drawing1
 62
7
100
AcDbLine
 10
102.978571
 20
36.705806
 30
0.0
 11
102.458417
 21
36.705806
 31
0.0
  0
LINE
  5
2ef
100
AcDbEntity
  8
Drawing1
 62
7
100
AcDbLine
 10
102.458417
 20
36.705806
 30
0.0
 11
102.321803
 21
36.329056
 31
0.0
  0
LINE
  5
2f0
100
AcDbEntity
  8
Drawing1
 62
7
100
AcDbLine
 10
102.321803
 20
36.329056
 30
0.0
 11
102.147004
 21
36.329056
 31
0.0
  0
LINE
  5
2f1
100
AcDbEntity
  8
Drawing1
 62
7
100
AcDbLine
 10
102.505935
 20
36.839875
 30
0.0
 11
102.927658
 21
36.839875
 31
0.0
  0
LINE
  5
2f2
100
AcDbEntity
  8
Drawing1
 62
7
100
AcDbLine
 10
102.927658
 20
36.839875
 30
0.0
 11
102.797832
 21
37.184381
 31
0.0
  0
SPLINE
  5
2f3
100
AcDbEntity
  8
Drawing1
 62
7
100
AcDbSpline
 70
8
 71
3
 72
8
 73
4
 74
0
 40
0
 40
0
 40
0
 40
0
 40
1
 40
1
 40
1
 40
1
 10
102.797832
 20
37.184381
 30
0.0
 10
102.758233
 20
37.289033
 30
0.0
 10
102.728817
 20
37.375018
 30
0.0
 10
102.709584
 20
37.442337
 30
0.0
  0
SPLINE
  5
2f4
100
AcDbEntity
  8
Drawing1
 62
7
100
AcDbSpline
 70
8
 71
3
 72
8
 73
4
 74
0
 40
0
 40
0
 40
0
 40
0
 40
1
 40
1
 40
1
 40
1
 10
102.709584
 20
37.442337
 30
0.0
 10
102.693744
 20
37.362573
 30
0.0
 10
102.671400
 20
37.283376
 30
0.0
 10
102.642550
 20
37.204746
 30
0.0
  0
LINE
  5
2f5
100
AcDbEntity
  8
Drawing1
 62
7
100
AcDbLine
 10
102.642550
 20
37.204746
 30
0.0
 11
102.505935
 21
36.839875
 31
0.0
  0
LINE
  5
2f6
100
AcDbEntity
  8
Drawing1
 62
7
100
AcDbLine
 10
110.770545
 20
36.329056
 30
0.0
 11
110.617808
 21
36.329056
 31
0.0
  0
LINE
  5
2f7
100
AcDbEntity
  8
Drawing1
 62
7
100
AcDbLine
 10
110.617808
 20
36.329056
 30
0.0
 11
110.617808
 21
37.302328
 31
0.0
  0
SPLINE
  5
2f8
100
AcDbEntity
  8
Drawing1
 62
7
100
AcDbSpline
 70
8
 71
3
 72
8
 73
4
 74
0
 40
0
 40
0
 40
0
 40
0
 40
1
 40
1
 40
1
 40
1
 10
110.617808
 20
37.302328
 30
0.0
 10
110.581038
 20
37.267254
 30
0.0
 10
110.532813
 20
37.232181
 30
0.0
 10
110.473133
 20
37.197109
 30
0.0
  0
SPLINE
  5
2f9
100
AcDbEntity
  8
Drawing1
 62
7
100
AcDbSpline
 70
8
 71
3
 72
8
 73
4
 74
0
 40
0
 40
0
 40
0
 40
0
 40
1
 40
1
 40
1
 40
1
 10
110.473133
 20
37.197109
 30
0.0
 10
110.413452
 20
37.162036
 30
0.0
 10
110.359853
 20
37.135731
 30
0.0
 10
110.312335
 20
37.118195
 30
0.0
  0
LINE
  5
2fa
100
AcDbEntity
  8
Drawing1
 62
7
100
AcDbLine
 10
110.312335
 20
37.118195
 30
0.0
 11
110.312335
 21
37.265841
 31
0.0
  0
SPLINE
  5
2fb
100
AcDbEntity
  8
Drawing1
 62
7
100
AcDbSpline
 70
8
 71
3
 72
8
 73
4
 74
0
 40
0
 40
0
 40
0
 40
0
 40
1
 40
1
 40
1
 40
1
 10
110.312335
 20
37.265841
 30
0.0
 10
110.397754
 20
37.306004
 30
0.0
 10
110.472425
 20
37.354653
 30
0.0
 10
110.536349
 20
37.411789
 30
0.0
  0
SPLINE
  5
2fc
100
AcDbEntity
  8
Drawing1
 62
7
100
AcDbSpline
 70
8
 71
3
 72
8
 73
4
 74
0
 40
0
 40
0
 40
0
 40
0
 40
1
 40
1
 40
1
 40
1
 10
110.536349
 20
37.411789
 30
0.0
 10
110.600271
 20
37.468923
 30
0.0
 10
110.645527
 20
37.524361
 30
0.0
 10
110.672115
 20
37.578103
 30
0.0
  0
LINE
  5
2fd
100
AcDbEntity
  8
Drawing1
 62
7
100
AcDbLine
 10
110.672115
 20
37.578103
 30
0.0
 11
110.770545
 21
37.578103
 31
0.0
  0
LINE
  5
2fe
100
AcDbEntity
  8
Drawing1
 62
7
100
AcDbLine
 10
110.770545
 20
37.578103
 30
0.0
 11
110.770545
 21
36.329056
 31
0.0
  0
LINE
  5
2ff
100
AcDbEntity
  8
Drawing1
 62
7
100
AcDbLine
 10
111.086785
 20
36.329056
 30
0.0
 11
111.564511
 21
37.573011
 31
0.0
  0
LINE
  5
300
100
AcDbEntity
  8
Drawing1
 62
7
100
AcDbLine
 10
111.564511
 20
37.573011
 30
0.0
 11
111.741856
 21
37.573011
 31
0.0
  0
LINE
  5
301
100
AcDbEntity
  8
Drawing1
 62
7
100
AcDbLine
 10
111.741856
 20
37.573011
 30
0.0
 11
112.250978
 21
36.329056
 31
0.0
  0
LINE
  5
302
100
AcDbEntity
  8
Drawing1
 62
7
100
AcDbLine
 10
112.250978
 20
36.329056
 30
0.0
 11
112.063451
 21
36.329056
 31
0.0
  0
LINE
  5
303
100
AcDbEntity
  8
Drawing1
 62
7
100
AcDbLine
 10
112.063451
 20
36.329056
 30
0.0
 11
111.918351
 21
36.705806
 31
0.0
  0
LINE
  5
304
100
AcDbEntity
  8
Drawing1
 62
7
100
AcDbLine
 10
111.918351
 20
36.705806
 30
0.0
 11
111.398198
 21
36.705806
 31
0.0
  0
LINE
  5
305
100
AcDbEntity
  8
Drawing1
 62
7
100
AcDbLine
 10
111.398198
 20
36.705806
 30
0.0
 11
111.261583
 21
36.329056
 31
0.0
  0
LINE
  5
306
100
AcDbEntity
  8
Drawing1
 62
7
100
AcDbLine
 10
111.261583
 20
36.329056
 30
0.0
 11
111.086785
 21
36.329056
 31
0.0
  0
LINE
  5
307
100
AcDbEntity
  8
Drawing1
 62
7
100
AcDbLine
 10
111.445716
 20
36.839875
 30
0.0
 11
111.867439
 21
36.839875
 31
0.0
  0
LINE
  5
308
100
AcDbEntity
  8
Drawing1
 62
7
100
AcDbLine
 10
111.867439
 20
36.839875
 30
0.0
 11
111.737613
 21
37.184381
 31
0.0
  0
SPLINE
  5
309
100
AcDbEntity
  8
Drawing1
 62
7
100
AcDbSpline
 70
8
 71
3
 72
8
 73
4
 74
0
 40
0
 40
0
 40
0
 40
0
 40
1
 40
1
 40
1
 40
1
 10
111.737613
 20
37.184381
 30
0.0
 10
111.698014
 20
37.289033
 30
0.0
 10
111.668598
 20
37.375018
 30
0.0
 10
111.649365
 20
37.442337
 30
0.0
  0
SPLINE
  5
30a
100
AcDbEntity
  8
Drawing1
 62
7
100
AcDbSpline
 70
8
 71
3
 72
8
 73
4
 74
0
 40
0
 40
0
 40
0
 40
0
 40
1
 40
1
 40
1
 40
1
 10
111.649365
 20
37.442337
 30
0.0
 10
111.633525
 20
37.362573
 30
0.0
 10
111.611180
 20
37.283376
 30
0.0
 10
111.582331
 20
37.204746
 30
0.0
  0
LINE
  5
30b
100
AcDbEntity
  8
Drawing1
 62
7
100
AcDbLine
 10
111.582331
 20
37.204746
 30
0.0
 11
111.445716
 21
36.839875
 31
0.0
  0
LINE
  5
30c
100
AcDbEntity
  8
Drawing1
 62
7
100
AcDbLine
 10
120.438286
 20
36.475853
 30
0.0
 11
120.438286
 21
36.329056
 31
0.0
  0
LINE
  5
30d
100
AcDbEntity
  8
Drawing1
 62
7
100
AcDbLine
 10
120.438286
 20
36.329056
 30
0.0
 11
119.616054
 21
36.329056
 31
0.0
  0
SPLINE
  5
30e
100
AcDbEntity
  8
Drawing1
 62
7
100
AcDbSpline
 70
8
 71
3
 72
8
 73
4
 74
0
 40
0
 40
0
 40
0
 40
0
 40
1
 40
1
 40
1
 40
1
 10
119.616054
 20
36.329056
 30
0.0
 10
119.614922
 20
36.365825
 30
0.0
 10
119.620862
 20
36.401181
 30
0.0
 10
119.633873
 20
36.435123
 30
0.0
  0
SPLINE
  5
30f
100
AcDbEntity
  8
Drawing1
 62
7
100
AcDbSpline
 70
8
 71
3
 72
8
 73
4
 74
0
 40
0
 40
0
 40
0
 40
0
 40
1
 40
1
 40
1
 40
1
 10
119.633873
 20
36.435123
 30
0.0
 10
119.654804
 20
36.491126
 30
0.0
 10
119.688321
 20
36.546281
 30
0.0
 10
119.734425
 20
36.600588
 30
0.0
  0
SPLINE
  5
310
100
AcDbEntity
  8
Drawing1
 62
7
100
AcDbSpline
 70
8
 71
3
 72
8
 73
4
 74
0
 40
0
 40
0
 40
0
 40
0
 40
1
 40
1
 40
1
 40
1
 10
119.734425
 20
36.600588
 30
0.0
 10
119.780528
 20
36.654894
 30
0.0
 10
119.847138
 20
36.717685
 30
0.0
 10
119.934255
 20
36.788963
 30
0.0
  0
SPLINE
  5
311
100
AcDbEntity
  8
Drawing1
 62
7
100
AcDbSpline
 70
8
 71
3
 72
8
 73
4
 74
0
 40
0
 40
0
 40
0
 40
0
 40
1
 40
1
 40
1
 40
1
 10
119.934255
 20
36.788963
 30
0.0
 10
120.069455
 20
36.899838
 30
0.0
 10
120.160814
 20
36.987661
 30
0.0
 10
120.208333
 20
37.052434
 30
0.0
  0
SPLINE
  5
312
100
AcDbEntity
  8
Drawing1
 62
7
100
AcDbSpline
 70
8
 71
3
 72
8
 73
4
 74
0
 40
0
 40
0
 40
0
 40
0
 40
1
 40
1
 40
1
 40
1
 10
120.208333
 20
37.052434
 30
0.0
 10
120.255850
 20
37.117205
 30
0.0
 10
120.279609
 20
37.178441
 30
0.0
 10
120.279610
 20
37.236142
 30
0.0
  0
SPLINE
  5
313
100
AcDbEntity
  8
Drawing1
 62
7
100
AcDbSpline
 70
8
 71
3
 72
8
 73
4
 74
0
 40
0
 40
0
 40
0
 40
0
 40
1
 40
1
 40
1
 40
1
 10
120.279610
 20
37.236142
 30
0.0
 10
120.279609
 20
37.296670
 30
0.0
 10
120.257972
 20
37.347724
 30
0.0
 10
120.214697
 20
37.389303
 30
0.0
  0
SPLINE
  5
314
100
AcDbEntity
  8
Drawing1
 62
7
100
AcDbSpline
 70
8
 71
3
 72
8
 73
4
 74
0
 40
0
 40
0
 40
0
 40
0
 40
1
 40
1
 40
1
 40
1
 10
120.214697
 20
37.389303
 30
0.0
 10
120.171421
 20
37.430880
 30
0.0
 10
120.114993
 20
37.451669
 30
0.0
 10
120.045414
 20
37.451670
 30
0.0
  0
SPLINE
  5
315
100
AcDbEntity
  8
Drawing1
 62
7
100
AcDbSpline
 70
8
 71
3
 72
8
 73
4
 74
0
 40
0
 40
0
 40
0
 40
0
 40
1
 40
1
 40
1
 40
1
 10
120.045414
 20
37.451670
 30
0.0
 10
119.971873
 20
37.451669
 30
0.0
 10
119.913041
 20
37.429607
 30
0.0
 10
119.868918
 20
37.385485
 30
0.0
  0
SPLINE
  5
316
100
AcDbEntity
  8
Drawing1
 62
7
100
AcDbSpline
 70
8
 71
3
 72
8
 73
4
 74
0
 40
0
 40
0
 40
0
 40
0
 40
1
 40
1
 40
1
 40
1
 10
119.868918
 20
37.385485
 30
0.0
 10
119.824794
 20
37.341360
 30
0.0
 10
119.802449
 20
37.280265
 30
0.0
 10
119.801883
 20
37.202200
 30
0.0
  0
LINE
  5
317
100
AcDbEntity
  8
Drawing1
 62
7
100
AcDbLine
 10
119.801883
 20
37.202200
 30
0.0
 11
119.644904
 21
37.218323
 31
0.0
  0
SPLINE
  5
318
100
AcDbEntity
  8
Drawing1
 62
7
100
AcDbSpline
 70
8
 71
3
 72
8
 73
4
 74
0
 40
0
 40
0
 40
0
 40
0
 40
1
 40
1
 40
1
 40
1
 10
119.644904
 20
37.218323
 30
0.0
 10
119.655652
 20
37.335420
 30
0.0
 10
119.696099
 20
37.424658
 30
0.0
 10
119.766245
 20
37.486036
 30
0.0
  0
SPLINE
  5
319
100
AcDbEntity
  8
Drawing1
 62
7
100
AcDbSpline
 70
8
 71
3
 72
8
 73
4
 74
0
 40
0
 40
0
 40
0
 40
0
 40
1
 40
1
 40
1
 40
1
 10
119.766245
 20
37.486036
 30
0.0
 10
119.836390
 20
37.547413
 30
0.0
 10
119.930578
 20
37.578101
 30
0.0
 10
120.048808
 20
37.578103
 30
0.0
  0
SPLINE
  5
31a
100
AcDbEntity
  8
Drawing1
 62
7
100
AcDbSpline
 70
8
 71
3
 72
8
 73
4
 74
0
 40
0
 40
0
 40
0
 40
0
 40
1
 40
1
 40
1
 40
1
 10
120.048808
 20
37.578103
 30
0.0
 10
120.168168
 20
37.578101
 30
0.0
 10
120.262638
 20
37.545008
 30
0.0
 10
120.332219
 20
37.478824
 30
0.0
  0
SPLINE
  5
31b
100
AcDbEntity
  8
Drawing1
 62
7
100
AcDbSpline
 70
8
 71
3
 72
8
 73
4
 74
0
 40
0
 40
0
 40
0
 40
0
 40
1
 40
1
 40
1
 40
1
 10
120.332219
 20
37.478824
 30
0.0
 10
120.401798
 20
37.412637
 30
0.0
 10
120.436588
 20
37.330611
 30
0.0
 10
120.436589
 20
37.232748
 30
0.0
  0
SPLINE
  5
31c
100
AcDbEntity
  8
Drawing1
 62
7
100
AcDbSpline
 70
8
 71
3
 72
8
 73
4
 74
0
 40
0
 40
0
 40
0
 40
0
 40
1
 40
1
 40
1
 40
1
 10
120.436589
 20
37.232748
 30
0.0
 10
120.436588
 20
37.182966
 30
0.0
 10
120.426406
 20
37.134034
 30
0.0
 10
120.406042
 20
37.085951
 30
0.0
  0
SPLINE
  5
31d
100
AcDbEntity
  8
Drawing1
 62
7
100
AcDbSpline
 70
8
 71
3
 72
8
 73
4
 74
0
 40
0
 40
0
 40
0
 40
0
 40
1
 40
1
 40
1
 40
1
 10
120.406042
 20
37.085951
 30
0.0
 10
120.385676
 20
37.037866
 30
0.0
 10
120.351876
 20
36.987237
 30
0.0
 10
120.304642
 20
36.934063
 30
0.0
  0
SPLINE
  5
31e
100
AcDbEntity
  8
Drawing1
 62
7
100
AcDbSpline
 70
8
 71
3
 72
8
 73
4
 74
0
 40
0
 40
0
 40
0
 40
0
 40
1
 40
1
 40
1
 40
1
 10
120.304642
 20
36.934063
 30
0.0
 10
120.257406
 20
36.880887
 30
0.0
 10
120.178916
 20
36.807913
 30
0.0
 10
120.069173
 20
36.715140
 30
0.0
  0
SPLINE
  5
31f
100
AcDbEntity
  8
Drawing1
 62
7
100
AcDbSpline
 70
8
 71
3
 72
8
 73
4
 74
0
 40
0
 40
0
 40
0
 40
0
 40
1
 40
1
 40
1
 40
1
 10
120.069173
 20
36.715140
 30
0.0
 10
119.977530
 20
36.638206
 30
0.0
 10
119.918698
 20
36.586021
 30
0.0
 10
119.892677
 20
36.558585
 30
0.0
  0
SPLINE
  5
320
100
AcDbEntity
  8
Drawing1
 62
7
100
AcDbSpline
 70
8
 71
3
 72
8
 73
4
 74
0
 40
0
 40
0
 40
0
 40
0
 40
1
 40
1
 40
1
 40
1
 10
119.892677
 20
36.558585
 30
0.0
 10
119.866655
 20
36.531149
 30
0.0
 10
119.845159
 20
36.503571
 30
0.0
 10
119.828188
 20
36.475853
 30
0.0
  0
LINE
  5
321
100
AcDbEntity
  8
Drawing1
 62
7
100
AcDbLine
 10
119.828188
 20
36.475853
 30
0.0
 11
120.438286
 21
36.475853
 31
0.0
  0
LINE
  5
322
100
AcDbEntity
  8
Drawing1
 62
7
100
AcDbLine
 10
120.527118
 20
36.329056
 30
0.0
 11
121.004845
 21
37.573011
 31
0.0
  0
LINE
  5
323
100
AcDbEntity
  8
Drawing1
 62
7
100
AcDbLine
 10
121.004845
 20
37.573011
 30
0.0
 11
121.182189
 21
37.573011
 31
0.0
  0
LINE
  5
324
100
AcDbEntity
  8
Drawing1
 62
7
100
AcDbLine
 10
121.182189
 20
37.573011
 30
0.0
 11
121.691311
 21
36.329056
 31
0.0
  0
LINE
  5
325
100
AcDbEntity
  8
Drawing1
 62
7
100
AcDbLine
 10
121.691311
 20
36.329056
 30
0.0
 11
121.503785
 21
36.329056
 31
0.0
  0
LINE
  5
326
100
AcDbEntity
  8
Drawing1
 62
7
100
AcDbLine
 10
121.503785
 20
36.329056
 30
0.0
 11
121.358685
 21
36.705806
 31
0.0
  0
LINE
  5
327
100
AcDbEntity
  8
Drawing1
 62
7
100
AcDbLine
 10
121.358685
 20
36.705806
 30
0.0
 11
120.838531
 21
36.705806
 31
0.0
  0
LINE
  5
328
100
AcDbEntity
  8
Drawing1
 62
7
100
AcDbLine
 10
120.838531
 20
36.705806
 30
0.0
 11
120.701917
 21
36.329056
 31
0.0
  0
LINE
  5
329
100
AcDbEntity
  8
Drawing1
 62
7
100
AcDbLine
 10
120.701917
 20
36.329056
 30
0.0
 11
120.527118
 21
36.329056
 31
0.0
  0
LINE
  5
32a
100
AcDbEntity
  8
Drawing1
 62
7
100
AcDbLine
 10
120.886049
 20
36.839875
 30
0.0
 11
121.307772
 21
36.839875
 31
0.0
  0
LINE
  5
32b
100
AcDbEntity
  8
Drawing1
 62
7
100
AcDbLine
 10
121.307772
 20
36.839875
 30
0.0
 11
121.177946
 21
37.184381
 31
0.0
  0
SPLINE
  5
32c
100
AcDbEntity
  8
Drawing1
 62
7
100
AcDbSpline
 70
8
 71
3
 72
8
 73
4
 74
0
 40
0
 40
0
 40
0
 40
0
 40
1
 40
1
 40
1
 40
1
 10
121.177946
 20
37.184381
 30
0.0
 10
121.138347
 20
37.289033
 30
0.0
 10
121.108931
 20
37.375018
 30
0.0
 10
121.089698
 20
37.442337
 30
0.0
  0
SPLINE
  5
32d
100
AcDbEntity
  8
Drawing1
 62
7
100
AcDbSpline
 70
8
 71
3
 72
8
 73
4
 74
0
 40
0
 40
0
 40
0
 40
0
 40
1
 40
1
 40
1
 40
1
 10
121.089698
 20
37.442337
 30
0.0
 10
121.073858
 20
37.362573
 30
0.0
 10
121.051514
 20
37.283376
 30
0.0
 10
121.022664
 20
37.204746
 30
0.0
  0
LINE
  5
32e
100
AcDbEntity
  8
Drawing1
 62
7
100
AcDbLine
 10
121.022664
 20
37.204746
 30
0.0
 11
120.886049
 21
36.839875
 31
0.0
  0
LINE
  5
32f
100
AcDbEntity
  8
Drawing1
 62
7
100
AcDbLine
 10
158.051453
 20
36.475853
 30
0.0
 11
158.051453
 21
36.329056
 31
0.0
  0
LINE
  5
330
100
AcDbEntity
  8
Drawing1
 62
7
100
AcDbLine
 10
158.051453
 20
36.329056
 30
0.0
 11
157.229220
 21
36.329056
 31
0.0
  0
SPLINE
  5
331
100
AcDbEntity
  8
Drawing1
 62
7
100
AcDbSpline
 70
8
 71
3
 72
8
 73
4
 74
0
 40
0
 40
0
 40
0
 40
0
 40
1
 40
1
 40
1
 40
1
 10
157.229220
 20
36.329056
 30
0.0
 10
157.228089
 20
36.365825
 30
0.0
 10
157.234029
 20
36.401181
 30
0.0
 10
157.247040
 20
36.435123
 30
0.0
  0
SPLINE
  5
332
100
AcDbEntity
  8
Drawing1
 62
7
100
AcDbSpline
 70
8
 71
3
 72
8
 73
4
 74
0
 40
0
 40
0
 40
0
 40
0
 40
1
 40
1
 40
1
 40
1
 10
157.247040
 20
36.435123
 30
0.0
 10
157.267970
 20
36.491126
 30
0.0
 10
157.301487
 20
36.546281
 30
0.0
 10
157.347591
 20
36.600588
 30
0.0
  0
SPLINE
  5
333
100
AcDbEntity
  8
Drawing1
 62
7
100
AcDbSpline
 70
8
 71
3
 72
8
 73
4
 74
0
 40
0
 40
0
 40
0
 40
0
 40
1
 40
1
 40
1
 40
1
 10
157.347591
 20
36.600588
 30
0.0
 10
157.393695
 20
36.654894
 30
0.0
 10
157.460305
 20
36.717685
 30
0.0
 10
157.547422
 20
36.788963
 30
0.0
  0
SPLINE
  5
334
100
AcDbEntity
  8
Drawing1
 62
7
100
AcDbSpline
 70
8
 71
3
 72
8
 73
4
 74
0
 40
0
 40
0
 40
0
 40
0
 40
1
 40
1
 40
1
 40
1
 10
157.547422
 20
36.788963
 30
0.0
 10
157.682622
 20
36.899838
 30
0.0
 10
157.773981
 20
36.987661
 30
0.0
 10
157.821499
 20
37.052434
 30
0.0
  0
SPLINE
  5
335
100
AcDbEntity
  8
Drawing1
 62
7
100
AcDbSpline
 70
8
 71
3
 72
8
 73
4
 74
0
 40
0
 40
0
 40
0
 40
0
 40
1
 40
1
 40
1
 40
1
 10
157.821499
 20
37.052434
 30
0.0
 10
157.869017
 20
37.117205
 30
0.0
 10
157.892776
 20
37.178441
 30
0.0
 10
157.892777
 20
37.236142
 30
0.0
  0
SPLINE
  5
336
100
AcDbEntity
  8
Drawing1
 62
7
100
AcDbSpline
 70
8
 71
3
 72
8
 73
4
 74
0
 40
0
 40
0
 40
0
 40
0
 40
1
 40
1
 40
1
 40
1
 10
157.892777
 20
37.236142
 30
0.0
 10
157.892776
 20
37.296670
 30
0.0
 10
157.871138
 20
37.347724
 30
0.0
 10
157.827864
 20
37.389303
 30
0.0
  0
SPLINE
  5
337
100
AcDbEntity
  8
Drawing1
 62
7
100
AcDbSpline
 70
8
 71
3
 72
8
 73
4
 74
0
 40
0
 40
0
 40
0
 40
0
 40
1
 40
1
 40
1
 40
1
 10
157.827864
 20
37.389303
 30
0.0
 10
157.784588
 20
37.430880
 30
0.0
 10
157.728160
 20
37.451669
 30
0.0
 10
157.658580
 20
37.451670
 30
0.0
  0
SPLINE
  5
338
100
AcDbEntity
  8
Drawing1
 62
7
100
AcDbSpline
 70
8
 71
3
 72
8
 73
4
 74
0
 40
0
 40
0
 40
0
 40
0
 40
1
 40
1
 40
1
 40
1
 10
157.658580
 20
37.451670
 30
0.0
 10
157.585040
 20
37.451669
 30
0.0
 10
157.526208
 20
37.429607
 30
0.0
 10
157.482085
 20
37.385485
 30
0.0
  0
SPLINE
  5
339
100
AcDbEntity
  8
Drawing1
 62
7
100
AcDbSpline
 70
8
 71
3
 72
8
 73
4
 74
0
 40
0
 40
0
 40
0
 40
0
 40
1
 40
1
 40
1
 40
1
 10
157.482085
 20
37.385485
 30
0.0
 10
157.437960
 20
37.341360
 30
0.0
 10
157.415616
 20
37.280265
 30
0.0
 10
157.415050
 20
37.202200
 30
0.0
  0
LINE
  5
33a
100
AcDbEntity
  8
Drawing1
 62
7
100
AcDbLine
 10
157.415050
 20
37.202200
 30
0.0
 11
157.258071
 21
37.218323
 31
0.0
  0
SPLINE
  5
33b
100
AcDbEntity
  8
Drawing1
 62
7
100
AcDbSpline
 70
8
 71
3
 72
8
 73
4
 74
0
 40
0
 40
0
 40
0
 40
0
 40
1
 40
1
 40
1
 40
1
 10
157.258071
 20
37.218323
 30
0.0
 10
157.268819
 20
37.335420
 30
0.0
 10
157.309266
 20
37.424658
 30
0.0
 10
157.379412
 20
37.486036
 30
0.0
  0
SPLINE
  5
33c
100
AcDbEntity
  8
Drawing1
 62
7
100
AcDbSpline
 70
8
 71
3
 72
8
 73
4
 74
0
 40
0
 40
0
 40
0
 40
0
 40
1
 40
1
 40
1
 40
1
 10
157.379412
 20
37.486036
 30
0.0
 10
157.449557
 20
37.547413
 30
0.0
 10
157.543745
 20
37.578101
 30
0.0
 10
157.661974
 20
37.578103
 30
0.0
  0
SPLINE
  5
33d
100
AcDbEntity
  8
Drawing1
 62
7
100
AcDbSpline
 70
8
 71
3
 72
8
 73
4
 74
0
 40
0
 40
0
 40
0
 40
0
 40
1
 40
1
 40
1
 40
1
 10
157.661974
 20
37.578103
 30
0.0
 10
157.781335
 20
37.578101
 30
0.0
 10
157.875805
 20
37.545008
 30
0.0
 10
157.945386
 20
37.478824
 30
0.0
  0
SPLINE
  5
33e
100
AcDbEntity
  8
Drawing1
 62
7
100
AcDbSpline
 70
8
 71
3
 72
8
 73
4
 74
0
 40
0
 40
0
 40
0
 40
0
 40
1
 40
1
 40
1
 40
1
 10
157.945386
 20
37.478824
 30
0.0
 10
158.014965
 20
37.412637
 30
0.0
 10
158.049755
 20
37.330611
 30
0.0
 10
158.049756
 20
37.232748
 30
0.0
  0
SPLINE
  5
33f
100
AcDbEntity
  8
Drawing1
 62
7
100
AcDbSpline
 70
8
 71
3
 72
8
 73
4
 74
0
 40
0
 40
0
 40
0
 40
0
 40
1
 40
1
 40
1
 40
1
 10
158.049756
 20
37.232748
 30
0.0
 10
158.049755
 20
37.182966
 30
0.0
 10
158.039573
 20
37.134034
 30
0.0
 10
158.019209
 20
37.085951
 30
0.0
  0
SPLINE
  5
340
100
AcDbEntity
  8
Drawing1
 62
7
100
AcDbSpline
 70
8
 71
3
 72
8
 73
4
 74
0
 40
0
 40
0
 40
0
 40
0
 40
1
 40
1
 40
1
 40
1
 10
158.019209
 20
37.085951
 30
0.0
 10
157.998843
 20
37.037866
 30
0.0
 10
157.965043
 20
36.987237
 30
0.0
 10
157.917808
 20
36.934063
 30
0.0
  0
SPLINE
  5
341
100
AcDbEntity
  8
Drawing1
 62
7
100
AcDbSpline
 70
8
 71
3
 72
8
 73
4
 74
0
 40
0
 40
0
 40
0
 40
0
 40
1
 40
1
 40
1
 40
1
 10
157.917808
 20
36.934063
 30
0.0
 10
157.870573
 20
36.880887
 30
0.0
 10
157.792083
 20
36.807913
 30
0.0
 10
157.682339
 20
36.715140
 30
0.0
  0
SPLINE
  5
342
100
AcDbEntity
  8
Drawing1
 62
7
100
AcDbSpline
 70
8
 71
3
 72
8
 73
4
 74
0
 40
0
 40
0
 40
0
 40
0
 40
1
 40
1
 40
1
 40
1
 10
157.682339
 20
36.715140
 30
0.0
 10
157.590697
 20
36.638206
 30
0.0
 10
157.531865
 20
36.586021
 30
0.0
 10
157.505844
 20
36.558585
 30
0.0
  0
SPLINE
  5
343
100
AcDbEntity
  8
Drawing1
 62
7
100
AcDbSpline
 70
8
 71
3
 72
8
 73
4
 74
0
 40
0
 40
0
 40
0
 40
0
 40
1
 40
1
 40
1
 40
1
 10
157.505844
 20
36.558585
 30
0.0
 10
157.479821
 20
36.531149
 30
0.0
 10
157.458325
 20
36.503571
 30
0.0
 10
157.441355
 20
36.475853
 30
0.0
  0
LINE
  5
344
100
AcDbEntity
  8
Drawing1
 62
7
100
AcDbLine
 10
157.441355
 20
36.475853
 30
0.0
 11
158.051453
 21
36.475853
 31
0.0
  0
LINE
  5
345
100
AcDbEntity
  8
Drawing1
 62
7
100
AcDbLine
 10
158.300658
 20
36.329056
 30
0.0
 11
158.300658
 21
36.503006
 31
0.0
  0
LINE
  5
346
100
AcDbEntity
  8
Drawing1
 62
7
100
AcDbLine
 10
158.300658
 20
36.503006
 30
0.0
 11
158.474608
 21
36.503006
 31
0.0
  0
LINE
  5
347
100
AcDbEntity
  8
Drawing1
 62
7
100
AcDbLine
 10
158.474608
 20
36.503006
 30
0.0
 11
158.474608
 21
36.329056
 31
0.0
  0
LINE
  5
348
100
AcDbEntity
  8
Drawing1
 62
7
100
AcDbLine
 10
158.474608
 20
36.329056
 30
0.0
 11
158.300658
 21
36.329056
 31
0.0
  0
LINE
  5
349
100
AcDbEntity
  8
Drawing1
 62
7
100
AcDbLine
 10
159.187672
 20
36.329056
 30
0.0
 11
159.187672
 21
36.626892
 31
0.0
  0
LINE
  5
34a
100
AcDbEntity
  8
Drawing1
 62
7
100
AcDbLine
 10
159.187672
 20
36.626892
 30
0.0
 11
158.648002
 21
36.626892
 31
0.0
  0
LINE
  5
34b
100
AcDbEntity
  8
Drawing1
 62
7
100
AcDbLine
 10
158.648002
 20
36.626892
 30
0.0
 11
158.648002
 21
36.766901
 31
0.0
  0
LINE
  5
34c
100
AcDbEntity
  8
Drawing1
 62
7
100
AcDbLine
 10
158.648002
 20
36.766901
 30
0.0
 11
159.215674
 21
37.573011
 31
0.0
  0
LINE
  5
34d
100
AcDbEntity
  8
Drawing1
 62
7
100
AcDbLine
 10
159.215674
 20
37.573011
 30
0.0
 11
159.340409
 21
37.573011
 31
0.0
  0
LINE
  5
34e
100
AcDbEntity
  8
Drawing1
 62
7
100
AcDbLine
 10
159.340409
 20
37.573011
 30
0.0
 11
159.340409
 21
36.766901
 31
0.0
  0
LINE
  5
34f
100
AcDbEntity
  8
Drawing1
 62
7
100
AcDbLine
 10
159.340409
 20
36.766901
 30
0.0
 11
159.508419
 21
36.766901
 31
0.0
  0
LINE
  5
350
100
AcDbEntity
  8
Drawing1
 62
7
100
AcDbLine
 10
159.508419
 20
36.766901
 30
0.0
 11
159.508419
 21
36.626892
 31
0.0
  0
LINE
  5
351
100
AcDbEntity
  8
Drawing1
 62
7
100
AcDbLine
 10
159.508419
 20
36.626892
 30
0.0
 11
159.340409
 21
36.626892
 31
0.0
  0
LINE
  5
352
100
AcDbEntity
  8
Drawing1
 62
7
100
AcDbLine
 10
159.340409
 20
36.626892
 30
0.0
 11
159.340409
 21
36.329056
 31
0.0
  0
LINE
  5
353
100
AcDbEntity
  8
Drawing1
 62
7
100
AcDbLine
 10
159.340409
 20
36.329056
 30
0.0
 11
159.187672
 21
36.329056
 31
0.0
  0
LINE
  5
354
100
AcDbEntity
  8
Drawing1
 62
7
100
AcDbLine
 10
159.187672
 20
36.766901
 30
0.0
 11
159.187672
 21
37.327784
 31
0.0
  0
LINE
  5
355
100
AcDbEntity
  8
Drawing1
 62
7
100
AcDbLine
 10
159.187672
 20
37.327784
 30
0.0
 11
158.798193
 21
36.766901
 31
0.0
  0
LINE
  5
356
100
AcDbEntity
  8
Drawing1
 62
7
100
AcDbLine
 10
158.798193
 20
36.766901
 30
0.0
 11
159.187672
 21
36.766901
 31
0.0
  0
LINE
  5
357
100
AcDbEntity
  8
Drawing1
 62
7
100
AcDbLine
 10
159.589614
 20
36.329056
 30
0.0
 11
160.067340
 21
37.573011
 31
0.0
  0
LINE
  5
358
100
AcDbEntity
  8
Drawing1
 62
7
100
AcDbLine
 10
160.067340
 20
37.573011
 30
0.0
 11
160.244685
 21
37.573011
 31
0.0
  0
LINE
  5
359
100
AcDbEntity
  8
Drawing1
 62
7
100
AcDbLine
 10
160.244685
 20
37.573011
 30
0.0
 11
160.753807
 21
36.329056
 31
0.0
  0
LINE
  5
35a
100
AcDbEntity
  8
Drawing1
 62
7
100
AcDbLine
 10
160.753807
 20
36.329056
 30
0.0
 11
160.566280
 21
36.329056
 31
0.0
  0
LINE
  5
35b
100
AcDbEntity
  8
Drawing1
 62
7
100
AcDbLine
 10
160.566280
 20
36.329056
 30
0.0
 11
160.421180
 21
36.705806
 31
0.0
  0
LINE
  5
35c
100
AcDbEntity
  8
Drawing1
 62
7
100
AcDbLine
 10
160.421180
 20
36.705806
 30
0.0
 11
159.901027
 21
36.705806
 31
0.0
  0
LINE
  5
35d
100
AcDbEntity
  8
Drawing1
 62
7
100
AcDbLine
 10
159.901027
 20
36.705806
 30
0.0
 11
159.764412
 21
36.329056
 31
0.0
  0
LINE
  5
35e
100
AcDbEntity
  8
Drawing1
 62
7
100
AcDbLine
 10
159.764412
 20
36.329056
 30
0.0
 11
159.589614
 21
36.329056
 31
0.0
  0
LINE
  5
35f
100
AcDbEntity
  8
Drawing1
 62
7
100
AcDbLine
 10
159.948545
 20
36.839875
 30
0.0
 11
160.370268
 21
36.839875
 31
0.0
  0
LINE
  5
360
100
AcDbEntity
  8
Drawing1
 62
7
100
AcDbLine
 10
160.370268
 20
36.839875
 30
0.0
 11
160.240442
 21
37.184381
 31
0.0
  0
SPLINE
  5
361
100
AcDbEntity
  8
Drawing1
 62
7
100
AcDbSpline
 70
8
 71
3
 72
8
 73
4
 74
0
 40
0
 40
0
 40
0
 40
0
 40
1
 40
1
 40
1
 40
1
 10
160.240442
 20
37.184381
 30
0.0
 10
160.200843
 20
37.289033
 30
0.0
 10
160.171427
 20
37.375018
 30
0.0
 10
160.152194
 20
37.442337
 30
0.0
  0
SPLINE
  5
362
100
AcDbEntity
  8
Drawing1
 62
7
100
AcDbSpline
 70
8
 71
3
 72
8
 73
4
 74
0
 40
0
 40
0
 40
0
 40
0
 40
1
 40
1
 40
1
 40
1
 10
160.152194
 20
37.442337
 30
0.0
 10
160.136354
 20
37.362573
 30
0.0
 10
160.114009
 20
37.283376
 30
0.0
 10
160.085160
 20
37.204746
 30
0.0
  0
LINE
  5
363
100
AcDbEntity
  8
Drawing1
 62
7
100
AcDbLine
 10
160.085160
 20
37.204746
 30
0.0
 11
159.948545
 21
36.839875
 31
0.0
  0
ENDSEC
  0
SECTION
  2
OBJECTS
  0
DICTIONARY
  5
C
330
0
100
AcDbDictionary
  3
ACAD_GROUP
350
D
  3
ACAD_MLINESTYLE
350
17
  0
DICTIONARY
  5
D
330
C
100
AcDbDictionary
  0
DICTIONARY
  5
1A
330
C
100
AcDbDictionary
  0
DICTIONARY
  5
17
330
C
100
AcDbDictionary
  3
STANDARD
350
18
  0
DICTIONARY
  5
19
330
C
100
AcDbDictionary
  0
ENDSEC
  0
EOF
